<svg width="267" height="164" viewBox="0 0 267 164" fill="none" xmlns="http://www.w3.org/2000/svg">
<g clip-path="url(#clip0_52_4735)">
<path d="M131.991 164C131.086 164 130.241 163.758 129.457 163.334L121.43 158.554C120.223 157.888 120.826 157.646 121.188 157.525C122.818 156.98 123.119 156.859 124.809 155.891C124.99 155.77 125.232 155.83 125.413 155.951L131.569 159.643C131.81 159.764 132.112 159.764 132.293 159.643L156.434 145.663C156.676 145.542 156.796 145.3 156.796 144.998V117.1C156.796 116.797 156.676 116.555 156.434 116.434L132.353 102.515C132.112 102.394 131.81 102.394 131.629 102.515L107.549 116.434C107.307 116.555 107.186 116.858 107.186 117.1V144.998C107.186 145.24 107.307 145.542 107.549 145.663L114.127 149.476C117.688 151.292 119.921 149.173 119.921 147.055V119.52C119.921 119.157 120.223 118.794 120.645 118.794H123.723C124.085 118.794 124.447 119.097 124.447 119.52V147.055C124.447 151.836 121.852 154.62 117.326 154.62C115.938 154.62 114.851 154.62 111.773 153.107L105.436 149.476C103.867 148.568 102.901 146.874 102.901 145.058V117.16C102.901 115.345 103.867 113.65 105.436 112.742L129.577 98.7631C131.086 97.9159 133.138 97.9159 134.647 98.7631L158.788 112.742C160.357 113.65 161.323 115.345 161.323 117.16V145.058C161.323 146.874 160.357 148.568 158.788 149.476L134.647 163.455C133.742 163.758 132.836 164 131.991 164Z" fill="#5FA04E"/>
<path d="M139.415 144.756C128.853 144.756 126.68 139.914 126.68 135.799C126.68 135.436 126.982 135.073 127.404 135.073H130.543C130.905 135.073 131.207 135.315 131.207 135.678C131.689 138.886 133.078 140.459 139.475 140.459C144.545 140.459 146.717 139.309 146.717 136.586C146.717 135.013 146.114 133.863 138.208 133.076C131.629 132.41 127.525 130.958 127.525 125.693C127.525 120.791 131.629 117.886 138.509 117.886C146.234 117.886 150.037 120.549 150.519 126.359C150.519 126.54 150.459 126.722 150.338 126.903C150.218 127.024 150.037 127.145 149.856 127.145H146.657C146.355 127.145 146.053 126.903 145.993 126.601C145.269 123.272 143.398 122.183 138.449 122.183C132.896 122.183 132.233 124.12 132.233 125.572C132.233 127.327 133.017 127.872 140.501 128.84C147.924 129.808 151.425 131.2 151.425 136.465C151.425 141.73 147.079 144.756 139.415 144.756Z" fill="#5FA04E"/>
<path d="M174.178 115.466C174.178 118.007 172.065 120.125 169.53 120.125C166.996 120.125 164.883 118.068 164.883 115.466C164.883 112.803 167.056 110.806 169.53 110.806C172.065 110.806 174.178 112.863 174.178 115.466ZM165.668 115.466C165.668 117.644 167.418 119.399 169.53 119.399C171.703 119.399 173.453 117.584 173.453 115.466C173.453 113.287 171.703 111.593 169.53 111.593C167.418 111.593 165.668 113.287 165.668 115.466ZM167.78 112.863H169.591C170.194 112.863 171.401 112.863 171.401 114.255C171.401 115.224 170.798 115.405 170.436 115.526C171.16 115.587 171.22 116.071 171.281 116.737C171.341 117.16 171.401 117.886 171.522 118.128H170.436C170.436 117.886 170.255 116.555 170.255 116.494C170.194 116.192 170.074 116.071 169.712 116.071H168.806V118.189H167.78V112.863ZM168.806 115.163H169.591C170.255 115.163 170.375 114.679 170.375 114.437C170.375 113.711 169.893 113.711 169.591 113.711H168.746V115.163H168.806Z" fill="#5FA04E"/>
<path fill-rule="evenodd" clip-rule="evenodd" d="M57.2746 54.828C57.2746 53.7387 56.6711 52.71 55.7055 52.1653L30.1763 37.3387C29.7538 37.0967 29.271 36.9756 28.7882 36.9151C28.7278 36.9151 28.5468 36.9151 28.5468 36.9151C28.064 36.9151 27.5811 37.0967 27.1587 37.3387L1.56917 52.1048C0.603526 52.6494 0 53.6782 0 54.828L0.0603526 94.5269C0.0603526 95.0716 0.362116 95.6162 0.844937 95.8583C1.32776 96.1609 1.93128 96.1609 2.35375 95.8583L17.5626 87.1439C18.5283 86.5993 19.1318 85.5705 19.1318 84.4812V65.9026C19.1318 64.8133 19.7353 63.7845 20.7009 63.2399L27.1587 59.4878C27.6415 59.1852 28.1847 59.0642 28.7278 59.0642C29.271 59.0642 29.8142 59.1852 30.2367 59.4878L36.6944 63.2399C37.66 63.7845 38.2636 64.8133 38.2636 65.9026V84.4812C38.2636 85.5705 38.8671 86.5993 39.8327 87.1439L54.9209 95.8583C55.4037 96.1609 56.0072 96.1609 56.4901 95.8583C56.9729 95.6162 57.2746 95.0716 57.2746 94.5269V54.828Z" fill="#333333"/>
<path fill-rule="evenodd" clip-rule="evenodd" d="M180.334 0.18155C179.851 -0.0605166 179.247 -0.0605166 178.825 0.18155C178.342 0.484133 178.04 0.968266 178.04 1.51292V40.8487C178.04 41.2118 177.859 41.5749 177.497 41.817C177.135 41.9985 176.773 41.9985 176.411 41.817L170.014 38.1255C169.048 37.5808 167.901 37.5808 166.936 38.1255L141.346 52.952C140.38 53.4967 139.777 54.5255 139.777 55.6148V85.2074C139.777 86.2967 140.38 87.3255 141.346 87.8701L166.936 102.697C167.901 103.241 169.048 103.241 170.014 102.697L195.603 87.8701C196.569 87.3255 197.172 86.2967 197.172 85.2074V11.4376C197.172 10.2878 196.569 9.25904 195.603 8.71439L180.334 0.18155ZM177.92 75.4642C177.92 75.7668 177.799 76.0089 177.558 76.1299L168.806 81.2133C168.565 81.3343 168.263 81.3343 168.022 81.2133L159.271 76.1299C159.029 76.0089 158.909 75.7063 158.909 75.4642V65.2974C158.909 64.9948 159.029 64.7528 159.271 64.6317L168.022 59.5483C168.263 59.4273 168.565 59.4273 168.806 59.5483L177.558 64.6317C177.799 64.7528 177.92 65.0554 177.92 65.2974V75.4642Z" fill="#333333"/>
<path fill-rule="evenodd" clip-rule="evenodd" d="M265.491 65.0554C266.457 64.5107 267 63.4819 267 62.3926V55.1911C267 54.1018 266.397 53.0731 265.491 52.5284L240.083 37.7624C239.117 37.2177 237.971 37.2177 237.005 37.7624L211.415 52.5889C210.45 53.1336 209.846 54.1624 209.846 55.2517V84.8443C209.846 85.9336 210.45 86.9624 211.415 87.507L236.824 102.031C237.789 102.576 238.936 102.576 239.841 102.031L255.231 93.4376C255.714 93.1956 256.016 92.6509 256.016 92.1063C256.016 91.5616 255.714 91.017 255.231 90.7749L229.521 75.9483C229.038 75.6458 228.737 75.1616 228.737 74.617V65.3579C228.737 64.8133 229.038 64.2686 229.521 64.0266L237.548 59.4273C238.031 59.1247 238.634 59.1247 239.117 59.4273L247.144 64.0266C247.627 64.3292 247.929 64.8133 247.929 65.3579V72.6199C247.929 73.1646 248.23 73.7092 248.713 73.9513C249.196 74.2539 249.8 74.2539 250.282 73.9513L265.491 65.0554Z" fill="#333333"/>
<path fill-rule="evenodd" clip-rule="evenodd" d="M238.152 63.6635C238.333 63.5424 238.574 63.5424 238.755 63.6635L243.644 66.5077C243.825 66.6288 243.946 66.8103 243.946 67.0524V72.741C243.946 72.983 243.825 73.1646 243.644 73.2856L238.755 76.1299C238.574 76.2509 238.333 76.2509 238.152 76.1299L233.263 73.2856C233.082 73.1646 232.961 72.983 232.961 72.741V67.0524C232.961 66.8103 233.082 66.6288 233.263 66.5077L238.152 63.6635Z" fill="#5FA04E"/>
<path fill-rule="evenodd" clip-rule="evenodd" d="M96.9868 37.8834C97.9524 37.3388 99.0991 37.3388 100.065 37.8834L125.413 52.5889C126.379 53.1336 126.922 54.1624 126.922 55.2517V84.6022C126.922 85.6915 126.318 86.7203 125.413 87.265L100.065 101.97C99.0991 102.515 97.9524 102.515 96.9868 101.97L71.6387 87.265C70.6731 86.7203 70.1299 85.6915 70.1299 84.6022V55.1912C70.1299 54.1019 70.7334 53.0731 71.6387 52.5284L96.9868 37.8834Z" fill="url(#paint0_linear_52_4735)"/>
<path opacity="0.66" d="M125.292 52.5284L100.065 37.8229C99.8234 37.7019 99.5216 37.5808 99.2802 37.5203L70.7334 86.5388C70.9748 86.8414 71.2766 87.0834 71.5783 87.265L96.9868 101.971C97.7714 102.394 98.6163 102.515 99.4009 102.213L126.077 53.2546C125.896 52.9521 125.594 52.71 125.292 52.5284Z" fill="#B4B4B4"/>
<path d="M100.004 101.97L125.292 87.265C126.258 86.7203 126.68 85.6915 126.68 84.6022V84.4812L99.2803 37.5808C98.4957 37.3388 97.6508 37.4598 96.9265 37.8834L71.8198 52.4074L99.0992 102.273C99.4613 102.213 99.7631 102.092 100.004 101.97Z" fill="url(#paint1_linear_52_4735)"/>
</g>
<defs>
<linearGradient id="paint0_linear_52_4735" x1="70.1168" y1="69.9141" x2="126.971" y2="69.9141" gradientUnits="userSpaceOnUse">
<stop offset="0.00530134"/>
<stop offset="0.1938" stop-color="#171717"/>
<stop offset="0.5423" stop-color="#3D3D3D"/>
<stop offset="0.8235" stop-color="#545454"/>
<stop offset="1" stop-color="#5C5C5C"/>
</linearGradient>
<linearGradient id="paint1_linear_52_4735" x1="69.7238" y1="69.8724" x2="128.373" y2="69.8724" gradientUnits="userSpaceOnUse">
<stop stop-color="#5C5C5C"/>
<stop offset="0.1765" stop-color="#545454"/>
<stop offset="0.4577" stop-color="#3D3D3D"/>
<stop offset="0.8062" stop-color="#171717"/>
<stop offset="0.9947"/>
</linearGradient>
<clipPath id="clip0_52_4735">
<rect width="267" height="164" fill="white"/>
</clipPath>
</defs>
</svg>
