<svg width="289" height="177" viewBox="0 0 289 177" fill="none" xmlns="http://www.w3.org/2000/svg">
<g clip-path="url(#clip0_52_4758)">
<path d="M142.802 177C141.822 177 140.907 176.739 140.058 176.281L131.37 171.12C130.063 170.401 130.717 170.14 131.108 170.009C132.872 169.421 133.199 169.29 135.028 168.245C135.224 168.114 135.485 168.179 135.681 168.31L142.344 172.296C142.606 172.426 142.932 172.426 143.128 172.296L169.193 157.203C169.455 157.072 169.585 156.811 169.585 156.484V126.363C169.585 126.037 169.455 125.775 169.193 125.645L143.128 110.617C142.867 110.486 142.54 110.486 142.344 110.617L116.28 125.645C116.018 125.775 115.888 126.102 115.888 126.363V156.484C115.888 156.745 116.018 157.072 116.28 157.203L123.4 161.319C127.254 163.279 129.671 160.992 129.671 158.705V128.977C129.671 128.585 129.998 128.193 130.455 128.193H133.787C134.179 128.193 134.571 128.519 134.571 128.977V158.705C134.571 163.867 131.762 166.873 126.862 166.873C125.36 166.873 124.184 166.873 120.852 165.239L113.993 161.319C112.295 160.339 111.25 158.509 111.25 156.549V126.429C111.25 124.468 112.295 122.639 113.993 121.659L140.058 106.566C141.691 105.651 143.912 105.651 145.545 106.566L171.61 121.659C173.309 122.639 174.354 124.468 174.354 126.429V156.549C174.354 158.509 173.309 160.339 171.61 161.319L145.545 176.412C144.761 176.739 143.782 177 142.802 177Z" fill="#5FA04E"/>
<path d="M150.902 156.288C139.47 156.288 137.118 151.061 137.118 146.618C137.118 146.226 137.445 145.834 137.902 145.834H141.299C141.691 145.834 142.018 146.095 142.018 146.487C142.54 149.95 144.043 151.649 150.967 151.649C156.455 151.649 158.806 150.408 158.806 147.467C158.806 145.769 158.153 144.527 149.595 143.678C142.475 142.959 138.033 141.391 138.033 135.707C138.033 130.414 142.475 127.278 149.922 127.278C158.284 127.278 162.399 130.153 162.922 136.425C162.922 136.621 162.856 136.817 162.726 137.013C162.595 137.144 162.399 137.275 162.203 137.275H158.741C158.414 137.275 158.088 137.013 158.022 136.687C157.238 133.093 155.213 131.917 149.857 131.917C143.847 131.917 143.128 134.008 143.128 135.576C143.128 137.471 143.977 138.059 152.078 139.104C160.113 140.149 163.902 141.652 163.902 147.271C163.902 153.021 159.133 156.288 150.902 156.288Z" fill="#5FA04E"/>
<path d="M188.529 124.664C188.529 127.409 186.243 129.695 183.499 129.695C180.756 129.695 178.469 127.474 178.469 124.664C178.469 121.79 180.821 119.633 183.499 119.633C186.178 119.633 188.529 121.855 188.529 124.664ZM179.253 124.664C179.253 127.017 181.148 128.911 183.434 128.911C185.786 128.911 187.68 126.951 187.68 124.664C187.68 122.312 185.786 120.483 183.434 120.483C181.213 120.483 179.253 122.312 179.253 124.664ZM181.605 121.855H183.565C184.218 121.855 185.524 121.855 185.524 123.358C185.524 124.403 184.871 124.599 184.479 124.73C185.263 124.795 185.328 125.318 185.394 126.037C185.459 126.494 185.524 127.278 185.655 127.539H184.479C184.479 127.278 184.283 125.841 184.283 125.775C184.218 125.449 184.087 125.318 183.695 125.318H182.715V127.605H181.605V121.855ZM182.65 124.338H183.499C184.218 124.338 184.349 123.815 184.349 123.554C184.349 122.77 183.826 122.77 183.499 122.77H182.585V124.338H182.65Z" fill="#5FA04E"/>
<path fill-rule="evenodd" clip-rule="evenodd" d="M61.9939 59.196C61.9939 58.0199 61.3406 56.9092 60.2954 56.3212L32.6628 40.3134C32.2055 40.0521 31.6829 39.9214 31.1603 39.856C31.0949 39.856 30.899 39.856 30.899 39.856C30.3764 39.856 29.8538 40.0521 29.3965 40.3134L1.69846 56.2558C0.653255 56.8439 0 57.9546 0 59.196L0.0653255 102.058C0.0653255 102.646 0.391953 103.234 0.914557 103.495C1.43716 103.822 2.09042 103.822 2.54769 103.495L19.0097 94.0864C20.0549 93.4984 20.7082 92.3876 20.7082 91.2115V71.1528C20.7082 69.9768 21.3614 68.866 22.4066 68.278L29.3965 64.227C29.9191 63.9004 30.507 63.7697 31.0949 63.7697C31.6829 63.7697 32.2708 63.9004 32.7281 64.227L39.7179 68.278C40.7631 68.866 41.4164 69.9768 41.4164 71.1528V91.2115C41.4164 92.3876 42.0696 93.4984 43.1148 94.0864L59.4462 103.495C59.9688 103.822 60.6221 103.822 61.1447 103.495C61.6673 103.234 61.9939 102.646 61.9939 102.058V59.196Z" fill="#333333"/>
<path fill-rule="evenodd" clip-rule="evenodd" d="M195.127 0.196013C194.605 -0.0653378 193.951 -0.0653378 193.494 0.196013C192.972 0.522702 192.645 1.0454 192.645 1.63344V44.103C192.645 44.495 192.449 44.887 192.057 45.1484C191.665 45.3444 191.273 45.3444 190.881 45.1484L183.957 41.1628C182.911 40.5748 181.67 40.5748 180.625 41.1628L152.927 57.1705C151.882 57.7586 151.229 58.8693 151.229 60.0454V91.9956C151.229 93.1717 151.882 94.2824 152.927 94.8704L180.625 110.878C181.67 111.466 182.911 111.466 183.957 110.878L211.655 94.8704C212.7 94.2824 213.353 93.1717 213.353 91.9956V12.3488C213.353 11.1074 212.7 9.99668 211.655 9.40864L195.127 0.196013ZM192.58 81.4762C192.58 81.8029 192.449 82.0642 192.188 82.1949L182.715 87.6833C182.454 87.814 182.127 87.814 181.866 87.6833L172.394 82.1949C172.133 82.0642 172.002 81.7375 172.002 81.4762V70.4995C172.002 70.1728 172.133 69.9114 172.394 69.7807L181.866 64.2924C182.127 64.1617 182.454 64.1617 182.715 64.2924L192.188 69.7807C192.449 69.9114 192.58 70.2381 192.58 70.4995V81.4762Z" fill="#333333"/>
<path fill-rule="evenodd" clip-rule="evenodd" d="M287.301 70.2381C288.347 69.6501 288.935 68.5393 288.935 67.3632V59.588C288.935 58.412 288.281 57.3012 287.301 56.7132L259.799 40.7708C258.754 40.1827 257.513 40.1827 256.468 40.7708L228.77 56.7785C227.725 57.3666 227.071 58.4773 227.071 59.6534V91.6035C227.071 92.7796 227.725 93.8904 228.77 94.4784L256.272 110.159C257.317 110.748 258.558 110.748 259.538 110.159L276.196 100.882C276.719 100.62 277.045 100.032 277.045 99.4441C277.045 98.856 276.719 98.268 276.196 98.0066L248.367 81.9989C247.845 81.6722 247.518 81.1495 247.518 80.5615V70.5648C247.518 69.9767 247.845 69.3887 248.367 69.1274L257.056 64.1617C257.578 63.835 258.232 63.835 258.754 64.1617L267.442 69.1274C267.965 69.4541 268.292 69.9767 268.292 70.5648V78.4053C268.292 78.9934 268.618 79.5814 269.141 79.8428C269.664 80.1694 270.317 80.1694 270.839 79.8428L287.301 70.2381Z" fill="#333333"/>
<path fill-rule="evenodd" clip-rule="evenodd" d="M257.709 68.7353C257.905 68.6047 258.166 68.6047 258.362 68.7353L263.653 71.8062C263.849 71.9369 263.98 72.1329 263.98 72.3943V78.536C263.98 78.7973 263.849 78.9934 263.653 79.124L258.362 82.1949C258.166 82.3256 257.905 82.3256 257.709 82.1949L252.417 79.124C252.221 78.9934 252.091 78.7973 252.091 78.536V72.3943C252.091 72.1329 252.221 71.9369 252.417 71.8062L257.709 68.7353Z" fill="#5FA04E"/>
<path d="M108.31 40.9014C107.264 40.3134 106.023 40.3134 104.978 40.9014L77.4759 56.7785C76.4307 57.3665 75.8428 58.4773 75.8428 59.6534V91.4729C75.8428 92.6489 76.496 93.7597 77.4759 94.3477L104.978 110.225C106.023 110.813 107.264 110.813 108.31 110.225L135.812 94.3477C136.857 93.7597 137.445 92.6489 137.445 91.4729V59.6534C137.445 58.4773 136.791 57.3665 135.812 56.7785L108.31 40.9014Z" fill="url(#paint0_linear_52_4758)"/>
<path d="M135.877 56.7785L108.244 40.9014C107.983 40.7708 107.656 40.6401 107.395 40.5747L76.5 93.5C76.7613 93.8267 77.1734 94.304 77.5 94.5L104.978 110.225C105.762 110.682 106.676 110.813 107.526 110.551L136.595 57.3665C136.399 57.1052 136.138 56.9092 135.877 56.7785Z" fill="url(#paint1_linear_52_4758)"/>
<path d="M104.063 35.0864L103.671 35.2824H104.194L104.063 35.0864Z" fill="url(#paint2_linear_52_4758)"/>
<path d="M135.809 94.3477C136.593 93.8904 137.3 93.033 137.3 92L107.196 40.5094C106.412 40.3787 105.563 40.4441 104.844 40.9014L77.4077 56.7132L107 110.682C107.392 110.617 107.849 110.486 108.241 110.29L135.809 94.3477Z" fill="url(#paint3_linear_52_4758)"/>
</g>
<defs>
<linearGradient id="paint0_linear_52_4758" x1="117.844" y1="52.726" x2="92.9708" y2="103.459" gradientUnits="userSpaceOnUse">
<stop stop-color="#3F873F"/>
<stop offset="0.3296" stop-color="#3F8B3D"/>
<stop offset="0.6367" stop-color="#3E9638"/>
<stop offset="0.9341" stop-color="#3DA92E"/>
<stop offset="1" stop-color="#3DAE2B"/>
</linearGradient>
<linearGradient id="paint1_linear_52_4758" x1="102.464" y1="79.2785" x2="172.246" y2="27.7298" gradientUnits="userSpaceOnUse">
<stop offset="0.1376" stop-color="#3F873F"/>
<stop offset="0.4016" stop-color="#52A044"/>
<stop offset="0.7129" stop-color="#64B749"/>
<stop offset="0.9081" stop-color="#6ABF4B"/>
</linearGradient>
<linearGradient id="paint2_linear_52_4758" x1="74.8343" y1="35.1631" x2="138.473" y2="35.1631" gradientUnits="userSpaceOnUse">
<stop offset="0.0919165" stop-color="#6ABF4B"/>
<stop offset="0.2871" stop-color="#64B749"/>
<stop offset="0.5984" stop-color="#52A044"/>
<stop offset="0.8624" stop-color="#3F873F"/>
</linearGradient>
<linearGradient id="paint3_linear_52_4758" x1="74.8346" y1="75.5531" x2="138.473" y2="75.5531" gradientUnits="userSpaceOnUse">
<stop offset="0.0919165" stop-color="#6ABF4B"/>
<stop offset="0.2871" stop-color="#64B749"/>
<stop offset="0.5984" stop-color="#52A044"/>
<stop offset="0.8624" stop-color="#3F873F"/>
</linearGradient>
<clipPath id="clip0_52_4758">
<rect width="289" height="177" fill="white"/>
</clipPath>
</defs>
</svg>
