<svg width="320" height="196" viewBox="0 0 320 196" fill="none" xmlns="http://www.w3.org/2000/svg">
<g clip-path="url(#clip0_52_4809)">
<path d="M158.119 196C157.034 196 156.022 195.711 155.081 195.204L145.461 189.488C144.014 188.693 144.738 188.403 145.172 188.258C147.125 187.607 147.486 187.463 149.512 186.305C149.729 186.16 150.018 186.233 150.235 186.377L157.613 190.791C157.902 190.935 158.264 190.935 158.481 190.791L187.342 174.078C187.631 173.933 187.776 173.643 187.776 173.282V139.928C187.776 139.566 187.631 139.276 187.342 139.132L158.481 122.491C158.192 122.346 157.83 122.346 157.613 122.491L128.752 139.132C128.463 139.276 128.318 139.638 128.318 139.928V173.282C128.318 173.571 128.463 173.933 128.752 174.078L136.636 178.636C140.904 180.806 143.58 178.274 143.58 175.742V142.822C143.58 142.388 143.942 141.953 144.448 141.953H148.137C148.571 141.953 149.005 142.315 149.005 142.822V175.742C149.005 181.457 145.895 184.786 140.47 184.786C138.806 184.786 137.504 184.786 133.816 182.977L126.221 178.636C124.34 177.55 123.183 175.525 123.183 173.354V140C123.183 137.829 124.34 135.804 126.221 134.718L155.081 118.005C156.89 116.992 159.349 116.992 161.157 118.005L190.018 134.718C191.899 135.804 193.056 137.829 193.056 140V173.354C193.056 175.525 191.899 177.55 190.018 178.636L161.157 195.349C160.289 195.711 159.204 196 158.119 196Z" fill="white"/>
<path d="M167.088 173.065C154.43 173.065 151.826 167.276 151.826 162.357C151.826 161.922 152.188 161.488 152.694 161.488H156.455C156.889 161.488 157.251 161.778 157.251 162.212C157.83 166.046 159.493 167.928 167.161 167.928C173.237 167.928 175.841 166.553 175.841 163.297C175.841 161.416 175.117 160.041 165.642 159.101C157.757 158.305 152.839 156.568 152.839 150.274C152.839 144.413 157.757 140.941 166.003 140.941C175.262 140.941 179.819 144.124 180.398 151.07C180.398 151.287 180.325 151.504 180.181 151.721C180.036 151.866 179.819 152.01 179.602 152.01H175.768C175.407 152.01 175.045 151.721 174.973 151.359C174.105 147.38 171.862 146.077 165.931 146.077C159.276 146.077 158.481 148.393 158.481 150.129C158.481 152.227 159.421 152.879 168.39 154.036C177.287 155.194 181.483 156.858 181.483 163.08C181.483 169.447 176.202 173.065 167.088 173.065Z" fill="white"/>
<path d="M208.752 138.047C208.752 141.085 206.22 143.618 203.182 143.618C200.144 143.618 197.613 141.158 197.613 138.047C197.613 134.863 200.217 132.475 203.182 132.475C206.148 132.475 208.752 134.935 208.752 138.047ZM198.481 138.047C198.481 140.651 200.578 142.749 203.11 142.749C205.714 142.749 207.812 140.579 207.812 138.047C207.812 135.442 205.714 133.416 203.11 133.416C200.651 133.416 198.481 135.442 198.481 138.047ZM201.085 134.935H203.255C203.978 134.935 205.425 134.935 205.425 136.599C205.425 137.757 204.701 137.974 204.267 138.119C205.135 138.191 205.208 138.77 205.28 139.566C205.352 140.072 205.425 140.941 205.569 141.23H204.267C204.267 140.941 204.05 139.349 204.05 139.276C203.978 138.915 203.833 138.77 203.399 138.77H202.314V141.302H201.085V134.935ZM202.242 137.685H203.182C203.978 137.685 204.123 137.106 204.123 136.817C204.123 135.948 203.544 135.948 203.182 135.948H202.17V137.685H202.242Z" fill="white"/>
<path fill-rule="evenodd" clip-rule="evenodd" d="M68.6438 65.5504C68.6438 64.248 67.9204 63.0181 66.7631 62.3669L36.1664 44.6408C35.66 44.3514 35.0814 44.2067 34.5027 44.1343C34.4304 44.1343 34.2134 44.1343 34.2134 44.1343C33.6347 44.1343 33.0561 44.3514 32.5497 44.6408L1.88065 62.2945C0.723327 62.9457 0 64.1757 0 65.5504L0.0723327 113.013C0.0723327 113.664 0.433996 114.315 1.01266 114.605C1.59132 114.966 2.31465 114.966 2.82098 114.605L21.0488 104.186C22.2062 103.535 22.9295 102.305 22.9295 101.003V78.7907C22.9295 77.4883 23.6528 76.2584 24.8101 75.6072L32.5497 71.1214C33.1284 70.7597 33.7794 70.615 34.4304 70.615C35.0814 70.615 35.7324 70.7597 36.2387 71.1214L43.9783 75.6072C45.1356 76.2584 45.859 77.4883 45.859 78.7907V101.003C45.859 102.305 46.5823 103.535 47.7396 104.186L65.8228 114.605C66.4015 114.966 67.1248 114.966 67.7034 114.605C68.2821 114.315 68.6438 113.664 68.6438 113.013V65.5504Z" fill="white"/>
<path fill-rule="evenodd" clip-rule="evenodd" d="M216.058 0.217054C215.479 -0.0723514 214.756 -0.0723514 214.249 0.217054C213.671 0.578811 213.309 1.15762 213.309 1.80879V48.8372C213.309 49.2713 213.092 49.7054 212.658 49.9948C212.224 50.2119 211.79 50.2119 211.356 49.9948L203.689 45.5814C202.532 44.9302 201.157 44.9302 200 45.5814L169.331 63.3075C168.174 63.9587 167.45 65.1886 167.45 66.491V101.871C167.45 103.173 168.174 104.403 169.331 105.054L200 122.78C201.157 123.432 202.532 123.432 203.689 122.78L234.358 105.054C235.515 104.403 236.239 103.173 236.239 101.871V13.6744C236.239 12.2997 235.515 11.0698 234.358 10.4186L216.058 0.217054ZM213.237 90.2222C213.237 90.584 213.092 90.8734 212.803 91.0181L202.315 97.0956C202.025 97.2403 201.664 97.2403 201.374 97.0956L190.886 91.0181C190.597 90.8734 190.452 90.5116 190.452 90.2222V78.0672C190.452 77.7054 190.597 77.416 190.886 77.2713L201.374 71.1938C201.664 71.0491 202.025 71.0491 202.315 71.1938L212.803 77.2713C213.092 77.416 213.237 77.7778 213.237 78.0672V90.2222Z" fill="white"/>
<path fill-rule="evenodd" clip-rule="evenodd" d="M318.119 77.7778C319.277 77.1266 319.928 75.8967 319.928 74.5943V65.9845C319.928 64.6822 319.204 63.4522 318.119 62.8011L287.667 45.1473C286.51 44.4961 285.136 44.4961 283.978 45.1473L253.309 62.8734C252.152 63.5246 251.429 64.7545 251.429 66.0569V101.437C251.429 102.739 252.152 103.969 253.309 104.62L283.761 121.985C284.919 122.636 286.293 122.636 287.378 121.985L305.823 111.711C306.402 111.421 306.763 110.77 306.763 110.119C306.763 109.468 306.402 108.817 305.823 108.527L275.009 90.801C274.431 90.4393 274.069 89.8605 274.069 89.2093V78.1395C274.069 77.4884 274.431 76.8372 275.009 76.5478L284.629 71.0491C285.208 70.6874 285.931 70.6874 286.51 71.0491L296.13 76.5478C296.709 76.9096 297.071 77.4884 297.071 78.1395V86.8217C297.071 87.4729 297.432 88.124 298.011 88.4134C298.59 88.7752 299.313 88.7752 299.892 88.4134L318.119 77.7778Z" fill="white"/>
<path fill-rule="evenodd" clip-rule="evenodd" d="M285.353 76.1137C285.57 75.969 285.859 75.969 286.076 76.1137L291.935 79.5142C292.152 79.6589 292.297 79.876 292.297 80.1654V86.9664C292.297 87.2558 292.152 87.4729 291.935 87.6176L286.076 91.0181C285.859 91.1628 285.57 91.1628 285.353 91.0181L279.494 87.6176C279.277 87.4729 279.132 87.2558 279.132 86.9664V80.1654C279.132 79.876 279.277 79.6589 279.494 79.5142L285.353 76.1137Z" fill="white"/>
<path fill-rule="evenodd" clip-rule="evenodd" d="M116.023 45.5095C117.18 44.8583 118.554 44.8583 119.712 45.5095L150.091 63.0909C151.249 63.742 151.9 64.972 151.9 66.2743V101.292C151.9 102.595 151.176 103.825 150.091 104.476L119.712 122.057C118.554 122.708 117.18 122.708 116.023 122.057L85.6428 104.476C84.4855 103.825 83.8345 102.595 83.8345 101.292V66.202C83.8345 64.8997 84.5578 63.6697 85.6428 63.0185L116.023 45.5095Z" fill="url(#paint0_linear_52_4809)"/>
<path opacity="0.66" d="M149.946 63.0181L119.711 45.4367C119.421 45.292 119.06 45.1473 118.771 45.075L84.5571 103.607C84.8465 103.969 85.2081 104.258 85.5698 104.475L116.022 122.057C116.962 122.563 117.975 122.708 118.915 122.346L150.886 63.814C150.669 63.5246 150.38 63.2352 149.946 63.0181Z" fill="#4B4B4B"/>
<path d="M119.638 122.057L149.946 104.475C151.103 103.824 151.609 102.594 151.609 101.292V101.147L118.77 45.0749C117.83 44.7855 116.817 44.9302 115.949 45.4367L85.8589 62.801L118.553 122.419C118.987 122.346 119.349 122.274 119.638 122.057Z" fill="url(#paint1_linear_52_4809)"/>
</g>
<defs>
<linearGradient id="paint0_linear_52_4809" x1="83.8276" y1="83.7733" x2="151.968" y2="83.7733" gradientUnits="userSpaceOnUse">
<stop offset="0.00530134" stop-color="white"/>
<stop offset="0.1938" stop-color="#E8E8E8"/>
<stop offset="0.5423" stop-color="#C2C2C2"/>
<stop offset="0.8235" stop-color="#ABABAB"/>
<stop offset="1" stop-color="#A3A3A3"/>
</linearGradient>
<linearGradient id="paint1_linear_52_4809" x1="83.3556" y1="83.7229" x2="153.647" y2="83.7229" gradientUnits="userSpaceOnUse">
<stop stop-color="#A3A3A3"/>
<stop offset="0.1765" stop-color="#ABABAB"/>
<stop offset="0.4577" stop-color="#C2C2C2"/>
<stop offset="0.8062" stop-color="#E8E8E8"/>
<stop offset="0.9947" stop-color="white"/>
</linearGradient>
<clipPath id="clip0_52_4809">
<rect width="320" height="196" fill="white"/>
</clipPath>
</defs>
</svg>
