<svg width="935" height="134" viewBox="0 0 935 134" fill="none" xmlns="http://www.w3.org/2000/svg">
<rect width="934.03" height="134" rx="10" fill="#ED5393"/>
<path d="M843.756 66.7578L843.297 69.0234H845.816V71.0352H842.916L842.164 75H840.016L840.777 71.0352H838.883L838.141 75H836.041L836.764 71.0352H834.439V69.0234H837.145L837.604 66.7578H835.143V64.7168H837.965L838.717 60.7422H840.855L840.104 64.7168H842.037L842.799 60.7422H844.898L844.137 64.7168H846.48V66.7578H843.756ZM839.264 69.0234H841.178L841.637 66.7578H839.723L839.264 69.0234ZM856.949 75H848.727V60.7227H856.949V63.2031H851.754V66.3379H856.588V68.8184H851.754V72.5H856.949V75ZM871.783 67.7246C871.783 69.3327 871.474 70.6771 870.855 71.7578C870.243 72.832 869.355 73.6426 868.189 74.1895C867.024 74.7298 865.621 75 863.98 75H859.938V60.7227H864.42C865.917 60.7227 867.216 60.9896 868.316 61.5234C869.417 62.0508 870.27 62.8353 870.875 63.877C871.48 64.9121 871.783 66.1947 871.783 67.7246ZM868.639 67.8027C868.639 66.748 868.482 65.8822 868.17 65.2051C867.864 64.5215 867.408 64.0169 866.803 63.6914C866.204 63.3659 865.462 63.2031 864.576 63.2031H862.965V72.5H864.264C865.742 72.5 866.839 72.1061 867.555 71.3184C868.277 70.5306 868.639 69.3587 868.639 67.8027ZM878.941 65.8789C879.814 65.8789 880.589 66.0449 881.266 66.377C881.949 66.709 882.486 67.1973 882.877 67.8418C883.268 68.4863 883.463 69.2806 883.463 70.2246C883.463 71.2533 883.248 72.1419 882.818 72.8906C882.395 73.6328 881.76 74.2025 880.914 74.5996C880.074 74.9967 879.026 75.1953 877.77 75.1953C877.021 75.1953 876.314 75.1302 875.65 75C874.993 74.8763 874.417 74.6842 873.922 74.4238V71.8164C874.417 72.0768 875.009 72.2982 875.699 72.4805C876.396 72.6562 877.05 72.7441 877.662 72.7441C878.261 72.7441 878.766 72.666 879.176 72.5098C879.586 72.347 879.895 72.0996 880.104 71.7676C880.318 71.429 880.426 70.9993 880.426 70.4785C880.426 69.7819 880.191 69.248 879.723 68.877C879.254 68.5059 878.535 68.3203 877.564 68.3203C877.193 68.3203 876.806 68.3561 876.402 68.4277C876.005 68.4993 875.673 68.571 875.406 68.6426L874.205 67.998L874.742 60.7227H882.486V63.2812H877.389L877.125 66.084C877.346 66.0384 877.587 65.9928 877.848 65.9473C878.108 65.9017 878.473 65.8789 878.941 65.8789ZM894.615 63.916C894.615 64.5736 894.479 65.1432 894.205 65.625C893.932 66.1068 893.561 66.5007 893.092 66.8066C892.63 67.1126 892.109 67.3372 891.529 67.4805V67.5391C892.675 67.6823 893.544 68.0339 894.137 68.5938C894.736 69.1536 895.035 69.9023 895.035 70.8398C895.035 71.6732 894.83 72.4186 894.42 73.0762C894.016 73.7337 893.391 74.2513 892.545 74.6289C891.699 75.0065 890.608 75.1953 889.273 75.1953C888.486 75.1953 887.75 75.1302 887.066 75C886.389 74.8763 885.751 74.6842 885.152 74.4238V71.8555C885.764 72.168 886.406 72.4056 887.076 72.5684C887.747 72.7246 888.372 72.8027 888.951 72.8027C890.032 72.8027 890.787 72.6172 891.217 72.2461C891.653 71.8685 891.871 71.3411 891.871 70.6641C891.871 70.2669 891.77 69.9316 891.568 69.6582C891.367 69.3848 891.015 69.1764 890.514 69.0332C890.019 68.89 889.326 68.8184 888.434 68.8184H887.35V66.5039H888.453C889.332 66.5039 889.999 66.4225 890.455 66.2598C890.917 66.0905 891.23 65.8626 891.393 65.5762C891.562 65.2832 891.646 64.9512 891.646 64.5801C891.646 64.0723 891.49 63.6751 891.178 63.3887C890.865 63.1022 890.344 62.959 889.615 62.959C889.16 62.959 888.743 63.0176 888.365 63.1348C887.994 63.2454 887.659 63.3822 887.359 63.5449C887.06 63.7012 886.796 63.8542 886.568 64.0039L885.172 61.9238C885.732 61.5202 886.386 61.1849 887.135 60.918C887.89 60.651 888.788 60.5176 889.83 60.5176C891.301 60.5176 892.467 60.8138 893.326 61.4062C894.186 61.9987 894.615 62.8353 894.615 63.916ZM906.559 66.8164C906.559 67.6367 906.497 68.4505 906.373 69.2578C906.256 70.0651 906.048 70.8268 905.748 71.543C905.449 72.2526 905.029 72.8841 904.488 73.4375C903.948 73.9844 903.261 74.4141 902.428 74.7266C901.594 75.0391 900.585 75.1953 899.4 75.1953C899.12 75.1953 898.792 75.1823 898.414 75.1562C898.036 75.1367 897.724 75.1042 897.477 75.0586V72.6367C897.737 72.7018 898.014 72.7539 898.307 72.793C898.6 72.8255 898.896 72.8418 899.195 72.8418C900.387 72.8418 901.305 72.653 901.949 72.2754C902.6 71.8978 903.056 71.3737 903.316 70.7031C903.583 70.0326 903.736 69.2578 903.775 68.3789H903.658C903.469 68.6914 903.245 68.9746 902.984 69.2285C902.73 69.4759 902.405 69.6745 902.008 69.8242C901.611 69.9674 901.106 70.0391 900.494 70.0391C899.68 70.0391 898.971 69.8633 898.365 69.5117C897.766 69.1536 897.301 68.6393 896.969 67.9688C896.643 67.2917 896.48 66.4746 896.48 65.5176C896.48 64.4824 896.676 63.597 897.066 62.8613C897.464 62.1191 898.027 61.5495 898.756 61.1523C899.485 60.7552 900.344 60.5566 901.334 60.5566C902.063 60.5566 902.743 60.6836 903.375 60.9375C904.007 61.1849 904.56 61.5658 905.035 62.0801C905.517 62.5944 905.891 63.2454 906.158 64.0332C906.425 64.821 906.559 65.7487 906.559 66.8164ZM901.393 62.9785C900.807 62.9785 900.328 63.1803 899.957 63.584C899.586 63.9876 899.4 64.6191 899.4 65.4785C899.4 66.1686 899.56 66.7155 899.879 67.1191C900.198 67.5228 900.683 67.7246 901.334 67.7246C901.783 67.7246 902.174 67.627 902.506 67.4316C902.838 67.2298 903.095 66.9792 903.277 66.6797C903.466 66.3737 903.561 66.0612 903.561 65.7422C903.561 65.4102 903.515 65.0814 903.424 64.7559C903.333 64.4303 903.196 64.1341 903.014 63.8672C902.831 63.6003 902.604 63.3854 902.33 63.2227C902.063 63.0599 901.751 62.9785 901.393 62.9785ZM917.506 63.916C917.506 64.5736 917.369 65.1432 917.096 65.625C916.822 66.1068 916.451 66.5007 915.982 66.8066C915.52 67.1126 914.999 67.3372 914.42 67.4805V67.5391C915.566 67.6823 916.435 68.0339 917.027 68.5938C917.626 69.1536 917.926 69.9023 917.926 70.8398C917.926 71.6732 917.721 72.4186 917.311 73.0762C916.907 73.7337 916.282 74.2513 915.436 74.6289C914.589 75.0065 913.499 75.1953 912.164 75.1953C911.376 75.1953 910.641 75.1302 909.957 75C909.28 74.8763 908.642 74.6842 908.043 74.4238V71.8555C908.655 72.168 909.296 72.4056 909.967 72.5684C910.637 72.7246 911.262 72.8027 911.842 72.8027C912.923 72.8027 913.678 72.6172 914.107 72.2461C914.544 71.8685 914.762 71.3411 914.762 70.6641C914.762 70.2669 914.661 69.9316 914.459 69.6582C914.257 69.3848 913.906 69.1764 913.404 69.0332C912.91 68.89 912.216 68.8184 911.324 68.8184H910.24V66.5039H911.344C912.223 66.5039 912.89 66.4225 913.346 66.2598C913.808 66.0905 914.12 65.8626 914.283 65.5762C914.452 65.2832 914.537 64.9512 914.537 64.5801C914.537 64.0723 914.381 63.6751 914.068 63.3887C913.756 63.1022 913.235 62.959 912.506 62.959C912.05 62.959 911.633 63.0176 911.256 63.1348C910.885 63.2454 910.549 63.3822 910.25 63.5449C909.951 63.7012 909.687 63.8542 909.459 64.0039L908.062 61.9238C908.622 61.5202 909.277 61.1849 910.025 60.918C910.781 60.651 911.679 60.5176 912.721 60.5176C914.192 60.5176 915.357 60.8138 916.217 61.4062C917.076 61.9987 917.506 62.8353 917.506 63.916Z" fill="white"/>
<path d="M817.64 98H934.03V124C934.03 129.523 929.553 134 924.03 134H817.64V98Z" fill="#411526"/>
<path d="M893.232 123.879L893.002 125.012H894.262V126.018H892.812L892.436 128H891.362L891.742 126.018H890.795L890.424 128H889.374L889.736 126.018H888.573V125.012H889.926L890.155 123.879H888.925V122.858H890.336L890.712 120.871H891.781L891.405 122.858H892.372L892.753 120.871H893.803L893.422 122.858H894.594V123.879H893.232ZM890.986 125.012H891.943L892.172 123.879H891.215L890.986 125.012ZM900.37 126.521H899.511V128H898.036V126.521H894.989V125.471L898.119 120.861H899.511V125.349H900.37V126.521ZM898.036 125.349V124.138C898.036 124.024 898.038 123.889 898.041 123.732C898.048 123.576 898.054 123.42 898.061 123.264C898.067 123.107 898.074 122.969 898.08 122.849C898.09 122.725 898.097 122.639 898.1 122.59H898.061C897.999 122.723 897.934 122.854 897.865 122.98C897.797 123.104 897.717 123.234 897.626 123.371L896.318 125.349H898.036ZM904.672 128H903.163V123.869C903.163 123.755 903.165 123.615 903.168 123.449C903.171 123.28 903.176 123.107 903.183 122.932C903.189 122.753 903.196 122.591 903.202 122.448C903.167 122.491 903.093 122.564 902.983 122.668C902.875 122.769 902.774 122.86 902.68 122.941L901.86 123.601L901.132 122.692L903.432 120.861H904.672V128ZM910.395 128H908.886V123.869C908.886 123.755 908.888 123.615 908.891 123.449C908.894 123.28 908.899 123.107 908.905 122.932C908.912 122.753 908.918 122.591 908.925 122.448C908.889 122.491 908.816 122.564 908.705 122.668C908.598 122.769 908.497 122.86 908.403 122.941L907.582 123.601L906.855 122.692L909.154 120.861H910.395V128ZM914.985 123.439C915.421 123.439 915.808 123.522 916.147 123.688C916.488 123.854 916.757 124.099 916.952 124.421C917.148 124.743 917.245 125.14 917.245 125.612C917.245 126.127 917.138 126.571 916.923 126.945C916.711 127.316 916.394 127.601 915.971 127.8C915.551 127.998 915.027 128.098 914.399 128.098C914.024 128.098 913.671 128.065 913.339 128C913.01 127.938 912.722 127.842 912.475 127.712V126.408C912.722 126.538 913.018 126.649 913.363 126.74C913.712 126.828 914.039 126.872 914.345 126.872C914.644 126.872 914.897 126.833 915.102 126.755C915.307 126.674 915.461 126.55 915.566 126.384C915.673 126.215 915.727 126 915.727 125.739C915.727 125.391 915.61 125.124 915.375 124.938C915.141 124.753 914.781 124.66 914.296 124.66C914.111 124.66 913.917 124.678 913.715 124.714C913.516 124.75 913.35 124.785 913.217 124.821L912.616 124.499L912.885 120.861H916.757V122.141H914.208L914.076 123.542C914.187 123.519 914.307 123.496 914.438 123.474C914.568 123.451 914.75 123.439 914.985 123.439ZM923.1 128H918.11V126.95L919.902 125.139C920.263 124.768 920.553 124.458 920.771 124.211C920.992 123.96 921.152 123.732 921.249 123.527C921.35 123.322 921.401 123.103 921.401 122.868C921.401 122.585 921.321 122.373 921.161 122.233C921.005 122.09 920.795 122.019 920.531 122.019C920.255 122.019 919.986 122.082 919.726 122.209C919.465 122.336 919.194 122.517 918.91 122.751L918.09 121.779C918.295 121.604 918.512 121.438 918.739 121.281C918.971 121.125 919.237 121 919.54 120.905C919.846 120.808 920.212 120.759 920.639 120.759C921.108 120.759 921.51 120.843 921.845 121.013C922.183 121.182 922.444 121.413 922.626 121.706C922.808 121.996 922.9 122.325 922.9 122.692C922.9 123.086 922.821 123.446 922.665 123.771C922.509 124.097 922.281 124.419 921.982 124.738C921.685 125.057 921.327 125.41 920.907 125.798L919.989 126.662V126.73H923.1V128ZM923.783 124.968C923.783 124.558 923.813 124.152 923.871 123.752C923.933 123.348 924.039 122.969 924.189 122.614C924.338 122.256 924.548 121.94 924.819 121.667C925.089 121.39 925.432 121.174 925.849 121.018C926.265 120.858 926.77 120.778 927.362 120.778C927.502 120.778 927.665 120.785 927.851 120.798C928.04 120.808 928.196 120.826 928.32 120.852V122.058C928.189 122.028 928.049 122.006 927.9 121.989C927.753 121.97 927.607 121.96 927.46 121.96C926.868 121.96 926.409 122.054 926.083 122.243C925.761 122.432 925.533 122.694 925.4 123.029C925.269 123.361 925.193 123.749 925.17 124.191H925.234C925.325 124.032 925.439 123.89 925.575 123.767C925.715 123.643 925.885 123.545 926.083 123.474C926.282 123.399 926.515 123.361 926.781 123.361C927.198 123.361 927.559 123.451 927.865 123.63C928.171 123.806 928.407 124.061 928.573 124.396C928.739 124.732 928.822 125.14 928.822 125.622C928.822 126.136 928.723 126.579 928.525 126.95C928.326 127.321 928.044 127.606 927.68 127.805C927.319 128 926.889 128.098 926.391 128.098C926.026 128.098 925.686 128.036 925.37 127.912C925.055 127.785 924.778 127.593 924.54 127.336C924.303 127.079 924.117 126.755 923.984 126.364C923.85 125.97 923.783 125.505 923.783 124.968ZM926.362 126.892C926.658 126.892 926.899 126.791 927.084 126.589C927.27 126.387 927.362 126.071 927.362 125.642C927.362 125.293 927.281 125.02 927.118 124.821C926.959 124.619 926.716 124.519 926.391 124.519C926.169 124.519 925.974 124.569 925.805 124.67C925.639 124.768 925.51 124.893 925.419 125.046C925.328 125.196 925.282 125.35 925.282 125.51C925.282 125.676 925.305 125.84 925.351 126.003C925.396 126.166 925.465 126.314 925.556 126.447C925.647 126.581 925.759 126.688 925.893 126.77C926.029 126.851 926.186 126.892 926.362 126.892Z" fill="white"/>
<path d="M700.28 98H817.64V134H700.28V98Z" fill="#8B1245"/>
<path d="M776.842 123.879L776.612 125.012H777.872V126.018H776.422L776.046 128H774.971L775.352 126.018H774.405L774.034 128H772.984L773.345 126.018H772.183V125.012H773.536L773.765 123.879H772.535V122.858H773.946L774.322 120.871H775.391L775.015 122.858H775.982L776.363 120.871H777.413L777.032 122.858H778.204V123.879H776.842ZM774.595 125.012H775.552L775.782 123.879H774.825L774.595 125.012ZM781.29 120.769C781.7 120.769 782.078 120.832 782.423 120.959C782.771 121.086 783.049 121.278 783.258 121.535C783.466 121.789 783.57 122.108 783.57 122.492C783.57 122.779 783.513 123.029 783.399 123.244C783.288 123.459 783.137 123.648 782.945 123.811C782.753 123.97 782.535 124.11 782.291 124.23C782.545 124.364 782.786 124.52 783.013 124.699C783.241 124.875 783.427 125.082 783.57 125.319C783.717 125.557 783.79 125.834 783.79 126.149C783.79 126.547 783.684 126.892 783.472 127.185C783.261 127.474 782.968 127.699 782.594 127.858C782.219 128.018 781.785 128.098 781.29 128.098C780.756 128.098 780.302 128.021 779.927 127.868C779.553 127.715 779.268 127.497 779.073 127.214C778.878 126.927 778.78 126.586 778.78 126.188C778.78 125.863 778.84 125.58 778.961 125.339C779.084 125.098 779.25 124.891 779.459 124.719C779.667 124.543 779.897 124.393 780.147 124.27C779.936 124.136 779.742 123.985 779.566 123.815C779.394 123.646 779.255 123.452 779.151 123.234C779.05 123.016 779 122.766 779 122.482C779 122.105 779.106 121.789 779.317 121.535C779.532 121.281 779.814 121.091 780.162 120.964C780.51 120.834 780.886 120.769 781.29 120.769ZM780.177 126.101C780.177 126.358 780.268 126.571 780.45 126.74C780.635 126.906 780.909 126.989 781.27 126.989C781.645 126.989 781.925 126.91 782.11 126.75C782.296 126.587 782.388 126.374 782.388 126.11C782.388 125.928 782.335 125.769 782.227 125.632C782.123 125.495 781.991 125.373 781.832 125.266C781.672 125.155 781.511 125.052 781.348 124.958L781.217 124.89C781.008 124.984 780.826 125.09 780.67 125.207C780.517 125.324 780.396 125.456 780.308 125.603C780.22 125.749 780.177 125.915 780.177 126.101ZM781.28 121.872C781.033 121.872 780.828 121.936 780.665 122.062C780.502 122.189 780.421 122.368 780.421 122.6C780.421 122.762 780.46 122.906 780.538 123.029C780.619 123.15 780.725 123.256 780.855 123.347C780.989 123.438 781.134 123.522 781.29 123.601C781.44 123.529 781.58 123.449 781.71 123.361C781.84 123.273 781.946 123.168 782.027 123.044C782.108 122.92 782.149 122.772 782.149 122.6C782.149 122.368 782.066 122.189 781.9 122.062C781.737 121.936 781.531 121.872 781.28 121.872ZM785.05 120.861H787.271C788.222 120.861 788.941 120.995 789.429 121.262C789.918 121.529 790.162 121.997 790.162 122.668C790.162 122.938 790.118 123.182 790.03 123.4C789.945 123.618 789.822 123.798 789.659 123.938C789.496 124.077 789.298 124.169 789.063 124.211V124.26C789.301 124.309 789.516 124.393 789.708 124.514C789.9 124.631 790.053 124.803 790.167 125.031C790.284 125.256 790.343 125.555 790.343 125.93C790.343 126.363 790.237 126.734 790.025 127.043C789.814 127.352 789.511 127.59 789.117 127.756C788.726 127.919 788.261 128 787.72 128H785.05V120.861ZM786.563 123.688H787.442C787.882 123.688 788.186 123.62 788.355 123.483C788.524 123.343 788.609 123.138 788.609 122.868C788.609 122.595 788.508 122.399 788.306 122.282C788.108 122.162 787.792 122.102 787.359 122.102H786.563V123.688ZM786.563 124.89V126.75H787.55C788.005 126.75 788.323 126.662 788.502 126.486C788.681 126.311 788.77 126.075 788.77 125.778C788.77 125.603 788.731 125.448 788.653 125.314C788.575 125.181 788.443 125.077 788.258 125.002C788.075 124.927 787.823 124.89 787.501 124.89H786.563ZM795.001 128H793.492V123.869C793.492 123.755 793.494 123.615 793.497 123.449C793.5 123.28 793.505 123.107 793.511 122.932C793.518 122.753 793.524 122.591 793.531 122.448C793.495 122.491 793.422 122.564 793.311 122.668C793.204 122.769 793.103 122.86 793.009 122.941L792.188 123.601L791.461 122.692L793.76 120.861H795.001V128ZM801.983 128H796.993V126.95L798.785 125.139C799.146 124.768 799.436 124.458 799.654 124.211C799.875 123.96 800.035 123.732 800.133 123.527C800.233 123.322 800.284 123.103 800.284 122.868C800.284 122.585 800.204 122.373 800.045 122.233C799.888 122.09 799.678 122.019 799.415 122.019C799.138 122.019 798.87 122.082 798.609 122.209C798.349 122.336 798.077 122.517 797.794 122.751L796.973 121.779C797.178 121.604 797.395 121.438 797.623 121.281C797.854 121.125 798.121 121 798.424 120.905C798.73 120.808 799.096 120.759 799.522 120.759C799.991 120.759 800.393 120.843 800.728 121.013C801.067 121.182 801.327 121.413 801.51 121.706C801.692 121.996 801.783 122.325 801.783 122.692C801.783 123.086 801.705 123.446 801.549 123.771C801.392 124.097 801.164 124.419 800.865 124.738C800.569 125.057 800.211 125.41 799.791 125.798L798.873 126.662V126.73H801.983V128ZM807.867 126.521H807.008V128H805.533V126.521H802.486V125.471L805.616 120.861H807.008V125.349H807.867V126.521ZM805.533 125.349V124.138C805.533 124.024 805.535 123.889 805.538 123.732C805.544 123.576 805.551 123.42 805.557 123.264C805.564 123.107 805.57 122.969 805.577 122.849C805.587 122.725 805.593 122.639 805.596 122.59H805.557C805.496 122.723 805.43 122.854 805.362 122.98C805.294 123.104 805.214 123.234 805.123 123.371L803.814 125.349H805.533ZM811.036 123.439C811.472 123.439 811.859 123.522 812.198 123.688C812.54 123.854 812.808 124.099 813.004 124.421C813.199 124.743 813.297 125.14 813.297 125.612C813.297 126.127 813.189 126.571 812.974 126.945C812.763 127.316 812.445 127.601 812.022 127.8C811.602 127.998 811.078 128.098 810.45 128.098C810.076 128.098 809.722 128.065 809.39 128C809.062 127.938 808.774 127.842 808.526 127.712V126.408C808.774 126.538 809.07 126.649 809.415 126.74C809.763 126.828 810.09 126.872 810.396 126.872C810.696 126.872 810.948 126.833 811.153 126.755C811.358 126.674 811.513 126.55 811.617 126.384C811.724 126.215 811.778 126 811.778 125.739C811.778 125.391 811.661 125.124 811.427 124.938C811.192 124.753 810.832 124.66 810.347 124.66C810.162 124.66 809.968 124.678 809.766 124.714C809.568 124.75 809.402 124.785 809.268 124.821L808.668 124.499L808.936 120.861H812.808V122.141H810.26L810.128 123.542C810.238 123.519 810.359 123.496 810.489 123.474C810.619 123.451 810.802 123.439 811.036 123.439Z" fill="white"/>
<path d="M583.89 98H700.28V134H583.89V98Z" fill="#B01356"/>
<path d="M658.512 123.879L658.282 125.012H659.542V126.018H658.092L657.716 128H656.642L657.022 126.018H656.075L655.704 128H654.654L655.016 126.018H653.854V125.012H655.206L655.436 123.879H654.205V122.858H655.616L655.992 120.871H657.062L656.686 122.858H657.652L658.033 120.871H659.083L658.702 122.858H659.874V123.879H658.512ZM656.266 125.012H657.223L657.452 123.879H656.495L656.266 125.012ZM660.997 120.861H663.219C664.169 120.861 664.889 120.995 665.377 121.262C665.865 121.529 666.109 121.997 666.109 122.668C666.109 122.938 666.065 123.182 665.978 123.4C665.893 123.618 665.769 123.798 665.606 123.938C665.444 124.077 665.245 124.169 665.011 124.211V124.26C665.248 124.309 665.463 124.393 665.655 124.514C665.847 124.631 666 124.803 666.114 125.031C666.231 125.256 666.29 125.555 666.29 125.93C666.29 126.363 666.184 126.734 665.973 127.043C665.761 127.352 665.458 127.59 665.064 127.756C664.674 127.919 664.208 128 663.668 128H660.997V120.861ZM662.511 123.688H663.39C663.829 123.688 664.133 123.62 664.303 123.483C664.472 123.343 664.557 123.138 664.557 122.868C664.557 122.595 664.456 122.399 664.254 122.282C664.055 122.162 663.74 122.102 663.307 122.102H662.511V123.688ZM662.511 124.89V126.75H663.497C663.953 126.75 664.27 126.662 664.449 126.486C664.628 126.311 664.718 126.075 664.718 125.778C664.718 125.603 664.679 125.448 664.601 125.314C664.522 125.181 664.391 125.077 664.205 125.002C664.023 124.927 663.771 124.89 663.448 124.89H662.511ZM672.169 124.431C672.169 125.007 672.123 125.521 672.032 125.974C671.944 126.426 671.801 126.81 671.603 127.126C671.407 127.442 671.15 127.683 670.831 127.849C670.512 128.015 670.125 128.098 669.669 128.098C669.096 128.098 668.626 127.953 668.258 127.663C667.89 127.37 667.618 126.95 667.442 126.403C667.267 125.853 667.179 125.196 667.179 124.431C667.179 123.659 667.258 123 667.418 122.453C667.581 121.903 667.844 121.481 668.209 121.188C668.574 120.896 669.06 120.749 669.669 120.749C670.239 120.749 670.707 120.896 671.075 121.188C671.446 121.478 671.721 121.898 671.9 122.448C672.079 122.995 672.169 123.656 672.169 124.431ZM668.678 124.431C668.678 124.974 668.707 125.428 668.766 125.793C668.827 126.154 668.93 126.426 669.073 126.608C669.216 126.791 669.415 126.882 669.669 126.882C669.92 126.882 670.117 126.792 670.26 126.613C670.406 126.431 670.51 126.159 670.572 125.798C670.634 125.433 670.665 124.978 670.665 124.431C670.665 123.887 670.634 123.433 670.572 123.068C670.51 122.704 670.406 122.43 670.26 122.248C670.117 122.062 669.92 121.97 669.669 121.97C669.415 121.97 669.216 122.062 669.073 122.248C668.93 122.43 668.827 122.704 668.766 123.068C668.707 123.433 668.678 123.887 668.678 124.431ZM676.671 128H675.162V123.869C675.162 123.755 675.164 123.615 675.167 123.449C675.17 123.28 675.175 123.107 675.182 122.932C675.188 122.753 675.195 122.591 675.201 122.448C675.165 122.491 675.092 122.564 674.981 122.668C674.874 122.769 674.773 122.86 674.679 122.941L673.858 123.601L673.131 122.692L675.431 120.861H676.671V128ZM683.375 122.458C683.375 122.787 683.307 123.072 683.17 123.312C683.033 123.553 682.848 123.75 682.613 123.903C682.382 124.056 682.122 124.169 681.832 124.24V124.27C682.405 124.341 682.84 124.517 683.136 124.797C683.435 125.077 683.585 125.451 683.585 125.92C683.585 126.337 683.482 126.709 683.277 127.038C683.076 127.367 682.763 127.626 682.34 127.814C681.917 128.003 681.371 128.098 680.704 128.098C680.31 128.098 679.942 128.065 679.601 128C679.262 127.938 678.943 127.842 678.644 127.712V126.428C678.95 126.584 679.27 126.703 679.605 126.784C679.941 126.862 680.253 126.901 680.543 126.901C681.083 126.901 681.461 126.809 681.676 126.623C681.894 126.434 682.003 126.171 682.003 125.832C682.003 125.633 681.952 125.466 681.852 125.329C681.751 125.192 681.575 125.088 681.324 125.017C681.077 124.945 680.73 124.909 680.284 124.909H679.742V123.752H680.294C680.733 123.752 681.067 123.711 681.295 123.63C681.526 123.545 681.682 123.431 681.764 123.288C681.848 123.142 681.891 122.976 681.891 122.79C681.891 122.536 681.812 122.338 681.656 122.194C681.5 122.051 681.24 121.979 680.875 121.979C680.647 121.979 680.439 122.009 680.25 122.067C680.064 122.123 679.897 122.191 679.747 122.272C679.597 122.351 679.465 122.427 679.352 122.502L678.653 121.462C678.933 121.26 679.26 121.092 679.635 120.959C680.012 120.826 680.462 120.759 680.982 120.759C681.718 120.759 682.301 120.907 682.73 121.203C683.16 121.499 683.375 121.918 683.375 122.458ZM686.983 123.439C687.42 123.439 687.807 123.522 688.146 123.688C688.487 123.854 688.756 124.099 688.951 124.421C689.146 124.743 689.244 125.14 689.244 125.612C689.244 126.127 689.137 126.571 688.922 126.945C688.71 127.316 688.393 127.601 687.97 127.8C687.55 127.998 687.026 128.098 686.397 128.098C686.023 128.098 685.67 128.065 685.338 128C685.009 127.938 684.721 127.842 684.474 127.712V126.408C684.721 126.538 685.017 126.649 685.362 126.74C685.711 126.828 686.038 126.872 686.344 126.872C686.643 126.872 686.896 126.833 687.101 126.755C687.306 126.674 687.46 126.55 687.564 126.384C687.672 126.215 687.726 126 687.726 125.739C687.726 125.391 687.608 125.124 687.374 124.938C687.14 124.753 686.78 124.66 686.295 124.66C686.109 124.66 685.916 124.678 685.714 124.714C685.515 124.75 685.349 124.785 685.216 124.821L684.615 124.499L684.884 120.861H688.756V122.141H686.207L686.075 123.542C686.186 123.519 686.306 123.496 686.437 123.474C686.567 123.451 686.749 123.439 686.983 123.439ZM690.06 124.968C690.06 124.558 690.089 124.152 690.147 123.752C690.209 123.348 690.315 122.969 690.465 122.614C690.615 122.256 690.825 121.94 691.095 121.667C691.365 121.39 691.708 121.174 692.125 121.018C692.542 120.858 693.046 120.778 693.639 120.778C693.779 120.778 693.941 120.785 694.127 120.798C694.316 120.808 694.472 120.826 694.596 120.852V122.058C694.465 122.028 694.326 122.006 694.176 121.989C694.029 121.97 693.883 121.96 693.736 121.96C693.144 121.96 692.685 122.054 692.359 122.243C692.037 122.432 691.809 122.694 691.676 123.029C691.546 123.361 691.469 123.749 691.446 124.191H691.51C691.601 124.032 691.715 123.89 691.852 123.767C691.992 123.643 692.161 123.545 692.359 123.474C692.558 123.399 692.791 123.361 693.058 123.361C693.474 123.361 693.836 123.451 694.142 123.63C694.448 123.806 694.684 124.061 694.85 124.396C695.016 124.732 695.099 125.14 695.099 125.622C695.099 126.136 694.999 126.579 694.801 126.95C694.602 127.321 694.321 127.606 693.956 127.805C693.595 128 693.165 128.098 692.667 128.098C692.302 128.098 691.962 128.036 691.646 127.912C691.331 127.785 691.054 127.593 690.816 127.336C690.579 127.079 690.393 126.755 690.26 126.364C690.126 125.97 690.06 125.505 690.06 124.968ZM692.638 126.892C692.934 126.892 693.175 126.791 693.36 126.589C693.546 126.387 693.639 126.071 693.639 125.642C693.639 125.293 693.557 125.02 693.395 124.821C693.235 124.619 692.993 124.519 692.667 124.519C692.446 124.519 692.25 124.569 692.081 124.67C691.915 124.768 691.786 124.893 691.695 125.046C691.604 125.196 691.559 125.35 691.559 125.51C691.559 125.676 691.581 125.84 691.627 126.003C691.673 126.166 691.741 126.314 691.832 126.447C691.923 126.581 692.035 126.688 692.169 126.77C692.306 126.851 692.462 126.892 692.638 126.892Z" fill="white"/>
<path d="M467.5 98H583.89V134H467.5V98Z" fill="#D6246E"/>
<path d="M544.061 123.879L543.832 125.012H545.092V126.018H543.642L543.266 128H542.191L542.572 126.018H541.625L541.254 128H540.204L540.565 126.018H539.403V125.012H540.756L540.985 123.879H539.755V122.858H541.166L541.542 120.871H542.611L542.235 122.858H543.202L543.583 120.871H544.633L544.252 122.858H545.424V123.879H544.061ZM541.815 125.012H542.772L543.002 123.879H542.045L541.815 125.012ZM552.47 124.362C552.47 125.166 552.315 125.839 552.006 126.379C551.7 126.916 551.255 127.321 550.673 127.595C550.09 127.865 549.389 128 548.568 128H546.547V120.861H548.788C549.537 120.861 550.186 120.995 550.736 121.262C551.286 121.525 551.713 121.918 552.016 122.438C552.318 122.956 552.47 123.597 552.47 124.362ZM550.897 124.401C550.897 123.874 550.819 123.441 550.663 123.103C550.51 122.761 550.282 122.508 549.979 122.346C549.68 122.183 549.309 122.102 548.866 122.102H548.06V126.75H548.71C549.449 126.75 549.997 126.553 550.355 126.159C550.717 125.765 550.897 125.179 550.897 124.401ZM553.402 124.968C553.402 124.558 553.432 124.152 553.49 123.752C553.552 123.348 553.658 122.969 553.808 122.614C553.957 122.256 554.167 121.94 554.437 121.667C554.708 121.39 555.051 121.174 555.468 121.018C555.884 120.858 556.389 120.778 556.981 120.778C557.121 120.778 557.284 120.785 557.47 120.798C557.658 120.808 557.815 120.826 557.938 120.852V122.058C557.808 122.028 557.668 122.006 557.518 121.989C557.372 121.97 557.226 121.96 557.079 121.96C556.487 121.96 556.028 122.054 555.702 122.243C555.38 122.432 555.152 122.694 555.018 123.029C554.888 123.361 554.812 123.749 554.789 124.191H554.852C554.944 124.032 555.058 123.89 555.194 123.767C555.334 123.643 555.504 123.545 555.702 123.474C555.901 123.399 556.133 123.361 556.4 123.361C556.817 123.361 557.178 123.451 557.484 123.63C557.79 123.806 558.026 124.061 558.192 124.396C558.358 124.732 558.441 125.14 558.441 125.622C558.441 126.136 558.342 126.579 558.143 126.95C557.945 127.321 557.663 127.606 557.299 127.805C556.937 128 556.508 128.098 556.01 128.098C555.645 128.098 555.305 128.036 554.989 127.912C554.673 127.785 554.397 127.593 554.159 127.336C553.921 127.079 553.736 126.755 553.602 126.364C553.469 125.97 553.402 125.505 553.402 124.968ZM555.98 126.892C556.277 126.892 556.518 126.791 556.703 126.589C556.889 126.387 556.981 126.071 556.981 125.642C556.981 125.293 556.9 125.02 556.737 124.821C556.578 124.619 556.335 124.519 556.01 124.519C555.788 124.519 555.593 124.569 555.424 124.67C555.258 124.768 555.129 124.893 555.038 125.046C554.947 125.196 554.901 125.35 554.901 125.51C554.901 125.676 554.924 125.84 554.97 126.003C555.015 126.166 555.084 126.314 555.175 126.447C555.266 126.581 555.378 126.688 555.512 126.77C555.648 126.851 555.805 126.892 555.98 126.892ZM564.164 128H559.174V126.95L560.966 125.139C561.327 124.768 561.617 124.458 561.835 124.211C562.056 123.96 562.216 123.732 562.313 123.527C562.414 123.322 562.465 123.103 562.465 122.868C562.465 122.585 562.385 122.373 562.226 122.233C562.069 122.09 561.859 122.019 561.596 122.019C561.319 122.019 561.05 122.082 560.79 122.209C560.53 122.336 560.258 122.517 559.975 122.751L559.154 121.779C559.359 121.604 559.576 121.438 559.804 121.281C560.035 121.125 560.302 121 560.604 120.905C560.91 120.808 561.277 120.759 561.703 120.759C562.172 120.759 562.574 120.843 562.909 121.013C563.248 121.182 563.508 121.413 563.69 121.706C563.873 121.996 563.964 122.325 563.964 122.692C563.964 123.086 563.886 123.446 563.729 123.771C563.573 124.097 563.345 124.419 563.046 124.738C562.75 125.057 562.392 125.41 561.972 125.798L561.054 126.662V126.73H564.164V128ZM570.048 126.521H569.188V128H567.714V126.521H564.667V125.471L567.797 120.861H569.188V125.349H570.048V126.521ZM567.714 125.349V124.138C567.714 124.024 567.715 123.889 567.719 123.732C567.725 123.576 567.732 123.42 567.738 123.264C567.745 123.107 567.751 122.969 567.758 122.849C567.768 122.725 567.774 122.639 567.777 122.59H567.738C567.676 122.723 567.611 122.854 567.543 122.98C567.475 123.104 567.395 123.234 567.304 123.371L565.995 125.349H567.714ZM570.57 124.968C570.57 124.558 570.6 124.152 570.658 123.752C570.72 123.348 570.826 122.969 570.976 122.614C571.125 122.256 571.335 121.94 571.605 121.667C571.876 121.39 572.219 121.174 572.636 121.018C573.052 120.858 573.557 120.778 574.149 120.778C574.289 120.778 574.452 120.785 574.638 120.798C574.826 120.808 574.983 120.826 575.106 120.852V122.058C574.976 122.028 574.836 122.006 574.686 121.989C574.54 121.97 574.393 121.96 574.247 121.96C573.655 121.96 573.196 122.054 572.87 122.243C572.548 122.432 572.32 122.694 572.186 123.029C572.056 123.361 571.98 123.749 571.957 124.191H572.02C572.112 124.032 572.226 123.89 572.362 123.767C572.502 123.643 572.671 123.545 572.87 123.474C573.069 123.399 573.301 123.361 573.568 123.361C573.985 123.361 574.346 123.451 574.652 123.63C574.958 123.806 575.194 124.061 575.36 124.396C575.526 124.732 575.609 125.14 575.609 125.622C575.609 126.136 575.51 126.579 575.311 126.95C575.113 127.321 574.831 127.606 574.467 127.805C574.105 128 573.676 128.098 573.178 128.098C572.813 128.098 572.473 128.036 572.157 127.912C571.841 127.785 571.565 127.593 571.327 127.336C571.089 127.079 570.904 126.755 570.77 126.364C570.637 125.97 570.57 125.505 570.57 124.968ZM573.148 126.892C573.445 126.892 573.685 126.791 573.871 126.589C574.057 126.387 574.149 126.071 574.149 125.642C574.149 125.293 574.068 125.02 573.905 124.821C573.746 124.619 573.503 124.519 573.178 124.519C572.956 124.519 572.761 124.569 572.592 124.67C572.426 124.768 572.297 124.893 572.206 125.046C572.115 125.196 572.069 125.35 572.069 125.51C572.069 125.676 572.092 125.84 572.138 126.003C572.183 126.166 572.252 126.314 572.343 126.447C572.434 126.581 572.546 126.688 572.68 126.77C572.816 126.851 572.973 126.892 573.148 126.892ZM580.951 128H576.84V120.861H580.951V122.102H578.353V123.669H580.77V124.909H578.353V126.75H580.951V128Z" fill="white"/>
<path d="M350.14 98H467.5V134H350.14V98Z" fill="#F68BB7"/>
<path d="M426.702 123.879L426.472 125.012H427.732V126.018H426.282L425.906 128H424.831L425.212 126.018H424.265L423.894 128H422.844L423.205 126.018H422.043V125.012H423.396L423.625 123.879H422.395V122.858H423.806L424.182 120.871H425.251L424.875 122.858H425.842L426.223 120.871H427.273L426.892 122.858H428.064V123.879H426.702ZM424.455 125.012H425.412L425.642 123.879H424.685L424.455 125.012ZM430.676 128H429.187V120.861H433.279V122.102H430.676V123.942H433.098V125.178H430.676V128ZM434.128 124.968C434.128 124.558 434.158 124.152 434.216 123.752C434.278 123.348 434.384 122.969 434.534 122.614C434.683 122.256 434.893 121.94 435.163 121.667C435.434 121.39 435.777 121.174 436.194 121.018C436.61 120.858 437.115 120.778 437.707 120.778C437.847 120.778 438.01 120.785 438.196 120.798C438.384 120.808 438.541 120.826 438.664 120.852V122.058C438.534 122.028 438.394 122.006 438.244 121.989C438.098 121.97 437.952 121.96 437.805 121.96C437.213 121.96 436.754 122.054 436.428 122.243C436.106 122.432 435.878 122.694 435.744 123.029C435.614 123.361 435.538 123.749 435.515 124.191H435.578C435.67 124.032 435.784 123.89 435.92 123.767C436.06 123.643 436.23 123.545 436.428 123.474C436.627 123.399 436.859 123.361 437.126 123.361C437.543 123.361 437.904 123.451 438.21 123.63C438.516 123.806 438.752 124.061 438.918 124.396C439.084 124.732 439.167 125.14 439.167 125.622C439.167 126.136 439.068 126.579 438.869 126.95C438.671 127.321 438.389 127.606 438.025 127.805C437.663 128 437.234 128.098 436.736 128.098C436.371 128.098 436.031 128.036 435.715 127.912C435.399 127.785 435.123 127.593 434.885 127.336C434.647 127.079 434.462 126.755 434.328 126.364C434.195 125.97 434.128 125.505 434.128 124.968ZM436.706 126.892C437.003 126.892 437.243 126.791 437.429 126.589C437.615 126.387 437.707 126.071 437.707 125.642C437.707 125.293 437.626 125.02 437.463 124.821C437.304 124.619 437.061 124.519 436.736 124.519C436.514 124.519 436.319 124.569 436.15 124.67C435.984 124.768 435.855 124.893 435.764 125.046C435.673 125.196 435.627 125.35 435.627 125.51C435.627 125.676 435.65 125.84 435.696 126.003C435.741 126.166 435.81 126.314 435.901 126.447C435.992 126.581 436.104 126.688 436.238 126.77C436.374 126.851 436.531 126.892 436.706 126.892ZM442.361 120.769C442.771 120.769 443.148 120.832 443.493 120.959C443.842 121.086 444.12 121.278 444.328 121.535C444.537 121.789 444.641 122.108 444.641 122.492C444.641 122.779 444.584 123.029 444.47 123.244C444.359 123.459 444.208 123.648 444.016 123.811C443.824 123.97 443.606 124.11 443.362 124.23C443.616 124.364 443.856 124.52 444.084 124.699C444.312 124.875 444.498 125.082 444.641 125.319C444.787 125.557 444.861 125.834 444.861 126.149C444.861 126.547 444.755 126.892 444.543 127.185C444.332 127.474 444.039 127.699 443.664 127.858C443.29 128.018 442.855 128.098 442.361 128.098C441.827 128.098 441.373 128.021 440.998 127.868C440.624 127.715 440.339 127.497 440.144 127.214C439.949 126.927 439.851 126.586 439.851 126.188C439.851 125.863 439.911 125.58 440.032 125.339C440.155 125.098 440.321 124.891 440.53 124.719C440.738 124.543 440.967 124.393 441.218 124.27C441.007 124.136 440.813 123.985 440.637 123.815C440.465 123.646 440.326 123.452 440.222 123.234C440.121 123.016 440.071 122.766 440.071 122.482C440.071 122.105 440.176 121.789 440.388 121.535C440.603 121.281 440.884 121.091 441.233 120.964C441.581 120.834 441.957 120.769 442.361 120.769ZM441.247 126.101C441.247 126.358 441.339 126.571 441.521 126.74C441.706 126.906 441.98 126.989 442.341 126.989C442.716 126.989 442.995 126.91 443.181 126.75C443.367 126.587 443.459 126.374 443.459 126.11C443.459 125.928 443.406 125.769 443.298 125.632C443.194 125.495 443.062 125.373 442.903 125.266C442.743 125.155 442.582 125.052 442.419 124.958L442.287 124.89C442.079 124.984 441.897 125.09 441.741 125.207C441.588 125.324 441.467 125.456 441.379 125.603C441.291 125.749 441.247 125.915 441.247 126.101ZM442.351 121.872C442.104 121.872 441.898 121.936 441.736 122.062C441.573 122.189 441.492 122.368 441.492 122.6C441.492 122.762 441.531 122.906 441.609 123.029C441.69 123.15 441.796 123.256 441.926 123.347C442.06 123.438 442.204 123.522 442.361 123.601C442.51 123.529 442.65 123.449 442.781 123.361C442.911 123.273 443.017 123.168 443.098 123.044C443.179 122.92 443.22 122.772 443.22 122.6C443.22 122.368 443.137 122.189 442.971 122.062C442.808 121.936 442.602 121.872 442.351 121.872ZM446.12 120.861H448.342C449.293 120.861 450.012 120.995 450.5 121.262C450.989 121.529 451.233 121.997 451.233 122.668C451.233 122.938 451.189 123.182 451.101 123.4C451.016 123.618 450.893 123.798 450.73 123.938C450.567 124.077 450.368 124.169 450.134 124.211V124.26C450.372 124.309 450.587 124.393 450.779 124.514C450.971 124.631 451.124 124.803 451.238 125.031C451.355 125.256 451.413 125.555 451.413 125.93C451.413 126.363 451.308 126.734 451.096 127.043C450.884 127.352 450.582 127.59 450.188 127.756C449.797 127.919 449.332 128 448.791 128H446.12V120.861ZM447.634 123.688H448.513C448.952 123.688 449.257 123.62 449.426 123.483C449.595 123.343 449.68 123.138 449.68 122.868C449.68 122.595 449.579 122.399 449.377 122.282C449.179 122.162 448.863 122.102 448.43 122.102H447.634V123.688ZM447.634 124.89V126.75H448.62C449.076 126.75 449.394 126.662 449.573 126.486C449.752 126.311 449.841 126.075 449.841 125.778C449.841 125.603 449.802 125.448 449.724 125.314C449.646 125.181 449.514 125.077 449.328 125.002C449.146 124.927 448.894 124.89 448.572 124.89H447.634ZM452.839 120.861H455.061C456.011 120.861 456.731 120.995 457.219 121.262C457.707 121.529 457.952 121.997 457.952 122.668C457.952 122.938 457.908 123.182 457.82 123.4C457.735 123.618 457.611 123.798 457.449 123.938C457.286 124.077 457.087 124.169 456.853 124.211V124.26C457.091 124.309 457.305 124.393 457.497 124.514C457.689 124.631 457.842 124.803 457.956 125.031C458.074 125.256 458.132 125.555 458.132 125.93C458.132 126.363 458.026 126.734 457.815 127.043C457.603 127.352 457.3 127.59 456.907 127.756C456.516 127.919 456.05 128 455.51 128H452.839V120.861ZM454.353 123.688H455.232C455.671 123.688 455.976 123.62 456.145 123.483C456.314 123.343 456.399 123.138 456.399 122.868C456.399 122.595 456.298 122.399 456.096 122.282C455.897 122.162 455.582 122.102 455.149 122.102H454.353V123.688ZM454.353 124.89V126.75H455.339C455.795 126.75 456.112 126.662 456.291 126.486C456.47 126.311 456.56 126.075 456.56 125.778C456.56 125.603 456.521 125.448 456.443 125.314C456.365 125.181 456.233 125.077 456.047 125.002C455.865 124.927 455.613 124.89 455.29 124.89H454.353ZM459.768 128L462.449 122.131H458.928V120.861H464.05V121.809L461.35 128H459.768Z" fill="#2C3437"/>
<path d="M233.75 98H350.14V134H233.75V98Z" fill="#FBB4D2"/>
<path d="M309.341 123.879L309.112 125.012H310.372V126.018H308.922L308.546 128H307.471L307.852 126.018H306.905L306.534 128H305.484L305.845 126.018H304.683V125.012H306.036L306.265 123.879H305.035V122.858H306.446L306.822 120.871H307.891L307.515 122.858H308.482L308.863 120.871H309.913L309.532 122.858H310.704V123.879H309.341ZM307.095 125.012H308.052L308.282 123.879H307.325L307.095 125.012ZM313.316 128H311.827V120.861H315.919V122.102H313.316V123.942H315.738V125.178H313.316V128ZM317.315 120.861H319.537C320.487 120.861 321.207 120.995 321.695 121.262C322.183 121.529 322.427 121.997 322.427 122.668C322.427 122.938 322.383 123.182 322.296 123.4C322.211 123.618 322.087 123.798 321.924 123.938C321.762 124.077 321.563 124.169 321.329 124.211V124.26C321.566 124.309 321.781 124.393 321.973 124.514C322.165 124.631 322.318 124.803 322.432 125.031C322.549 125.256 322.608 125.555 322.608 125.93C322.608 126.363 322.502 126.734 322.291 127.043C322.079 127.352 321.776 127.59 321.383 127.756C320.992 127.919 320.526 128 319.986 128H317.315V120.861ZM318.829 123.688H319.708C320.147 123.688 320.452 123.62 320.621 123.483C320.79 123.343 320.875 123.138 320.875 122.868C320.875 122.595 320.774 122.399 320.572 122.282C320.373 122.162 320.058 122.102 319.625 122.102H318.829V123.688ZM318.829 124.89V126.75H319.815C320.271 126.75 320.588 126.662 320.767 126.486C320.946 126.311 321.036 126.075 321.036 125.778C321.036 125.603 320.997 125.448 320.919 125.314C320.841 125.181 320.709 125.077 320.523 125.002C320.341 124.927 320.089 124.89 319.766 124.89H318.829ZM324.034 120.861H326.256C327.206 120.861 327.925 120.995 328.414 121.262C328.902 121.529 329.146 121.997 329.146 122.668C329.146 122.938 329.102 123.182 329.014 123.4C328.93 123.618 328.806 123.798 328.643 123.938C328.48 124.077 328.282 124.169 328.048 124.211V124.26C328.285 124.309 328.5 124.393 328.692 124.514C328.884 124.631 329.037 124.803 329.151 125.031C329.268 125.256 329.327 125.555 329.327 125.93C329.327 126.363 329.221 126.734 329.009 127.043C328.798 127.352 328.495 127.59 328.101 127.756C327.711 127.919 327.245 128 326.705 128H324.034V120.861ZM325.548 123.688H326.426C326.866 123.688 327.17 123.62 327.34 123.483C327.509 123.343 327.593 123.138 327.593 122.868C327.593 122.595 327.493 122.399 327.291 122.282C327.092 122.162 326.776 122.102 326.343 122.102H325.548V123.688ZM325.548 124.89V126.75H326.534C326.99 126.75 327.307 126.662 327.486 126.486C327.665 126.311 327.755 126.075 327.755 125.778C327.755 125.603 327.716 125.448 327.637 125.314C327.559 125.181 327.427 125.077 327.242 125.002C327.06 124.927 326.807 124.89 326.485 124.89H325.548ZM335.406 126.521H334.547V128H333.072V126.521H330.025V125.471L333.155 120.861H334.547V125.349H335.406V126.521ZM333.072 125.349V124.138C333.072 124.024 333.074 123.889 333.077 123.732C333.083 123.576 333.09 123.42 333.096 123.264C333.103 123.107 333.109 122.969 333.116 122.849C333.126 122.725 333.132 122.639 333.135 122.59H333.096C333.035 122.723 332.969 122.854 332.901 122.98C332.833 123.104 332.753 123.234 332.662 123.371L331.353 125.349H333.072ZM342.398 124.362C342.398 125.166 342.244 125.839 341.934 126.379C341.628 126.916 341.184 127.321 340.601 127.595C340.019 127.865 339.317 128 338.497 128H336.475V120.861H338.716C339.465 120.861 340.115 120.995 340.665 121.262C341.215 121.525 341.641 121.918 341.944 122.438C342.247 122.956 342.398 123.597 342.398 124.362ZM340.826 124.401C340.826 123.874 340.748 123.441 340.591 123.103C340.438 122.761 340.211 122.508 339.908 122.346C339.608 122.183 339.237 122.102 338.795 122.102H337.989V126.75H338.638C339.377 126.75 339.926 126.553 340.284 126.159C340.645 125.765 340.826 125.179 340.826 124.401ZM348.37 128H343.38V126.95L345.172 125.139C345.533 124.768 345.823 124.458 346.041 124.211C346.262 123.96 346.422 123.732 346.519 123.527C346.62 123.322 346.671 123.103 346.671 122.868C346.671 122.585 346.591 122.373 346.431 122.233C346.275 122.09 346.065 122.019 345.801 122.019C345.525 122.019 345.256 122.082 344.996 122.209C344.735 122.336 344.464 122.517 344.18 122.751L343.36 121.779C343.565 121.604 343.782 121.438 344.009 121.281C344.241 121.125 344.508 121 344.81 120.905C345.116 120.808 345.482 120.759 345.909 120.759C346.378 120.759 346.78 120.843 347.115 121.013C347.453 121.182 347.714 121.413 347.896 121.706C348.078 121.996 348.17 122.325 348.17 122.692C348.17 123.086 348.091 123.446 347.935 123.771C347.779 124.097 347.551 124.419 347.252 124.738C346.955 125.057 346.597 125.41 346.177 125.798L345.259 126.662V126.73H348.37V128Z" fill="#2C3437"/>
<path d="M116.39 98H233.75V134H116.39V98Z" fill="#FBD4E6"/>
<path d="M191.012 122.879L190.782 124.012H192.042V125.018H190.592L190.216 127H189.142L189.522 125.018H188.575L188.204 127H187.154L187.516 125.018H186.353V124.012H187.706L187.936 122.879H186.705V121.858H188.116L188.492 119.871H189.561L189.186 121.858H190.152L190.533 119.871H191.583L191.202 121.858H192.374V122.879H191.012ZM188.766 124.012H189.723L189.952 122.879H188.995L188.766 124.012ZM194.986 127H193.497V119.861H197.589V121.102H194.986V122.942H197.408V124.178H194.986V127ZM198.985 119.861H201.207C202.158 119.861 202.877 119.995 203.365 120.262C203.853 120.529 204.098 120.997 204.098 121.668C204.098 121.938 204.054 122.182 203.966 122.4C203.881 122.618 203.757 122.798 203.595 122.938C203.432 123.077 203.233 123.169 202.999 123.211V123.26C203.237 123.309 203.451 123.393 203.644 123.514C203.836 123.631 203.989 123.803 204.103 124.031C204.22 124.256 204.278 124.555 204.278 124.93C204.278 125.363 204.172 125.734 203.961 126.043C203.749 126.352 203.447 126.59 203.053 126.756C202.662 126.919 202.197 127 201.656 127H198.985V119.861ZM200.499 122.688H201.378C201.817 122.688 202.122 122.62 202.291 122.483C202.46 122.343 202.545 122.138 202.545 121.868C202.545 121.595 202.444 121.399 202.242 121.282C202.044 121.162 201.728 121.102 201.295 121.102H200.499V122.688ZM200.499 123.89V125.75H201.485C201.941 125.75 202.258 125.662 202.437 125.486C202.617 125.311 202.706 125.075 202.706 124.778C202.706 124.603 202.667 124.448 202.589 124.314C202.511 124.181 202.379 124.077 202.193 124.002C202.011 123.927 201.759 123.89 201.436 123.89H200.499ZM211.627 123.362C211.627 124.166 211.472 124.839 211.163 125.379C210.857 125.916 210.413 126.321 209.83 126.595C209.247 126.865 208.546 127 207.726 127H205.704V119.861H207.945C208.694 119.861 209.343 119.995 209.894 120.262C210.444 120.525 210.87 120.918 211.173 121.438C211.476 121.956 211.627 122.597 211.627 123.362ZM210.055 123.401C210.055 122.874 209.977 122.441 209.82 122.103C209.667 121.761 209.439 121.508 209.137 121.346C208.837 121.183 208.466 121.102 208.023 121.102H207.218V125.75H207.867C208.606 125.75 209.155 125.553 209.513 125.159C209.874 124.765 210.055 124.179 210.055 123.401ZM217.76 125.521H216.9V127H215.426V125.521H212.379V124.471L215.509 119.861H216.9V124.349H217.76V125.521ZM215.426 124.349V123.138C215.426 123.024 215.427 122.889 215.431 122.732C215.437 122.576 215.444 122.42 215.45 122.264C215.457 122.107 215.463 121.969 215.47 121.849C215.479 121.725 215.486 121.639 215.489 121.59H215.45C215.388 121.723 215.323 121.854 215.255 121.98C215.186 122.104 215.107 122.234 215.016 122.371L213.707 124.349H215.426ZM222.94 127H218.829V119.861H222.94V121.102H220.343V122.669H222.76V123.909H220.343V125.75H222.94V127ZM223.888 123.968C223.888 123.558 223.917 123.152 223.976 122.752C224.037 122.348 224.143 121.969 224.293 121.614C224.443 121.256 224.653 120.94 224.923 120.667C225.193 120.39 225.536 120.174 225.953 120.018C226.37 119.858 226.874 119.778 227.467 119.778C227.607 119.778 227.77 119.785 227.955 119.798C228.144 119.808 228.3 119.826 228.424 119.852V121.058C228.294 121.028 228.154 121.006 228.004 120.989C227.857 120.97 227.711 120.96 227.564 120.96C226.972 120.96 226.513 121.054 226.187 121.243C225.865 121.432 225.637 121.694 225.504 122.029C225.374 122.361 225.297 122.749 225.274 123.191H225.338C225.429 123.032 225.543 122.89 225.68 122.767C225.82 122.643 225.989 122.545 226.187 122.474C226.386 122.399 226.619 122.361 226.886 122.361C227.302 122.361 227.664 122.451 227.97 122.63C228.276 122.806 228.512 123.061 228.678 123.396C228.844 123.732 228.927 124.14 228.927 124.622C228.927 125.136 228.827 125.579 228.629 125.95C228.43 126.321 228.149 126.606 227.784 126.805C227.423 127 226.993 127.098 226.495 127.098C226.131 127.098 225.79 127.036 225.475 126.912C225.159 126.785 224.882 126.593 224.645 126.336C224.407 126.079 224.221 125.755 224.088 125.364C223.954 124.97 223.888 124.505 223.888 123.968ZM226.466 125.892C226.762 125.892 227.003 125.791 227.188 125.589C227.374 125.387 227.467 125.071 227.467 124.642C227.467 124.293 227.385 124.02 227.223 123.821C227.063 123.619 226.821 123.519 226.495 123.519C226.274 123.519 226.078 123.569 225.909 123.67C225.743 123.768 225.615 123.893 225.523 124.046C225.432 124.196 225.387 124.35 225.387 124.51C225.387 124.676 225.409 124.84 225.455 125.003C225.501 125.166 225.569 125.314 225.66 125.447C225.751 125.581 225.864 125.688 225.997 125.77C226.134 125.851 226.29 125.892 226.466 125.892Z" fill="#2C3437"/>
<path d="M0 98H116.39V134H9.99999C4.47715 134 0 129.523 0 124V98Z" fill="#FBF0F4"/>
<path d="M73.6517 123.879L73.4222 125.012H74.682V126.018H73.2318L72.8558 128H71.7816L72.1625 126.018H71.2152L70.8441 128H69.7943L70.1556 126.018H68.9935V125.012H70.3461L70.5756 123.879H69.3451V122.858H70.7562L71.1322 120.871H72.2015L71.8256 122.858H72.7924L73.1732 120.871H74.223L73.8422 122.858H75.014V123.879H73.6517ZM71.4056 125.012H72.3627L72.5922 123.879H71.6351L71.4056 125.012ZM77.6263 128H76.1371V120.861H80.2289V122.102H77.6263V123.942H80.0482V125.178H77.6263V128ZM81.6254 120.861H83.847C84.7976 120.861 85.517 120.995 86.0052 121.262C86.4935 121.529 86.7377 121.997 86.7377 122.668C86.7377 122.938 86.6937 123.182 86.6058 123.4C86.5212 123.618 86.3975 123.798 86.2347 123.938C86.072 124.077 85.8734 124.169 85.639 124.211V124.26C85.8767 124.309 86.0915 124.393 86.2836 124.514C86.4756 124.631 86.6286 124.803 86.7426 125.031C86.8597 125.256 86.9183 125.555 86.9183 125.93C86.9183 126.363 86.8125 126.734 86.601 127.043C86.3894 127.352 86.0866 127.59 85.6927 127.756C85.3021 127.919 84.8366 128 84.2963 128H81.6254V120.861ZM83.139 123.688H84.0179C84.4574 123.688 84.7618 123.62 84.931 123.483C85.1003 123.343 85.1849 123.138 85.1849 122.868C85.1849 122.595 85.084 122.399 84.8822 122.282C84.6836 122.162 84.3679 122.102 83.9349 122.102H83.139V123.688ZM83.139 124.89V126.75H84.1254C84.5811 126.75 84.8985 126.662 85.0775 126.486C85.2566 126.311 85.3461 126.075 85.3461 125.778C85.3461 125.603 85.307 125.448 85.2289 125.314C85.1508 125.181 85.0189 125.077 84.8334 125.002C84.6511 124.927 84.3988 124.89 84.0765 124.89H83.139ZM89.8334 128H88.3441V120.861H92.4359V122.102H89.8334V123.942H92.2552V125.178H89.8334V128ZM98.2855 124.431C98.2855 125.007 98.2399 125.521 98.1488 125.974C98.0609 126.426 97.9177 126.81 97.7191 127.126C97.5238 127.442 97.2666 127.683 96.9476 127.849C96.6286 128.015 96.2413 128.098 95.7855 128.098C95.2126 128.098 94.7422 127.953 94.3744 127.663C94.0066 127.37 93.7347 126.95 93.559 126.403C93.3832 125.853 93.2953 125.196 93.2953 124.431C93.2953 123.659 93.375 123 93.5345 122.453C93.6973 121.903 93.961 121.481 94.3256 121.188C94.6901 120.896 95.1768 120.749 95.7855 120.749C96.3552 120.749 96.8239 120.896 97.1918 121.188C97.5629 121.478 97.8379 121.898 98.017 122.448C98.196 122.995 98.2855 123.656 98.2855 124.431ZM94.7943 124.431C94.7943 124.974 94.8236 125.428 94.8822 125.793C94.9441 126.154 95.0466 126.426 95.1898 126.608C95.333 126.791 95.5316 126.882 95.7855 126.882C96.0362 126.882 96.2331 126.792 96.3763 126.613C96.5228 126.431 96.627 126.159 96.6888 125.798C96.7507 125.433 96.7816 124.978 96.7816 124.431C96.7816 123.887 96.7507 123.433 96.6888 123.068C96.627 122.704 96.5228 122.43 96.3763 122.248C96.2331 122.062 96.0362 121.97 95.7855 121.97C95.5316 121.97 95.333 122.062 95.1898 122.248C95.0466 122.43 94.9441 122.704 94.8822 123.068C94.8236 123.433 94.7943 123.887 94.7943 124.431ZM101.044 128H99.5551V120.861H103.647V122.102H101.044V123.942H103.466V125.178H101.044V128ZM109.697 126.521H108.837V128H107.363V126.521H104.316V125.471L107.446 120.861H108.837V125.349H109.697V126.521ZM107.363 125.349V124.138C107.363 124.024 107.364 123.889 107.368 123.732C107.374 123.576 107.381 123.42 107.387 123.264C107.394 123.107 107.4 122.969 107.407 122.849C107.416 122.725 107.423 122.639 107.426 122.59H107.387C107.325 122.723 107.26 122.854 107.192 122.98C107.123 123.104 107.044 123.234 106.953 123.371L105.644 125.349H107.363Z" fill="#2C3437"/>
</svg>
