<svg width="935" height="134" viewBox="0 0 935 134" fill="none" xmlns="http://www.w3.org/2000/svg">
<rect width="934.03" height="134" rx="10" fill="#5FA04E"/>
<path d="M847.202 75.7578L846.743 78.0234H849.262V80.0352H846.362L845.61 84H843.461L844.223 80.0352H842.328L841.586 84H839.487L840.209 80.0352H837.885V78.0234H840.59L841.049 75.7578H838.588V73.7168H841.411L842.162 69.7422H844.301L843.549 73.7168H845.483L846.245 69.7422H848.344L847.582 73.7168H849.926V75.7578H847.202ZM842.709 78.0234H844.623L845.082 75.7578H843.168L842.709 78.0234ZM856.371 74.8789C857.244 74.8789 858.019 75.0449 858.696 75.377C859.379 75.709 859.916 76.1973 860.307 76.8418C860.698 77.4863 860.893 78.2806 860.893 79.2246C860.893 80.2533 860.678 81.1419 860.248 81.8906C859.825 82.6328 859.19 83.2025 858.344 83.5996C857.504 83.9967 856.456 84.1953 855.2 84.1953C854.451 84.1953 853.745 84.1302 853.08 84C852.423 83.8763 851.847 83.6842 851.352 83.4238V80.8164C851.847 81.0768 852.439 81.2982 853.129 81.4805C853.826 81.6562 854.48 81.7441 855.092 81.7441C855.691 81.7441 856.196 81.666 856.606 81.5098C857.016 81.347 857.325 81.0996 857.534 80.7676C857.748 80.429 857.856 79.9993 857.856 79.4785C857.856 78.7819 857.621 78.248 857.153 77.877C856.684 77.5059 855.965 77.3203 854.995 77.3203C854.623 77.3203 854.236 77.3561 853.832 77.4277C853.435 77.4993 853.103 77.571 852.836 77.6426L851.635 76.998L852.172 69.7227H859.916V72.2812H854.819L854.555 75.084C854.776 75.0384 855.017 74.9928 855.278 74.9473C855.538 74.9017 855.903 74.8789 856.371 74.8789ZM866.596 84H863.618V69.7227H871.801V72.2031H866.596V75.8848H871.44V78.3555H866.596V84ZM883.334 84L882.299 80.6016H877.094L876.059 84H872.797L877.836 69.6641H881.537L886.596 84H883.334ZM881.577 78.0625L880.541 74.7422C880.476 74.5208 880.388 74.2376 880.278 73.8926C880.174 73.541 880.066 73.1862 879.955 72.8281C879.851 72.4635 879.767 72.1478 879.702 71.8809C879.636 72.1478 879.545 72.4798 879.428 72.877C879.317 73.2676 879.21 73.6387 879.106 73.9902C879.002 74.3418 878.927 74.5924 878.881 74.7422L877.856 78.0625H881.577ZM897.309 76.8613C897.309 78.0137 897.218 79.0423 897.036 79.9473C896.86 80.8522 896.573 81.6204 896.176 82.252C895.786 82.8835 895.271 83.3652 894.633 83.6973C893.995 84.0293 893.22 84.1953 892.309 84.1953C891.163 84.1953 890.222 83.9056 889.487 83.3262C888.751 82.7402 888.207 81.9004 887.856 80.8066C887.504 79.7064 887.328 78.3913 887.328 76.8613C887.328 75.3184 887.488 74 887.807 72.9062C888.133 71.806 888.66 70.9629 889.389 70.377C890.118 69.791 891.092 69.498 892.309 69.498C893.448 69.498 894.386 69.791 895.121 70.377C895.864 70.9564 896.414 71.7962 896.772 72.8965C897.13 73.9902 897.309 75.3118 897.309 76.8613ZM890.327 76.8613C890.327 77.9486 890.385 78.8568 890.502 79.5859C890.626 80.3086 890.831 80.8522 891.118 81.2168C891.404 81.5814 891.801 81.7637 892.309 81.7637C892.81 81.7637 893.204 81.5846 893.491 81.2266C893.784 80.862 893.992 80.3184 894.116 79.5957C894.239 78.8665 894.301 77.9551 894.301 76.8613C894.301 75.7741 894.239 74.8659 894.116 74.1367C893.992 73.4076 893.784 72.8607 893.491 72.4961C893.204 72.125 892.81 71.9395 892.309 71.9395C891.801 71.9395 891.404 72.125 891.118 72.4961C890.831 72.8607 890.626 73.4076 890.502 74.1367C890.385 74.8659 890.327 75.7741 890.327 76.8613ZM909.155 81.041H907.436V84H904.487V81.041H898.393V78.9414L904.653 69.7227H907.436V78.6973H909.155V81.041ZM904.487 78.6973V76.2754C904.487 76.0475 904.49 75.7773 904.496 75.4648C904.509 75.1523 904.523 74.8398 904.536 74.5273C904.549 74.2148 904.562 73.9382 904.575 73.6973C904.594 73.4499 904.607 73.2773 904.614 73.1797H904.536C904.412 73.4466 904.282 73.707 904.145 73.9609C904.008 74.2083 903.849 74.4688 903.666 74.7422L901.049 78.6973H904.487ZM919.516 84H911.293V69.7227H919.516V72.2031H914.321V75.3379H919.155V77.8184H914.321V81.5H919.516V84Z" fill="white"/>
<path d="M817.64 98H934.03V124C934.03 129.523 929.553 134 924.03 134H817.64V98Z" fill="#1A3F1D"/>
<path d="M888.864 123.879L888.635 125.012H889.894V126.018H888.444L888.068 128H886.994L887.375 126.018H886.428L886.056 128H885.007L885.368 126.018H884.206V125.012H885.558L885.788 123.879H884.557V122.858H885.969L886.345 120.871H887.414L887.038 122.858H888.005L888.386 120.871H889.435L889.054 122.858H890.226V123.879H888.864ZM886.618 125.012H887.575L887.804 123.879H886.847L886.618 125.012ZM894.582 128H893.073V123.869C893.073 123.755 893.075 123.615 893.078 123.449C893.081 123.28 893.086 123.107 893.093 122.932C893.099 122.753 893.106 122.591 893.112 122.448C893.076 122.491 893.003 122.564 892.892 122.668C892.785 122.769 892.684 122.86 892.59 122.941L891.769 123.601L891.042 122.692L893.342 120.861H894.582V128ZM901.442 128L900.925 126.301H898.322L897.804 128H896.174L898.693 120.832H900.544L903.073 128H901.442ZM900.563 125.031L900.046 123.371C900.013 123.26 899.969 123.119 899.914 122.946C899.862 122.771 899.808 122.593 899.753 122.414C899.701 122.232 899.658 122.074 899.626 121.94C899.593 122.074 899.548 122.24 899.489 122.438C899.434 122.634 899.38 122.819 899.328 122.995C899.276 123.171 899.238 123.296 899.216 123.371L898.703 125.031H900.563ZM908.19 122.458C908.19 122.787 908.122 123.072 907.985 123.312C907.848 123.553 907.663 123.75 907.428 123.903C907.197 124.056 906.937 124.169 906.647 124.24V124.27C907.22 124.341 907.655 124.517 907.951 124.797C908.25 125.077 908.4 125.451 908.4 125.92C908.4 126.337 908.298 126.709 908.093 127.038C907.891 127.367 907.578 127.626 907.155 127.814C906.732 128.003 906.187 128.098 905.519 128.098C905.125 128.098 904.758 128.065 904.416 128C904.077 127.938 903.758 127.842 903.459 127.712V126.428C903.765 126.584 904.085 126.703 904.421 126.784C904.756 126.862 905.068 126.901 905.358 126.901C905.899 126.901 906.276 126.809 906.491 126.623C906.709 126.434 906.818 126.171 906.818 125.832C906.818 125.633 906.768 125.466 906.667 125.329C906.566 125.192 906.39 125.088 906.139 125.017C905.892 124.945 905.545 124.909 905.099 124.909H904.557V123.752H905.109C905.549 123.752 905.882 123.711 906.11 123.63C906.341 123.545 906.498 123.431 906.579 123.288C906.664 123.142 906.706 122.976 906.706 122.79C906.706 122.536 906.628 122.338 906.471 122.194C906.315 122.051 906.055 121.979 905.69 121.979C905.462 121.979 905.254 122.009 905.065 122.067C904.88 122.123 904.712 122.191 904.562 122.272C904.413 122.351 904.281 122.427 904.167 122.502L903.469 121.462C903.748 121.26 904.076 121.092 904.45 120.959C904.828 120.826 905.277 120.759 905.798 120.759C906.533 120.759 907.116 120.907 907.546 121.203C907.975 121.499 908.19 121.918 908.19 122.458ZM911.188 128H909.699V120.861H913.791V122.102H911.188V123.942H913.61V125.178H911.188V128ZM918.42 128H916.911V123.869C916.911 123.755 916.913 123.615 916.916 123.449C916.919 123.28 916.924 123.107 916.93 122.932C916.937 122.753 916.943 122.591 916.95 122.448C916.914 122.491 916.841 122.564 916.73 122.668C916.623 122.769 916.522 122.86 916.428 122.941L915.607 123.601L914.88 122.692L917.179 120.861H918.42V128ZM926.833 124.362C926.833 125.166 926.678 125.839 926.369 126.379C926.063 126.916 925.619 127.321 925.036 127.595C924.453 127.865 923.752 128 922.931 128H920.91V120.861H923.151C923.9 120.861 924.549 120.995 925.099 121.262C925.65 121.525 926.076 121.918 926.379 122.438C926.681 122.956 926.833 123.597 926.833 124.362ZM925.261 124.401C925.261 123.874 925.182 123.441 925.026 123.103C924.873 122.761 924.645 122.508 924.343 122.346C924.043 122.183 923.672 122.102 923.229 122.102H922.424V126.75H923.073C923.812 126.75 924.36 126.553 924.719 126.159C925.08 125.765 925.261 125.179 925.261 124.401Z" fill="white"/>
<path d="M700.28 98H817.64V134H700.28V98Z" fill="#215127"/>
<path d="M776.101 123.879L775.871 125.012H777.131V126.018H775.681L775.305 128H774.231L774.612 126.018H773.664L773.293 128H772.244L772.605 126.018H771.443V125.012H772.795L773.025 123.879H771.794V122.858H773.205L773.581 120.871H774.651L774.275 122.858H775.242L775.622 120.871H776.672L776.291 122.858H777.463V123.879H776.101ZM773.855 125.012H774.812L775.041 123.879H774.084L773.855 125.012ZM783.078 128H778.088V126.95L779.88 125.139C780.242 124.768 780.531 124.458 780.749 124.211C780.971 123.96 781.13 123.732 781.228 123.527C781.329 123.322 781.379 123.103 781.379 122.868C781.379 122.585 781.3 122.373 781.14 122.233C780.984 122.09 780.774 122.019 780.51 122.019C780.233 122.019 779.965 122.082 779.704 122.209C779.444 122.336 779.172 122.517 778.889 122.751L778.069 121.779C778.274 121.604 778.49 121.438 778.718 121.281C778.949 121.125 779.216 121 779.519 120.905C779.825 120.808 780.191 120.759 780.618 120.759C781.086 120.759 781.488 120.843 781.824 121.013C782.162 121.182 782.423 121.413 782.605 121.706C782.787 121.996 782.878 122.325 782.878 122.692C782.878 123.086 782.8 123.446 782.644 123.771C782.488 124.097 782.26 124.419 781.96 124.738C781.664 125.057 781.306 125.41 780.886 125.798L779.968 126.662V126.73H783.078V128ZM787.541 128H786.033V123.869C786.033 123.755 786.034 123.615 786.037 123.449C786.041 123.28 786.046 123.107 786.052 122.932C786.059 122.753 786.065 122.591 786.072 122.448C786.036 122.491 785.963 122.564 785.852 122.668C785.745 122.769 785.644 122.86 785.549 122.941L784.729 123.601L784.001 122.692L786.301 120.861H787.541V128ZM792.131 123.439C792.567 123.439 792.955 123.522 793.293 123.688C793.635 123.854 793.904 124.099 794.099 124.421C794.294 124.743 794.392 125.14 794.392 125.612C794.392 126.127 794.285 126.571 794.07 126.945C793.858 127.316 793.541 127.601 793.118 127.8C792.698 127.998 792.174 128.098 791.545 128.098C791.171 128.098 790.818 128.065 790.486 128C790.157 127.938 789.869 127.842 789.621 127.712V126.408C789.869 126.538 790.165 126.649 790.51 126.74C790.858 126.828 791.186 126.872 791.492 126.872C791.791 126.872 792.043 126.833 792.248 126.755C792.453 126.674 792.608 126.55 792.712 126.384C792.82 126.215 792.873 126 792.873 125.739C792.873 125.391 792.756 125.124 792.522 124.938C792.287 124.753 791.928 124.66 791.443 124.66C791.257 124.66 791.064 124.678 790.862 124.714C790.663 124.75 790.497 124.785 790.364 124.821L789.763 124.499L790.032 120.861H793.904V122.141H791.355L791.223 123.542C791.334 123.519 791.454 123.496 791.584 123.474C791.715 123.451 791.897 123.439 792.131 123.439ZM798.987 128H797.478V123.869C797.478 123.755 797.48 123.615 797.483 123.449C797.486 123.28 797.491 123.107 797.497 122.932C797.504 122.753 797.51 122.591 797.517 122.448C797.481 122.491 797.408 122.564 797.297 122.668C797.19 122.769 797.089 122.86 796.995 122.941L796.174 123.601L795.447 122.692L797.746 120.861H798.987V128ZM805.969 128H800.979V126.95L802.771 125.139C803.132 124.768 803.422 124.458 803.64 124.211C803.861 123.96 804.021 123.732 804.119 123.527C804.219 123.322 804.27 123.103 804.27 122.868C804.27 122.585 804.19 122.373 804.031 122.233C803.874 122.09 803.664 122.019 803.401 122.019C803.124 122.019 802.856 122.082 802.595 122.209C802.335 122.336 802.063 122.517 801.78 122.751L800.959 121.779C801.164 121.604 801.381 121.438 801.609 121.281C801.84 121.125 802.107 121 802.41 120.905C802.716 120.808 803.082 120.759 803.508 120.759C803.977 120.759 804.379 120.843 804.714 121.013C805.053 121.182 805.313 121.413 805.495 121.706C805.678 121.996 805.769 122.325 805.769 122.692C805.769 123.086 805.691 123.446 805.535 123.771C805.378 124.097 805.15 124.419 804.851 124.738C804.555 125.057 804.197 125.41 803.777 125.798L802.859 126.662V126.73H805.969V128ZM807.41 128L810.09 122.131H806.57V120.861H811.692V121.809L808.992 128H807.41Z" fill="white"/>
<path d="M583.89 98H700.28V134H583.89V98Z" fill="#2C682C"/>
<path d="M655.462 123.879L655.233 125.012H656.493V126.018H655.043L654.667 128H653.592L653.973 126.018H653.026L652.655 128H651.605L651.966 126.018H650.804V125.012H652.157L652.386 123.879H651.156V122.858H652.567L652.943 120.871H654.012L653.636 122.858H654.603L654.984 120.871H656.034L655.653 122.858H656.825V123.879H655.462ZM653.216 125.012H654.173L654.403 123.879H653.446L653.216 125.012ZM662.44 128H657.45V126.95L659.242 125.139C659.603 124.768 659.893 124.458 660.111 124.211C660.332 123.96 660.492 123.732 660.589 123.527C660.69 123.322 660.741 123.103 660.741 122.868C660.741 122.585 660.661 122.373 660.502 122.233C660.345 122.09 660.135 122.019 659.872 122.019C659.595 122.019 659.326 122.082 659.066 122.209C658.806 122.336 658.534 122.517 658.251 122.751L657.43 121.779C657.635 121.604 657.852 121.438 658.08 121.281C658.311 121.125 658.578 121 658.88 120.905C659.186 120.808 659.553 120.759 659.979 120.759C660.448 120.759 660.85 120.843 661.185 121.013C661.524 121.182 661.784 121.413 661.966 121.706C662.149 121.996 662.24 122.325 662.24 122.692C662.24 123.086 662.162 123.446 662.005 123.771C661.849 124.097 661.621 124.419 661.322 124.738C661.026 125.057 660.668 125.41 660.248 125.798L659.33 126.662V126.73H662.44V128ZM666.703 122.019C666.413 122.019 666.156 122.076 665.931 122.189C665.71 122.3 665.523 122.461 665.37 122.673C665.22 122.884 665.106 123.14 665.028 123.439C664.95 123.739 664.911 124.076 664.911 124.45C664.911 124.955 664.973 125.386 665.096 125.744C665.223 126.099 665.419 126.371 665.682 126.56C665.946 126.745 666.286 126.838 666.703 126.838C666.992 126.838 667.282 126.805 667.572 126.74C667.865 126.675 668.182 126.582 668.524 126.462V127.731C668.208 127.862 667.897 127.954 667.591 128.01C667.285 128.068 666.942 128.098 666.561 128.098C665.825 128.098 665.22 127.946 664.745 127.644C664.273 127.338 663.923 126.911 663.695 126.364C663.467 125.814 663.353 125.173 663.353 124.44C663.353 123.9 663.426 123.405 663.573 122.956C663.719 122.507 663.934 122.118 664.217 121.789C664.501 121.46 664.851 121.206 665.267 121.027C665.684 120.848 666.162 120.759 666.703 120.759C667.058 120.759 667.412 120.804 667.767 120.896C668.125 120.983 668.467 121.105 668.793 121.262L668.304 122.492C668.037 122.365 667.769 122.255 667.499 122.16C667.228 122.066 666.963 122.019 666.703 122.019ZM669.501 124.968C669.501 124.558 669.53 124.152 669.588 123.752C669.65 123.348 669.756 122.969 669.906 122.614C670.056 122.256 670.266 121.94 670.536 121.667C670.806 121.39 671.149 121.174 671.566 121.018C671.983 120.858 672.487 120.778 673.08 120.778C673.22 120.778 673.382 120.785 673.568 120.798C673.757 120.808 673.913 120.826 674.037 120.852V122.058C673.907 122.028 673.767 122.006 673.617 121.989C673.47 121.97 673.324 121.96 673.177 121.96C672.585 121.96 672.126 122.054 671.8 122.243C671.478 122.432 671.25 122.694 671.117 123.029C670.987 123.361 670.91 123.749 670.887 124.191H670.951C671.042 124.032 671.156 123.89 671.293 123.767C671.433 123.643 671.602 123.545 671.8 123.474C671.999 123.399 672.232 123.361 672.499 123.361C672.915 123.361 673.277 123.451 673.583 123.63C673.889 123.806 674.125 124.061 674.291 124.396C674.457 124.732 674.54 125.14 674.54 125.622C674.54 126.136 674.44 126.579 674.242 126.95C674.043 127.321 673.762 127.606 673.397 127.805C673.036 128 672.606 128.098 672.108 128.098C671.743 128.098 671.403 128.036 671.087 127.912C670.772 127.785 670.495 127.593 670.257 127.336C670.02 127.079 669.834 126.755 669.701 126.364C669.567 125.97 669.501 125.505 669.501 124.968ZM672.079 126.892C672.375 126.892 672.616 126.791 672.801 126.589C672.987 126.387 673.08 126.071 673.08 125.642C673.08 125.293 672.998 125.02 672.836 124.821C672.676 124.619 672.434 124.519 672.108 124.519C671.887 124.519 671.691 124.569 671.522 124.67C671.356 124.768 671.227 124.893 671.136 125.046C671.045 125.196 671 125.35 671 125.51C671 125.676 671.022 125.84 671.068 126.003C671.114 126.166 671.182 126.314 671.273 126.447C671.364 126.581 671.476 126.688 671.61 126.77C671.747 126.851 671.903 126.892 672.079 126.892ZM677.733 120.769C678.143 120.769 678.521 120.832 678.866 120.959C679.214 121.086 679.492 121.278 679.701 121.535C679.909 121.789 680.013 122.108 680.013 122.492C680.013 122.779 679.956 123.029 679.842 123.244C679.732 123.459 679.58 123.648 679.388 123.811C679.196 123.97 678.978 124.11 678.734 124.23C678.988 124.364 679.229 124.52 679.457 124.699C679.684 124.875 679.87 125.082 680.013 125.319C680.16 125.557 680.233 125.834 680.233 126.149C680.233 126.547 680.127 126.892 679.916 127.185C679.704 127.474 679.411 127.699 679.037 127.858C678.662 128.018 678.228 128.098 677.733 128.098C677.199 128.098 676.745 128.021 676.371 127.868C675.996 127.715 675.712 127.497 675.516 127.214C675.321 126.927 675.223 126.586 675.223 126.188C675.223 125.863 675.283 125.58 675.404 125.339C675.528 125.098 675.694 124.891 675.902 124.719C676.11 124.543 676.34 124.393 676.59 124.27C676.379 124.136 676.185 123.985 676.009 123.815C675.837 123.646 675.698 123.452 675.594 123.234C675.493 123.016 675.443 122.766 675.443 122.482C675.443 122.105 675.549 121.789 675.76 121.535C675.975 121.281 676.257 121.091 676.605 120.964C676.953 120.834 677.329 120.769 677.733 120.769ZM676.62 126.101C676.62 126.358 676.711 126.571 676.893 126.74C677.079 126.906 677.352 126.989 677.713 126.989C678.088 126.989 678.368 126.91 678.553 126.75C678.739 126.587 678.832 126.374 678.832 126.11C678.832 125.928 678.778 125.769 678.671 125.632C678.566 125.495 678.434 125.373 678.275 125.266C678.115 125.155 677.954 125.052 677.792 124.958L677.66 124.89C677.451 124.984 677.269 125.09 677.113 125.207C676.96 125.324 676.839 125.456 676.752 125.603C676.664 125.749 676.62 125.915 676.62 126.101ZM677.723 121.872C677.476 121.872 677.271 121.936 677.108 122.062C676.945 122.189 676.864 122.368 676.864 122.6C676.864 122.762 676.903 122.906 676.981 123.029C677.062 123.15 677.168 123.256 677.298 123.347C677.432 123.438 677.577 123.522 677.733 123.601C677.883 123.529 678.023 123.449 678.153 123.361C678.283 123.273 678.389 123.168 678.47 123.044C678.552 122.92 678.592 122.772 678.592 122.6C678.592 122.368 678.509 122.189 678.343 122.062C678.181 121.936 677.974 121.872 677.723 121.872ZM685.985 128H680.995V126.95L682.787 125.139C683.148 124.768 683.438 124.458 683.656 124.211C683.877 123.96 684.037 123.732 684.134 123.527C684.235 123.322 684.286 123.103 684.286 122.868C684.286 122.585 684.206 122.373 684.046 122.233C683.89 122.09 683.68 122.019 683.417 122.019C683.14 122.019 682.871 122.082 682.611 122.209C682.351 122.336 682.079 122.517 681.796 122.751L680.975 121.779C681.18 121.604 681.397 121.438 681.625 121.281C681.856 121.125 682.123 121 682.425 120.905C682.731 120.808 683.098 120.759 683.524 120.759C683.993 120.759 684.395 120.843 684.73 121.013C685.069 121.182 685.329 121.413 685.511 121.706C685.694 121.996 685.785 122.325 685.785 122.692C685.785 123.086 685.707 123.446 685.55 123.771C685.394 124.097 685.166 124.419 684.867 124.738C684.571 125.057 684.212 125.41 683.793 125.798L682.875 126.662V126.73H685.985V128ZM690.248 122.019C689.958 122.019 689.701 122.076 689.476 122.189C689.255 122.3 689.068 122.461 688.915 122.673C688.765 122.884 688.651 123.14 688.573 123.439C688.495 123.739 688.456 124.076 688.456 124.45C688.456 124.955 688.518 125.386 688.641 125.744C688.768 126.099 688.963 126.371 689.227 126.56C689.491 126.745 689.831 126.838 690.248 126.838C690.537 126.838 690.827 126.805 691.117 126.74C691.41 126.675 691.727 126.582 692.069 126.462V127.731C691.753 127.862 691.442 127.954 691.136 128.01C690.83 128.068 690.487 128.098 690.106 128.098C689.37 128.098 688.765 127.946 688.29 127.644C687.818 127.338 687.468 126.911 687.24 126.364C687.012 125.814 686.898 125.173 686.898 124.44C686.898 123.9 686.971 123.405 687.118 122.956C687.264 122.507 687.479 122.118 687.762 121.789C688.046 121.46 688.395 121.206 688.812 121.027C689.229 120.848 689.707 120.759 690.248 120.759C690.602 120.759 690.957 120.804 691.312 120.896C691.67 120.983 692.012 121.105 692.337 121.262L691.849 122.492C691.582 122.365 691.314 122.255 691.044 122.16C690.773 122.066 690.508 122.019 690.248 122.019Z" fill="white"/>
<path d="M467.5 98H583.89V134H467.5V98Z" fill="#417E38"/>
<path d="M542.438 123.879L542.209 125.012H543.468V126.018H542.018L541.642 128H540.568L540.949 126.018H540.002L539.63 128H538.581L538.942 126.018H537.78V125.012H539.132L539.362 123.879H538.131V122.858H539.543L539.919 120.871H540.988L540.612 122.858H541.579L541.96 120.871H543.009L542.628 122.858H543.8V123.879H542.438ZM540.192 125.012H541.149L541.378 123.879H540.421L540.192 125.012ZM549.577 126.521H548.717V128H547.243V126.521H544.196V125.471L547.326 120.861H548.717V125.349H549.577V126.521ZM547.243 125.349V124.138C547.243 124.024 547.244 123.889 547.248 123.732C547.254 123.576 547.261 123.42 547.267 123.264C547.274 123.107 547.28 122.969 547.287 122.849C547.296 122.725 547.303 122.639 547.306 122.59H547.267C547.205 122.723 547.14 122.854 547.072 122.98C547.003 123.104 546.924 123.234 546.833 123.371L545.524 125.349H547.243ZM553.878 128H552.37V123.869C552.37 123.755 552.371 123.615 552.375 123.449C552.378 123.28 552.383 123.107 552.389 122.932C552.396 122.753 552.402 122.591 552.409 122.448C552.373 122.491 552.3 122.564 552.189 122.668C552.082 122.769 551.981 122.86 551.886 122.941L551.066 123.601L550.338 122.692L552.638 120.861H553.878V128ZM556.579 128L559.259 122.131H555.739V120.861H560.861V121.809L558.161 128H556.579ZM566.203 128H562.091V120.861H566.203V122.102H563.605V123.669H566.022V124.909H563.605V126.75H566.203V128ZM571.911 122.458C571.911 122.787 571.842 123.072 571.706 123.312C571.569 123.553 571.383 123.75 571.149 123.903C570.918 124.056 570.657 124.169 570.368 124.24V124.27C570.941 124.341 571.375 124.517 571.671 124.797C571.971 125.077 572.121 125.451 572.121 125.92C572.121 126.337 572.018 126.709 571.813 127.038C571.611 127.367 571.299 127.626 570.876 127.814C570.452 128.003 569.907 128.098 569.24 128.098C568.846 128.098 568.478 128.065 568.136 128C567.798 127.938 567.479 127.842 567.179 127.712V126.428C567.485 126.584 567.806 126.703 568.141 126.784C568.476 126.862 568.789 126.901 569.079 126.901C569.619 126.901 569.997 126.809 570.211 126.623C570.43 126.434 570.539 126.171 570.539 125.832C570.539 125.633 570.488 125.466 570.387 125.329C570.286 125.192 570.111 125.088 569.86 125.017C569.613 124.945 569.266 124.909 568.82 124.909H568.278V123.752H568.83C569.269 123.752 569.603 123.711 569.831 123.63C570.062 123.545 570.218 123.431 570.299 123.288C570.384 123.142 570.426 122.976 570.426 122.79C570.426 122.536 570.348 122.338 570.192 122.194C570.036 122.051 569.775 121.979 569.411 121.979C569.183 121.979 568.975 122.009 568.786 122.067C568.6 122.123 568.433 122.191 568.283 122.272C568.133 122.351 568.001 122.427 567.887 122.502L567.189 121.462C567.469 121.26 567.796 121.092 568.17 120.959C568.548 120.826 568.997 120.759 569.518 120.759C570.254 120.759 570.836 120.907 571.266 121.203C571.696 121.499 571.911 121.918 571.911 122.458ZM575.382 120.769C575.793 120.769 576.17 120.832 576.515 120.959C576.864 121.086 577.142 121.278 577.35 121.535C577.558 121.789 577.663 122.108 577.663 122.492C577.663 122.779 577.606 123.029 577.492 123.244C577.381 123.459 577.23 123.648 577.038 123.811C576.846 123.97 576.628 124.11 576.383 124.23C576.637 124.364 576.878 124.52 577.106 124.699C577.334 124.875 577.519 125.082 577.663 125.319C577.809 125.557 577.882 125.834 577.882 126.149C577.882 126.547 577.777 126.892 577.565 127.185C577.353 127.474 577.06 127.699 576.686 127.858C576.312 128.018 575.877 128.098 575.382 128.098C574.849 128.098 574.394 128.021 574.02 127.868C573.646 127.715 573.361 127.497 573.166 127.214C572.97 126.927 572.873 126.586 572.873 126.188C572.873 125.863 572.933 125.58 573.053 125.339C573.177 125.098 573.343 124.891 573.551 124.719C573.76 124.543 573.989 124.393 574.24 124.27C574.028 124.136 573.835 123.985 573.659 123.815C573.486 123.646 573.348 123.452 573.244 123.234C573.143 123.016 573.092 122.766 573.092 122.482C573.092 122.105 573.198 121.789 573.41 121.535C573.625 121.281 573.906 121.091 574.254 120.964C574.603 120.834 574.979 120.769 575.382 120.769ZM574.269 126.101C574.269 126.358 574.36 126.571 574.543 126.74C574.728 126.906 575.002 126.989 575.363 126.989C575.737 126.989 576.017 126.91 576.203 126.75C576.388 126.587 576.481 126.374 576.481 126.11C576.481 125.928 576.427 125.769 576.32 125.632C576.216 125.495 576.084 125.373 575.924 125.266C575.765 125.155 575.604 125.052 575.441 124.958L575.309 124.89C575.101 124.984 574.919 125.09 574.762 125.207C574.609 125.324 574.489 125.456 574.401 125.603C574.313 125.749 574.269 125.915 574.269 126.101ZM575.373 121.872C575.125 121.872 574.92 121.936 574.757 122.062C574.595 122.189 574.513 122.368 574.513 122.6C574.513 122.762 574.552 122.906 574.63 123.029C574.712 123.15 574.818 123.256 574.948 123.347C575.081 123.438 575.226 123.522 575.382 123.601C575.532 123.529 575.672 123.449 575.802 123.361C575.933 123.273 576.038 123.168 576.12 123.044C576.201 122.92 576.242 122.772 576.242 122.6C576.242 122.368 576.159 122.189 575.993 122.062C575.83 121.936 575.623 121.872 575.373 121.872Z" fill="white"/>
<path d="M350.14 98H467.5V134H350.14V98Z" fill="#84BA64"/>
<path d="M422.783 123.879L422.554 125.012H423.813V126.018H422.363L421.987 128H420.913L421.294 126.018H420.347L419.976 128H418.926L419.287 126.018H418.125V125.012H419.477L419.707 123.879H418.477V122.858H419.888L420.264 120.871H421.333L420.957 122.858H421.924L422.305 120.871H423.354L422.974 122.858H424.145V123.879H422.783ZM420.537 125.012H421.494L421.724 123.879H420.767L420.537 125.012ZM427.231 120.769C427.642 120.769 428.019 120.832 428.364 120.959C428.713 121.086 428.991 121.278 429.199 121.535C429.407 121.789 429.512 122.108 429.512 122.492C429.512 122.779 429.455 123.029 429.341 123.244C429.23 123.459 429.079 123.648 428.887 123.811C428.695 123.97 428.477 124.11 428.232 124.23C428.486 124.364 428.727 124.52 428.955 124.699C429.183 124.875 429.368 125.082 429.512 125.319C429.658 125.557 429.731 125.834 429.731 126.149C429.731 126.547 429.626 126.892 429.414 127.185C429.202 127.474 428.909 127.699 428.535 127.858C428.161 128.018 427.726 128.098 427.231 128.098C426.698 128.098 426.243 128.021 425.869 127.868C425.495 127.715 425.21 127.497 425.015 127.214C424.819 126.927 424.722 126.586 424.722 126.188C424.722 125.863 424.782 125.58 424.902 125.339C425.026 125.098 425.192 124.891 425.4 124.719C425.609 124.543 425.838 124.393 426.089 124.27C425.877 124.136 425.684 123.985 425.508 123.815C425.335 123.646 425.197 123.452 425.093 123.234C424.992 123.016 424.941 122.766 424.941 122.482C424.941 122.105 425.047 121.789 425.259 121.535C425.474 121.281 425.755 121.091 426.103 120.964C426.452 120.834 426.828 120.769 427.231 120.769ZM426.118 126.101C426.118 126.358 426.209 126.571 426.392 126.74C426.577 126.906 426.851 126.989 427.212 126.989C427.586 126.989 427.866 126.91 428.052 126.75C428.237 126.587 428.33 126.374 428.33 126.11C428.33 125.928 428.276 125.769 428.169 125.632C428.065 125.495 427.933 125.373 427.773 125.266C427.614 125.155 427.453 125.052 427.29 124.958L427.158 124.89C426.95 124.984 426.768 125.09 426.611 125.207C426.458 125.324 426.338 125.456 426.25 125.603C426.162 125.749 426.118 125.915 426.118 126.101ZM427.222 121.872C426.974 121.872 426.769 121.936 426.606 122.062C426.444 122.189 426.362 122.368 426.362 122.6C426.362 122.762 426.401 122.906 426.479 123.029C426.561 123.15 426.667 123.256 426.797 123.347C426.93 123.438 427.075 123.522 427.231 123.601C427.381 123.529 427.521 123.449 427.651 123.361C427.782 123.273 427.887 123.168 427.969 123.044C428.05 122.92 428.091 122.772 428.091 122.6C428.091 122.368 428.008 122.189 427.842 122.062C427.679 121.936 427.472 121.872 427.222 121.872ZM435.644 126.521H434.785V128H433.31V126.521H430.264V125.471L433.394 120.861H434.785V125.349H435.644V126.521ZM433.31 125.349V124.138C433.31 124.024 433.312 123.889 433.315 123.732C433.322 123.576 433.328 123.42 433.335 123.264C433.341 123.107 433.348 122.969 433.354 122.849C433.364 122.725 433.371 122.639 433.374 122.59H433.335C433.273 122.723 433.208 122.854 433.14 122.98C433.071 123.104 432.991 123.234 432.9 123.371L431.592 125.349H433.31ZM436.714 120.861H438.935C439.886 120.861 440.605 120.995 441.094 121.262C441.582 121.529 441.826 121.997 441.826 122.668C441.826 122.938 441.782 123.182 441.694 123.4C441.61 123.618 441.486 123.798 441.323 123.938C441.16 124.077 440.962 124.169 440.727 124.211V124.26C440.965 124.309 441.18 124.393 441.372 124.514C441.564 124.631 441.717 124.803 441.831 125.031C441.948 125.256 442.007 125.555 442.007 125.93C442.007 126.363 441.901 126.734 441.689 127.043C441.478 127.352 441.175 127.59 440.781 127.756C440.391 127.919 439.925 128 439.385 128H436.714V120.861ZM438.227 123.688H439.106C439.546 123.688 439.85 123.62 440.019 123.483C440.189 123.343 440.273 123.138 440.273 122.868C440.273 122.595 440.172 122.399 439.971 122.282C439.772 122.162 439.456 122.102 439.023 122.102H438.227V123.688ZM438.227 124.89V126.75H439.214C439.67 126.75 439.987 126.662 440.166 126.486C440.345 126.311 440.435 126.075 440.435 125.778C440.435 125.603 440.395 125.448 440.317 125.314C440.239 125.181 440.107 125.077 439.922 125.002C439.74 124.927 439.487 124.89 439.165 124.89H438.227ZM447.803 128L447.285 126.301H444.683L444.165 128H442.534L445.054 120.832H446.904L449.434 128H447.803ZM446.924 125.031L446.406 123.371C446.374 123.26 446.33 123.119 446.274 122.946C446.222 122.771 446.169 122.593 446.113 122.414C446.061 122.232 446.019 122.074 445.986 121.94C445.954 122.074 445.908 122.24 445.85 122.438C445.794 122.634 445.741 122.819 445.688 122.995C445.636 123.171 445.599 123.296 445.576 123.371L445.063 125.031H446.924ZM449.79 124.968C449.79 124.558 449.819 124.152 449.878 123.752C449.94 123.348 450.046 122.969 450.195 122.614C450.345 122.256 450.555 121.94 450.825 121.667C451.095 121.39 451.439 121.174 451.855 121.018C452.272 120.858 452.777 120.778 453.369 120.778C453.509 120.778 453.672 120.785 453.857 120.798C454.046 120.808 454.202 120.826 454.326 120.852V122.058C454.196 122.028 454.056 122.006 453.906 121.989C453.76 121.97 453.613 121.96 453.467 121.96C452.874 121.96 452.415 122.054 452.09 122.243C451.768 122.432 451.54 122.694 451.406 123.029C451.276 123.361 451.199 123.749 451.177 124.191H451.24C451.331 124.032 451.445 123.89 451.582 123.767C451.722 123.643 451.891 123.545 452.09 123.474C452.288 123.399 452.521 123.361 452.788 123.361C453.205 123.361 453.566 123.451 453.872 123.63C454.178 123.806 454.414 124.061 454.58 124.396C454.746 124.732 454.829 125.14 454.829 125.622C454.829 126.136 454.73 126.579 454.531 126.95C454.333 127.321 454.051 127.606 453.686 127.805C453.325 128 452.895 128.098 452.397 128.098C452.033 128.098 451.693 128.036 451.377 127.912C451.061 127.785 450.784 127.593 450.547 127.336C450.309 127.079 450.124 126.755 449.99 126.364C449.857 125.97 449.79 125.505 449.79 124.968ZM452.368 126.892C452.664 126.892 452.905 126.791 453.091 126.589C453.276 126.387 453.369 126.071 453.369 125.642C453.369 125.293 453.288 125.02 453.125 124.821C452.965 124.619 452.723 124.519 452.397 124.519C452.176 124.519 451.981 124.569 451.811 124.67C451.645 124.768 451.517 124.893 451.426 125.046C451.335 125.196 451.289 125.35 451.289 125.51C451.289 125.676 451.312 125.84 451.357 126.003C451.403 126.166 451.471 126.314 451.562 126.447C451.654 126.581 451.766 126.688 451.899 126.77C452.036 126.851 452.192 126.892 452.368 126.892ZM460.713 126.521H459.853V128H458.379V126.521H455.332V125.471L458.462 120.861H459.853V125.349H460.713V126.521ZM458.379 125.349V124.138C458.379 124.024 458.38 123.889 458.384 123.732C458.39 123.576 458.397 123.42 458.403 123.264C458.41 123.107 458.416 122.969 458.423 122.849C458.433 122.725 458.439 122.639 458.442 122.59H458.403C458.341 122.723 458.276 122.854 458.208 122.98C458.14 123.104 458.06 123.234 457.969 123.371L456.66 125.349H458.379Z" fill="#2C3437"/>
<path d="M233.75 98H350.14V134H233.75V98Z" fill="#99CC7D"/>
<path d="M304.613 123.879L304.383 125.012H305.643V126.018H304.193L303.817 128H302.742L303.123 126.018H302.176L301.805 128H300.755L301.117 126.018H299.954V125.012H301.307L301.536 123.879H300.306V122.858H301.717L302.093 120.871H303.162L302.786 122.858H303.753L304.134 120.871H305.184L304.803 122.858H305.975V123.879H304.613ZM302.367 125.012H303.324L303.553 123.879H302.596L302.367 125.012ZM311.561 123.908C311.561 124.318 311.53 124.725 311.468 125.129C311.409 125.533 311.305 125.913 311.156 126.271C311.006 126.626 310.796 126.942 310.526 127.219C310.256 127.492 309.912 127.707 309.495 127.863C309.079 128.02 308.574 128.098 307.982 128.098C307.842 128.098 307.677 128.091 307.489 128.078C307.3 128.068 307.144 128.052 307.02 128.029V126.818C307.15 126.851 307.288 126.877 307.435 126.896C307.581 126.913 307.729 126.921 307.879 126.921C308.475 126.921 308.934 126.826 309.256 126.638C309.582 126.449 309.81 126.187 309.94 125.852C310.073 125.516 310.15 125.129 310.169 124.689H310.111C310.016 124.846 309.904 124.987 309.774 125.114C309.647 125.238 309.484 125.337 309.285 125.412C309.087 125.484 308.835 125.52 308.529 125.52C308.122 125.52 307.767 125.432 307.464 125.256C307.165 125.077 306.932 124.82 306.766 124.484C306.603 124.146 306.522 123.737 306.522 123.259C306.522 122.741 306.619 122.299 306.815 121.931C307.013 121.56 307.295 121.275 307.659 121.076C308.024 120.878 308.454 120.778 308.949 120.778C309.313 120.778 309.653 120.842 309.969 120.969C310.285 121.092 310.562 121.283 310.799 121.54C311.04 121.797 311.227 122.123 311.361 122.517C311.494 122.91 311.561 123.374 311.561 123.908ZM308.978 121.989C308.685 121.989 308.446 122.09 308.26 122.292C308.075 122.494 307.982 122.81 307.982 123.239C307.982 123.584 308.062 123.858 308.221 124.06C308.381 124.261 308.623 124.362 308.949 124.362C309.173 124.362 309.368 124.313 309.534 124.216C309.701 124.115 309.829 123.99 309.92 123.84C310.015 123.687 310.062 123.531 310.062 123.371C310.062 123.205 310.039 123.041 309.993 122.878C309.948 122.715 309.88 122.567 309.788 122.434C309.697 122.3 309.583 122.193 309.447 122.111C309.313 122.03 309.157 121.989 308.978 121.989ZM317.284 123.908C317.284 124.318 317.253 124.725 317.191 125.129C317.132 125.533 317.028 125.913 316.878 126.271C316.728 126.626 316.519 126.942 316.248 127.219C315.978 127.492 315.635 127.707 315.218 127.863C314.801 128.02 314.297 128.098 313.704 128.098C313.564 128.098 313.4 128.091 313.211 128.078C313.022 128.068 312.866 128.052 312.742 128.029V126.818C312.873 126.851 313.011 126.877 313.158 126.896C313.304 126.913 313.452 126.921 313.602 126.921C314.198 126.921 314.657 126.826 314.979 126.638C315.304 126.449 315.532 126.187 315.662 125.852C315.796 125.516 315.872 125.129 315.892 124.689H315.833C315.739 124.846 315.627 124.987 315.496 125.114C315.369 125.238 315.207 125.337 315.008 125.412C314.81 125.484 314.557 125.52 314.251 125.52C313.844 125.52 313.49 125.432 313.187 125.256C312.887 125.077 312.655 124.82 312.489 124.484C312.326 124.146 312.244 123.737 312.244 123.259C312.244 122.741 312.342 122.299 312.537 121.931C312.736 121.56 313.018 121.275 313.382 121.076C313.747 120.878 314.176 120.778 314.671 120.778C315.036 120.778 315.376 120.842 315.692 120.969C316.007 121.092 316.284 121.283 316.522 121.54C316.763 121.797 316.95 122.123 317.083 122.517C317.217 122.91 317.284 123.374 317.284 123.908ZM314.701 121.989C314.408 121.989 314.168 122.09 313.983 122.292C313.797 122.494 313.704 122.81 313.704 123.239C313.704 123.584 313.784 123.858 313.944 124.06C314.103 124.261 314.346 124.362 314.671 124.362C314.896 124.362 315.091 124.313 315.257 124.216C315.423 124.115 315.552 123.99 315.643 123.84C315.737 123.687 315.784 123.531 315.784 123.371C315.784 123.205 315.762 123.041 315.716 122.878C315.671 122.715 315.602 122.567 315.511 122.434C315.42 122.3 315.306 122.193 315.169 122.111C315.036 122.03 314.88 121.989 314.701 121.989ZM321.576 122.019C321.286 122.019 321.029 122.076 320.804 122.189C320.583 122.3 320.395 122.461 320.242 122.673C320.093 122.884 319.979 123.14 319.901 123.439C319.823 123.739 319.784 124.076 319.784 124.45C319.784 124.955 319.845 125.386 319.969 125.744C320.096 126.099 320.291 126.371 320.555 126.56C320.819 126.745 321.159 126.838 321.576 126.838C321.865 126.838 322.155 126.805 322.445 126.74C322.738 126.675 323.055 126.582 323.397 126.462V127.731C323.081 127.862 322.77 127.954 322.464 128.01C322.158 128.068 321.815 128.098 321.434 128.098C320.698 128.098 320.093 127.946 319.617 127.644C319.145 127.338 318.796 126.911 318.568 126.364C318.34 125.814 318.226 125.173 318.226 124.44C318.226 123.9 318.299 123.405 318.446 122.956C318.592 122.507 318.807 122.118 319.09 121.789C319.373 121.46 319.723 121.206 320.14 121.027C320.557 120.848 321.035 120.759 321.576 120.759C321.93 120.759 322.285 120.804 322.64 120.896C322.998 120.983 323.34 121.105 323.665 121.262L323.177 122.492C322.91 122.365 322.642 122.255 322.371 122.16C322.101 122.066 321.836 122.019 321.576 122.019ZM327.952 122.019C327.663 122.019 327.406 122.076 327.181 122.189C326.96 122.3 326.772 122.461 326.619 122.673C326.47 122.884 326.356 123.14 326.278 123.439C326.2 123.739 326.16 124.076 326.16 124.45C326.16 124.955 326.222 125.386 326.346 125.744C326.473 126.099 326.668 126.371 326.932 126.56C327.196 126.745 327.536 126.838 327.952 126.838C328.242 126.838 328.532 126.805 328.822 126.74C329.115 126.675 329.432 126.582 329.774 126.462V127.731C329.458 127.862 329.147 127.954 328.841 128.01C328.535 128.068 328.192 128.098 327.811 128.098C327.075 128.098 326.47 127.946 325.994 127.644C325.522 127.338 325.173 126.911 324.945 126.364C324.717 125.814 324.603 125.173 324.603 124.44C324.603 123.9 324.676 123.405 324.823 122.956C324.969 122.507 325.184 122.118 325.467 121.789C325.75 121.46 326.1 121.206 326.517 121.027C326.934 120.848 327.412 120.759 327.952 120.759C328.307 120.759 328.662 120.804 329.017 120.896C329.375 120.983 329.717 121.105 330.042 121.262L329.554 122.492C329.287 122.365 329.019 122.255 328.748 122.16C328.478 122.066 328.213 122.019 327.952 122.019ZM331.507 128L334.188 122.131H330.667V120.861H335.789V121.809L333.089 128H331.507ZM342.943 124.362C342.943 125.166 342.788 125.839 342.479 126.379C342.173 126.916 341.728 127.321 341.146 127.595C340.563 127.865 339.862 128 339.041 128H337.02V120.861H339.261C340.01 120.861 340.659 120.995 341.209 121.262C341.759 121.525 342.186 121.918 342.489 122.438C342.791 122.956 342.943 123.597 342.943 124.362ZM341.37 124.401C341.37 123.874 341.292 123.441 341.136 123.103C340.983 122.761 340.755 122.508 340.452 122.346C340.153 122.183 339.782 122.102 339.339 122.102H338.534V126.75H339.183C339.922 126.75 340.47 126.553 340.828 126.159C341.19 125.765 341.37 125.179 341.37 124.401Z" fill="#2C3437"/>
<path d="M116.39 98H233.75V134H116.39V98Z" fill="#C5E5B4"/>
<path d="M187.738 122.879L187.508 124.012H188.768V125.018H187.318L186.942 127H185.868L186.249 125.018H185.301L184.93 127H183.88L184.242 125.018H183.08V124.012H184.432L184.662 122.879H183.431V121.858H184.842L185.218 119.871H186.288L185.912 121.858H186.878L187.259 119.871H188.309L187.928 121.858H189.1V122.879H187.738ZM185.492 124.012H186.449L186.678 122.879H185.721L185.492 124.012ZM193.255 121.019C192.966 121.019 192.709 121.076 192.484 121.189C192.263 121.3 192.075 121.461 191.922 121.673C191.773 121.884 191.659 122.14 191.581 122.439C191.503 122.739 191.463 123.076 191.463 123.45C191.463 123.955 191.525 124.386 191.649 124.744C191.776 125.099 191.971 125.371 192.235 125.56C192.499 125.745 192.839 125.838 193.255 125.838C193.545 125.838 193.835 125.805 194.125 125.74C194.418 125.675 194.735 125.582 195.077 125.462V126.731C194.761 126.862 194.45 126.954 194.144 127.01C193.838 127.068 193.495 127.098 193.114 127.098C192.378 127.098 191.773 126.946 191.297 126.644C190.825 126.338 190.475 125.911 190.248 125.364C190.02 124.814 189.906 124.173 189.906 123.44C189.906 122.9 189.979 122.405 190.126 121.956C190.272 121.507 190.487 121.118 190.77 120.789C191.053 120.46 191.403 120.206 191.82 120.027C192.237 119.848 192.715 119.759 193.255 119.759C193.61 119.759 193.965 119.804 194.32 119.896C194.678 119.983 195.02 120.105 195.345 120.262L194.857 121.492C194.59 121.365 194.322 121.255 194.051 121.16C193.781 121.066 193.516 121.019 193.255 121.019ZM198.7 122.439C199.136 122.439 199.523 122.522 199.862 122.688C200.204 122.854 200.472 123.099 200.668 123.421C200.863 123.743 200.961 124.14 200.961 124.612C200.961 125.127 200.853 125.571 200.638 125.945C200.427 126.316 200.109 126.601 199.686 126.8C199.266 126.998 198.742 127.098 198.114 127.098C197.739 127.098 197.386 127.065 197.054 127C196.725 126.938 196.437 126.842 196.19 126.712V125.408C196.437 125.538 196.734 125.649 197.079 125.74C197.427 125.828 197.754 125.872 198.06 125.872C198.36 125.872 198.612 125.833 198.817 125.755C199.022 125.674 199.177 125.55 199.281 125.384C199.388 125.215 199.442 125 199.442 124.739C199.442 124.391 199.325 124.124 199.09 123.938C198.856 123.753 198.496 123.66 198.011 123.66C197.826 123.66 197.632 123.678 197.43 123.714C197.232 123.75 197.066 123.785 196.932 123.821L196.332 123.499L196.6 119.861H200.472V121.141H197.923L197.792 122.542C197.902 122.519 198.023 122.496 198.153 122.474C198.283 122.451 198.465 122.439 198.7 122.439ZM206.434 127H202.323V119.861H206.434V121.102H203.836V122.669H206.253V123.909H203.836V125.75H206.434V127ZM210.028 122.439C210.464 122.439 210.851 122.522 211.19 122.688C211.532 122.854 211.8 123.099 211.996 123.421C212.191 123.743 212.289 124.14 212.289 124.612C212.289 125.127 212.181 125.571 211.966 125.945C211.755 126.316 211.437 126.601 211.014 126.8C210.594 126.998 210.07 127.098 209.442 127.098C209.068 127.098 208.714 127.065 208.382 127C208.054 126.938 207.766 126.842 207.518 126.712V125.408C207.766 125.538 208.062 125.649 208.407 125.74C208.755 125.828 209.082 125.872 209.388 125.872C209.688 125.872 209.94 125.833 210.145 125.755C210.35 125.674 210.505 125.55 210.609 125.384C210.716 125.215 210.77 125 210.77 124.739C210.77 124.391 210.653 124.124 210.419 123.938C210.184 123.753 209.824 123.66 209.339 123.66C209.154 123.66 208.96 123.678 208.758 123.714C208.56 123.75 208.394 123.785 208.26 123.821L207.66 123.499L207.928 119.861H211.8V121.141H209.252L209.12 122.542C209.23 122.519 209.351 122.496 209.481 122.474C209.611 122.451 209.794 122.439 210.028 122.439ZM213.651 119.861H215.873C216.823 119.861 217.543 119.995 218.031 120.262C218.519 120.529 218.763 120.997 218.763 121.668C218.763 121.938 218.719 122.182 218.631 122.4C218.547 122.618 218.423 122.798 218.26 122.938C218.098 123.077 217.899 123.169 217.665 123.211V123.26C217.902 123.309 218.117 123.393 218.309 123.514C218.501 123.631 218.654 123.803 218.768 124.031C218.885 124.256 218.944 124.555 218.944 124.93C218.944 125.363 218.838 125.734 218.627 126.043C218.415 126.352 218.112 126.59 217.718 126.756C217.328 126.919 216.862 127 216.322 127H213.651V119.861ZM215.165 122.688H216.044C216.483 122.688 216.787 122.62 216.957 122.483C217.126 122.343 217.211 122.138 217.211 121.868C217.211 121.595 217.11 121.399 216.908 121.282C216.709 121.162 216.393 121.102 215.961 121.102H215.165V122.688ZM215.165 123.89V125.75H216.151C216.607 125.75 216.924 125.662 217.103 125.486C217.282 125.311 217.372 125.075 217.372 124.778C217.372 124.603 217.333 124.448 217.254 124.314C217.176 124.181 217.044 124.077 216.859 124.002C216.677 123.927 216.424 123.89 216.102 123.89H215.165ZM225.023 125.521H224.164V127H222.689V125.521H219.642V124.471L222.772 119.861H224.164V124.349H225.023V125.521ZM222.689 124.349V123.138C222.689 123.024 222.691 122.889 222.694 122.732C222.7 122.576 222.707 122.42 222.713 122.264C222.72 122.107 222.726 121.969 222.733 121.849C222.743 121.725 222.749 121.639 222.753 121.59H222.713C222.652 121.723 222.586 121.854 222.518 121.98C222.45 122.104 222.37 122.234 222.279 122.371L220.97 124.349H222.689Z" fill="#2C3437"/>
<path d="M0 98H116.39V134H9.99999C4.47715 134 0 129.523 0 124V98Z" fill="#EDF2EB"/>
<path d="M69.7041 123.879L69.4746 125.012H70.7344V126.018H69.2842L68.9082 128H67.834L68.2148 126.018H67.2676L66.8965 128H65.8467L66.208 126.018H65.0459V125.012H66.3984L66.6279 123.879H65.3975V122.858H66.8086L67.1846 120.871H68.2539L67.8779 122.858H68.8447L69.2256 120.871H70.2754L69.8945 122.858H71.0664V123.879H69.7041ZM67.458 125.012H68.415L68.6445 123.879H67.6875L67.458 125.012ZM76.3008 128H72.1895V120.861H76.3008V122.102H73.7031V123.669H76.1201V124.909H73.7031V126.75H76.3008V128ZM83.7178 124.362C83.7178 125.166 83.5632 125.839 83.2539 126.379C82.9479 126.916 82.5036 127.321 81.9209 127.595C81.3382 127.865 80.6367 128 79.8164 128H77.7949V120.861H80.0361C80.7848 120.861 81.4342 120.995 81.9844 121.262C82.5345 121.525 82.9609 121.918 83.2637 122.438C83.5664 122.956 83.7178 123.597 83.7178 124.362ZM82.1455 124.401C82.1455 123.874 82.0674 123.441 81.9111 123.103C81.7581 122.761 81.5303 122.508 81.2275 122.346C80.9281 122.183 80.557 122.102 80.1143 122.102H79.3086V126.75H79.958C80.6969 126.75 81.2454 126.553 81.6035 126.159C81.9648 125.765 82.1455 125.179 82.1455 124.401ZM86.6865 128H85.1973V120.861H89.2891V122.102H86.6865V123.942H89.1084V125.178H86.6865V128ZM95.1777 128H90.1875V126.95L91.9795 125.139C92.3408 124.768 92.6305 124.458 92.8486 124.211C93.07 123.96 93.2295 123.732 93.3271 123.527C93.4281 123.322 93.4785 123.103 93.4785 122.868C93.4785 122.585 93.3988 122.373 93.2393 122.233C93.083 122.09 92.873 122.019 92.6094 122.019C92.3327 122.019 92.0641 122.082 91.8037 122.209C91.5433 122.336 91.2715 122.517 90.9883 122.751L90.168 121.779C90.373 121.604 90.5895 121.438 90.8174 121.281C91.0485 121.125 91.3154 121 91.6182 120.905C91.9242 120.808 92.2904 120.759 92.7168 120.759C93.1855 120.759 93.5876 120.843 93.9229 121.013C94.2614 121.182 94.5218 121.413 94.7041 121.706C94.8864 121.996 94.9775 122.325 94.9775 122.692C94.9775 123.086 94.8994 123.446 94.7432 123.771C94.5869 124.097 94.359 124.419 94.0596 124.738C93.7633 125.057 93.4053 125.41 92.9854 125.798L92.0674 126.662V126.73H95.1777V128ZM100.52 128H96.4082V120.861H100.52V122.102H97.9219V123.669H100.339V124.909H97.9219V126.75H100.52V128ZM102.014 120.861H104.235C105.186 120.861 105.905 120.995 106.394 121.262C106.882 121.529 107.126 121.997 107.126 122.668C107.126 122.938 107.082 123.182 106.994 123.4C106.91 123.618 106.786 123.798 106.623 123.938C106.46 124.077 106.262 124.169 106.027 124.211V124.26C106.265 124.309 106.48 124.393 106.672 124.514C106.864 124.631 107.017 124.803 107.131 125.031C107.248 125.256 107.307 125.555 107.307 125.93C107.307 126.363 107.201 126.734 106.989 127.043C106.778 127.352 106.475 127.59 106.081 127.756C105.69 127.919 105.225 128 104.685 128H102.014V120.861ZM103.527 123.688H104.406C104.846 123.688 105.15 123.62 105.319 123.483C105.489 123.343 105.573 123.138 105.573 122.868C105.573 122.595 105.472 122.399 105.271 122.282C105.072 122.162 104.756 122.102 104.323 122.102H103.527V123.688ZM103.527 124.89V126.75H104.514C104.969 126.75 105.287 126.662 105.466 126.486C105.645 126.311 105.734 126.075 105.734 125.778C105.734 125.603 105.695 125.448 105.617 125.314C105.539 125.181 105.407 125.077 105.222 125.002C105.039 124.927 104.787 124.89 104.465 124.89H103.527Z" fill="#2C3437"/>
</svg>
