<svg width="935" height="134" viewBox="0 0 935 134" fill="none" xmlns="http://www.w3.org/2000/svg">
<rect width="934.03" height="134" rx="10" fill="#229AD6"/>
<path d="M842.756 66.7578L842.297 69.0234H844.816V71.0352H841.916L841.164 75H839.016L839.777 71.0352H837.883L837.141 75H835.041L835.764 71.0352H833.439V69.0234H836.145L836.604 66.7578H834.143V64.7168H836.965L837.717 60.7422H839.855L839.104 64.7168H841.037L841.799 60.7422H843.898L843.137 64.7168H845.48V66.7578H842.756ZM838.264 69.0234H840.178L840.637 66.7578H838.723L838.264 69.0234ZM856.711 75H846.73V72.9004L850.314 69.2773C851.037 68.5352 851.617 67.9167 852.053 67.4219C852.495 66.9206 852.814 66.4648 853.01 66.0547C853.212 65.6445 853.312 65.2051 853.312 64.7363C853.312 64.1699 853.153 63.7467 852.834 63.4668C852.521 63.1803 852.102 63.0371 851.574 63.0371C851.021 63.0371 850.484 63.1641 849.963 63.418C849.442 63.6719 848.898 64.0332 848.332 64.502L846.691 62.5586C847.102 62.207 847.535 61.875 847.99 61.5625C848.452 61.25 848.986 60.9993 849.592 60.8105C850.204 60.6152 850.936 60.5176 851.789 60.5176C852.727 60.5176 853.531 60.6868 854.201 61.0254C854.878 61.3639 855.399 61.8262 855.764 62.4121C856.128 62.9915 856.311 63.6491 856.311 64.3848C856.311 65.1725 856.154 65.8919 855.842 66.543C855.529 67.194 855.074 67.8385 854.475 68.4766C853.882 69.1146 853.166 69.821 852.326 70.5957L850.49 72.3242V72.4609H856.711V75ZM868.156 75H858.176V72.9004L861.76 69.2773C862.482 68.5352 863.062 67.9167 863.498 67.4219C863.941 66.9206 864.26 66.4648 864.455 66.0547C864.657 65.6445 864.758 65.2051 864.758 64.7363C864.758 64.1699 864.598 63.7467 864.279 63.4668C863.967 63.1803 863.547 63.0371 863.02 63.0371C862.466 63.0371 861.929 63.1641 861.408 63.418C860.887 63.6719 860.344 64.0332 859.777 64.502L858.137 62.5586C858.547 62.207 858.98 61.875 859.436 61.5625C859.898 61.25 860.432 60.9993 861.037 60.8105C861.649 60.6152 862.382 60.5176 863.234 60.5176C864.172 60.5176 864.976 60.6868 865.646 61.0254C866.324 61.3639 866.844 61.8262 867.209 62.4121C867.574 62.9915 867.756 63.6491 867.756 64.3848C867.756 65.1725 867.6 65.8919 867.287 66.543C866.975 67.194 866.519 67.8385 865.92 68.4766C865.327 69.1146 864.611 69.821 863.771 70.5957L861.936 72.3242V72.4609H868.156V75ZM879.543 66.8164C879.543 67.6367 879.481 68.4505 879.357 69.2578C879.24 70.0651 879.032 70.8268 878.732 71.543C878.433 72.2526 878.013 72.8841 877.473 73.4375C876.932 73.9844 876.245 74.4141 875.412 74.7266C874.579 75.0391 873.57 75.1953 872.385 75.1953C872.105 75.1953 871.776 75.1823 871.398 75.1562C871.021 75.1367 870.708 75.1042 870.461 75.0586V72.6367C870.721 72.7018 870.998 72.7539 871.291 72.793C871.584 72.8255 871.88 72.8418 872.18 72.8418C873.371 72.8418 874.289 72.653 874.934 72.2754C875.585 71.8978 876.04 71.3737 876.301 70.7031C876.568 70.0326 876.721 69.2578 876.76 68.3789H876.643C876.454 68.6914 876.229 68.9746 875.969 69.2285C875.715 69.4759 875.389 69.6745 874.992 69.8242C874.595 69.9674 874.09 70.0391 873.479 70.0391C872.665 70.0391 871.955 69.8633 871.35 69.5117C870.751 69.1536 870.285 68.6393 869.953 67.9688C869.628 67.2917 869.465 66.4746 869.465 65.5176C869.465 64.4824 869.66 63.597 870.051 62.8613C870.448 62.1191 871.011 61.5495 871.74 61.1523C872.469 60.7552 873.329 60.5566 874.318 60.5566C875.048 60.5566 875.728 60.6836 876.359 60.9375C876.991 61.1849 877.544 61.5658 878.02 62.0801C878.501 62.5944 878.876 63.2454 879.143 64.0332C879.41 64.821 879.543 65.7487 879.543 66.8164ZM874.377 62.9785C873.791 62.9785 873.312 63.1803 872.941 63.584C872.57 63.9876 872.385 64.6191 872.385 65.4785C872.385 66.1686 872.544 66.7155 872.863 67.1191C873.182 67.5228 873.667 67.7246 874.318 67.7246C874.768 67.7246 875.158 67.627 875.49 67.4316C875.822 67.2298 876.079 66.9792 876.262 66.6797C876.451 66.3737 876.545 66.0612 876.545 65.7422C876.545 65.4102 876.499 65.0814 876.408 64.7559C876.317 64.4303 876.18 64.1341 875.998 63.8672C875.816 63.6003 875.588 63.3854 875.314 63.2227C875.048 63.0599 874.735 62.9785 874.377 62.9785ZM890.803 75L889.768 71.6016H884.562L883.527 75H880.266L885.305 60.6641H889.006L894.064 75H890.803ZM889.045 69.0625L888.01 65.7422C887.945 65.5208 887.857 65.2376 887.746 64.8926C887.642 64.541 887.535 64.1862 887.424 63.8281C887.32 63.4635 887.235 63.1478 887.17 62.8809C887.105 63.1478 887.014 63.4798 886.896 63.877C886.786 64.2676 886.678 64.6387 886.574 64.9902C886.47 65.3418 886.395 65.5924 886.35 65.7422L885.324 69.0625H889.045ZM907.717 67.7246C907.717 69.3327 907.408 70.6771 906.789 71.7578C906.177 72.832 905.288 73.6426 904.123 74.1895C902.958 74.7298 901.555 75 899.914 75H895.871V60.7227H900.354C901.851 60.7227 903.15 60.9896 904.25 61.5234C905.35 62.0508 906.203 62.8353 906.809 63.877C907.414 64.9121 907.717 66.1947 907.717 67.7246ZM904.572 67.8027C904.572 66.748 904.416 65.8822 904.104 65.2051C903.798 64.5215 903.342 64.0169 902.736 63.6914C902.137 63.3659 901.395 63.2031 900.51 63.2031H898.898V72.5H900.197C901.675 72.5 902.772 72.1061 903.488 71.3184C904.211 70.5306 904.572 69.3587 904.572 67.8027ZM909.582 68.9355C909.582 68.1152 909.641 67.3047 909.758 66.5039C909.882 65.6966 910.093 64.9382 910.393 64.2285C910.692 63.5124 911.112 62.8809 911.652 62.334C912.193 61.7806 912.88 61.3477 913.713 61.0352C914.546 60.7161 915.555 60.5566 916.74 60.5566C917.02 60.5566 917.346 60.5697 917.717 60.5957C918.094 60.6152 918.407 60.651 918.654 60.7031V63.1152C918.394 63.0566 918.114 63.0111 917.814 62.9785C917.521 62.9395 917.229 62.9199 916.936 62.9199C915.751 62.9199 914.833 63.1087 914.182 63.4863C913.537 63.8639 913.081 64.388 912.814 65.0586C912.554 65.7227 912.401 66.4974 912.355 67.3828H912.482C912.665 67.0638 912.893 66.7806 913.166 66.5332C913.446 66.2858 913.785 66.0905 914.182 65.9473C914.579 65.7975 915.044 65.7227 915.578 65.7227C916.411 65.7227 917.134 65.9017 917.746 66.2598C918.358 66.6113 918.83 67.1224 919.162 67.793C919.494 68.4635 919.66 69.2806 919.66 70.2441C919.66 71.2728 919.462 72.1582 919.064 72.9004C918.667 73.6426 918.104 74.2122 917.375 74.6094C916.652 75 915.793 75.1953 914.797 75.1953C914.068 75.1953 913.387 75.0716 912.756 74.8242C912.124 74.5703 911.571 74.1862 911.096 73.6719C910.62 73.1576 910.249 72.5098 909.982 71.7285C909.715 70.9408 909.582 70.0098 909.582 68.9355ZM914.738 72.7832C915.331 72.7832 915.812 72.5814 916.184 72.1777C916.555 71.7741 916.74 71.1426 916.74 70.2832C916.74 69.5866 916.577 69.0397 916.252 68.6426C915.933 68.2389 915.448 68.0371 914.797 68.0371C914.354 68.0371 913.964 68.138 913.625 68.3398C913.293 68.5352 913.036 68.7858 912.854 69.0918C912.671 69.3913 912.58 69.7005 912.58 70.0195C912.58 70.3516 912.626 70.6803 912.717 71.0059C912.808 71.3314 912.945 71.6276 913.127 71.8945C913.309 72.1615 913.534 72.3763 913.801 72.5391C914.074 72.7018 914.387 72.7832 914.738 72.7832Z" fill="white"/>
<path d="M817.64 98H934.03V124C934.03 129.523 929.553 134 924.03 134H817.64V98Z" fill="#0A3953"/>
<path d="M893.232 123.879L893.002 125.012H894.262V126.018H892.812L892.436 128H891.362L891.742 126.018H890.795L890.424 128H889.374L889.736 126.018H888.573V125.012H889.926L890.155 123.879H888.925V122.858H890.336L890.712 120.871H891.781L891.405 122.858H892.372L892.753 120.871H893.803L893.422 122.858H894.594V123.879H893.232ZM890.986 125.012H891.943L892.172 123.879H891.215L890.986 125.012ZM900.17 124.431C900.17 125.007 900.125 125.521 900.033 125.974C899.945 126.426 899.802 126.81 899.604 127.126C899.408 127.442 899.151 127.683 898.832 127.849C898.513 128.015 898.126 128.098 897.67 128.098C897.097 128.098 896.627 127.953 896.259 127.663C895.891 127.37 895.619 126.95 895.444 126.403C895.268 125.853 895.18 125.196 895.18 124.431C895.18 123.659 895.26 123 895.419 122.453C895.582 121.903 895.846 121.481 896.21 121.188C896.575 120.896 897.061 120.749 897.67 120.749C898.24 120.749 898.709 120.896 899.076 121.188C899.447 121.478 899.723 121.898 899.902 122.448C900.081 122.995 900.17 123.656 900.17 124.431ZM896.679 124.431C896.679 124.974 896.708 125.428 896.767 125.793C896.829 126.154 896.931 126.426 897.074 126.608C897.218 126.791 897.416 126.882 897.67 126.882C897.921 126.882 898.118 126.792 898.261 126.613C898.407 126.431 898.512 126.159 898.573 125.798C898.635 125.433 898.666 124.978 898.666 124.431C898.666 123.887 898.635 123.433 898.573 123.068C898.512 122.704 898.407 122.43 898.261 122.248C898.118 122.062 897.921 121.97 897.67 121.97C897.416 121.97 897.218 122.062 897.074 122.248C896.931 122.43 896.829 122.704 896.767 123.068C896.708 123.433 896.679 123.887 896.679 124.431ZM905.81 128L905.292 126.301H902.69L902.172 128H900.541L903.061 120.832H904.911L907.441 128H905.81ZM904.931 125.031L904.413 123.371C904.381 123.26 904.337 123.119 904.281 122.946C904.229 122.771 904.176 122.593 904.12 122.414C904.068 122.232 904.026 122.074 903.993 121.94C903.961 122.074 903.915 122.24 903.857 122.438C903.801 122.634 903.748 122.819 903.695 122.995C903.643 123.171 903.606 123.296 903.583 123.371L903.07 125.031H904.931ZM912.558 122.458C912.558 122.787 912.489 123.072 912.353 123.312C912.216 123.553 912.03 123.75 911.796 123.903C911.565 124.056 911.305 124.169 911.015 124.24V124.27C911.588 124.341 912.022 124.517 912.319 124.797C912.618 125.077 912.768 125.451 912.768 125.92C912.768 126.337 912.665 126.709 912.46 127.038C912.258 127.367 911.946 127.626 911.523 127.814C911.099 128.003 910.554 128.098 909.887 128.098C909.493 128.098 909.125 128.065 908.783 128C908.445 127.938 908.126 127.842 907.826 127.712V126.428C908.132 126.584 908.453 126.703 908.788 126.784C909.124 126.862 909.436 126.901 909.726 126.901C910.266 126.901 910.644 126.809 910.859 126.623C911.077 126.434 911.186 126.171 911.186 125.832C911.186 125.633 911.135 125.466 911.034 125.329C910.933 125.192 910.758 125.088 910.507 125.017C910.26 124.945 909.913 124.909 909.467 124.909H908.925V123.752H909.477C909.916 123.752 910.25 123.711 910.478 123.63C910.709 123.545 910.865 123.431 910.946 123.288C911.031 123.142 911.073 122.976 911.073 122.79C911.073 122.536 910.995 122.338 910.839 122.194C910.683 122.051 910.422 121.979 910.058 121.979C909.83 121.979 909.622 122.009 909.433 122.067C909.247 122.123 909.08 122.191 908.93 122.272C908.78 122.351 908.648 122.427 908.534 122.502L907.836 121.462C908.116 121.26 908.443 121.092 908.818 120.959C909.195 120.826 909.644 120.759 910.165 120.759C910.901 120.759 911.484 120.907 911.913 121.203C912.343 121.499 912.558 121.918 912.558 122.458ZM918.529 123.908C918.529 124.318 918.499 124.725 918.437 125.129C918.378 125.533 918.274 125.913 918.124 126.271C917.974 126.626 917.765 126.942 917.494 127.219C917.224 127.492 916.881 127.707 916.464 127.863C916.047 128.02 915.543 128.098 914.95 128.098C914.81 128.098 914.646 128.091 914.457 128.078C914.268 128.068 914.112 128.052 913.988 128.029V126.818C914.119 126.851 914.257 126.877 914.404 126.896C914.55 126.913 914.698 126.921 914.848 126.921C915.444 126.921 915.903 126.826 916.225 126.638C916.55 126.449 916.778 126.187 916.908 125.852C917.042 125.516 917.118 125.129 917.138 124.689H917.079C916.985 124.846 916.873 124.987 916.742 125.114C916.615 125.238 916.453 125.337 916.254 125.412C916.056 125.484 915.803 125.52 915.497 125.52C915.09 125.52 914.736 125.432 914.433 125.256C914.133 125.077 913.901 124.82 913.735 124.484C913.572 124.146 913.49 123.737 913.49 123.259C913.49 122.741 913.588 122.299 913.783 121.931C913.982 121.56 914.264 121.275 914.628 121.076C914.993 120.878 915.422 120.778 915.917 120.778C916.282 120.778 916.622 120.842 916.938 120.969C917.253 121.092 917.53 121.283 917.768 121.54C918.009 121.797 918.196 122.123 918.329 122.517C918.463 122.91 918.529 123.374 918.529 123.908ZM915.946 121.989C915.654 121.989 915.414 122.09 915.229 122.292C915.043 122.494 914.95 122.81 914.95 123.239C914.95 123.584 915.03 123.858 915.19 124.06C915.349 124.261 915.592 124.362 915.917 124.362C916.142 124.362 916.337 124.313 916.503 124.216C916.669 124.115 916.798 123.99 916.889 123.84C916.983 123.687 917.03 123.531 917.03 123.371C917.03 123.205 917.008 123.041 916.962 122.878C916.917 122.715 916.848 122.567 916.757 122.434C916.666 122.3 916.552 122.193 916.415 122.111C916.282 122.03 916.126 121.989 915.946 121.989ZM921.889 123.439C922.325 123.439 922.712 123.522 923.051 123.688C923.393 123.854 923.661 124.099 923.857 124.421C924.052 124.743 924.15 125.14 924.15 125.612C924.15 126.127 924.042 126.571 923.827 126.945C923.616 127.316 923.298 127.601 922.875 127.8C922.455 127.998 921.931 128.098 921.303 128.098C920.929 128.098 920.575 128.065 920.243 128C919.915 127.938 919.626 127.842 919.379 127.712V126.408C919.626 126.538 919.923 126.649 920.268 126.74C920.616 126.828 920.943 126.872 921.249 126.872C921.549 126.872 921.801 126.833 922.006 126.755C922.211 126.674 922.366 126.55 922.47 126.384C922.577 126.215 922.631 126 922.631 125.739C922.631 125.391 922.514 125.124 922.279 124.938C922.045 124.753 921.685 124.66 921.2 124.66C921.015 124.66 920.821 124.678 920.619 124.714C920.421 124.75 920.255 124.785 920.121 124.821L919.521 124.499L919.789 120.861H923.661V122.141H921.112L920.981 123.542C921.091 123.519 921.212 123.496 921.342 123.474C921.472 123.451 921.654 123.439 921.889 123.439ZM929.726 122.458C929.726 122.787 929.657 123.072 929.521 123.312C929.384 123.553 929.198 123.75 928.964 123.903C928.733 124.056 928.473 124.169 928.183 124.24V124.27C928.756 124.341 929.19 124.517 929.487 124.797C929.786 125.077 929.936 125.451 929.936 125.92C929.936 126.337 929.833 126.709 929.628 127.038C929.426 127.367 929.114 127.626 928.691 127.814C928.267 128.003 927.722 128.098 927.055 128.098C926.661 128.098 926.293 128.065 925.951 128C925.613 127.938 925.294 127.842 924.994 127.712V126.428C925.3 126.584 925.621 126.703 925.956 126.784C926.292 126.862 926.604 126.901 926.894 126.901C927.434 126.901 927.812 126.809 928.027 126.623C928.245 126.434 928.354 126.171 928.354 125.832C928.354 125.633 928.303 125.466 928.202 125.329C928.101 125.192 927.926 125.088 927.675 125.017C927.428 124.945 927.081 124.909 926.635 124.909H926.093V123.752H926.645C927.084 123.752 927.418 123.711 927.646 123.63C927.877 123.545 928.033 123.431 928.114 123.288C928.199 123.142 928.241 122.976 928.241 122.79C928.241 122.536 928.163 122.338 928.007 122.194C927.851 122.051 927.59 121.979 927.226 121.979C926.998 121.979 926.79 122.009 926.601 122.067C926.415 122.123 926.248 122.191 926.098 122.272C925.948 122.351 925.816 122.427 925.702 122.502L925.004 121.462C925.284 121.26 925.611 121.092 925.986 120.959C926.363 120.826 926.812 120.759 927.333 120.759C928.069 120.759 928.652 120.907 929.081 121.203C929.511 121.499 929.726 121.918 929.726 122.458Z" fill="white"/>
<path d="M700.28 98H817.64V134H700.28V98Z" fill="#074D71"/>
<path d="M776.842 123.879L776.612 125.012H777.872V126.018H776.422L776.046 128H774.971L775.352 126.018H774.405L774.034 128H772.984L773.345 126.018H772.183V125.012H773.536L773.765 123.879H772.535V122.858H773.946L774.322 120.871H775.391L775.015 122.858H775.982L776.363 120.871H777.413L777.032 122.858H778.204V123.879H776.842ZM774.595 125.012H775.552L775.782 123.879H774.825L774.595 125.012ZM783.78 124.431C783.78 125.007 783.734 125.521 783.643 125.974C783.555 126.426 783.412 126.81 783.214 127.126C783.018 127.442 782.761 127.683 782.442 127.849C782.123 128.015 781.736 128.098 781.28 128.098C780.707 128.098 780.237 127.953 779.869 127.663C779.501 127.37 779.229 126.95 779.053 126.403C778.878 125.853 778.79 125.196 778.79 124.431C778.79 123.659 778.87 123 779.029 122.453C779.192 121.903 779.455 121.481 779.82 121.188C780.185 120.896 780.671 120.749 781.28 120.749C781.85 120.749 782.318 120.896 782.686 121.188C783.057 121.478 783.332 121.898 783.511 122.448C783.691 122.995 783.78 123.656 783.78 124.431ZM780.289 124.431C780.289 124.974 780.318 125.428 780.377 125.793C780.439 126.154 780.541 126.426 780.684 126.608C780.828 126.791 781.026 126.882 781.28 126.882C781.531 126.882 781.728 126.792 781.871 126.613C782.017 126.431 782.122 126.159 782.183 125.798C782.245 125.433 782.276 124.978 782.276 124.431C782.276 123.887 782.245 123.433 782.183 123.068C782.122 122.704 782.017 122.43 781.871 122.248C781.728 122.062 781.531 121.97 781.28 121.97C781.026 121.97 780.828 122.062 780.684 122.248C780.541 122.43 780.439 122.704 780.377 123.068C780.318 123.433 780.289 123.887 780.289 124.431ZM785.26 128L787.94 122.131H784.42V120.861H789.542V121.809L786.842 128H785.26ZM795.426 126.521H794.566V128H793.092V126.521H790.045V125.471L793.175 120.861H794.566V125.349H795.426V126.521ZM793.092 125.349V124.138C793.092 124.024 793.093 123.889 793.096 123.732C793.103 123.576 793.109 123.42 793.116 123.264C793.122 123.107 793.129 122.969 793.135 122.849C793.145 122.725 793.152 122.639 793.155 122.59H793.116C793.054 122.723 792.989 122.854 792.921 122.98C792.852 123.104 792.773 123.234 792.681 123.371L791.373 125.349H793.092ZM802.418 124.362C802.418 125.166 802.263 125.839 801.954 126.379C801.648 126.916 801.204 127.321 800.621 127.595C800.038 127.865 799.337 128 798.516 128H796.495V120.861H798.736C799.485 120.861 800.134 120.995 800.684 121.262C801.234 121.525 801.661 121.918 801.964 122.438C802.266 122.956 802.418 123.597 802.418 124.362ZM800.845 124.401C800.845 123.874 800.767 123.441 800.611 123.103C800.458 122.761 800.23 122.508 799.927 122.346C799.628 122.183 799.257 122.102 798.814 122.102H798.009V126.75H798.658C799.397 126.75 799.945 126.553 800.303 126.159C800.665 125.765 800.845 125.179 800.845 124.401ZM804.107 128L806.788 122.131H803.267V120.861H808.389V121.809L805.689 128H804.107ZM812.852 128H811.344V123.869C811.344 123.755 811.345 123.615 811.348 123.449C811.352 123.28 811.357 123.107 811.363 122.932C811.37 122.753 811.376 122.591 811.383 122.448C811.347 122.491 811.274 122.564 811.163 122.668C811.055 122.769 810.955 122.86 810.86 122.941L810.04 123.601L809.312 122.692L811.612 120.861H812.852V128Z" fill="white"/>
<path d="M583.89 98H700.28V134H583.89V98Z" fill="#066291"/>
<path d="M658.512 123.879L658.282 125.012H659.542V126.018H658.092L657.716 128H656.642L657.022 126.018H656.075L655.704 128H654.654L655.016 126.018H653.854V125.012H655.206L655.436 123.879H654.205V122.858H655.616L655.992 120.871H657.062L656.686 122.858H657.652L658.033 120.871H659.083L658.702 122.858H659.874V123.879H658.512ZM656.266 125.012H657.223L657.452 123.879H656.495L656.266 125.012ZM665.45 124.431C665.45 125.007 665.405 125.521 665.313 125.974C665.226 126.426 665.082 126.81 664.884 127.126C664.688 127.442 664.431 127.683 664.112 127.849C663.793 128.015 663.406 128.098 662.95 128.098C662.377 128.098 661.907 127.953 661.539 127.663C661.171 127.37 660.899 126.95 660.724 126.403C660.548 125.853 660.46 125.196 660.46 124.431C660.46 123.659 660.54 123 660.699 122.453C660.862 121.903 661.126 121.481 661.49 121.188C661.855 120.896 662.341 120.749 662.95 120.749C663.52 120.749 663.989 120.896 664.356 121.188C664.728 121.478 665.003 121.898 665.182 122.448C665.361 122.995 665.45 123.656 665.45 124.431ZM661.959 124.431C661.959 124.974 661.988 125.428 662.047 125.793C662.109 126.154 662.211 126.426 662.354 126.608C662.498 126.791 662.696 126.882 662.95 126.882C663.201 126.882 663.398 126.792 663.541 126.613C663.688 126.431 663.792 126.159 663.854 125.798C663.915 125.433 663.946 124.978 663.946 124.431C663.946 123.887 663.915 123.433 663.854 123.068C663.792 122.704 663.688 122.43 663.541 122.248C663.398 122.062 663.201 121.97 662.95 121.97C662.696 121.97 662.498 122.062 662.354 122.248C662.211 122.43 662.109 122.704 662.047 123.068C661.988 123.433 661.959 123.887 661.959 124.431ZM666.173 124.968C666.173 124.558 666.202 124.152 666.261 123.752C666.323 123.348 666.428 122.969 666.578 122.614C666.728 122.256 666.938 121.94 667.208 121.667C667.478 121.39 667.822 121.174 668.238 121.018C668.655 120.858 669.16 120.778 669.752 120.778C669.892 120.778 670.055 120.785 670.24 120.798C670.429 120.808 670.585 120.826 670.709 120.852V122.058C670.579 122.028 670.439 122.006 670.289 121.989C670.143 121.97 669.996 121.96 669.85 121.96C669.257 121.96 668.798 122.054 668.473 122.243C668.15 122.432 667.923 122.694 667.789 123.029C667.659 123.361 667.582 123.749 667.56 124.191H667.623C667.714 124.032 667.828 123.89 667.965 123.767C668.105 123.643 668.274 123.545 668.473 123.474C668.671 123.399 668.904 123.361 669.171 123.361C669.588 123.361 669.949 123.451 670.255 123.63C670.561 123.806 670.797 124.061 670.963 124.396C671.129 124.732 671.212 125.14 671.212 125.622C671.212 126.136 671.113 126.579 670.914 126.95C670.715 127.321 670.434 127.606 670.069 127.805C669.708 128 669.278 128.098 668.78 128.098C668.416 128.098 668.076 128.036 667.76 127.912C667.444 127.785 667.167 127.593 666.93 127.336C666.692 127.079 666.507 126.755 666.373 126.364C666.24 125.97 666.173 125.505 666.173 124.968ZM668.751 126.892C669.047 126.892 669.288 126.791 669.474 126.589C669.659 126.387 669.752 126.071 669.752 125.642C669.752 125.293 669.671 125.02 669.508 124.821C669.348 124.619 669.106 124.519 668.78 124.519C668.559 124.519 668.364 124.569 668.194 124.67C668.028 124.768 667.9 124.893 667.809 125.046C667.717 125.196 667.672 125.35 667.672 125.51C667.672 125.676 667.695 125.84 667.74 126.003C667.786 126.166 667.854 126.314 667.945 126.447C668.036 126.581 668.149 126.688 668.282 126.77C668.419 126.851 668.575 126.892 668.751 126.892ZM671.896 124.968C671.896 124.558 671.925 124.152 671.983 123.752C672.045 123.348 672.151 122.969 672.301 122.614C672.451 122.256 672.66 121.94 672.931 121.667C673.201 121.39 673.544 121.174 673.961 121.018C674.378 120.858 674.882 120.778 675.475 120.778C675.615 120.778 675.777 120.785 675.963 120.798C676.152 120.808 676.308 120.826 676.432 120.852V122.058C676.301 122.028 676.161 122.006 676.012 121.989C675.865 121.97 675.719 121.96 675.572 121.96C674.98 121.96 674.521 122.054 674.195 122.243C673.873 122.432 673.645 122.694 673.512 123.029C673.382 123.361 673.305 123.749 673.282 124.191H673.346C673.437 124.032 673.551 123.89 673.688 123.767C673.827 123.643 673.997 123.545 674.195 123.474C674.394 123.399 674.627 123.361 674.894 123.361C675.31 123.361 675.672 123.451 675.978 123.63C676.284 123.806 676.52 124.061 676.686 124.396C676.852 124.732 676.935 125.14 676.935 125.622C676.935 126.136 676.835 126.579 676.637 126.95C676.438 127.321 676.157 127.606 675.792 127.805C675.431 128 675.001 128.098 674.503 128.098C674.138 128.098 673.798 128.036 673.482 127.912C673.167 127.785 672.89 127.593 672.652 127.336C672.415 127.079 672.229 126.755 672.096 126.364C671.962 125.97 671.896 125.505 671.896 124.968ZM674.474 126.892C674.77 126.892 675.011 126.791 675.196 126.589C675.382 126.387 675.475 126.071 675.475 125.642C675.475 125.293 675.393 125.02 675.23 124.821C675.071 124.619 674.828 124.519 674.503 124.519C674.282 124.519 674.086 124.569 673.917 124.67C673.751 124.768 673.622 124.893 673.531 125.046C673.44 125.196 673.395 125.35 673.395 125.51C673.395 125.676 673.417 125.84 673.463 126.003C673.508 126.166 673.577 126.314 673.668 126.447C673.759 126.581 673.871 126.688 674.005 126.77C674.142 126.851 674.298 126.892 674.474 126.892ZM682.657 128H677.667V126.95L679.459 125.139C679.82 124.768 680.11 124.458 680.328 124.211C680.549 123.96 680.709 123.732 680.807 123.527C680.908 123.322 680.958 123.103 680.958 122.868C680.958 122.585 680.878 122.373 680.719 122.233C680.562 122.09 680.353 122.019 680.089 122.019C679.812 122.019 679.544 122.082 679.283 122.209C679.023 122.336 678.751 122.517 678.468 122.751L677.647 121.779C677.853 121.604 678.069 121.438 678.297 121.281C678.528 121.125 678.795 121 679.098 120.905C679.404 120.808 679.77 120.759 680.196 120.759C680.665 120.759 681.067 120.843 681.402 121.013C681.741 121.182 682.001 121.413 682.184 121.706C682.366 121.996 682.457 122.325 682.457 122.692C682.457 123.086 682.379 123.446 682.223 123.771C682.066 124.097 681.839 124.419 681.539 124.738C681.243 125.057 680.885 125.41 680.465 125.798L679.547 126.662V126.73H682.657V128ZM688.351 123.908C688.351 124.318 688.32 124.725 688.258 125.129C688.199 125.533 688.095 125.913 687.945 126.271C687.796 126.626 687.586 126.942 687.315 127.219C687.045 127.492 686.702 127.707 686.285 127.863C685.868 128.02 685.364 128.098 684.771 128.098C684.632 128.098 684.467 128.091 684.278 128.078C684.09 128.068 683.933 128.052 683.81 128.029V126.818C683.94 126.851 684.078 126.877 684.225 126.896C684.371 126.913 684.519 126.921 684.669 126.921C685.265 126.921 685.724 126.826 686.046 126.638C686.371 126.449 686.599 126.187 686.729 125.852C686.863 125.516 686.939 125.129 686.959 124.689H686.9C686.806 124.846 686.694 124.987 686.563 125.114C686.437 125.238 686.274 125.337 686.075 125.412C685.877 125.484 685.624 125.52 685.318 125.52C684.911 125.52 684.557 125.432 684.254 125.256C683.954 125.077 683.722 124.82 683.556 124.484C683.393 124.146 683.312 123.737 683.312 123.259C683.312 122.741 683.409 122.299 683.604 121.931C683.803 121.56 684.085 121.275 684.449 121.076C684.814 120.878 685.243 120.778 685.738 120.778C686.103 120.778 686.443 120.842 686.759 120.969C687.075 121.092 687.351 121.283 687.589 121.54C687.83 121.797 688.017 122.123 688.15 122.517C688.284 122.91 688.351 123.374 688.351 123.908ZM685.768 121.989C685.475 121.989 685.235 122.09 685.05 122.292C684.864 122.494 684.771 122.81 684.771 123.239C684.771 123.584 684.851 123.858 685.011 124.06C685.17 124.261 685.413 124.362 685.738 124.362C685.963 124.362 686.158 124.313 686.324 124.216C686.49 124.115 686.619 123.99 686.71 123.84C686.804 123.687 686.852 123.531 686.852 123.371C686.852 123.205 686.829 123.041 686.783 122.878C686.738 122.715 686.669 122.567 686.578 122.434C686.487 122.3 686.373 122.193 686.236 122.111C686.103 122.03 685.947 121.989 685.768 121.989ZM692.843 128H691.334V123.869C691.334 123.755 691.336 123.615 691.339 123.449C691.342 123.28 691.347 123.107 691.354 122.932C691.36 122.753 691.367 122.591 691.373 122.448C691.337 122.491 691.264 122.564 691.153 122.668C691.046 122.769 690.945 122.86 690.851 122.941L690.03 123.601L689.303 122.692L691.603 120.861H692.843V128Z" fill="white"/>
<path d="M467.5 98H583.89V134H467.5V98Z" fill="#0C7BB3"/>
<path d="M544.061 123.879L543.832 125.012H545.092V126.018H543.642L543.266 128H542.191L542.572 126.018H541.625L541.254 128H540.204L540.565 126.018H539.403V125.012H540.756L540.985 123.879H539.755V122.858H541.166L541.542 120.871H542.611L542.235 122.858H543.202L543.583 120.871H544.633L544.252 122.858H545.424V123.879H544.061ZM541.815 125.012H542.772L543.002 123.879H542.045L541.815 125.012ZM551 124.431C551 125.007 550.954 125.521 550.863 125.974C550.775 126.426 550.632 126.81 550.434 127.126C550.238 127.442 549.981 127.683 549.662 127.849C549.343 128.015 548.956 128.098 548.5 128.098C547.927 128.098 547.457 127.953 547.089 127.663C546.721 127.37 546.449 126.95 546.273 126.403C546.098 125.853 546.01 125.196 546.01 124.431C546.01 123.659 546.089 123 546.249 122.453C546.412 121.903 546.675 121.481 547.04 121.188C547.405 120.896 547.891 120.749 548.5 120.749C549.07 120.749 549.538 120.896 549.906 121.188C550.277 121.478 550.552 121.898 550.731 122.448C550.91 122.995 551 123.656 551 124.431ZM547.509 124.431C547.509 124.974 547.538 125.428 547.597 125.793C547.658 126.154 547.761 126.426 547.904 126.608C548.047 126.791 548.246 126.882 548.5 126.882C548.751 126.882 548.948 126.792 549.091 126.613C549.237 126.431 549.341 126.159 549.403 125.798C549.465 125.433 549.496 124.978 549.496 124.431C549.496 123.887 549.465 123.433 549.403 123.068C549.341 122.704 549.237 122.43 549.091 122.248C548.948 122.062 548.751 121.97 548.5 121.97C548.246 121.97 548.047 122.062 547.904 122.248C547.761 122.43 547.658 122.704 547.597 123.068C547.538 123.433 547.509 123.887 547.509 124.431ZM555.302 122.019C555.012 122.019 554.755 122.076 554.53 122.189C554.309 122.3 554.122 122.461 553.969 122.673C553.819 122.884 553.705 123.14 553.627 123.439C553.549 123.739 553.51 124.076 553.51 124.45C553.51 124.955 553.572 125.386 553.695 125.744C553.822 126.099 554.018 126.371 554.281 126.56C554.545 126.745 554.885 126.838 555.302 126.838C555.591 126.838 555.881 126.805 556.171 126.74C556.464 126.675 556.781 126.582 557.123 126.462V127.731C556.807 127.862 556.496 127.954 556.19 128.01C555.884 128.068 555.541 128.098 555.16 128.098C554.424 128.098 553.819 127.946 553.344 127.644C552.872 127.338 552.522 126.911 552.294 126.364C552.066 125.814 551.952 125.173 551.952 124.44C551.952 123.9 552.025 123.405 552.172 122.956C552.318 122.507 552.533 122.118 552.816 121.789C553.1 121.46 553.449 121.206 553.866 121.027C554.283 120.848 554.761 120.759 555.302 120.759C555.657 120.759 556.011 120.804 556.366 120.896C556.724 120.983 557.066 121.105 557.392 121.262L556.903 122.492C556.636 122.365 556.368 122.255 556.098 122.16C555.827 122.066 555.562 122.019 555.302 122.019ZM558.856 128L561.537 122.131H558.017V120.861H563.139V121.809L560.438 128H558.856ZM564.369 120.861H566.591C567.541 120.861 568.261 120.995 568.749 121.262C569.237 121.529 569.481 121.997 569.481 122.668C569.481 122.938 569.437 123.182 569.35 123.4C569.265 123.618 569.141 123.798 568.978 123.938C568.816 124.077 568.617 124.169 568.383 124.211V124.26C568.62 124.309 568.835 124.393 569.027 124.514C569.219 124.631 569.372 124.803 569.486 125.031C569.603 125.256 569.662 125.555 569.662 125.93C569.662 126.363 569.556 126.734 569.345 127.043C569.133 127.352 568.83 127.59 568.436 127.756C568.046 127.919 567.58 128 567.04 128H564.369V120.861ZM565.883 123.688H566.762C567.201 123.688 567.505 123.62 567.675 123.483C567.844 123.343 567.929 123.138 567.929 122.868C567.929 122.595 567.828 122.399 567.626 122.282C567.427 122.162 567.112 122.102 566.679 122.102H565.883V123.688ZM565.883 124.89V126.75H566.869C567.325 126.75 567.642 126.662 567.821 126.486C568 126.311 568.09 126.075 568.09 125.778C568.09 125.603 568.051 125.448 567.973 125.314C567.894 125.181 567.763 125.077 567.577 125.002C567.395 124.927 567.143 124.89 566.82 124.89H565.883ZM571.088 120.861H573.31C574.26 120.861 574.979 120.995 575.468 121.262C575.956 121.529 576.2 121.997 576.2 122.668C576.2 122.938 576.156 123.182 576.068 123.4C575.984 123.618 575.86 123.798 575.697 123.938C575.534 124.077 575.336 124.169 575.102 124.211V124.26C575.339 124.309 575.554 124.393 575.746 124.514C575.938 124.631 576.091 124.803 576.205 125.031C576.322 125.256 576.381 125.555 576.381 125.93C576.381 126.363 576.275 126.734 576.063 127.043C575.852 127.352 575.549 127.59 575.155 127.756C574.765 127.919 574.299 128 573.759 128H571.088V120.861ZM572.602 123.688H573.48C573.92 123.688 574.224 123.62 574.393 123.483C574.563 123.343 574.647 123.138 574.647 122.868C574.647 122.595 574.546 122.399 574.345 122.282C574.146 122.162 573.83 122.102 573.397 122.102H572.602V123.688ZM572.602 124.89V126.75H573.588C574.044 126.75 574.361 126.662 574.54 126.486C574.719 126.311 574.809 126.075 574.809 125.778C574.809 125.603 574.769 125.448 574.691 125.314C574.613 125.181 574.481 125.077 574.296 125.002C574.114 124.927 573.861 124.89 573.539 124.89H572.602ZM582.02 122.458C582.02 122.787 581.952 123.072 581.815 123.312C581.679 123.553 581.493 123.75 581.259 123.903C581.028 124.056 580.767 124.169 580.477 124.24V124.27C581.05 124.341 581.485 124.517 581.781 124.797C582.081 125.077 582.23 125.451 582.23 125.92C582.23 126.337 582.128 126.709 581.923 127.038C581.721 127.367 581.408 127.626 580.985 127.814C580.562 128.003 580.017 128.098 579.35 128.098C578.956 128.098 578.588 128.065 578.246 128C577.907 127.938 577.588 127.842 577.289 127.712V126.428C577.595 126.584 577.916 126.703 578.251 126.784C578.586 126.862 578.899 126.901 579.188 126.901C579.729 126.901 580.106 126.809 580.321 126.623C580.539 126.434 580.648 126.171 580.648 125.832C580.648 125.633 580.598 125.466 580.497 125.329C580.396 125.192 580.22 125.088 579.97 125.017C579.722 124.945 579.376 124.909 578.93 124.909H578.388V123.752H578.939C579.379 123.752 579.713 123.711 579.94 123.63C580.171 123.545 580.328 123.431 580.409 123.288C580.494 123.142 580.536 122.976 580.536 122.79C580.536 122.536 580.458 122.338 580.302 122.194C580.145 122.051 579.885 121.979 579.52 121.979C579.293 121.979 579.084 122.009 578.895 122.067C578.71 122.123 578.542 122.191 578.393 122.272C578.243 122.351 578.111 122.427 577.997 122.502L577.299 121.462C577.579 121.26 577.906 121.092 578.28 120.959C578.658 120.826 579.107 120.759 579.628 120.759C580.364 120.759 580.946 120.907 581.376 121.203C581.806 121.499 582.02 121.918 582.02 122.458Z" fill="white"/>
<path d="M350.14 98H467.5V134H350.14V98Z" fill="#52BAED"/>
<path d="M426.702 123.879L426.472 125.012H427.732V126.018H426.282L425.906 128H424.831L425.212 126.018H424.265L423.894 128H422.844L423.205 126.018H422.043V125.012H423.396L423.625 123.879H422.395V122.858H423.806L424.182 120.871H425.251L424.875 122.858H425.842L426.223 120.871H427.273L426.892 122.858H428.064V123.879H426.702ZM424.455 125.012H425.412L425.642 123.879H424.685L424.455 125.012ZM431.286 123.439C431.723 123.439 432.11 123.522 432.449 123.688C432.79 123.854 433.059 124.099 433.254 124.421C433.45 124.743 433.547 125.14 433.547 125.612C433.547 126.127 433.44 126.571 433.225 126.945C433.013 127.316 432.696 127.601 432.273 127.8C431.853 127.998 431.329 128.098 430.701 128.098C430.326 128.098 429.973 128.065 429.641 128C429.312 127.938 429.024 127.842 428.777 127.712V126.408C429.024 126.538 429.32 126.649 429.665 126.74C430.014 126.828 430.341 126.872 430.647 126.872C430.946 126.872 431.199 126.833 431.404 126.755C431.609 126.674 431.763 126.55 431.868 126.384C431.975 126.215 432.029 126 432.029 125.739C432.029 125.391 431.911 125.124 431.677 124.938C431.443 124.753 431.083 124.66 430.598 124.66C430.412 124.66 430.219 124.678 430.017 124.714C429.818 124.75 429.652 124.785 429.519 124.821L428.918 124.499L429.187 120.861H433.059V122.141H430.51L430.378 123.542C430.489 123.519 430.609 123.496 430.74 123.474C430.87 123.451 431.052 123.439 431.286 123.439ZM439.402 128H434.411V126.95L436.203 125.139C436.565 124.768 436.855 124.458 437.073 124.211C437.294 123.96 437.453 123.732 437.551 123.527C437.652 123.322 437.702 123.103 437.702 122.868C437.702 122.585 437.623 122.373 437.463 122.233C437.307 122.09 437.097 122.019 436.833 122.019C436.557 122.019 436.288 122.082 436.028 122.209C435.767 122.336 435.495 122.517 435.212 122.751L434.392 121.779C434.597 121.604 434.813 121.438 435.041 121.281C435.272 121.125 435.539 121 435.842 120.905C436.148 120.808 436.514 120.759 436.941 120.759C437.41 120.759 437.812 120.843 438.147 121.013C438.485 121.182 438.746 121.413 438.928 121.706C439.11 121.996 439.202 122.325 439.202 122.692C439.202 123.086 439.123 123.446 438.967 123.771C438.811 124.097 438.583 124.419 438.284 124.738C437.987 125.057 437.629 125.41 437.209 125.798L436.291 126.662V126.73H439.402V128ZM440.632 120.861H442.854C443.804 120.861 444.524 120.995 445.012 121.262C445.5 121.529 445.744 121.997 445.744 122.668C445.744 122.938 445.701 123.182 445.613 123.4C445.528 123.618 445.404 123.798 445.242 123.938C445.079 124.077 444.88 124.169 444.646 124.211V124.26C444.883 124.309 445.098 124.393 445.29 124.514C445.482 124.631 445.635 124.803 445.749 125.031C445.867 125.256 445.925 125.555 445.925 125.93C445.925 126.363 445.819 126.734 445.608 127.043C445.396 127.352 445.093 127.59 444.7 127.756C444.309 127.919 443.843 128 443.303 128H440.632V120.861ZM442.146 123.688H443.025C443.464 123.688 443.769 123.62 443.938 123.483C444.107 123.343 444.192 123.138 444.192 122.868C444.192 122.595 444.091 122.399 443.889 122.282C443.69 122.162 443.375 122.102 442.942 122.102H442.146V123.688ZM442.146 124.89V126.75H443.132C443.588 126.75 443.905 126.662 444.084 126.486C444.263 126.311 444.353 126.075 444.353 125.778C444.353 125.603 444.314 125.448 444.236 125.314C444.158 125.181 444.026 125.077 443.84 125.002C443.658 124.927 443.406 124.89 443.083 124.89H442.146ZM451.721 128L451.203 126.301H448.601L448.083 128H446.452L448.972 120.832H450.823L453.352 128H451.721ZM450.842 125.031L450.325 123.371C450.292 123.26 450.248 123.119 450.193 122.946C450.141 122.771 450.087 122.593 450.032 122.414C449.98 122.232 449.937 122.074 449.905 121.94C449.872 122.074 449.827 122.24 449.768 122.438C449.713 122.634 449.659 122.819 449.607 122.995C449.555 123.171 449.517 123.296 449.494 123.371L448.982 125.031H450.842ZM458.367 128H454.255V120.861H458.367V122.102H455.769V123.669H458.186V124.909H455.769V126.75H458.367V128ZM465.784 124.362C465.784 125.166 465.629 125.839 465.32 126.379C465.014 126.916 464.569 127.321 463.987 127.595C463.404 127.865 462.702 128 461.882 128H459.861V120.861H462.102C462.851 120.861 463.5 120.995 464.05 121.262C464.6 121.525 465.027 121.918 465.329 122.438C465.632 122.956 465.784 123.597 465.784 124.362ZM464.211 124.401C464.211 123.874 464.133 123.441 463.977 123.103C463.824 122.761 463.596 122.508 463.293 122.346C462.994 122.183 462.623 122.102 462.18 122.102H461.374V126.75H462.024C462.763 126.75 463.311 126.553 463.669 126.159C464.031 125.765 464.211 125.179 464.211 124.401Z" fill="#2C3437"/>
<path d="M233.75 98H350.14V134H233.75V98Z" fill="#8ED4F8"/>
<path d="M309.341 123.879L309.112 125.012H310.372V126.018H308.922L308.546 128H307.471L307.852 126.018H306.905L306.534 128H305.484L305.845 126.018H304.683V125.012H306.036L306.265 123.879H305.035V122.858H306.446L306.822 120.871H307.891L307.515 122.858H308.482L308.863 120.871H309.913L309.532 122.858H310.704V123.879H309.341ZM307.095 125.012H308.052L308.282 123.879H307.325L307.095 125.012ZM313.79 120.769C314.2 120.769 314.577 120.832 314.923 120.959C315.271 121.086 315.549 121.278 315.758 121.535C315.966 121.789 316.07 122.108 316.07 122.492C316.07 122.779 316.013 123.029 315.899 123.244C315.788 123.459 315.637 123.648 315.445 123.811C315.253 123.97 315.035 124.11 314.791 124.23C315.045 124.364 315.286 124.52 315.513 124.699C315.741 124.875 315.927 125.082 316.07 125.319C316.216 125.557 316.29 125.834 316.29 126.149C316.29 126.547 316.184 126.892 315.972 127.185C315.761 127.474 315.468 127.699 315.093 127.858C314.719 128.018 314.285 128.098 313.79 128.098C313.256 128.098 312.802 128.021 312.427 127.868C312.053 127.715 311.768 127.497 311.573 127.214C311.378 126.927 311.28 126.586 311.28 126.188C311.28 125.863 311.34 125.58 311.461 125.339C311.584 125.098 311.75 124.891 311.959 124.719C312.167 124.543 312.397 124.393 312.647 124.27C312.436 124.136 312.242 123.985 312.066 123.815C311.894 123.646 311.755 123.452 311.651 123.234C311.55 123.016 311.5 122.766 311.5 122.482C311.5 122.105 311.605 121.789 311.817 121.535C312.032 121.281 312.313 121.091 312.662 120.964C313.01 120.834 313.386 120.769 313.79 120.769ZM312.676 126.101C312.676 126.358 312.768 126.571 312.95 126.74C313.135 126.906 313.409 126.989 313.77 126.989C314.145 126.989 314.424 126.91 314.61 126.75C314.796 126.587 314.888 126.374 314.888 126.11C314.888 125.928 314.835 125.769 314.727 125.632C314.623 125.495 314.491 125.373 314.332 125.266C314.172 125.155 314.011 125.052 313.848 124.958L313.716 124.89C313.508 124.984 313.326 125.09 313.17 125.207C313.017 125.324 312.896 125.456 312.808 125.603C312.72 125.749 312.676 125.915 312.676 126.101ZM313.78 121.872C313.533 121.872 313.327 121.936 313.165 122.062C313.002 122.189 312.921 122.368 312.921 122.6C312.921 122.762 312.96 122.906 313.038 123.029C313.119 123.15 313.225 123.256 313.355 123.347C313.489 123.438 313.633 123.522 313.79 123.601C313.939 123.529 314.079 123.449 314.21 123.361C314.34 123.273 314.446 123.168 314.527 123.044C314.608 122.92 314.649 122.772 314.649 122.6C314.649 122.368 314.566 122.189 314.4 122.062C314.237 121.936 314.031 121.872 313.78 121.872ZM321.661 128H317.549V120.861H321.661V122.102H319.063V123.669H321.48V124.909H319.063V126.75H321.661V128ZM329.078 124.362C329.078 125.166 328.923 125.839 328.614 126.379C328.308 126.916 327.864 127.321 327.281 127.595C326.698 127.865 325.997 128 325.176 128H323.155V120.861H325.396C326.145 120.861 326.794 120.995 327.344 121.262C327.895 121.525 328.321 121.918 328.624 122.438C328.926 122.956 329.078 123.597 329.078 124.362ZM327.506 124.401C327.506 123.874 327.427 123.441 327.271 123.103C327.118 122.761 326.89 122.508 326.588 122.346C326.288 122.183 325.917 122.102 325.474 122.102H324.669V126.75H325.318C326.057 126.75 326.605 126.553 326.964 126.159C327.325 125.765 327.506 125.179 327.506 124.401ZM335.211 126.521H334.351V128H332.877V126.521H329.83V125.471L332.96 120.861H334.351V125.349H335.211V126.521ZM332.877 125.349V124.138C332.877 124.024 332.878 123.889 332.882 123.732C332.888 123.576 332.895 123.42 332.901 123.264C332.908 123.107 332.914 122.969 332.921 122.849C332.93 122.725 332.937 122.639 332.94 122.59H332.901C332.839 122.723 332.774 122.854 332.706 122.98C332.637 123.104 332.558 123.234 332.466 123.371L331.158 125.349H332.877ZM337.769 128H336.28V120.861H340.372V122.102H337.769V123.942H340.191V125.178H337.769V128ZM343.731 120.769C344.141 120.769 344.519 120.832 344.864 120.959C345.212 121.086 345.491 121.278 345.699 121.535C345.907 121.789 346.011 122.108 346.011 122.492C346.011 122.779 345.954 123.029 345.841 123.244C345.73 123.459 345.578 123.648 345.386 123.811C345.194 123.97 344.976 124.11 344.732 124.23C344.986 124.364 345.227 124.52 345.455 124.699C345.683 124.875 345.868 125.082 346.011 125.319C346.158 125.557 346.231 125.834 346.231 126.149C346.231 126.547 346.125 126.892 345.914 127.185C345.702 127.474 345.409 127.699 345.035 127.858C344.661 128.018 344.226 128.098 343.731 128.098C343.197 128.098 342.743 128.021 342.369 127.868C341.994 127.715 341.71 127.497 341.514 127.214C341.319 126.927 341.221 126.586 341.221 126.188C341.221 125.863 341.282 125.58 341.402 125.339C341.526 125.098 341.692 124.891 341.9 124.719C342.108 124.543 342.338 124.393 342.589 124.27C342.377 124.136 342.183 123.985 342.008 123.815C341.835 123.646 341.697 123.452 341.592 123.234C341.492 123.016 341.441 122.766 341.441 122.482C341.441 122.105 341.547 121.789 341.758 121.535C341.973 121.281 342.255 121.091 342.603 120.964C342.952 120.834 343.327 120.769 343.731 120.769ZM342.618 126.101C342.618 126.358 342.709 126.571 342.891 126.74C343.077 126.906 343.35 126.989 343.712 126.989C344.086 126.989 344.366 126.91 344.551 126.75C344.737 126.587 344.83 126.374 344.83 126.11C344.83 125.928 344.776 125.769 344.669 125.632C344.564 125.495 344.433 125.373 344.273 125.266C344.114 125.155 343.952 125.052 343.79 124.958L343.658 124.89C343.45 124.984 343.267 125.09 343.111 125.207C342.958 125.324 342.838 125.456 342.75 125.603C342.662 125.749 342.618 125.915 342.618 126.101ZM343.721 121.872C343.474 121.872 343.269 121.936 343.106 122.062C342.943 122.189 342.862 122.368 342.862 122.6C342.862 122.762 342.901 122.906 342.979 123.029C343.061 123.15 343.166 123.256 343.297 123.347C343.43 123.438 343.575 123.522 343.731 123.601C343.881 123.529 344.021 123.449 344.151 123.361C344.281 123.273 344.387 123.168 344.468 123.044C344.55 122.92 344.591 122.772 344.591 122.6C344.591 122.368 344.508 122.189 344.341 122.062C344.179 121.936 343.972 121.872 343.721 121.872Z" fill="#2C3437"/>
<path d="M116.39 98H233.75V134H116.39V98Z" fill="#BCE6FC"/>
<path d="M191.012 122.879L190.782 124.012H192.042V125.018H190.592L190.216 127H189.142L189.522 125.018H188.575L188.204 127H187.154L187.516 125.018H186.353V124.012H187.706L187.936 122.879H186.705V121.858H188.116L188.492 119.871H189.561L189.186 121.858H190.152L190.533 119.871H191.583L191.202 121.858H192.374V122.879H191.012ZM188.766 124.012H189.723L189.952 122.879H188.995L188.766 124.012ZM193.497 119.861H195.719C196.669 119.861 197.389 119.995 197.877 120.262C198.365 120.529 198.609 120.997 198.609 121.668C198.609 121.938 198.565 122.182 198.478 122.4C198.393 122.618 198.269 122.798 198.106 122.938C197.944 123.077 197.745 123.169 197.511 123.211V123.26C197.748 123.309 197.963 123.393 198.155 123.514C198.347 123.631 198.5 123.803 198.614 124.031C198.731 124.256 198.79 124.555 198.79 124.93C198.79 125.363 198.684 125.734 198.473 126.043C198.261 126.352 197.958 126.59 197.564 126.756C197.174 126.919 196.708 127 196.168 127H193.497V119.861ZM195.011 122.688H195.89C196.329 122.688 196.633 122.62 196.803 122.483C196.972 122.343 197.057 122.138 197.057 121.868C197.057 121.595 196.956 121.399 196.754 121.282C196.555 121.162 196.24 121.102 195.807 121.102H195.011V122.688ZM195.011 123.89V125.75H195.997C196.453 125.75 196.77 125.662 196.949 125.486C197.128 125.311 197.218 125.075 197.218 124.778C197.218 124.603 197.179 124.448 197.101 124.314C197.022 124.181 196.891 124.077 196.705 124.002C196.523 123.927 196.27 123.89 195.948 123.89H195.011ZM203.248 121.019C202.958 121.019 202.701 121.076 202.477 121.189C202.255 121.3 202.068 121.461 201.915 121.673C201.765 121.884 201.651 122.14 201.573 122.439C201.495 122.739 201.456 123.076 201.456 123.45C201.456 123.955 201.518 124.386 201.642 124.744C201.769 125.099 201.964 125.371 202.228 125.56C202.491 125.745 202.831 125.838 203.248 125.838C203.538 125.838 203.827 125.805 204.117 125.74C204.41 125.675 204.728 125.582 205.069 125.462V126.731C204.754 126.862 204.443 126.954 204.137 127.01C203.831 127.068 203.487 127.098 203.106 127.098C202.371 127.098 201.765 126.946 201.29 126.644C200.818 126.338 200.468 125.911 200.24 125.364C200.012 124.814 199.898 124.173 199.898 123.44C199.898 122.9 199.972 122.405 200.118 121.956C200.265 121.507 200.479 121.118 200.763 120.789C201.046 120.46 201.396 120.206 201.812 120.027C202.229 119.848 202.708 119.759 203.248 119.759C203.603 119.759 203.958 119.804 204.312 119.896C204.671 119.983 205.012 120.105 205.338 120.262L204.85 121.492C204.583 121.365 204.314 121.255 204.044 121.16C203.774 121.066 203.508 121.019 203.248 121.019ZM210.704 127H206.593V119.861H210.704V121.102H208.106V122.669H210.523V123.909H208.106V125.75H210.704V127ZM211.651 123.968C211.651 123.558 211.681 123.152 211.739 122.752C211.801 122.348 211.907 121.969 212.057 121.614C212.206 121.256 212.416 120.94 212.686 120.667C212.957 120.39 213.3 120.174 213.717 120.018C214.133 119.858 214.638 119.778 215.23 119.778C215.37 119.778 215.533 119.785 215.719 119.798C215.908 119.808 216.064 119.826 216.187 119.852V121.058C216.057 121.028 215.917 121.006 215.768 120.989C215.621 120.97 215.475 120.96 215.328 120.96C214.736 120.96 214.277 121.054 213.951 121.243C213.629 121.432 213.401 121.694 213.268 122.029C213.137 122.361 213.061 122.749 213.038 123.191H213.102C213.193 123.032 213.307 122.89 213.443 122.767C213.583 122.643 213.753 122.545 213.951 122.474C214.15 122.399 214.382 122.361 214.649 122.361C215.066 122.361 215.427 122.451 215.733 122.63C216.039 122.806 216.275 123.061 216.441 123.396C216.607 123.732 216.69 124.14 216.69 124.622C216.69 125.136 216.591 125.579 216.393 125.95C216.194 126.321 215.912 126.606 215.548 126.805C215.186 127 214.757 127.098 214.259 127.098C213.894 127.098 213.554 127.036 213.238 126.912C212.922 126.785 212.646 126.593 212.408 126.336C212.171 126.079 211.985 125.755 211.852 125.364C211.718 124.97 211.651 124.505 211.651 123.968ZM214.229 125.892C214.526 125.892 214.767 125.791 214.952 125.589C215.138 125.387 215.23 125.071 215.23 124.642C215.23 124.293 215.149 124.02 214.986 123.821C214.827 123.619 214.584 123.519 214.259 123.519C214.037 123.519 213.842 123.569 213.673 123.67C213.507 123.768 213.378 123.893 213.287 124.046C213.196 124.196 213.15 124.35 213.15 124.51C213.15 124.676 213.173 124.84 213.219 125.003C213.264 125.166 213.333 125.314 213.424 125.447C213.515 125.581 213.627 125.688 213.761 125.77C213.897 125.851 214.054 125.892 214.229 125.892ZM219.41 127H217.921V119.861H222.013V121.102H219.41V122.942H221.832V124.178H219.41V127ZM226.441 121.019C226.152 121.019 225.895 121.076 225.67 121.189C225.449 121.3 225.261 121.461 225.108 121.673C224.959 121.884 224.845 122.14 224.767 122.439C224.688 122.739 224.649 123.076 224.649 123.45C224.649 123.955 224.711 124.386 224.835 124.744C224.962 125.099 225.157 125.371 225.421 125.56C225.685 125.745 226.025 125.838 226.441 125.838C226.731 125.838 227.021 125.805 227.311 125.74C227.603 125.675 227.921 125.582 228.263 125.462V126.731C227.947 126.862 227.636 126.954 227.33 127.01C227.024 127.068 226.681 127.098 226.3 127.098C225.564 127.098 224.959 126.946 224.483 126.644C224.011 126.338 223.661 125.911 223.434 125.364C223.206 124.814 223.092 124.173 223.092 123.44C223.092 122.9 223.165 122.405 223.311 121.956C223.458 121.507 223.673 121.118 223.956 120.789C224.239 120.46 224.589 120.206 225.006 120.027C225.422 119.848 225.901 119.759 226.441 119.759C226.796 119.759 227.151 119.804 227.506 119.896C227.864 119.983 228.206 120.105 228.531 120.262L228.043 121.492C227.776 121.365 227.507 121.255 227.237 121.16C226.967 121.066 226.702 121.019 226.441 121.019Z" fill="#2C3437"/>
<path d="M0 98H116.39V134H9.99999C4.47715 134 0 129.523 0 124V98Z" fill="#E9F4FA"/>
<path d="M73.6517 123.879L73.4222 125.012H74.682V126.018H73.2318L72.8558 128H71.7816L72.1625 126.018H71.2152L70.8441 128H69.7943L70.1556 126.018H68.9935V125.012H70.3461L70.5756 123.879H69.3451V122.858H70.7562L71.1322 120.871H72.2015L71.8256 122.858H72.7924L73.1732 120.871H74.223L73.8422 122.858H75.014V123.879H73.6517ZM71.4056 125.012H72.3627L72.5922 123.879H71.6351L71.4056 125.012ZM80.2484 128H76.1371V120.861H80.2484V122.102H77.6508V123.669H80.0677V124.909H77.6508V126.75H80.2484V128ZM86.2054 123.908C86.2054 124.318 86.1745 124.725 86.1127 125.129C86.0541 125.533 85.9499 125.913 85.8002 126.271C85.6504 126.626 85.4405 126.942 85.1703 127.219C84.9001 127.492 84.5567 127.707 84.14 127.863C83.7233 128.02 83.2188 128.098 82.6263 128.098C82.4864 128.098 82.322 128.091 82.1332 128.078C81.9444 128.068 81.7881 128.052 81.6644 128.029V126.818C81.7946 126.851 81.933 126.877 82.0795 126.896C82.226 126.913 82.3741 126.921 82.5238 126.921C83.1195 126.921 83.5785 126.826 83.9008 126.638C84.2263 126.449 84.4541 126.187 84.5844 125.852C84.7178 125.516 84.7943 125.129 84.8138 124.689H84.7552C84.6608 124.846 84.5485 124.987 84.4183 125.114C84.2914 125.238 84.1286 125.337 83.9301 125.412C83.7315 125.484 83.4792 125.52 83.1732 125.52C82.7663 125.52 82.4115 125.432 82.1088 125.256C81.8093 125.077 81.5765 124.82 81.4105 124.484C81.2478 124.146 81.1664 123.737 81.1664 123.259C81.1664 122.741 81.264 122.299 81.4594 121.931C81.6579 121.56 81.9395 121.275 82.3041 121.076C82.6687 120.878 83.0983 120.778 83.5931 120.778C83.9577 120.778 84.2979 120.842 84.6136 120.969C84.9294 121.092 85.2061 121.283 85.4437 121.54C85.6846 121.797 85.8718 122.123 86.0052 122.517C86.1387 122.91 86.2054 123.374 86.2054 123.908ZM83.6224 121.989C83.3295 121.989 83.0902 122.09 82.9047 122.292C82.7191 122.494 82.6263 122.81 82.6263 123.239C82.6263 123.584 82.7061 123.858 82.8656 124.06C83.0251 124.261 83.2676 124.362 83.5931 124.362C83.8177 124.362 84.0131 124.313 84.1791 124.216C84.3451 124.115 84.4737 123.99 84.5648 123.84C84.6592 123.687 84.7064 123.531 84.7064 123.371C84.7064 123.205 84.6836 123.041 84.6381 122.878C84.5925 122.715 84.5241 122.567 84.433 122.434C84.3418 122.3 84.2279 122.193 84.0912 122.111C83.9577 122.03 83.8015 121.989 83.6224 121.989ZM88.9545 128H87.4652V120.861H91.557V122.102H88.9545V123.942H91.3763V125.178H88.9545V128ZM97.6068 126.521H96.7474V128H95.2728V126.521H92.226V125.471L95.3558 120.861H96.7474V125.349H97.6068V126.521ZM95.2728 125.349V124.138C95.2728 124.024 95.2745 123.889 95.2777 123.732C95.2842 123.576 95.2907 123.42 95.2972 123.264C95.3038 123.107 95.3103 122.969 95.3168 122.849C95.3265 122.725 95.333 122.639 95.3363 122.59H95.2972C95.2354 122.723 95.1703 122.854 95.1019 122.98C95.0336 123.104 94.9538 123.234 94.8627 123.371L93.5541 125.349H95.2728ZM100.165 128H98.6761V120.861H102.768V122.102H100.165V123.942H102.587V125.178H100.165V128ZM108.535 128L108.017 126.301H105.414L104.897 128H103.266L105.786 120.832H107.636L110.165 128H108.535ZM107.656 125.031L107.138 123.371C107.106 123.26 107.062 123.119 107.006 122.946C106.954 122.771 106.9 122.593 106.845 122.414C106.793 122.232 106.751 122.074 106.718 121.94C106.686 122.074 106.64 122.24 106.581 122.438C106.526 122.634 106.472 122.819 106.42 122.995C106.368 123.171 106.331 123.296 106.308 123.371L105.795 125.031H107.656Z" fill="#2C3437"/>
</svg>
