<svg width="935" height="134" viewBox="0 0 935 134" fill="none" xmlns="http://www.w3.org/2000/svg">
<rect width="934.03" height="134" rx="10" fill="#AF74E8"/>
<path d="M851.756 81.7578L851.297 84.0234H853.816V86.0352H850.916L850.164 90H848.016L848.777 86.0352H846.883L846.141 90H844.041L844.764 86.0352H842.439V84.0234H845.145L845.604 81.7578H843.143V79.7168H845.965L846.717 75.7422H848.855L848.104 79.7168H850.037L850.799 75.7422H852.898L852.137 79.7168H854.48V81.7578H851.756ZM847.264 84.0234H849.178L849.637 81.7578H847.723L847.264 84.0234ZM865.467 90L864.432 86.6016H859.227L858.191 90H854.93L859.969 75.6641H863.67L868.729 90H865.467ZM863.709 84.0625L862.674 80.7422C862.609 80.5208 862.521 80.2376 862.41 79.8926C862.306 79.541 862.199 79.1862 862.088 78.8281C861.984 78.4635 861.899 78.1478 861.834 77.8809C861.769 78.1478 861.678 78.4798 861.561 78.877C861.45 79.2676 861.342 79.6387 861.238 79.9902C861.134 80.3418 861.059 80.5924 861.014 80.7422L859.988 84.0625H863.709ZM873.514 90H870.535V75.7227H878.719V78.2031H873.514V81.8848H878.357V84.3555H873.514V90ZM881.932 90L887.293 78.2617H880.252V75.7227H890.496V77.6172L885.096 90H881.932ZM902.264 87.041H900.545V90H897.596V87.041H891.502V84.9414L897.762 75.7227H900.545V84.6973H902.264V87.041ZM897.596 84.6973V82.2754C897.596 82.0475 897.599 81.7773 897.605 81.4648C897.618 81.1523 897.632 80.8398 897.645 80.5273C897.658 80.2148 897.671 79.9382 897.684 79.6973C897.703 79.4499 897.716 79.2773 897.723 79.1797H897.645C897.521 79.4466 897.391 79.707 897.254 79.9609C897.117 80.2083 896.958 80.4688 896.775 80.7422L894.158 84.6973H897.596ZM912.625 90H904.402V75.7227H912.625V78.2031H907.43V81.3379H912.264V83.8184H907.43V87.5H912.625V90ZM919.539 75.5371C920.359 75.5371 921.115 75.6641 921.805 75.918C922.501 76.1719 923.058 76.556 923.475 77.0703C923.891 77.5781 924.1 78.2161 924.1 78.9844C924.1 79.5573 923.986 80.0586 923.758 80.4883C923.536 80.918 923.234 81.2956 922.85 81.6211C922.465 81.9401 922.029 82.2201 921.541 82.4609C922.049 82.7279 922.531 83.0404 922.986 83.3984C923.442 83.75 923.813 84.1634 924.1 84.6387C924.393 85.1139 924.539 85.6673 924.539 86.2988C924.539 87.0931 924.327 87.7832 923.904 88.3691C923.481 88.9486 922.895 89.3978 922.146 89.7168C921.398 90.0358 920.529 90.1953 919.539 90.1953C918.471 90.1953 917.563 90.0423 916.814 89.7363C916.066 89.4303 915.496 88.9941 915.105 88.4277C914.715 87.8548 914.52 87.1712 914.52 86.377C914.52 85.7259 914.64 85.1595 914.881 84.6777C915.128 84.196 915.46 83.7826 915.877 83.4375C916.294 83.0859 916.753 82.7865 917.254 82.5391C916.831 82.2721 916.443 81.9694 916.092 81.6309C915.747 81.2923 915.47 80.9049 915.262 80.4688C915.06 80.0326 914.959 79.5312 914.959 78.9648C914.959 78.2096 915.171 77.5781 915.594 77.0703C916.023 76.5625 916.587 76.1816 917.283 75.9277C917.98 75.6673 918.732 75.5371 919.539 75.5371ZM917.312 86.2012C917.312 86.7155 917.495 87.1419 917.859 87.4805C918.23 87.8125 918.777 87.9785 919.5 87.9785C920.249 87.9785 920.809 87.819 921.18 87.5C921.551 87.1745 921.736 86.748 921.736 86.2207C921.736 85.8561 921.629 85.5371 921.414 85.2637C921.206 84.9902 920.942 84.7461 920.623 84.5312C920.304 84.3099 919.982 84.1048 919.656 83.916L919.393 83.7793C918.976 83.9681 918.611 84.1797 918.299 84.4141C917.993 84.6484 917.752 84.9121 917.576 85.2051C917.4 85.498 917.312 85.8301 917.312 86.2012ZM919.52 77.7441C919.025 77.7441 918.615 77.8711 918.289 78.125C917.964 78.3789 917.801 78.737 917.801 79.1992C917.801 79.5247 917.879 79.8112 918.035 80.0586C918.198 80.2995 918.41 80.5111 918.67 80.6934C918.937 80.8757 919.227 81.0449 919.539 81.2012C919.839 81.0579 920.118 80.8984 920.379 80.7227C920.639 80.5469 920.851 80.3353 921.014 80.0879C921.176 79.8405 921.258 79.5443 921.258 79.1992C921.258 78.737 921.092 78.3789 920.76 78.125C920.434 77.8711 920.021 77.7441 919.52 77.7441Z" fill="white"/>
<path d="M817.64 98H934.03V124C934.03 129.523 929.553 134 924.03 134H817.64V98Z" fill="#361B52"/>
<path d="M893.232 123.879L893.002 125.012H894.262V126.018H892.812L892.436 128H891.362L891.742 126.018H890.795L890.424 128H889.374L889.736 126.018H888.573V125.012H889.926L890.155 123.879H888.925V122.858H890.336L890.712 120.871H891.781L891.405 122.858H892.372L892.753 120.871H893.803L893.422 122.858H894.594V123.879H893.232ZM890.986 125.012H891.943L892.172 123.879H891.215L890.986 125.012ZM899.931 122.458C899.931 122.787 899.862 123.072 899.726 123.312C899.589 123.553 899.404 123.75 899.169 123.903C898.938 124.056 898.678 124.169 898.388 124.24V124.27C898.961 124.341 899.395 124.517 899.692 124.797C899.991 125.077 900.141 125.451 900.141 125.92C900.141 126.337 900.038 126.709 899.833 127.038C899.631 127.367 899.319 127.626 898.896 127.814C898.473 128.003 897.927 128.098 897.26 128.098C896.866 128.098 896.498 128.065 896.156 128C895.818 127.938 895.499 127.842 895.199 127.712V126.428C895.505 126.584 895.826 126.703 896.161 126.784C896.497 126.862 896.809 126.901 897.099 126.901C897.639 126.901 898.017 126.809 898.232 126.623C898.45 126.434 898.559 126.171 898.559 125.832C898.559 125.633 898.508 125.466 898.407 125.329C898.306 125.192 898.131 125.088 897.88 125.017C897.633 124.945 897.286 124.909 896.84 124.909H896.298V123.752H896.85C897.289 123.752 897.623 123.711 897.851 123.63C898.082 123.545 898.238 123.431 898.32 123.288C898.404 123.142 898.446 122.976 898.446 122.79C898.446 122.536 898.368 122.338 898.212 122.194C898.056 122.051 897.795 121.979 897.431 121.979C897.203 121.979 896.995 122.009 896.806 122.067C896.62 122.123 896.453 122.191 896.303 122.272C896.153 122.351 896.021 122.427 895.907 122.502L895.209 121.462C895.489 121.26 895.816 121.092 896.191 120.959C896.568 120.826 897.017 120.759 897.538 120.759C898.274 120.759 898.857 120.907 899.286 121.203C899.716 121.499 899.931 121.918 899.931 122.458ZM900.893 124.968C900.893 124.558 900.922 124.152 900.981 123.752C901.043 123.348 901.148 122.969 901.298 122.614C901.448 122.256 901.658 121.94 901.928 121.667C902.198 121.39 902.542 121.174 902.958 121.018C903.375 120.858 903.879 120.778 904.472 120.778C904.612 120.778 904.775 120.785 904.96 120.798C905.149 120.808 905.305 120.826 905.429 120.852V122.058C905.299 122.028 905.159 122.006 905.009 121.989C904.862 121.97 904.716 121.96 904.57 121.96C903.977 121.96 903.518 122.054 903.193 122.243C902.87 122.432 902.642 122.694 902.509 123.029C902.379 123.361 902.302 123.749 902.279 124.191H902.343C902.434 124.032 902.548 123.89 902.685 123.767C902.825 123.643 902.994 123.545 903.193 123.474C903.391 123.399 903.624 123.361 903.891 123.361C904.307 123.361 904.669 123.451 904.975 123.63C905.281 123.806 905.517 124.061 905.683 124.396C905.849 124.732 905.932 125.14 905.932 125.622C905.932 126.136 905.833 126.579 905.634 126.95C905.435 127.321 905.154 127.606 904.789 127.805C904.428 128 903.998 128.098 903.5 128.098C903.136 128.098 902.795 128.036 902.48 127.912C902.164 127.785 901.887 127.593 901.65 127.336C901.412 127.079 901.226 126.755 901.093 126.364C900.959 125.97 900.893 125.505 900.893 124.968ZM903.471 126.892C903.767 126.892 904.008 126.791 904.194 126.589C904.379 126.387 904.472 126.071 904.472 125.642C904.472 125.293 904.39 125.02 904.228 124.821C904.068 124.619 903.826 124.519 903.5 124.519C903.279 124.519 903.084 124.569 902.914 124.67C902.748 124.768 902.62 124.893 902.529 125.046C902.437 125.196 902.392 125.35 902.392 125.51C902.392 125.676 902.415 125.84 902.46 126.003C902.506 126.166 902.574 126.314 902.665 126.447C902.756 126.581 902.869 126.688 903.002 126.77C903.139 126.851 903.295 126.892 903.471 126.892ZM910.395 128H908.886V123.869C908.886 123.755 908.888 123.615 908.891 123.449C908.894 123.28 908.899 123.107 908.905 122.932C908.912 122.753 908.918 122.591 908.925 122.448C908.889 122.491 908.816 122.564 908.705 122.668C908.598 122.769 908.497 122.86 908.403 122.941L907.582 123.601L906.855 122.692L909.154 120.861H910.395V128ZM912.885 120.861H915.107C916.057 120.861 916.777 120.995 917.265 121.262C917.753 121.529 917.997 121.997 917.997 122.668C917.997 122.938 917.953 123.182 917.865 123.4C917.781 123.618 917.657 123.798 917.494 123.938C917.332 124.077 917.133 124.169 916.899 124.211V124.26C917.136 124.309 917.351 124.393 917.543 124.514C917.735 124.631 917.888 124.803 918.002 125.031C918.119 125.256 918.178 125.555 918.178 125.93C918.178 126.363 918.072 126.734 917.861 127.043C917.649 127.352 917.346 127.59 916.952 127.756C916.562 127.919 916.096 128 915.556 128H912.885V120.861ZM914.399 123.688H915.278C915.717 123.688 916.021 123.62 916.191 123.483C916.36 123.343 916.445 123.138 916.445 122.868C916.445 122.595 916.344 122.399 916.142 122.282C915.943 122.162 915.627 122.102 915.195 122.102H914.399V123.688ZM914.399 124.89V126.75H915.385C915.841 126.75 916.158 126.662 916.337 126.486C916.516 126.311 916.606 126.075 916.606 125.778C916.606 125.603 916.567 125.448 916.488 125.314C916.41 125.181 916.279 125.077 916.093 125.002C915.911 124.927 915.658 124.89 915.336 124.89H914.399ZM921.703 123.439C922.14 123.439 922.527 123.522 922.865 123.688C923.207 123.854 923.476 124.099 923.671 124.421C923.866 124.743 923.964 125.14 923.964 125.612C923.964 126.127 923.857 126.571 923.642 126.945C923.43 127.316 923.113 127.601 922.69 127.8C922.27 127.998 921.746 128.098 921.117 128.098C920.743 128.098 920.39 128.065 920.058 128C919.729 127.938 919.441 127.842 919.194 127.712V126.408C919.441 126.538 919.737 126.649 920.082 126.74C920.431 126.828 920.758 126.872 921.064 126.872C921.363 126.872 921.615 126.833 921.82 126.755C922.026 126.674 922.18 126.55 922.284 126.384C922.392 126.215 922.445 126 922.445 125.739C922.445 125.391 922.328 125.124 922.094 124.938C921.86 124.753 921.5 124.66 921.015 124.66C920.829 124.66 920.636 124.678 920.434 124.714C920.235 124.75 920.069 124.785 919.936 124.821L919.335 124.499L919.604 120.861H923.476V122.141H920.927L920.795 123.542C920.906 123.519 921.026 123.496 921.156 123.474C921.287 123.451 921.469 123.439 921.703 123.439ZM929.819 128H924.828V126.95L926.62 125.139C926.982 124.768 927.271 124.458 927.489 124.211C927.711 123.96 927.87 123.732 927.968 123.527C928.069 123.322 928.119 123.103 928.119 122.868C928.119 122.585 928.04 122.373 927.88 122.233C927.724 122.09 927.514 122.019 927.25 122.019C926.973 122.019 926.705 122.082 926.445 122.209C926.184 122.336 925.912 122.517 925.629 122.751L924.809 121.779C925.014 121.604 925.23 121.438 925.458 121.281C925.689 121.125 925.956 121 926.259 120.905C926.565 120.808 926.931 120.759 927.358 120.759C927.826 120.759 928.228 120.843 928.564 121.013C928.902 121.182 929.163 121.413 929.345 121.706C929.527 121.996 929.618 122.325 929.618 122.692C929.618 123.086 929.54 123.446 929.384 123.771C929.228 124.097 929 124.419 928.7 124.738C928.404 125.057 928.046 125.41 927.626 125.798L926.708 126.662V126.73H929.819V128Z" fill="white"/>
<path d="M700.28 98H817.64V134H700.28V98Z" fill="#642B9E"/>
<path d="M776.842 123.879L776.612 125.012H777.872V126.018H776.422L776.046 128H774.971L775.352 126.018H774.405L774.034 128H772.984L773.345 126.018H772.183V125.012H773.536L773.765 123.879H772.535V122.858H773.946L774.322 120.871H775.391L775.015 122.858H775.982L776.363 120.871H777.413L777.032 122.858H778.204V123.879H776.842ZM774.595 125.012H775.552L775.782 123.879H774.825L774.595 125.012ZM778.78 124.968C778.78 124.558 778.809 124.152 778.868 123.752C778.93 123.348 779.036 122.969 779.185 122.614C779.335 122.256 779.545 121.94 779.815 121.667C780.085 121.39 780.429 121.174 780.845 121.018C781.262 120.858 781.767 120.778 782.359 120.778C782.499 120.778 782.662 120.785 782.847 120.798C783.036 120.808 783.192 120.826 783.316 120.852V122.058C783.186 122.028 783.046 122.006 782.896 121.989C782.75 121.97 782.603 121.96 782.457 121.96C781.864 121.96 781.405 122.054 781.08 122.243C780.758 122.432 780.53 122.694 780.396 123.029C780.266 123.361 780.19 123.749 780.167 124.191H780.23C780.321 124.032 780.435 123.89 780.572 123.767C780.712 123.643 780.881 123.545 781.08 123.474C781.278 123.399 781.511 123.361 781.778 123.361C782.195 123.361 782.556 123.451 782.862 123.63C783.168 123.806 783.404 124.061 783.57 124.396C783.736 124.732 783.819 125.14 783.819 125.622C783.819 126.136 783.72 126.579 783.521 126.95C783.323 127.321 783.041 127.606 782.677 127.805C782.315 128 781.885 128.098 781.387 128.098C781.023 128.098 780.683 128.036 780.367 127.912C780.051 127.785 779.774 127.593 779.537 127.336C779.299 127.079 779.114 126.755 778.98 126.364C778.847 125.97 778.78 125.505 778.78 124.968ZM781.358 126.892C781.654 126.892 781.895 126.791 782.081 126.589C782.266 126.387 782.359 126.071 782.359 125.642C782.359 125.293 782.278 125.02 782.115 124.821C781.955 124.619 781.713 124.519 781.387 124.519C781.166 124.519 780.971 124.569 780.802 124.67C780.635 124.768 780.507 124.893 780.416 125.046C780.325 125.196 780.279 125.35 780.279 125.51C780.279 125.676 780.302 125.84 780.347 126.003C780.393 126.166 780.461 126.314 780.552 126.447C780.644 126.581 780.756 126.688 780.889 126.77C781.026 126.851 781.182 126.892 781.358 126.892ZM789.703 126.521H788.844V128H787.369V126.521H784.322V125.471L787.452 120.861H788.844V125.349H789.703V126.521ZM787.369 125.349V124.138C787.369 124.024 787.371 123.889 787.374 123.732C787.38 123.576 787.387 123.42 787.393 123.264C787.4 123.107 787.406 122.969 787.413 122.849C787.423 122.725 787.429 122.639 787.432 122.59H787.393C787.331 122.723 787.266 122.854 787.198 122.98C787.13 123.104 787.05 123.234 786.959 123.371L785.65 125.349H787.369ZM795.264 128H790.274V126.95L792.066 125.139C792.427 124.768 792.717 124.458 792.935 124.211C793.157 123.96 793.316 123.732 793.414 123.527C793.515 123.322 793.565 123.103 793.565 122.868C793.565 122.585 793.485 122.373 793.326 122.233C793.17 122.09 792.96 122.019 792.696 122.019C792.419 122.019 792.151 122.082 791.89 122.209C791.63 122.336 791.358 122.517 791.075 122.751L790.255 121.779C790.46 121.604 790.676 121.438 790.904 121.281C791.135 121.125 791.402 121 791.705 120.905C792.011 120.808 792.377 120.759 792.803 120.759C793.272 120.759 793.674 120.843 794.01 121.013C794.348 121.182 794.608 121.413 794.791 121.706C794.973 121.996 795.064 122.325 795.064 122.692C795.064 123.086 794.986 123.446 794.83 123.771C794.674 124.097 794.446 124.419 794.146 124.738C793.85 125.057 793.492 125.41 793.072 125.798L792.154 126.662V126.73H795.264V128ZM796.495 120.861H798.717C799.667 120.861 800.386 120.995 800.875 121.262C801.363 121.529 801.607 121.997 801.607 122.668C801.607 122.938 801.563 123.182 801.475 123.4C801.391 123.618 801.267 123.798 801.104 123.938C800.941 124.077 800.743 124.169 800.509 124.211V124.26C800.746 124.309 800.961 124.393 801.153 124.514C801.345 124.631 801.498 124.803 801.612 125.031C801.729 125.256 801.788 125.555 801.788 125.93C801.788 126.363 801.682 126.734 801.47 127.043C801.259 127.352 800.956 127.59 800.562 127.756C800.172 127.919 799.706 128 799.166 128H796.495V120.861ZM798.009 123.688H798.887C799.327 123.688 799.631 123.62 799.801 123.483C799.97 123.343 800.054 123.138 800.054 122.868C800.054 122.595 799.954 122.399 799.752 122.282C799.553 122.162 799.237 122.102 798.804 122.102H798.009V123.688ZM798.009 124.89V126.75H798.995C799.451 126.75 799.768 126.662 799.947 126.486C800.126 126.311 800.216 126.075 800.216 125.778C800.216 125.603 800.177 125.448 800.098 125.314C800.02 125.181 799.888 125.077 799.703 125.002C799.521 124.927 799.268 124.89 798.946 124.89H798.009ZM807.677 123.908C807.677 124.318 807.646 124.725 807.584 125.129C807.525 125.533 807.421 125.913 807.271 126.271C807.122 126.626 806.912 126.942 806.641 127.219C806.371 127.492 806.028 127.707 805.611 127.863C805.194 128.02 804.69 128.098 804.097 128.098C803.957 128.098 803.793 128.091 803.604 128.078C803.415 128.068 803.259 128.052 803.135 128.029V126.818C803.266 126.851 803.404 126.877 803.551 126.896C803.697 126.913 803.845 126.921 803.995 126.921C804.591 126.921 805.05 126.826 805.372 126.638C805.697 126.449 805.925 126.187 806.055 125.852C806.189 125.516 806.265 125.129 806.285 124.689H806.226C806.132 124.846 806.02 124.987 805.889 125.114C805.762 125.238 805.6 125.337 805.401 125.412C805.203 125.484 804.95 125.52 804.644 125.52C804.237 125.52 803.883 125.432 803.58 125.256C803.28 125.077 803.048 124.82 802.882 124.484C802.719 124.146 802.637 123.737 802.637 123.259C802.637 122.741 802.735 122.299 802.93 121.931C803.129 121.56 803.411 121.275 803.775 121.076C804.14 120.878 804.569 120.778 805.064 120.778C805.429 120.778 805.769 120.842 806.085 120.969C806.4 121.092 806.677 121.283 806.915 121.54C807.156 121.797 807.343 122.123 807.476 122.517C807.61 122.91 807.677 123.374 807.677 123.908ZM805.094 121.989C804.801 121.989 804.561 122.09 804.376 122.292C804.19 122.494 804.097 122.81 804.097 123.239C804.097 123.584 804.177 123.858 804.337 124.06C804.496 124.261 804.739 124.362 805.064 124.362C805.289 124.362 805.484 124.313 805.65 124.216C805.816 124.115 805.945 123.99 806.036 123.84C806.13 123.687 806.177 123.531 806.177 123.371C806.177 123.205 806.155 123.041 806.109 122.878C806.064 122.715 805.995 122.567 805.904 122.434C805.813 122.3 805.699 122.193 805.562 122.111C805.429 122.03 805.273 121.989 805.094 121.989ZM813.048 128H808.936V120.861H813.048V122.102H810.45V123.669H812.867V124.909H810.45V126.75H813.048V128Z" fill="white"/>
<path d="M583.89 98H700.28V134H583.89V98Z" fill="#7D3CBE"/>
<path d="M658.512 123.879L658.282 125.012H659.542V126.018H658.092L657.716 128H656.642L657.022 126.018H656.075L655.704 128H654.654L655.016 126.018H653.854V125.012H655.206L655.436 123.879H654.205V122.858H655.616L655.992 120.871H657.062L656.686 122.858H657.652L658.033 120.871H659.083L658.702 122.858H659.874V123.879H658.512ZM656.266 125.012H657.223L657.452 123.879H656.495L656.266 125.012ZM661.207 128L663.888 122.131H660.367V120.861H665.489V121.809L662.789 128H661.207ZM672.643 124.362C672.643 125.166 672.488 125.839 672.179 126.379C671.873 126.916 671.428 127.321 670.846 127.595C670.263 127.865 669.562 128 668.741 128H666.72V120.861H668.961C669.71 120.861 670.359 120.995 670.909 121.262C671.459 121.525 671.886 121.918 672.188 122.438C672.491 122.956 672.643 123.597 672.643 124.362ZM671.07 124.401C671.07 123.874 670.992 123.441 670.836 123.103C670.683 122.761 670.455 122.508 670.152 122.346C669.853 122.183 669.482 122.102 669.039 122.102H668.233V126.75H668.883C669.622 126.75 670.17 126.553 670.528 126.159C670.89 125.765 671.07 125.179 671.07 124.401ZM678.336 122.458C678.336 122.787 678.268 123.072 678.131 123.312C677.994 123.553 677.809 123.75 677.574 123.903C677.343 124.056 677.083 124.169 676.793 124.24V124.27C677.366 124.341 677.8 124.517 678.097 124.797C678.396 125.077 678.546 125.451 678.546 125.92C678.546 126.337 678.443 126.709 678.238 127.038C678.036 127.367 677.724 127.626 677.301 127.814C676.878 128.003 676.332 128.098 675.665 128.098C675.271 128.098 674.903 128.065 674.562 128C674.223 127.938 673.904 127.842 673.604 127.712V126.428C673.91 126.584 674.231 126.703 674.566 126.784C674.902 126.862 675.214 126.901 675.504 126.901C676.044 126.901 676.422 126.809 676.637 126.623C676.855 126.434 676.964 126.171 676.964 125.832C676.964 125.633 676.913 125.466 676.812 125.329C676.712 125.192 676.536 125.088 676.285 125.017C676.038 124.945 675.691 124.909 675.245 124.909H674.703V123.752H675.255C675.694 123.752 676.028 123.711 676.256 123.63C676.487 123.545 676.643 123.431 676.725 123.288C676.809 123.142 676.852 122.976 676.852 122.79C676.852 122.536 676.773 122.338 676.617 122.194C676.461 122.051 676.201 121.979 675.836 121.979C675.608 121.979 675.4 122.009 675.211 122.067C675.025 122.123 674.858 122.191 674.708 122.272C674.558 122.351 674.426 122.427 674.312 122.502L673.614 121.462C673.894 121.26 674.221 121.092 674.596 120.959C674.973 120.826 675.423 120.759 675.943 120.759C676.679 120.759 677.262 120.907 677.691 121.203C678.121 121.499 678.336 121.918 678.336 122.458ZM682.877 122.019C682.587 122.019 682.33 122.076 682.105 122.189C681.884 122.3 681.697 122.461 681.544 122.673C681.394 122.884 681.28 123.14 681.202 123.439C681.124 123.739 681.085 124.076 681.085 124.45C681.085 124.955 681.147 125.386 681.271 125.744C681.397 126.099 681.593 126.371 681.856 126.56C682.12 126.745 682.46 126.838 682.877 126.838C683.167 126.838 683.456 126.805 683.746 126.74C684.039 126.675 684.356 126.582 684.698 126.462V127.731C684.382 127.862 684.072 127.954 683.766 128.01C683.46 128.068 683.116 128.098 682.735 128.098C682 128.098 681.394 127.946 680.919 127.644C680.447 127.338 680.097 126.911 679.869 126.364C679.641 125.814 679.527 125.173 679.527 124.44C679.527 123.9 679.601 123.405 679.747 122.956C679.894 122.507 680.108 122.118 680.392 121.789C680.675 121.46 681.025 121.206 681.441 121.027C681.858 120.848 682.337 120.759 682.877 120.759C683.232 120.759 683.587 120.804 683.941 120.896C684.299 120.983 684.641 121.105 684.967 121.262L684.479 122.492C684.212 122.365 683.943 122.255 683.673 122.16C683.403 122.066 683.137 122.019 682.877 122.019ZM686.222 120.861H688.443C689.394 120.861 690.113 120.995 690.602 121.262C691.09 121.529 691.334 121.997 691.334 122.668C691.334 122.938 691.29 123.182 691.202 123.4C691.118 123.618 690.994 123.798 690.831 123.938C690.668 124.077 690.47 124.169 690.235 124.211V124.26C690.473 124.309 690.688 124.393 690.88 124.514C691.072 124.631 691.225 124.803 691.339 125.031C691.456 125.256 691.515 125.555 691.515 125.93C691.515 126.363 691.409 126.734 691.197 127.043C690.986 127.352 690.683 127.59 690.289 127.756C689.898 127.919 689.433 128 688.893 128H686.222V120.861ZM687.735 123.688H688.614C689.054 123.688 689.358 123.62 689.527 123.483C689.697 123.343 689.781 123.138 689.781 122.868C689.781 122.595 689.68 122.399 689.479 122.282C689.28 122.162 688.964 122.102 688.531 122.102H687.735V123.688ZM687.735 124.89V126.75H688.722C689.177 126.75 689.495 126.662 689.674 126.486C689.853 126.311 689.942 126.075 689.942 125.778C689.942 125.603 689.903 125.448 689.825 125.314C689.747 125.181 689.615 125.077 689.43 125.002C689.247 124.927 688.995 124.89 688.673 124.89H687.735ZM697.052 128H692.94V120.861H697.052V122.102H694.454V123.669H696.871V124.909H694.454V126.75H697.052V128Z" fill="white"/>
<path d="M467.5 98H583.89V134H467.5V98Z" fill="#9756D6"/>
<path d="M544.061 123.879L543.832 125.012H545.092V126.018H543.642L543.266 128H542.191L542.572 126.018H541.625L541.254 128H540.204L540.565 126.018H539.403V125.012H540.756L540.985 123.879H539.755V122.858H541.166L541.542 120.871H542.611L542.235 122.858H543.202L543.583 120.871H544.633L544.252 122.858H545.424V123.879H544.061ZM541.815 125.012H542.772L543.002 123.879H542.045L541.815 125.012ZM551.01 123.908C551.01 124.318 550.979 124.725 550.917 125.129C550.858 125.533 550.754 125.913 550.604 126.271C550.455 126.626 550.245 126.942 549.975 127.219C549.704 127.492 549.361 127.707 548.944 127.863C548.528 128.02 548.023 128.098 547.431 128.098C547.291 128.098 547.126 128.091 546.937 128.078C546.749 128.068 546.592 128.052 546.469 128.029V126.818C546.599 126.851 546.737 126.877 546.884 126.896C547.03 126.913 547.178 126.921 547.328 126.921C547.924 126.921 548.383 126.826 548.705 126.638C549.031 126.449 549.258 126.187 549.389 125.852C549.522 125.516 549.599 125.129 549.618 124.689H549.56C549.465 124.846 549.353 124.987 549.223 125.114C549.096 125.238 548.933 125.337 548.734 125.412C548.536 125.484 548.283 125.52 547.977 125.52C547.571 125.52 547.216 125.432 546.913 125.256C546.614 125.077 546.381 124.82 546.215 124.484C546.052 124.146 545.971 123.737 545.971 123.259C545.971 122.741 546.068 122.299 546.264 121.931C546.462 121.56 546.744 121.275 547.108 121.076C547.473 120.878 547.903 120.778 548.397 120.778C548.762 120.778 549.102 120.842 549.418 120.969C549.734 121.092 550.01 121.283 550.248 121.54C550.489 121.797 550.676 122.123 550.81 122.517C550.943 122.91 551.01 123.374 551.01 123.908ZM548.427 121.989C548.134 121.989 547.894 122.09 547.709 122.292C547.523 122.494 547.431 122.81 547.431 123.239C547.431 123.584 547.51 123.858 547.67 124.06C547.829 124.261 548.072 124.362 548.397 124.362C548.622 124.362 548.817 124.313 548.983 124.216C549.149 124.115 549.278 123.99 549.369 123.84C549.463 123.687 549.511 123.531 549.511 123.371C549.511 123.205 549.488 123.041 549.442 122.878C549.397 122.715 549.328 122.567 549.237 122.434C549.146 122.3 549.032 122.193 548.895 122.111C548.762 122.03 548.606 121.989 548.427 121.989ZM552.479 128L555.16 122.131H551.64V120.861H556.762V121.809L554.061 128H552.479ZM560.092 123.439C560.528 123.439 560.915 123.522 561.254 123.688C561.596 123.854 561.864 124.099 562.06 124.421C562.255 124.743 562.352 125.14 562.352 125.612C562.352 126.127 562.245 126.571 562.03 126.945C561.819 127.316 561.501 127.601 561.078 127.8C560.658 127.998 560.134 128.098 559.506 128.098C559.131 128.098 558.778 128.065 558.446 128C558.117 127.938 557.829 127.842 557.582 127.712V126.408C557.829 126.538 558.126 126.649 558.471 126.74C558.819 126.828 559.146 126.872 559.452 126.872C559.752 126.872 560.004 126.833 560.209 126.755C560.414 126.674 560.569 126.55 560.673 126.384C560.78 126.215 560.834 126 560.834 125.739C560.834 125.391 560.717 125.124 560.482 124.938C560.248 124.753 559.888 124.66 559.403 124.66C559.218 124.66 559.024 124.678 558.822 124.714C558.624 124.75 558.458 124.785 558.324 124.821L557.724 124.499L557.992 120.861H561.864V122.141H559.315L559.184 123.542C559.294 123.519 559.415 123.496 559.545 123.474C559.675 123.451 559.857 123.439 560.092 123.439ZM563.168 124.968C563.168 124.558 563.197 124.152 563.256 123.752C563.318 123.348 563.423 122.969 563.573 122.614C563.723 122.256 563.933 121.94 564.203 121.667C564.473 121.39 564.817 121.174 565.233 121.018C565.65 120.858 566.155 120.778 566.747 120.778C566.887 120.778 567.05 120.785 567.235 120.798C567.424 120.808 567.58 120.826 567.704 120.852V122.058C567.574 122.028 567.434 122.006 567.284 121.989C567.138 121.97 566.991 121.96 566.845 121.96C566.252 121.96 565.793 122.054 565.468 122.243C565.145 122.432 564.918 122.694 564.784 123.029C564.654 123.361 564.577 123.749 564.555 124.191H564.618C564.709 124.032 564.823 123.89 564.96 123.767C565.1 123.643 565.269 123.545 565.468 123.474C565.666 123.399 565.899 123.361 566.166 123.361C566.583 123.361 566.944 123.451 567.25 123.63C567.556 123.806 567.792 124.061 567.958 124.396C568.124 124.732 568.207 125.14 568.207 125.622C568.207 126.136 568.108 126.579 567.909 126.95C567.711 127.321 567.429 127.606 567.064 127.805C566.703 128 566.273 128.098 565.775 128.098C565.411 128.098 565.071 128.036 564.755 127.912C564.439 127.785 564.162 127.593 563.925 127.336C563.687 127.079 563.502 126.755 563.368 126.364C563.235 125.97 563.168 125.505 563.168 124.968ZM565.746 126.892C566.042 126.892 566.283 126.791 566.469 126.589C566.654 126.387 566.747 126.071 566.747 125.642C566.747 125.293 566.666 125.02 566.503 124.821C566.343 124.619 566.101 124.519 565.775 124.519C565.554 124.519 565.359 124.569 565.189 124.67C565.023 124.768 564.895 124.893 564.804 125.046C564.713 125.196 564.667 125.35 564.667 125.51C564.667 125.676 564.69 125.84 564.735 126.003C564.781 126.166 564.849 126.314 564.94 126.447C565.032 126.581 565.144 126.688 565.277 126.77C565.414 126.851 565.57 126.892 565.746 126.892ZM575.36 124.362C575.36 125.166 575.206 125.839 574.896 126.379C574.59 126.916 574.146 127.321 573.563 127.595C572.981 127.865 572.279 128 571.459 128H569.437V120.861H571.679C572.427 120.861 573.077 120.995 573.627 121.262C574.177 121.525 574.603 121.918 574.906 122.438C575.209 122.956 575.36 123.597 575.36 124.362ZM573.788 124.401C573.788 123.874 573.71 123.441 573.554 123.103C573.401 122.761 573.173 122.508 572.87 122.346C572.571 122.183 572.199 122.102 571.757 122.102H570.951V126.75H571.601C572.339 126.75 572.888 126.553 573.246 126.159C573.607 125.765 573.788 125.179 573.788 124.401ZM576.293 124.968C576.293 124.558 576.322 124.152 576.381 123.752C576.443 123.348 576.548 122.969 576.698 122.614C576.848 122.256 577.058 121.94 577.328 121.667C577.598 121.39 577.942 121.174 578.358 121.018C578.775 120.858 579.28 120.778 579.872 120.778C580.012 120.778 580.175 120.785 580.36 120.798C580.549 120.808 580.705 120.826 580.829 120.852V122.058C580.699 122.028 580.559 122.006 580.409 121.989C580.263 121.97 580.116 121.96 579.97 121.96C579.377 121.96 578.918 122.054 578.593 122.243C578.27 122.432 578.043 122.694 577.909 123.029C577.779 123.361 577.702 123.749 577.68 124.191H577.743C577.834 124.032 577.948 123.89 578.085 123.767C578.225 123.643 578.394 123.545 578.593 123.474C578.791 123.399 579.024 123.361 579.291 123.361C579.708 123.361 580.069 123.451 580.375 123.63C580.681 123.806 580.917 124.061 581.083 124.396C581.249 124.732 581.332 125.14 581.332 125.622C581.332 126.136 581.233 126.579 581.034 126.95C580.836 127.321 580.554 127.606 580.189 127.805C579.828 128 579.398 128.098 578.9 128.098C578.536 128.098 578.196 128.036 577.88 127.912C577.564 127.785 577.287 127.593 577.05 127.336C576.812 127.079 576.627 126.755 576.493 126.364C576.36 125.97 576.293 125.505 576.293 124.968ZM578.871 126.892C579.167 126.892 579.408 126.791 579.594 126.589C579.779 126.387 579.872 126.071 579.872 125.642C579.872 125.293 579.791 125.02 579.628 124.821C579.468 124.619 579.226 124.519 578.9 124.519C578.679 124.519 578.484 124.569 578.314 124.67C578.148 124.768 578.02 124.893 577.929 125.046C577.838 125.196 577.792 125.35 577.792 125.51C577.792 125.676 577.815 125.84 577.86 126.003C577.906 126.166 577.974 126.314 578.065 126.447C578.157 126.581 578.269 126.688 578.402 126.77C578.539 126.851 578.695 126.892 578.871 126.892Z" fill="white"/>
<path d="M350.14 98H467.5V134H350.14V98Z" fill="#C79BF2"/>
<path d="M426.702 123.879L426.472 125.012H427.732V126.018H426.282L425.906 128H424.831L425.212 126.018H424.265L423.894 128H422.844L423.205 126.018H422.043V125.012H423.396L423.625 123.879H422.395V122.858H423.806L424.182 120.871H425.251L424.875 122.858H425.842L426.223 120.871H427.273L426.892 122.858H428.064V123.879H426.702ZM424.455 125.012H425.412L425.642 123.879H424.685L424.455 125.012ZM432.219 122.019C431.929 122.019 431.672 122.076 431.448 122.189C431.226 122.3 431.039 122.461 430.886 122.673C430.736 122.884 430.622 123.14 430.544 123.439C430.466 123.739 430.427 124.076 430.427 124.45C430.427 124.955 430.489 125.386 430.613 125.744C430.74 126.099 430.935 126.371 431.199 126.56C431.462 126.745 431.802 126.838 432.219 126.838C432.509 126.838 432.799 126.805 433.088 126.74C433.381 126.675 433.699 126.582 434.04 126.462V127.731C433.725 127.862 433.414 127.954 433.108 128.01C432.802 128.068 432.458 128.098 432.077 128.098C431.342 128.098 430.736 127.946 430.261 127.644C429.789 127.338 429.439 126.911 429.211 126.364C428.983 125.814 428.869 125.173 428.869 124.44C428.869 123.9 428.943 123.405 429.089 122.956C429.236 122.507 429.451 122.118 429.734 121.789C430.017 121.46 430.367 121.206 430.784 121.027C431.2 120.848 431.679 120.759 432.219 120.759C432.574 120.759 432.929 120.804 433.284 120.896C433.642 120.983 433.983 121.105 434.309 121.262L433.821 122.492C433.554 122.365 433.285 122.255 433.015 122.16C432.745 122.066 432.48 122.019 432.219 122.019ZM435.774 128L438.454 122.131H434.934V120.861H440.056V121.809L437.356 128H435.774ZM445.749 123.908C445.749 124.318 445.718 124.725 445.657 125.129C445.598 125.533 445.494 125.913 445.344 126.271C445.194 126.626 444.984 126.942 444.714 127.219C444.444 127.492 444.101 127.707 443.684 127.863C443.267 128.02 442.763 128.098 442.17 128.098C442.03 128.098 441.866 128.091 441.677 128.078C441.488 128.068 441.332 128.052 441.208 128.029V126.818C441.339 126.851 441.477 126.877 441.623 126.896C441.77 126.913 441.918 126.921 442.068 126.921C442.663 126.921 443.122 126.826 443.445 126.638C443.77 126.449 443.998 126.187 444.128 125.852C444.262 125.516 444.338 125.129 444.358 124.689H444.299C444.205 124.846 444.092 124.987 443.962 125.114C443.835 125.238 443.673 125.337 443.474 125.412C443.275 125.484 443.023 125.52 442.717 125.52C442.31 125.52 441.955 125.432 441.653 125.256C441.353 125.077 441.12 124.82 440.954 124.484C440.792 124.146 440.71 123.737 440.71 123.259C440.71 122.741 440.808 122.299 441.003 121.931C441.202 121.56 441.483 121.275 441.848 121.076C442.213 120.878 442.642 120.778 443.137 120.778C443.502 120.778 443.842 120.842 444.158 120.969C444.473 121.092 444.75 121.283 444.988 121.54C445.229 121.797 445.416 122.123 445.549 122.517C445.683 122.91 445.749 123.374 445.749 123.908ZM443.166 121.989C442.873 121.989 442.634 122.09 442.449 122.292C442.263 122.494 442.17 122.81 442.17 123.239C442.17 123.584 442.25 123.858 442.41 124.06C442.569 124.261 442.812 124.362 443.137 124.362C443.362 124.362 443.557 124.313 443.723 124.216C443.889 124.115 444.018 123.99 444.109 123.84C444.203 123.687 444.25 123.531 444.25 123.371C444.25 123.205 444.228 123.041 444.182 122.878C444.136 122.715 444.068 122.567 443.977 122.434C443.886 122.3 443.772 122.193 443.635 122.111C443.502 122.03 443.345 121.989 443.166 121.989ZM447.009 120.861H449.231C450.181 120.861 450.901 120.995 451.389 121.262C451.877 121.529 452.121 121.997 452.121 122.668C452.121 122.938 452.077 123.182 451.99 123.4C451.905 123.618 451.781 123.798 451.618 123.938C451.456 124.077 451.257 124.169 451.023 124.211V124.26C451.26 124.309 451.475 124.393 451.667 124.514C451.859 124.631 452.012 124.803 452.126 125.031C452.243 125.256 452.302 125.555 452.302 125.93C452.302 126.363 452.196 126.734 451.985 127.043C451.773 127.352 451.47 127.59 451.077 127.756C450.686 127.919 450.22 128 449.68 128H447.009V120.861ZM448.523 123.688H449.402C449.841 123.688 450.146 123.62 450.315 123.483C450.484 123.343 450.569 123.138 450.569 122.868C450.569 122.595 450.468 122.399 450.266 122.282C450.067 122.162 449.752 122.102 449.319 122.102H448.523V123.688ZM448.523 124.89V126.75H449.509C449.965 126.75 450.282 126.662 450.461 126.486C450.64 126.311 450.73 126.075 450.73 125.778C450.73 125.603 450.691 125.448 450.613 125.314C450.535 125.181 450.403 125.077 450.217 125.002C450.035 124.927 449.783 124.89 449.46 124.89H448.523ZM455.217 128H453.728V120.861H457.82V122.102H455.217V123.942H457.639V125.178H455.217V128ZM463.708 128H458.718V126.95L460.51 125.139C460.871 124.768 461.161 124.458 461.379 124.211C461.601 123.96 461.76 123.732 461.858 123.527C461.959 123.322 462.009 123.103 462.009 122.868C462.009 122.585 461.929 122.373 461.77 122.233C461.614 122.09 461.404 122.019 461.14 122.019C460.863 122.019 460.595 122.082 460.334 122.209C460.074 122.336 459.802 122.517 459.519 122.751L458.699 121.779C458.904 121.604 459.12 121.438 459.348 121.281C459.579 121.125 459.846 121 460.149 120.905C460.455 120.808 460.821 120.759 461.247 120.759C461.716 120.759 462.118 120.843 462.453 121.013C462.792 121.182 463.052 121.413 463.235 121.706C463.417 121.996 463.508 122.325 463.508 122.692C463.508 123.086 463.43 123.446 463.274 123.771C463.118 124.097 462.89 124.419 462.59 124.738C462.294 125.057 461.936 125.41 461.516 125.798L460.598 126.662V126.73H463.708V128Z" fill="#2C3437"/>
<path d="M233.75 98H350.14V134H233.75V98Z" fill="#DBBDF9"/>
<path d="M302.878 123.879L302.648 125.012H303.908V126.018H302.458L302.082 128H301.008L301.389 126.018H300.441L300.07 128H299.021L299.382 126.018H298.22V125.012H299.572L299.802 123.879H298.571V122.858H299.982L300.358 120.871H301.428L301.052 122.858H302.019L302.399 120.871H303.449L303.068 122.858H304.24V123.879H302.878ZM300.632 125.012H301.589L301.818 123.879H300.861L300.632 125.012ZM311.286 124.362C311.286 125.166 311.132 125.839 310.822 126.379C310.516 126.916 310.072 127.321 309.489 127.595C308.907 127.865 308.205 128 307.385 128H305.363V120.861H307.604C308.353 120.861 309.003 120.995 309.553 121.262C310.103 121.525 310.529 121.918 310.832 122.438C311.135 122.956 311.286 123.597 311.286 124.362ZM309.714 124.401C309.714 123.874 309.636 123.441 309.479 123.103C309.326 122.761 309.099 122.508 308.796 122.346C308.496 122.183 308.125 122.102 307.683 122.102H306.877V126.75H307.526C308.265 126.75 308.814 126.553 309.172 126.159C309.533 125.765 309.714 125.179 309.714 124.401ZM312.766 120.861H314.987C315.938 120.861 316.657 120.995 317.146 121.262C317.634 121.529 317.878 121.997 317.878 122.668C317.878 122.938 317.834 123.182 317.746 123.4C317.661 123.618 317.538 123.798 317.375 123.938C317.212 124.077 317.014 124.169 316.779 124.211V124.26C317.017 124.309 317.232 124.393 317.424 124.514C317.616 124.631 317.769 124.803 317.883 125.031C318 125.256 318.059 125.555 318.059 125.93C318.059 126.363 317.953 126.734 317.741 127.043C317.53 127.352 317.227 127.59 316.833 127.756C316.442 127.919 315.977 128 315.437 128H312.766V120.861ZM314.279 123.688H315.158C315.598 123.688 315.902 123.62 316.071 123.483C316.241 123.343 316.325 123.138 316.325 122.868C316.325 122.595 316.224 122.399 316.022 122.282C315.824 122.162 315.508 122.102 315.075 122.102H314.279V123.688ZM314.279 124.89V126.75H315.266C315.721 126.75 316.039 126.662 316.218 126.486C316.397 126.311 316.486 126.075 316.486 125.778C316.486 125.603 316.447 125.448 316.369 125.314C316.291 125.181 316.159 125.077 315.974 125.002C315.791 124.927 315.539 124.89 315.217 124.89H314.279ZM319.484 120.861H321.706C322.657 120.861 323.376 120.995 323.864 121.262C324.353 121.529 324.597 121.997 324.597 122.668C324.597 122.938 324.553 123.182 324.465 123.4C324.38 123.618 324.257 123.798 324.094 123.938C323.931 124.077 323.732 124.169 323.498 124.211V124.26C323.736 124.309 323.951 124.393 324.143 124.514C324.335 124.631 324.488 124.803 324.602 125.031C324.719 125.256 324.777 125.555 324.777 125.93C324.777 126.363 324.672 126.734 324.46 127.043C324.248 127.352 323.946 127.59 323.552 127.756C323.161 127.919 322.696 128 322.155 128H319.484V120.861ZM320.998 123.688H321.877C322.316 123.688 322.621 123.62 322.79 123.483C322.959 123.343 323.044 123.138 323.044 122.868C323.044 122.595 322.943 122.399 322.741 122.282C322.543 122.162 322.227 122.102 321.794 122.102H320.998V123.688ZM320.998 124.89V126.75H321.984C322.44 126.75 322.757 126.662 322.937 126.486C323.116 126.311 323.205 126.075 323.205 125.778C323.205 125.603 323.166 125.448 323.088 125.314C323.01 125.181 322.878 125.077 322.692 125.002C322.51 124.927 322.258 124.89 321.936 124.89H320.998ZM332.126 124.362C332.126 125.166 331.971 125.839 331.662 126.379C331.356 126.916 330.912 127.321 330.329 127.595C329.746 127.865 329.045 128 328.225 128H326.203V120.861H328.444C329.193 120.861 329.842 120.995 330.393 121.262C330.943 121.525 331.369 121.918 331.672 122.438C331.975 122.956 332.126 123.597 332.126 124.362ZM330.554 124.401C330.554 123.874 330.476 123.441 330.319 123.103C330.166 122.761 329.938 122.508 329.636 122.346C329.336 122.183 328.965 122.102 328.522 122.102H327.717V126.75H328.366C329.105 126.75 329.654 126.553 330.012 126.159C330.373 125.765 330.554 125.179 330.554 124.401ZM335.095 128H333.605V120.861H337.697V122.102H335.095V123.942H337.517V125.178H335.095V128ZM343.557 123.908C343.557 124.318 343.526 124.725 343.464 125.129C343.405 125.533 343.301 125.913 343.151 126.271C343.002 126.626 342.792 126.942 342.521 127.219C342.251 127.492 341.908 127.707 341.491 127.863C341.075 128.02 340.57 128.098 339.978 128.098C339.838 128.098 339.673 128.091 339.484 128.078C339.296 128.068 339.139 128.052 339.016 128.029V126.818C339.146 126.851 339.284 126.877 339.431 126.896C339.577 126.913 339.725 126.921 339.875 126.921C340.471 126.921 340.93 126.826 341.252 126.638C341.577 126.449 341.805 126.187 341.936 125.852C342.069 125.516 342.146 125.129 342.165 124.689H342.106C342.012 124.846 341.9 124.987 341.77 125.114C341.643 125.238 341.48 125.337 341.281 125.412C341.083 125.484 340.83 125.52 340.524 125.52C340.118 125.52 339.763 125.432 339.46 125.256C339.16 125.077 338.928 124.82 338.762 124.484C338.599 124.146 338.518 123.737 338.518 123.259C338.518 122.741 338.615 122.299 338.811 121.931C339.009 121.56 339.291 121.275 339.655 121.076C340.02 120.878 340.45 120.778 340.944 120.778C341.309 120.778 341.649 120.842 341.965 120.969C342.281 121.092 342.557 121.283 342.795 121.54C343.036 121.797 343.223 122.123 343.356 122.517C343.49 122.91 343.557 123.374 343.557 123.908ZM340.974 121.989C340.681 121.989 340.441 122.09 340.256 122.292C340.07 122.494 339.978 122.81 339.978 123.239C339.978 123.584 340.057 123.858 340.217 124.06C340.376 124.261 340.619 124.362 340.944 124.362C341.169 124.362 341.364 124.313 341.53 124.216C341.696 124.115 341.825 123.99 341.916 123.84C342.01 123.687 342.058 123.531 342.058 123.371C342.058 123.205 342.035 123.041 341.989 122.878C341.944 122.715 341.875 122.567 341.784 122.434C341.693 122.3 341.579 122.193 341.442 122.111C341.309 122.03 341.153 121.989 340.974 121.989Z" fill="#2C3437"/>
<path d="M116.39 98H233.75V134H116.39V98Z" fill="#EAD9FB"/>
<path d="M191.012 122.879L190.782 124.012H192.042V125.018H190.592L190.216 127H189.142L189.522 125.018H188.575L188.204 127H187.154L187.516 125.018H186.353V124.012H187.706L187.936 122.879H186.705V121.858H188.116L188.492 119.871H189.561L189.186 121.858H190.152L190.533 119.871H191.583L191.202 121.858H192.374V122.879H191.012ZM188.766 124.012H189.723L189.952 122.879H188.995L188.766 124.012ZM197.608 127H193.497V119.861H197.608V121.102H195.011V122.669H197.428V123.909H195.011V125.75H197.608V127ZM203.473 127L202.955 125.301H200.353L199.835 127H198.204L200.724 119.832H202.574L205.103 127H203.473ZM202.594 124.031L202.076 122.371C202.044 122.26 202 122.119 201.944 121.946C201.892 121.771 201.839 121.593 201.783 121.414C201.731 121.232 201.689 121.074 201.656 120.94C201.624 121.074 201.578 121.24 201.52 121.438C201.464 121.634 201.41 121.819 201.358 121.995C201.306 122.171 201.269 122.296 201.246 122.371L200.733 124.031H202.594ZM211.93 123.362C211.93 124.166 211.775 124.839 211.466 125.379C211.16 125.916 210.715 126.321 210.133 126.595C209.55 126.865 208.849 127 208.028 127H206.007V119.861H208.248C208.997 119.861 209.646 119.995 210.196 120.262C210.746 120.525 211.173 120.918 211.476 121.438C211.778 121.956 211.93 122.597 211.93 123.362ZM210.357 123.401C210.357 122.874 210.279 122.441 210.123 122.103C209.97 121.761 209.742 121.508 209.439 121.346C209.14 121.183 208.769 121.102 208.326 121.102H207.52V125.75H208.17C208.909 125.75 209.457 125.553 209.815 125.159C210.177 124.765 210.357 124.179 210.357 123.401ZM217.872 122.908C217.872 123.318 217.841 123.725 217.779 124.129C217.721 124.533 217.617 124.913 217.467 125.271C217.317 125.626 217.107 125.942 216.837 126.219C216.567 126.492 216.223 126.707 215.807 126.863C215.39 127.02 214.885 127.098 214.293 127.098C214.153 127.098 213.989 127.091 213.8 127.078C213.611 127.068 213.455 127.052 213.331 127.029V125.818C213.461 125.851 213.6 125.877 213.746 125.896C213.893 125.913 214.041 125.921 214.19 125.921C214.786 125.921 215.245 125.826 215.567 125.638C215.893 125.449 216.121 125.187 216.251 124.852C216.384 124.516 216.461 124.129 216.48 123.689H216.422C216.327 123.846 216.215 123.987 216.085 124.114C215.958 124.238 215.795 124.337 215.597 124.412C215.398 124.484 215.146 124.52 214.84 124.52C214.433 124.52 214.078 124.432 213.775 124.256C213.476 124.077 213.243 123.82 213.077 123.484C212.914 123.146 212.833 122.737 212.833 122.259C212.833 121.741 212.931 121.299 213.126 120.931C213.325 120.56 213.606 120.275 213.971 120.076C214.335 119.878 214.765 119.778 215.26 119.778C215.624 119.778 215.964 119.842 216.28 119.969C216.596 120.092 216.873 120.283 217.11 120.54C217.351 120.797 217.538 121.123 217.672 121.517C217.805 121.91 217.872 122.374 217.872 122.908ZM215.289 120.989C214.996 120.989 214.757 121.09 214.571 121.292C214.386 121.494 214.293 121.81 214.293 122.239C214.293 122.584 214.373 122.858 214.532 123.06C214.692 123.261 214.934 123.362 215.26 123.362C215.484 123.362 215.68 123.313 215.846 123.216C216.012 123.115 216.14 122.99 216.231 122.84C216.326 122.687 216.373 122.531 216.373 122.371C216.373 122.205 216.35 122.041 216.305 121.878C216.259 121.715 216.191 121.567 216.1 121.434C216.008 121.3 215.895 121.193 215.758 121.111C215.624 121.03 215.468 120.989 215.289 120.989ZM220.621 127H219.132V119.861H223.224V121.102H220.621V122.942H223.043V124.178H220.621V127ZM224.62 119.861H226.842C227.792 119.861 228.512 119.995 229 120.262C229.488 120.529 229.732 120.997 229.732 121.668C229.732 121.938 229.688 122.182 229.601 122.4C229.516 122.618 229.392 122.798 229.229 122.938C229.067 123.077 228.868 123.169 228.634 123.211V123.26C228.871 123.309 229.086 123.393 229.278 123.514C229.47 123.631 229.623 123.803 229.737 124.031C229.854 124.256 229.913 124.555 229.913 124.93C229.913 125.363 229.807 125.734 229.596 126.043C229.384 126.352 229.081 126.59 228.687 126.756C228.297 126.919 227.831 127 227.291 127H224.62V119.861ZM226.134 122.688H227.013C227.452 122.688 227.756 122.62 227.926 122.483C228.095 122.343 228.18 122.138 228.18 121.868C228.18 121.595 228.079 121.399 227.877 121.282C227.678 121.162 227.363 121.102 226.93 121.102H226.134V122.688ZM226.134 123.89V125.75H227.12C227.576 125.75 227.893 125.662 228.072 125.486C228.251 125.311 228.341 125.075 228.341 124.778C228.341 124.603 228.302 124.448 228.224 124.314C228.145 124.181 228.014 124.077 227.828 124.002C227.646 123.927 227.394 123.89 227.071 123.89H226.134Z" fill="#2C3437"/>
<path d="M0 98H116.39V134H9.99999C4.47715 134 0 129.523 0 124V98Z" fill="#F7F1FB"/>
<path d="M73.6517 123.879L73.4222 125.012H74.682V126.018H73.2318L72.8558 128H71.7816L72.1625 126.018H71.2152L70.8441 128H69.7943L70.1556 126.018H68.9935V125.012H70.3461L70.5756 123.879H69.3451V122.858H70.7562L71.1322 120.871H72.2015L71.8256 122.858H72.7924L73.1732 120.871H74.223L73.8422 122.858H75.014V123.879H73.6517ZM71.4056 125.012H72.3627L72.5922 123.879H71.6351L71.4056 125.012ZM77.6263 128H76.1371V120.861H80.2289V122.102H77.6263V123.942H80.0482V125.178H77.6263V128ZM81.8353 128L84.516 122.131H80.9955V120.861H86.1176V121.809L83.4174 128H81.8353ZM88.8373 128H87.348V120.861H91.4398V122.102H88.8373V123.942H91.2592V125.178H88.8373V128ZM96.0687 128H94.5599V123.869C94.5599 123.755 94.5616 123.615 94.5648 123.449C94.5681 123.28 94.573 123.107 94.5795 122.932C94.586 122.753 94.5925 122.591 94.599 122.448C94.5632 122.491 94.4899 122.564 94.3793 122.668C94.2719 122.769 94.1709 122.86 94.0765 122.941L93.2562 123.601L92.5287 122.692L94.8285 120.861H96.0687V128ZM100.048 128H98.559V120.861H102.651V122.102H100.048V123.942H102.47V125.178H100.048V128ZM104.047 120.861H106.269C107.219 120.861 107.939 120.995 108.427 121.262C108.915 121.529 109.16 121.997 109.16 122.668C109.16 122.938 109.116 123.182 109.028 123.4C108.943 123.618 108.819 123.798 108.657 123.938C108.494 124.077 108.295 124.169 108.061 124.211V124.26C108.299 124.309 108.513 124.393 108.705 124.514C108.898 124.631 109.05 124.803 109.164 125.031C109.282 125.256 109.34 125.555 109.34 125.93C109.34 126.363 109.234 126.734 109.023 127.043C108.811 127.352 108.509 127.59 108.115 127.756C107.724 127.919 107.259 128 106.718 128H104.047V120.861ZM105.561 123.688H106.44C106.879 123.688 107.184 123.62 107.353 123.483C107.522 123.343 107.607 123.138 107.607 122.868C107.607 122.595 107.506 122.399 107.304 122.282C107.106 122.162 106.79 122.102 106.357 122.102H105.561V123.688ZM105.561 124.89V126.75H106.547C107.003 126.75 107.32 126.662 107.499 126.486C107.678 126.311 107.768 126.075 107.768 125.778C107.768 125.603 107.729 125.448 107.651 125.314C107.573 125.181 107.441 125.077 107.255 125.002C107.073 124.927 106.821 124.89 106.498 124.89H105.561Z" fill="#2C3437"/>
</svg>
