<svg width="935" height="346" viewBox="0 0 935 346" fill="none" xmlns="http://www.w3.org/2000/svg">
<rect y="212" width="934.03" height="134" rx="10" fill="#ED5393"/>
<path d="M843.756 278.758L843.297 281.023H845.816V283.035H842.916L842.164 287H840.016L840.777 283.035H838.883L838.141 287H836.041L836.764 283.035H834.439V281.023H837.145L837.604 278.758H835.143V276.717H837.965L838.717 272.742H840.855L840.104 276.717H842.037L842.799 272.742H844.898L844.137 276.717H846.48V278.758H843.756ZM839.264 281.023H841.178L841.637 278.758H839.723L839.264 281.023ZM856.949 287H848.727V272.723H856.949V275.203H851.754V278.338H856.588V280.818H851.754V284.5H856.949V287ZM871.783 279.725C871.783 281.333 871.474 282.677 870.855 283.758C870.243 284.832 869.355 285.643 868.189 286.189C867.024 286.73 865.621 287 863.98 287H859.938V272.723H864.42C865.917 272.723 867.216 272.99 868.316 273.523C869.417 274.051 870.27 274.835 870.875 275.877C871.48 276.912 871.783 278.195 871.783 279.725ZM868.639 279.803C868.639 278.748 868.482 277.882 868.17 277.205C867.864 276.521 867.408 276.017 866.803 275.691C866.204 275.366 865.462 275.203 864.576 275.203H862.965V284.5H864.264C865.742 284.5 866.839 284.106 867.555 283.318C868.277 282.531 868.639 281.359 868.639 279.803ZM878.941 277.879C879.814 277.879 880.589 278.045 881.266 278.377C881.949 278.709 882.486 279.197 882.877 279.842C883.268 280.486 883.463 281.281 883.463 282.225C883.463 283.253 883.248 284.142 882.818 284.891C882.395 285.633 881.76 286.202 880.914 286.6C880.074 286.997 879.026 287.195 877.77 287.195C877.021 287.195 876.314 287.13 875.65 287C874.993 286.876 874.417 286.684 873.922 286.424V283.816C874.417 284.077 875.009 284.298 875.699 284.48C876.396 284.656 877.05 284.744 877.662 284.744C878.261 284.744 878.766 284.666 879.176 284.51C879.586 284.347 879.895 284.1 880.104 283.768C880.318 283.429 880.426 282.999 880.426 282.479C880.426 281.782 880.191 281.248 879.723 280.877C879.254 280.506 878.535 280.32 877.564 280.32C877.193 280.32 876.806 280.356 876.402 280.428C876.005 280.499 875.673 280.571 875.406 280.643L874.205 279.998L874.742 272.723H882.486V275.281H877.389L877.125 278.084C877.346 278.038 877.587 277.993 877.848 277.947C878.108 277.902 878.473 277.879 878.941 277.879ZM894.615 275.916C894.615 276.574 894.479 277.143 894.205 277.625C893.932 278.107 893.561 278.501 893.092 278.807C892.63 279.113 892.109 279.337 891.529 279.48V279.539C892.675 279.682 893.544 280.034 894.137 280.594C894.736 281.154 895.035 281.902 895.035 282.84C895.035 283.673 894.83 284.419 894.42 285.076C894.016 285.734 893.391 286.251 892.545 286.629C891.699 287.007 890.608 287.195 889.273 287.195C888.486 287.195 887.75 287.13 887.066 287C886.389 286.876 885.751 286.684 885.152 286.424V283.855C885.764 284.168 886.406 284.406 887.076 284.568C887.747 284.725 888.372 284.803 888.951 284.803C890.032 284.803 890.787 284.617 891.217 284.246C891.653 283.868 891.871 283.341 891.871 282.664C891.871 282.267 891.77 281.932 891.568 281.658C891.367 281.385 891.015 281.176 890.514 281.033C890.019 280.89 889.326 280.818 888.434 280.818H887.35V278.504H888.453C889.332 278.504 889.999 278.423 890.455 278.26C890.917 278.09 891.23 277.863 891.393 277.576C891.562 277.283 891.646 276.951 891.646 276.58C891.646 276.072 891.49 275.675 891.178 275.389C890.865 275.102 890.344 274.959 889.615 274.959C889.16 274.959 888.743 275.018 888.365 275.135C887.994 275.245 887.659 275.382 887.359 275.545C887.06 275.701 886.796 275.854 886.568 276.004L885.172 273.924C885.732 273.52 886.386 273.185 887.135 272.918C887.89 272.651 888.788 272.518 889.83 272.518C891.301 272.518 892.467 272.814 893.326 273.406C894.186 273.999 894.615 274.835 894.615 275.916ZM906.559 278.816C906.559 279.637 906.497 280.451 906.373 281.258C906.256 282.065 906.048 282.827 905.748 283.543C905.449 284.253 905.029 284.884 904.488 285.438C903.948 285.984 903.261 286.414 902.428 286.727C901.594 287.039 900.585 287.195 899.4 287.195C899.12 287.195 898.792 287.182 898.414 287.156C898.036 287.137 897.724 287.104 897.477 287.059V284.637C897.737 284.702 898.014 284.754 898.307 284.793C898.6 284.826 898.896 284.842 899.195 284.842C900.387 284.842 901.305 284.653 901.949 284.275C902.6 283.898 903.056 283.374 903.316 282.703C903.583 282.033 903.736 281.258 903.775 280.379H903.658C903.469 280.691 903.245 280.975 902.984 281.229C902.73 281.476 902.405 281.674 902.008 281.824C901.611 281.967 901.106 282.039 900.494 282.039C899.68 282.039 898.971 281.863 898.365 281.512C897.766 281.154 897.301 280.639 896.969 279.969C896.643 279.292 896.48 278.475 896.48 277.518C896.48 276.482 896.676 275.597 897.066 274.861C897.464 274.119 898.027 273.549 898.756 273.152C899.485 272.755 900.344 272.557 901.334 272.557C902.063 272.557 902.743 272.684 903.375 272.938C904.007 273.185 904.56 273.566 905.035 274.08C905.517 274.594 905.891 275.245 906.158 276.033C906.425 276.821 906.559 277.749 906.559 278.816ZM901.393 274.979C900.807 274.979 900.328 275.18 899.957 275.584C899.586 275.988 899.4 276.619 899.4 277.479C899.4 278.169 899.56 278.715 899.879 279.119C900.198 279.523 900.683 279.725 901.334 279.725C901.783 279.725 902.174 279.627 902.506 279.432C902.838 279.23 903.095 278.979 903.277 278.68C903.466 278.374 903.561 278.061 903.561 277.742C903.561 277.41 903.515 277.081 903.424 276.756C903.333 276.43 903.196 276.134 903.014 275.867C902.831 275.6 902.604 275.385 902.33 275.223C902.063 275.06 901.751 274.979 901.393 274.979ZM917.506 275.916C917.506 276.574 917.369 277.143 917.096 277.625C916.822 278.107 916.451 278.501 915.982 278.807C915.52 279.113 914.999 279.337 914.42 279.48V279.539C915.566 279.682 916.435 280.034 917.027 280.594C917.626 281.154 917.926 281.902 917.926 282.84C917.926 283.673 917.721 284.419 917.311 285.076C916.907 285.734 916.282 286.251 915.436 286.629C914.589 287.007 913.499 287.195 912.164 287.195C911.376 287.195 910.641 287.13 909.957 287C909.28 286.876 908.642 286.684 908.043 286.424V283.855C908.655 284.168 909.296 284.406 909.967 284.568C910.637 284.725 911.262 284.803 911.842 284.803C912.923 284.803 913.678 284.617 914.107 284.246C914.544 283.868 914.762 283.341 914.762 282.664C914.762 282.267 914.661 281.932 914.459 281.658C914.257 281.385 913.906 281.176 913.404 281.033C912.91 280.89 912.216 280.818 911.324 280.818H910.24V278.504H911.344C912.223 278.504 912.89 278.423 913.346 278.26C913.808 278.09 914.12 277.863 914.283 277.576C914.452 277.283 914.537 276.951 914.537 276.58C914.537 276.072 914.381 275.675 914.068 275.389C913.756 275.102 913.235 274.959 912.506 274.959C912.05 274.959 911.633 275.018 911.256 275.135C910.885 275.245 910.549 275.382 910.25 275.545C909.951 275.701 909.687 275.854 909.459 276.004L908.062 273.924C908.622 273.52 909.277 273.185 910.025 272.918C910.781 272.651 911.679 272.518 912.721 272.518C914.192 272.518 915.357 272.814 916.217 273.406C917.076 273.999 917.506 274.835 917.506 275.916Z" fill="white"/>
<path d="M817.64 310H934.03V336C934.03 341.523 929.553 346 924.03 346H817.64V310Z" fill="#411526"/>
<path d="M893.232 335.879L893.002 337.012H894.262V338.018H892.812L892.436 340H891.362L891.742 338.018H890.795L890.424 340H889.374L889.736 338.018H888.573V337.012H889.926L890.155 335.879H888.925V334.858H890.336L890.712 332.871H891.781L891.405 334.858H892.372L892.753 332.871H893.803L893.422 334.858H894.594V335.879H893.232ZM890.986 337.012H891.943L892.172 335.879H891.215L890.986 337.012ZM900.37 338.521H899.511V340H898.036V338.521H894.989V337.471L898.119 332.861H899.511V337.349H900.37V338.521ZM898.036 337.349V336.138C898.036 336.024 898.038 335.889 898.041 335.732C898.048 335.576 898.054 335.42 898.061 335.264C898.067 335.107 898.074 334.969 898.08 334.849C898.09 334.725 898.097 334.639 898.1 334.59H898.061C897.999 334.723 897.934 334.854 897.865 334.98C897.797 335.104 897.717 335.234 897.626 335.371L896.318 337.349H898.036ZM904.672 340H903.163V335.869C903.163 335.755 903.165 335.615 903.168 335.449C903.171 335.28 903.176 335.107 903.183 334.932C903.189 334.753 903.196 334.591 903.202 334.448C903.167 334.491 903.093 334.564 902.983 334.668C902.875 334.769 902.774 334.86 902.68 334.941L901.86 335.601L901.132 334.692L903.432 332.861H904.672V340ZM910.395 340H908.886V335.869C908.886 335.755 908.888 335.615 908.891 335.449C908.894 335.28 908.899 335.107 908.905 334.932C908.912 334.753 908.918 334.591 908.925 334.448C908.889 334.491 908.816 334.564 908.705 334.668C908.598 334.769 908.497 334.86 908.403 334.941L907.582 335.601L906.855 334.692L909.154 332.861H910.395V340ZM914.985 335.439C915.421 335.439 915.808 335.522 916.147 335.688C916.488 335.854 916.757 336.099 916.952 336.421C917.148 336.743 917.245 337.14 917.245 337.612C917.245 338.127 917.138 338.571 916.923 338.945C916.711 339.316 916.394 339.601 915.971 339.8C915.551 339.998 915.027 340.098 914.399 340.098C914.024 340.098 913.671 340.065 913.339 340C913.01 339.938 912.722 339.842 912.475 339.712V338.408C912.722 338.538 913.018 338.649 913.363 338.74C913.712 338.828 914.039 338.872 914.345 338.872C914.644 338.872 914.897 338.833 915.102 338.755C915.307 338.674 915.461 338.55 915.566 338.384C915.673 338.215 915.727 338 915.727 337.739C915.727 337.391 915.61 337.124 915.375 336.938C915.141 336.753 914.781 336.66 914.296 336.66C914.111 336.66 913.917 336.678 913.715 336.714C913.516 336.75 913.35 336.785 913.217 336.821L912.616 336.499L912.885 332.861H916.757V334.141H914.208L914.076 335.542C914.187 335.519 914.307 335.496 914.438 335.474C914.568 335.451 914.75 335.439 914.985 335.439ZM923.1 340H918.11V338.95L919.902 337.139C920.263 336.768 920.553 336.458 920.771 336.211C920.992 335.96 921.152 335.732 921.249 335.527C921.35 335.322 921.401 335.103 921.401 334.868C921.401 334.585 921.321 334.373 921.161 334.233C921.005 334.09 920.795 334.019 920.531 334.019C920.255 334.019 919.986 334.082 919.726 334.209C919.465 334.336 919.194 334.517 918.91 334.751L918.09 333.779C918.295 333.604 918.512 333.438 918.739 333.281C918.971 333.125 919.237 333 919.54 332.905C919.846 332.808 920.212 332.759 920.639 332.759C921.108 332.759 921.51 332.843 921.845 333.013C922.183 333.182 922.444 333.413 922.626 333.706C922.808 333.996 922.9 334.325 922.9 334.692C922.9 335.086 922.821 335.446 922.665 335.771C922.509 336.097 922.281 336.419 921.982 336.738C921.685 337.057 921.327 337.41 920.907 337.798L919.989 338.662V338.73H923.1V340ZM923.783 336.968C923.783 336.558 923.813 336.152 923.871 335.752C923.933 335.348 924.039 334.969 924.189 334.614C924.338 334.256 924.548 333.94 924.819 333.667C925.089 333.39 925.432 333.174 925.849 333.018C926.265 332.858 926.77 332.778 927.362 332.778C927.502 332.778 927.665 332.785 927.851 332.798C928.04 332.808 928.196 332.826 928.32 332.852V334.058C928.189 334.028 928.049 334.006 927.9 333.989C927.753 333.97 927.607 333.96 927.46 333.96C926.868 333.96 926.409 334.054 926.083 334.243C925.761 334.432 925.533 334.694 925.4 335.029C925.269 335.361 925.193 335.749 925.17 336.191H925.234C925.325 336.032 925.439 335.89 925.575 335.767C925.715 335.643 925.885 335.545 926.083 335.474C926.282 335.399 926.515 335.361 926.781 335.361C927.198 335.361 927.559 335.451 927.865 335.63C928.171 335.806 928.407 336.061 928.573 336.396C928.739 336.732 928.822 337.14 928.822 337.622C928.822 338.136 928.723 338.579 928.525 338.95C928.326 339.321 928.044 339.606 927.68 339.805C927.319 340 926.889 340.098 926.391 340.098C926.026 340.098 925.686 340.036 925.37 339.912C925.055 339.785 924.778 339.593 924.54 339.336C924.303 339.079 924.117 338.755 923.984 338.364C923.85 337.97 923.783 337.505 923.783 336.968ZM926.362 338.892C926.658 338.892 926.899 338.791 927.084 338.589C927.27 338.387 927.362 338.071 927.362 337.642C927.362 337.293 927.281 337.02 927.118 336.821C926.959 336.619 926.716 336.519 926.391 336.519C926.169 336.519 925.974 336.569 925.805 336.67C925.639 336.768 925.51 336.893 925.419 337.046C925.328 337.196 925.282 337.35 925.282 337.51C925.282 337.676 925.305 337.84 925.351 338.003C925.396 338.166 925.465 338.314 925.556 338.447C925.647 338.581 925.759 338.688 925.893 338.77C926.029 338.851 926.186 338.892 926.362 338.892Z" fill="white"/>
<path d="M700.28 310H817.64V346H700.28V310Z" fill="#8B1245"/>
<path d="M776.842 335.879L776.612 337.012H777.872V338.018H776.422L776.046 340H774.971L775.352 338.018H774.405L774.034 340H772.984L773.345 338.018H772.183V337.012H773.536L773.765 335.879H772.535V334.858H773.946L774.322 332.871H775.391L775.015 334.858H775.982L776.363 332.871H777.413L777.032 334.858H778.204V335.879H776.842ZM774.595 337.012H775.552L775.782 335.879H774.825L774.595 337.012ZM781.29 332.769C781.7 332.769 782.078 332.832 782.423 332.959C782.771 333.086 783.049 333.278 783.258 333.535C783.466 333.789 783.57 334.108 783.57 334.492C783.57 334.779 783.513 335.029 783.399 335.244C783.288 335.459 783.137 335.648 782.945 335.811C782.753 335.97 782.535 336.11 782.291 336.23C782.545 336.364 782.786 336.52 783.013 336.699C783.241 336.875 783.427 337.082 783.57 337.319C783.717 337.557 783.79 337.834 783.79 338.149C783.79 338.547 783.684 338.892 783.472 339.185C783.261 339.474 782.968 339.699 782.594 339.858C782.219 340.018 781.785 340.098 781.29 340.098C780.756 340.098 780.302 340.021 779.927 339.868C779.553 339.715 779.268 339.497 779.073 339.214C778.878 338.927 778.78 338.586 778.78 338.188C778.78 337.863 778.84 337.58 778.961 337.339C779.084 337.098 779.25 336.891 779.459 336.719C779.667 336.543 779.897 336.393 780.147 336.27C779.936 336.136 779.742 335.985 779.566 335.815C779.394 335.646 779.255 335.452 779.151 335.234C779.05 335.016 779 334.766 779 334.482C779 334.105 779.106 333.789 779.317 333.535C779.532 333.281 779.814 333.091 780.162 332.964C780.51 332.834 780.886 332.769 781.29 332.769ZM780.177 338.101C780.177 338.358 780.268 338.571 780.45 338.74C780.635 338.906 780.909 338.989 781.27 338.989C781.645 338.989 781.925 338.91 782.11 338.75C782.296 338.587 782.388 338.374 782.388 338.11C782.388 337.928 782.335 337.769 782.227 337.632C782.123 337.495 781.991 337.373 781.832 337.266C781.672 337.155 781.511 337.052 781.348 336.958L781.217 336.89C781.008 336.984 780.826 337.09 780.67 337.207C780.517 337.324 780.396 337.456 780.308 337.603C780.22 337.749 780.177 337.915 780.177 338.101ZM781.28 333.872C781.033 333.872 780.828 333.936 780.665 334.062C780.502 334.189 780.421 334.368 780.421 334.6C780.421 334.762 780.46 334.906 780.538 335.029C780.619 335.15 780.725 335.256 780.855 335.347C780.989 335.438 781.134 335.522 781.29 335.601C781.44 335.529 781.58 335.449 781.71 335.361C781.84 335.273 781.946 335.168 782.027 335.044C782.108 334.92 782.149 334.772 782.149 334.6C782.149 334.368 782.066 334.189 781.9 334.062C781.737 333.936 781.531 333.872 781.28 333.872ZM785.05 332.861H787.271C788.222 332.861 788.941 332.995 789.429 333.262C789.918 333.529 790.162 333.997 790.162 334.668C790.162 334.938 790.118 335.182 790.03 335.4C789.945 335.618 789.822 335.798 789.659 335.938C789.496 336.077 789.298 336.169 789.063 336.211V336.26C789.301 336.309 789.516 336.393 789.708 336.514C789.9 336.631 790.053 336.803 790.167 337.031C790.284 337.256 790.343 337.555 790.343 337.93C790.343 338.363 790.237 338.734 790.025 339.043C789.814 339.352 789.511 339.59 789.117 339.756C788.726 339.919 788.261 340 787.72 340H785.05V332.861ZM786.563 335.688H787.442C787.882 335.688 788.186 335.62 788.355 335.483C788.524 335.343 788.609 335.138 788.609 334.868C788.609 334.595 788.508 334.399 788.306 334.282C788.108 334.162 787.792 334.102 787.359 334.102H786.563V335.688ZM786.563 336.89V338.75H787.55C788.005 338.75 788.323 338.662 788.502 338.486C788.681 338.311 788.77 338.075 788.77 337.778C788.77 337.603 788.731 337.448 788.653 337.314C788.575 337.181 788.443 337.077 788.258 337.002C788.075 336.927 787.823 336.89 787.501 336.89H786.563ZM795.001 340H793.492V335.869C793.492 335.755 793.494 335.615 793.497 335.449C793.5 335.28 793.505 335.107 793.511 334.932C793.518 334.753 793.524 334.591 793.531 334.448C793.495 334.491 793.422 334.564 793.311 334.668C793.204 334.769 793.103 334.86 793.009 334.941L792.188 335.601L791.461 334.692L793.76 332.861H795.001V340ZM801.983 340H796.993V338.95L798.785 337.139C799.146 336.768 799.436 336.458 799.654 336.211C799.875 335.96 800.035 335.732 800.133 335.527C800.233 335.322 800.284 335.103 800.284 334.868C800.284 334.585 800.204 334.373 800.045 334.233C799.888 334.09 799.678 334.019 799.415 334.019C799.138 334.019 798.87 334.082 798.609 334.209C798.349 334.336 798.077 334.517 797.794 334.751L796.973 333.779C797.178 333.604 797.395 333.438 797.623 333.281C797.854 333.125 798.121 333 798.424 332.905C798.73 332.808 799.096 332.759 799.522 332.759C799.991 332.759 800.393 332.843 800.728 333.013C801.067 333.182 801.327 333.413 801.51 333.706C801.692 333.996 801.783 334.325 801.783 334.692C801.783 335.086 801.705 335.446 801.549 335.771C801.392 336.097 801.164 336.419 800.865 336.738C800.569 337.057 800.211 337.41 799.791 337.798L798.873 338.662V338.73H801.983V340ZM807.867 338.521H807.008V340H805.533V338.521H802.486V337.471L805.616 332.861H807.008V337.349H807.867V338.521ZM805.533 337.349V336.138C805.533 336.024 805.535 335.889 805.538 335.732C805.544 335.576 805.551 335.42 805.557 335.264C805.564 335.107 805.57 334.969 805.577 334.849C805.587 334.725 805.593 334.639 805.596 334.59H805.557C805.496 334.723 805.43 334.854 805.362 334.98C805.294 335.104 805.214 335.234 805.123 335.371L803.814 337.349H805.533ZM811.036 335.439C811.472 335.439 811.859 335.522 812.198 335.688C812.54 335.854 812.808 336.099 813.004 336.421C813.199 336.743 813.297 337.14 813.297 337.612C813.297 338.127 813.189 338.571 812.974 338.945C812.763 339.316 812.445 339.601 812.022 339.8C811.602 339.998 811.078 340.098 810.45 340.098C810.076 340.098 809.722 340.065 809.39 340C809.062 339.938 808.774 339.842 808.526 339.712V338.408C808.774 338.538 809.07 338.649 809.415 338.74C809.763 338.828 810.09 338.872 810.396 338.872C810.696 338.872 810.948 338.833 811.153 338.755C811.358 338.674 811.513 338.55 811.617 338.384C811.724 338.215 811.778 338 811.778 337.739C811.778 337.391 811.661 337.124 811.427 336.938C811.192 336.753 810.832 336.66 810.347 336.66C810.162 336.66 809.968 336.678 809.766 336.714C809.568 336.75 809.402 336.785 809.268 336.821L808.668 336.499L808.936 332.861H812.808V334.141H810.26L810.128 335.542C810.238 335.519 810.359 335.496 810.489 335.474C810.619 335.451 810.802 335.439 811.036 335.439Z" fill="white"/>
<path d="M583.89 310H700.28V346H583.89V310Z" fill="#B01356"/>
<path d="M658.512 335.879L658.282 337.012H659.542V338.018H658.092L657.716 340H656.642L657.022 338.018H656.075L655.704 340H654.654L655.016 338.018H653.854V337.012H655.206L655.436 335.879H654.205V334.858H655.616L655.992 332.871H657.062L656.686 334.858H657.652L658.033 332.871H659.083L658.702 334.858H659.874V335.879H658.512ZM656.266 337.012H657.223L657.452 335.879H656.495L656.266 337.012ZM660.997 332.861H663.219C664.169 332.861 664.889 332.995 665.377 333.262C665.865 333.529 666.109 333.997 666.109 334.668C666.109 334.938 666.065 335.182 665.978 335.4C665.893 335.618 665.769 335.798 665.606 335.938C665.444 336.077 665.245 336.169 665.011 336.211V336.26C665.248 336.309 665.463 336.393 665.655 336.514C665.847 336.631 666 336.803 666.114 337.031C666.231 337.256 666.29 337.555 666.29 337.93C666.29 338.363 666.184 338.734 665.973 339.043C665.761 339.352 665.458 339.59 665.064 339.756C664.674 339.919 664.208 340 663.668 340H660.997V332.861ZM662.511 335.688H663.39C663.829 335.688 664.133 335.62 664.303 335.483C664.472 335.343 664.557 335.138 664.557 334.868C664.557 334.595 664.456 334.399 664.254 334.282C664.055 334.162 663.74 334.102 663.307 334.102H662.511V335.688ZM662.511 336.89V338.75H663.497C663.953 338.75 664.27 338.662 664.449 338.486C664.628 338.311 664.718 338.075 664.718 337.778C664.718 337.603 664.679 337.448 664.601 337.314C664.522 337.181 664.391 337.077 664.205 337.002C664.023 336.927 663.771 336.89 663.448 336.89H662.511ZM672.169 336.431C672.169 337.007 672.123 337.521 672.032 337.974C671.944 338.426 671.801 338.81 671.603 339.126C671.407 339.442 671.15 339.683 670.831 339.849C670.512 340.015 670.125 340.098 669.669 340.098C669.096 340.098 668.626 339.953 668.258 339.663C667.89 339.37 667.618 338.95 667.442 338.403C667.267 337.853 667.179 337.196 667.179 336.431C667.179 335.659 667.258 335 667.418 334.453C667.581 333.903 667.844 333.481 668.209 333.188C668.574 332.896 669.06 332.749 669.669 332.749C670.239 332.749 670.707 332.896 671.075 333.188C671.446 333.478 671.721 333.898 671.9 334.448C672.079 334.995 672.169 335.656 672.169 336.431ZM668.678 336.431C668.678 336.974 668.707 337.428 668.766 337.793C668.827 338.154 668.93 338.426 669.073 338.608C669.216 338.791 669.415 338.882 669.669 338.882C669.92 338.882 670.117 338.792 670.26 338.613C670.406 338.431 670.51 338.159 670.572 337.798C670.634 337.433 670.665 336.978 670.665 336.431C670.665 335.887 670.634 335.433 670.572 335.068C670.51 334.704 670.406 334.43 670.26 334.248C670.117 334.062 669.92 333.97 669.669 333.97C669.415 333.97 669.216 334.062 669.073 334.248C668.93 334.43 668.827 334.704 668.766 335.068C668.707 335.433 668.678 335.887 668.678 336.431ZM676.671 340H675.162V335.869C675.162 335.755 675.164 335.615 675.167 335.449C675.17 335.28 675.175 335.107 675.182 334.932C675.188 334.753 675.195 334.591 675.201 334.448C675.165 334.491 675.092 334.564 674.981 334.668C674.874 334.769 674.773 334.86 674.679 334.941L673.858 335.601L673.131 334.692L675.431 332.861H676.671V340ZM683.375 334.458C683.375 334.787 683.307 335.072 683.17 335.312C683.033 335.553 682.848 335.75 682.613 335.903C682.382 336.056 682.122 336.169 681.832 336.24V336.27C682.405 336.341 682.84 336.517 683.136 336.797C683.435 337.077 683.585 337.451 683.585 337.92C683.585 338.337 683.482 338.709 683.277 339.038C683.076 339.367 682.763 339.626 682.34 339.814C681.917 340.003 681.371 340.098 680.704 340.098C680.31 340.098 679.942 340.065 679.601 340C679.262 339.938 678.943 339.842 678.644 339.712V338.428C678.95 338.584 679.27 338.703 679.605 338.784C679.941 338.862 680.253 338.901 680.543 338.901C681.083 338.901 681.461 338.809 681.676 338.623C681.894 338.434 682.003 338.171 682.003 337.832C682.003 337.633 681.952 337.466 681.852 337.329C681.751 337.192 681.575 337.088 681.324 337.017C681.077 336.945 680.73 336.909 680.284 336.909H679.742V335.752H680.294C680.733 335.752 681.067 335.711 681.295 335.63C681.526 335.545 681.682 335.431 681.764 335.288C681.848 335.142 681.891 334.976 681.891 334.79C681.891 334.536 681.812 334.338 681.656 334.194C681.5 334.051 681.24 333.979 680.875 333.979C680.647 333.979 680.439 334.009 680.25 334.067C680.064 334.123 679.897 334.191 679.747 334.272C679.597 334.351 679.465 334.427 679.352 334.502L678.653 333.462C678.933 333.26 679.26 333.092 679.635 332.959C680.012 332.826 680.462 332.759 680.982 332.759C681.718 332.759 682.301 332.907 682.73 333.203C683.16 333.499 683.375 333.918 683.375 334.458ZM686.983 335.439C687.42 335.439 687.807 335.522 688.146 335.688C688.487 335.854 688.756 336.099 688.951 336.421C689.146 336.743 689.244 337.14 689.244 337.612C689.244 338.127 689.137 338.571 688.922 338.945C688.71 339.316 688.393 339.601 687.97 339.8C687.55 339.998 687.026 340.098 686.397 340.098C686.023 340.098 685.67 340.065 685.338 340C685.009 339.938 684.721 339.842 684.474 339.712V338.408C684.721 338.538 685.017 338.649 685.362 338.74C685.711 338.828 686.038 338.872 686.344 338.872C686.643 338.872 686.896 338.833 687.101 338.755C687.306 338.674 687.46 338.55 687.564 338.384C687.672 338.215 687.726 338 687.726 337.739C687.726 337.391 687.608 337.124 687.374 336.938C687.14 336.753 686.78 336.66 686.295 336.66C686.109 336.66 685.916 336.678 685.714 336.714C685.515 336.75 685.349 336.785 685.216 336.821L684.615 336.499L684.884 332.861H688.756V334.141H686.207L686.075 335.542C686.186 335.519 686.306 335.496 686.437 335.474C686.567 335.451 686.749 335.439 686.983 335.439ZM690.06 336.968C690.06 336.558 690.089 336.152 690.147 335.752C690.209 335.348 690.315 334.969 690.465 334.614C690.615 334.256 690.825 333.94 691.095 333.667C691.365 333.39 691.708 333.174 692.125 333.018C692.542 332.858 693.046 332.778 693.639 332.778C693.779 332.778 693.941 332.785 694.127 332.798C694.316 332.808 694.472 332.826 694.596 332.852V334.058C694.465 334.028 694.326 334.006 694.176 333.989C694.029 333.97 693.883 333.96 693.736 333.96C693.144 333.96 692.685 334.054 692.359 334.243C692.037 334.432 691.809 334.694 691.676 335.029C691.546 335.361 691.469 335.749 691.446 336.191H691.51C691.601 336.032 691.715 335.89 691.852 335.767C691.992 335.643 692.161 335.545 692.359 335.474C692.558 335.399 692.791 335.361 693.058 335.361C693.474 335.361 693.836 335.451 694.142 335.63C694.448 335.806 694.684 336.061 694.85 336.396C695.016 336.732 695.099 337.14 695.099 337.622C695.099 338.136 694.999 338.579 694.801 338.95C694.602 339.321 694.321 339.606 693.956 339.805C693.595 340 693.165 340.098 692.667 340.098C692.302 340.098 691.962 340.036 691.646 339.912C691.331 339.785 691.054 339.593 690.816 339.336C690.579 339.079 690.393 338.755 690.26 338.364C690.126 337.97 690.06 337.505 690.06 336.968ZM692.638 338.892C692.934 338.892 693.175 338.791 693.36 338.589C693.546 338.387 693.639 338.071 693.639 337.642C693.639 337.293 693.557 337.02 693.395 336.821C693.235 336.619 692.993 336.519 692.667 336.519C692.446 336.519 692.25 336.569 692.081 336.67C691.915 336.768 691.786 336.893 691.695 337.046C691.604 337.196 691.559 337.35 691.559 337.51C691.559 337.676 691.581 337.84 691.627 338.003C691.673 338.166 691.741 338.314 691.832 338.447C691.923 338.581 692.035 338.688 692.169 338.77C692.306 338.851 692.462 338.892 692.638 338.892Z" fill="white"/>
<path d="M467.5 310H583.89V346H467.5V310Z" fill="#D6246E"/>
<path d="M544.061 335.879L543.832 337.012H545.092V338.018H543.642L543.266 340H542.191L542.572 338.018H541.625L541.254 340H540.204L540.565 338.018H539.403V337.012H540.756L540.985 335.879H539.755V334.858H541.166L541.542 332.871H542.611L542.235 334.858H543.202L543.583 332.871H544.633L544.252 334.858H545.424V335.879H544.061ZM541.815 337.012H542.772L543.002 335.879H542.045L541.815 337.012ZM552.47 336.362C552.47 337.166 552.315 337.839 552.006 338.379C551.7 338.916 551.255 339.321 550.673 339.595C550.09 339.865 549.389 340 548.568 340H546.547V332.861H548.788C549.537 332.861 550.186 332.995 550.736 333.262C551.286 333.525 551.713 333.918 552.016 334.438C552.318 334.956 552.47 335.597 552.47 336.362ZM550.897 336.401C550.897 335.874 550.819 335.441 550.663 335.103C550.51 334.761 550.282 334.508 549.979 334.346C549.68 334.183 549.309 334.102 548.866 334.102H548.06V338.75H548.71C549.449 338.75 549.997 338.553 550.355 338.159C550.717 337.765 550.897 337.179 550.897 336.401ZM553.402 336.968C553.402 336.558 553.432 336.152 553.49 335.752C553.552 335.348 553.658 334.969 553.808 334.614C553.957 334.256 554.167 333.94 554.437 333.667C554.708 333.39 555.051 333.174 555.468 333.018C555.884 332.858 556.389 332.778 556.981 332.778C557.121 332.778 557.284 332.785 557.47 332.798C557.658 332.808 557.815 332.826 557.938 332.852V334.058C557.808 334.028 557.668 334.006 557.518 333.989C557.372 333.97 557.226 333.96 557.079 333.96C556.487 333.96 556.028 334.054 555.702 334.243C555.38 334.432 555.152 334.694 555.018 335.029C554.888 335.361 554.812 335.749 554.789 336.191H554.852C554.944 336.032 555.058 335.89 555.194 335.767C555.334 335.643 555.504 335.545 555.702 335.474C555.901 335.399 556.133 335.361 556.4 335.361C556.817 335.361 557.178 335.451 557.484 335.63C557.79 335.806 558.026 336.061 558.192 336.396C558.358 336.732 558.441 337.14 558.441 337.622C558.441 338.136 558.342 338.579 558.143 338.95C557.945 339.321 557.663 339.606 557.299 339.805C556.937 340 556.508 340.098 556.01 340.098C555.645 340.098 555.305 340.036 554.989 339.912C554.673 339.785 554.397 339.593 554.159 339.336C553.921 339.079 553.736 338.755 553.602 338.364C553.469 337.97 553.402 337.505 553.402 336.968ZM555.98 338.892C556.277 338.892 556.518 338.791 556.703 338.589C556.889 338.387 556.981 338.071 556.981 337.642C556.981 337.293 556.9 337.02 556.737 336.821C556.578 336.619 556.335 336.519 556.01 336.519C555.788 336.519 555.593 336.569 555.424 336.67C555.258 336.768 555.129 336.893 555.038 337.046C554.947 337.196 554.901 337.35 554.901 337.51C554.901 337.676 554.924 337.84 554.97 338.003C555.015 338.166 555.084 338.314 555.175 338.447C555.266 338.581 555.378 338.688 555.512 338.77C555.648 338.851 555.805 338.892 555.98 338.892ZM564.164 340H559.174V338.95L560.966 337.139C561.327 336.768 561.617 336.458 561.835 336.211C562.056 335.96 562.216 335.732 562.313 335.527C562.414 335.322 562.465 335.103 562.465 334.868C562.465 334.585 562.385 334.373 562.226 334.233C562.069 334.09 561.859 334.019 561.596 334.019C561.319 334.019 561.05 334.082 560.79 334.209C560.53 334.336 560.258 334.517 559.975 334.751L559.154 333.779C559.359 333.604 559.576 333.438 559.804 333.281C560.035 333.125 560.302 333 560.604 332.905C560.91 332.808 561.277 332.759 561.703 332.759C562.172 332.759 562.574 332.843 562.909 333.013C563.248 333.182 563.508 333.413 563.69 333.706C563.873 333.996 563.964 334.325 563.964 334.692C563.964 335.086 563.886 335.446 563.729 335.771C563.573 336.097 563.345 336.419 563.046 336.738C562.75 337.057 562.392 337.41 561.972 337.798L561.054 338.662V338.73H564.164V340ZM570.048 338.521H569.188V340H567.714V338.521H564.667V337.471L567.797 332.861H569.188V337.349H570.048V338.521ZM567.714 337.349V336.138C567.714 336.024 567.715 335.889 567.719 335.732C567.725 335.576 567.732 335.42 567.738 335.264C567.745 335.107 567.751 334.969 567.758 334.849C567.768 334.725 567.774 334.639 567.777 334.59H567.738C567.676 334.723 567.611 334.854 567.543 334.98C567.475 335.104 567.395 335.234 567.304 335.371L565.995 337.349H567.714ZM570.57 336.968C570.57 336.558 570.6 336.152 570.658 335.752C570.72 335.348 570.826 334.969 570.976 334.614C571.125 334.256 571.335 333.94 571.605 333.667C571.876 333.39 572.219 333.174 572.636 333.018C573.052 332.858 573.557 332.778 574.149 332.778C574.289 332.778 574.452 332.785 574.638 332.798C574.826 332.808 574.983 332.826 575.106 332.852V334.058C574.976 334.028 574.836 334.006 574.686 333.989C574.54 333.97 574.393 333.96 574.247 333.96C573.655 333.96 573.196 334.054 572.87 334.243C572.548 334.432 572.32 334.694 572.186 335.029C572.056 335.361 571.98 335.749 571.957 336.191H572.02C572.112 336.032 572.226 335.89 572.362 335.767C572.502 335.643 572.671 335.545 572.87 335.474C573.069 335.399 573.301 335.361 573.568 335.361C573.985 335.361 574.346 335.451 574.652 335.63C574.958 335.806 575.194 336.061 575.36 336.396C575.526 336.732 575.609 337.14 575.609 337.622C575.609 338.136 575.51 338.579 575.311 338.95C575.113 339.321 574.831 339.606 574.467 339.805C574.105 340 573.676 340.098 573.178 340.098C572.813 340.098 572.473 340.036 572.157 339.912C571.841 339.785 571.565 339.593 571.327 339.336C571.089 339.079 570.904 338.755 570.77 338.364C570.637 337.97 570.57 337.505 570.57 336.968ZM573.148 338.892C573.445 338.892 573.685 338.791 573.871 338.589C574.057 338.387 574.149 338.071 574.149 337.642C574.149 337.293 574.068 337.02 573.905 336.821C573.746 336.619 573.503 336.519 573.178 336.519C572.956 336.519 572.761 336.569 572.592 336.67C572.426 336.768 572.297 336.893 572.206 337.046C572.115 337.196 572.069 337.35 572.069 337.51C572.069 337.676 572.092 337.84 572.138 338.003C572.183 338.166 572.252 338.314 572.343 338.447C572.434 338.581 572.546 338.688 572.68 338.77C572.816 338.851 572.973 338.892 573.148 338.892ZM580.951 340H576.84V332.861H580.951V334.102H578.353V335.669H580.77V336.909H578.353V338.75H580.951V340Z" fill="white"/>
<path d="M350.14 310H467.5V346H350.14V310Z" fill="#F68BB7"/>
<path d="M426.702 335.879L426.472 337.012H427.732V338.018H426.282L425.906 340H424.831L425.212 338.018H424.265L423.894 340H422.844L423.205 338.018H422.043V337.012H423.396L423.625 335.879H422.395V334.858H423.806L424.182 332.871H425.251L424.875 334.858H425.842L426.223 332.871H427.273L426.892 334.858H428.064V335.879H426.702ZM424.455 337.012H425.412L425.642 335.879H424.685L424.455 337.012ZM430.676 340H429.187V332.861H433.279V334.102H430.676V335.942H433.098V337.178H430.676V340ZM434.128 336.968C434.128 336.558 434.158 336.152 434.216 335.752C434.278 335.348 434.384 334.969 434.534 334.614C434.683 334.256 434.893 333.94 435.163 333.667C435.434 333.39 435.777 333.174 436.194 333.018C436.61 332.858 437.115 332.778 437.707 332.778C437.847 332.778 438.01 332.785 438.196 332.798C438.384 332.808 438.541 332.826 438.664 332.852V334.058C438.534 334.028 438.394 334.006 438.244 333.989C438.098 333.97 437.952 333.96 437.805 333.96C437.213 333.96 436.754 334.054 436.428 334.243C436.106 334.432 435.878 334.694 435.744 335.029C435.614 335.361 435.538 335.749 435.515 336.191H435.578C435.67 336.032 435.784 335.89 435.92 335.767C436.06 335.643 436.23 335.545 436.428 335.474C436.627 335.399 436.859 335.361 437.126 335.361C437.543 335.361 437.904 335.451 438.21 335.63C438.516 335.806 438.752 336.061 438.918 336.396C439.084 336.732 439.167 337.14 439.167 337.622C439.167 338.136 439.068 338.579 438.869 338.95C438.671 339.321 438.389 339.606 438.025 339.805C437.663 340 437.234 340.098 436.736 340.098C436.371 340.098 436.031 340.036 435.715 339.912C435.399 339.785 435.123 339.593 434.885 339.336C434.647 339.079 434.462 338.755 434.328 338.364C434.195 337.97 434.128 337.505 434.128 336.968ZM436.706 338.892C437.003 338.892 437.243 338.791 437.429 338.589C437.615 338.387 437.707 338.071 437.707 337.642C437.707 337.293 437.626 337.02 437.463 336.821C437.304 336.619 437.061 336.519 436.736 336.519C436.514 336.519 436.319 336.569 436.15 336.67C435.984 336.768 435.855 336.893 435.764 337.046C435.673 337.196 435.627 337.35 435.627 337.51C435.627 337.676 435.65 337.84 435.696 338.003C435.741 338.166 435.81 338.314 435.901 338.447C435.992 338.581 436.104 338.688 436.238 338.77C436.374 338.851 436.531 338.892 436.706 338.892ZM442.361 332.769C442.771 332.769 443.148 332.832 443.493 332.959C443.842 333.086 444.12 333.278 444.328 333.535C444.537 333.789 444.641 334.108 444.641 334.492C444.641 334.779 444.584 335.029 444.47 335.244C444.359 335.459 444.208 335.648 444.016 335.811C443.824 335.97 443.606 336.11 443.362 336.23C443.616 336.364 443.856 336.52 444.084 336.699C444.312 336.875 444.498 337.082 444.641 337.319C444.787 337.557 444.861 337.834 444.861 338.149C444.861 338.547 444.755 338.892 444.543 339.185C444.332 339.474 444.039 339.699 443.664 339.858C443.29 340.018 442.855 340.098 442.361 340.098C441.827 340.098 441.373 340.021 440.998 339.868C440.624 339.715 440.339 339.497 440.144 339.214C439.949 338.927 439.851 338.586 439.851 338.188C439.851 337.863 439.911 337.58 440.032 337.339C440.155 337.098 440.321 336.891 440.53 336.719C440.738 336.543 440.967 336.393 441.218 336.27C441.007 336.136 440.813 335.985 440.637 335.815C440.465 335.646 440.326 335.452 440.222 335.234C440.121 335.016 440.071 334.766 440.071 334.482C440.071 334.105 440.176 333.789 440.388 333.535C440.603 333.281 440.884 333.091 441.233 332.964C441.581 332.834 441.957 332.769 442.361 332.769ZM441.247 338.101C441.247 338.358 441.339 338.571 441.521 338.74C441.706 338.906 441.98 338.989 442.341 338.989C442.716 338.989 442.995 338.91 443.181 338.75C443.367 338.587 443.459 338.374 443.459 338.11C443.459 337.928 443.406 337.769 443.298 337.632C443.194 337.495 443.062 337.373 442.903 337.266C442.743 337.155 442.582 337.052 442.419 336.958L442.287 336.89C442.079 336.984 441.897 337.09 441.741 337.207C441.588 337.324 441.467 337.456 441.379 337.603C441.291 337.749 441.247 337.915 441.247 338.101ZM442.351 333.872C442.104 333.872 441.898 333.936 441.736 334.062C441.573 334.189 441.492 334.368 441.492 334.6C441.492 334.762 441.531 334.906 441.609 335.029C441.69 335.15 441.796 335.256 441.926 335.347C442.06 335.438 442.204 335.522 442.361 335.601C442.51 335.529 442.65 335.449 442.781 335.361C442.911 335.273 443.017 335.168 443.098 335.044C443.179 334.92 443.22 334.772 443.22 334.6C443.22 334.368 443.137 334.189 442.971 334.062C442.808 333.936 442.602 333.872 442.351 333.872ZM446.12 332.861H448.342C449.293 332.861 450.012 332.995 450.5 333.262C450.989 333.529 451.233 333.997 451.233 334.668C451.233 334.938 451.189 335.182 451.101 335.4C451.016 335.618 450.893 335.798 450.73 335.938C450.567 336.077 450.368 336.169 450.134 336.211V336.26C450.372 336.309 450.587 336.393 450.779 336.514C450.971 336.631 451.124 336.803 451.238 337.031C451.355 337.256 451.413 337.555 451.413 337.93C451.413 338.363 451.308 338.734 451.096 339.043C450.884 339.352 450.582 339.59 450.188 339.756C449.797 339.919 449.332 340 448.791 340H446.12V332.861ZM447.634 335.688H448.513C448.952 335.688 449.257 335.62 449.426 335.483C449.595 335.343 449.68 335.138 449.68 334.868C449.68 334.595 449.579 334.399 449.377 334.282C449.179 334.162 448.863 334.102 448.43 334.102H447.634V335.688ZM447.634 336.89V338.75H448.62C449.076 338.75 449.394 338.662 449.573 338.486C449.752 338.311 449.841 338.075 449.841 337.778C449.841 337.603 449.802 337.448 449.724 337.314C449.646 337.181 449.514 337.077 449.328 337.002C449.146 336.927 448.894 336.89 448.572 336.89H447.634ZM452.839 332.861H455.061C456.011 332.861 456.731 332.995 457.219 333.262C457.707 333.529 457.952 333.997 457.952 334.668C457.952 334.938 457.908 335.182 457.82 335.4C457.735 335.618 457.611 335.798 457.449 335.938C457.286 336.077 457.087 336.169 456.853 336.211V336.26C457.091 336.309 457.305 336.393 457.497 336.514C457.689 336.631 457.842 336.803 457.956 337.031C458.074 337.256 458.132 337.555 458.132 337.93C458.132 338.363 458.026 338.734 457.815 339.043C457.603 339.352 457.3 339.59 456.907 339.756C456.516 339.919 456.05 340 455.51 340H452.839V332.861ZM454.353 335.688H455.232C455.671 335.688 455.976 335.62 456.145 335.483C456.314 335.343 456.399 335.138 456.399 334.868C456.399 334.595 456.298 334.399 456.096 334.282C455.897 334.162 455.582 334.102 455.149 334.102H454.353V335.688ZM454.353 336.89V338.75H455.339C455.795 338.75 456.112 338.662 456.291 338.486C456.47 338.311 456.56 338.075 456.56 337.778C456.56 337.603 456.521 337.448 456.443 337.314C456.365 337.181 456.233 337.077 456.047 337.002C455.865 336.927 455.613 336.89 455.29 336.89H454.353ZM459.768 340L462.449 334.131H458.928V332.861H464.05V333.809L461.35 340H459.768Z" fill="#2C3437"/>
<path d="M233.75 310H350.14V346H233.75V310Z" fill="#FBB4D2"/>
<path d="M309.341 335.879L309.112 337.012H310.372V338.018H308.922L308.546 340H307.471L307.852 338.018H306.905L306.534 340H305.484L305.845 338.018H304.683V337.012H306.036L306.265 335.879H305.035V334.858H306.446L306.822 332.871H307.891L307.515 334.858H308.482L308.863 332.871H309.913L309.532 334.858H310.704V335.879H309.341ZM307.095 337.012H308.052L308.282 335.879H307.325L307.095 337.012ZM313.316 340H311.827V332.861H315.919V334.102H313.316V335.942H315.738V337.178H313.316V340ZM317.315 332.861H319.537C320.487 332.861 321.207 332.995 321.695 333.262C322.183 333.529 322.427 333.997 322.427 334.668C322.427 334.938 322.383 335.182 322.296 335.4C322.211 335.618 322.087 335.798 321.924 335.938C321.762 336.077 321.563 336.169 321.329 336.211V336.26C321.566 336.309 321.781 336.393 321.973 336.514C322.165 336.631 322.318 336.803 322.432 337.031C322.549 337.256 322.608 337.555 322.608 337.93C322.608 338.363 322.502 338.734 322.291 339.043C322.079 339.352 321.776 339.59 321.383 339.756C320.992 339.919 320.526 340 319.986 340H317.315V332.861ZM318.829 335.688H319.708C320.147 335.688 320.452 335.62 320.621 335.483C320.79 335.343 320.875 335.138 320.875 334.868C320.875 334.595 320.774 334.399 320.572 334.282C320.373 334.162 320.058 334.102 319.625 334.102H318.829V335.688ZM318.829 336.89V338.75H319.815C320.271 338.75 320.588 338.662 320.767 338.486C320.946 338.311 321.036 338.075 321.036 337.778C321.036 337.603 320.997 337.448 320.919 337.314C320.841 337.181 320.709 337.077 320.523 337.002C320.341 336.927 320.089 336.89 319.766 336.89H318.829ZM324.034 332.861H326.256C327.206 332.861 327.925 332.995 328.414 333.262C328.902 333.529 329.146 333.997 329.146 334.668C329.146 334.938 329.102 335.182 329.014 335.4C328.93 335.618 328.806 335.798 328.643 335.938C328.48 336.077 328.282 336.169 328.048 336.211V336.26C328.285 336.309 328.5 336.393 328.692 336.514C328.884 336.631 329.037 336.803 329.151 337.031C329.268 337.256 329.327 337.555 329.327 337.93C329.327 338.363 329.221 338.734 329.009 339.043C328.798 339.352 328.495 339.59 328.101 339.756C327.711 339.919 327.245 340 326.705 340H324.034V332.861ZM325.548 335.688H326.426C326.866 335.688 327.17 335.62 327.34 335.483C327.509 335.343 327.593 335.138 327.593 334.868C327.593 334.595 327.493 334.399 327.291 334.282C327.092 334.162 326.776 334.102 326.343 334.102H325.548V335.688ZM325.548 336.89V338.75H326.534C326.99 338.75 327.307 338.662 327.486 338.486C327.665 338.311 327.755 338.075 327.755 337.778C327.755 337.603 327.716 337.448 327.637 337.314C327.559 337.181 327.427 337.077 327.242 337.002C327.06 336.927 326.807 336.89 326.485 336.89H325.548ZM335.406 338.521H334.547V340H333.072V338.521H330.025V337.471L333.155 332.861H334.547V337.349H335.406V338.521ZM333.072 337.349V336.138C333.072 336.024 333.074 335.889 333.077 335.732C333.083 335.576 333.09 335.42 333.096 335.264C333.103 335.107 333.109 334.969 333.116 334.849C333.126 334.725 333.132 334.639 333.135 334.59H333.096C333.035 334.723 332.969 334.854 332.901 334.98C332.833 335.104 332.753 335.234 332.662 335.371L331.353 337.349H333.072ZM342.398 336.362C342.398 337.166 342.244 337.839 341.934 338.379C341.628 338.916 341.184 339.321 340.601 339.595C340.019 339.865 339.317 340 338.497 340H336.475V332.861H338.716C339.465 332.861 340.115 332.995 340.665 333.262C341.215 333.525 341.641 333.918 341.944 334.438C342.247 334.956 342.398 335.597 342.398 336.362ZM340.826 336.401C340.826 335.874 340.748 335.441 340.591 335.103C340.438 334.761 340.211 334.508 339.908 334.346C339.608 334.183 339.237 334.102 338.795 334.102H337.989V338.75H338.638C339.377 338.75 339.926 338.553 340.284 338.159C340.645 337.765 340.826 337.179 340.826 336.401ZM348.37 340H343.38V338.95L345.172 337.139C345.533 336.768 345.823 336.458 346.041 336.211C346.262 335.96 346.422 335.732 346.519 335.527C346.62 335.322 346.671 335.103 346.671 334.868C346.671 334.585 346.591 334.373 346.431 334.233C346.275 334.09 346.065 334.019 345.801 334.019C345.525 334.019 345.256 334.082 344.996 334.209C344.735 334.336 344.464 334.517 344.18 334.751L343.36 333.779C343.565 333.604 343.782 333.438 344.009 333.281C344.241 333.125 344.508 333 344.81 332.905C345.116 332.808 345.482 332.759 345.909 332.759C346.378 332.759 346.78 332.843 347.115 333.013C347.453 333.182 347.714 333.413 347.896 333.706C348.078 333.996 348.17 334.325 348.17 334.692C348.17 335.086 348.091 335.446 347.935 335.771C347.779 336.097 347.551 336.419 347.252 336.738C346.955 337.057 346.597 337.41 346.177 337.798L345.259 338.662V338.73H348.37V340Z" fill="#2C3437"/>
<path d="M116.39 310H233.75V346H116.39V310Z" fill="#FBD4E6"/>
<path d="M191.012 334.879L190.782 336.012H192.042V337.018H190.592L190.216 339H189.142L189.522 337.018H188.575L188.204 339H187.154L187.516 337.018H186.353V336.012H187.706L187.936 334.879H186.705V333.858H188.116L188.492 331.871H189.561L189.186 333.858H190.152L190.533 331.871H191.583L191.202 333.858H192.374V334.879H191.012ZM188.766 336.012H189.723L189.952 334.879H188.995L188.766 336.012ZM194.986 339H193.497V331.861H197.589V333.102H194.986V334.942H197.408V336.178H194.986V339ZM198.985 331.861H201.207C202.158 331.861 202.877 331.995 203.365 332.262C203.853 332.529 204.098 332.997 204.098 333.668C204.098 333.938 204.054 334.182 203.966 334.4C203.881 334.618 203.757 334.798 203.595 334.938C203.432 335.077 203.233 335.169 202.999 335.211V335.26C203.237 335.309 203.451 335.393 203.644 335.514C203.836 335.631 203.989 335.803 204.103 336.031C204.22 336.256 204.278 336.555 204.278 336.93C204.278 337.363 204.172 337.734 203.961 338.043C203.749 338.352 203.447 338.59 203.053 338.756C202.662 338.919 202.197 339 201.656 339H198.985V331.861ZM200.499 334.688H201.378C201.817 334.688 202.122 334.62 202.291 334.483C202.46 334.343 202.545 334.138 202.545 333.868C202.545 333.595 202.444 333.399 202.242 333.282C202.044 333.162 201.728 333.102 201.295 333.102H200.499V334.688ZM200.499 335.89V337.75H201.485C201.941 337.75 202.258 337.662 202.437 337.486C202.617 337.311 202.706 337.075 202.706 336.778C202.706 336.603 202.667 336.448 202.589 336.314C202.511 336.181 202.379 336.077 202.193 336.002C202.011 335.927 201.759 335.89 201.436 335.89H200.499ZM211.627 335.362C211.627 336.166 211.472 336.839 211.163 337.379C210.857 337.916 210.413 338.321 209.83 338.595C209.247 338.865 208.546 339 207.726 339H205.704V331.861H207.945C208.694 331.861 209.343 331.995 209.894 332.262C210.444 332.525 210.87 332.918 211.173 333.438C211.476 333.956 211.627 334.597 211.627 335.362ZM210.055 335.401C210.055 334.874 209.977 334.441 209.82 334.103C209.667 333.761 209.439 333.508 209.137 333.346C208.837 333.183 208.466 333.102 208.023 333.102H207.218V337.75H207.867C208.606 337.75 209.155 337.553 209.513 337.159C209.874 336.765 210.055 336.179 210.055 335.401ZM217.76 337.521H216.9V339H215.426V337.521H212.379V336.471L215.509 331.861H216.9V336.349H217.76V337.521ZM215.426 336.349V335.138C215.426 335.024 215.427 334.889 215.431 334.732C215.437 334.576 215.444 334.42 215.45 334.264C215.457 334.107 215.463 333.969 215.47 333.849C215.479 333.725 215.486 333.639 215.489 333.59H215.45C215.388 333.723 215.323 333.854 215.255 333.98C215.186 334.104 215.107 334.234 215.016 334.371L213.707 336.349H215.426ZM222.94 339H218.829V331.861H222.94V333.102H220.343V334.669H222.76V335.909H220.343V337.75H222.94V339ZM223.888 335.968C223.888 335.558 223.917 335.152 223.976 334.752C224.037 334.348 224.143 333.969 224.293 333.614C224.443 333.256 224.653 332.94 224.923 332.667C225.193 332.39 225.536 332.174 225.953 332.018C226.37 331.858 226.874 331.778 227.467 331.778C227.607 331.778 227.77 331.785 227.955 331.798C228.144 331.808 228.3 331.826 228.424 331.852V333.058C228.294 333.028 228.154 333.006 228.004 332.989C227.857 332.97 227.711 332.96 227.564 332.96C226.972 332.96 226.513 333.054 226.187 333.243C225.865 333.432 225.637 333.694 225.504 334.029C225.374 334.361 225.297 334.749 225.274 335.191H225.338C225.429 335.032 225.543 334.89 225.68 334.767C225.82 334.643 225.989 334.545 226.187 334.474C226.386 334.399 226.619 334.361 226.886 334.361C227.302 334.361 227.664 334.451 227.97 334.63C228.276 334.806 228.512 335.061 228.678 335.396C228.844 335.732 228.927 336.14 228.927 336.622C228.927 337.136 228.827 337.579 228.629 337.95C228.43 338.321 228.149 338.606 227.784 338.805C227.423 339 226.993 339.098 226.495 339.098C226.131 339.098 225.79 339.036 225.475 338.912C225.159 338.785 224.882 338.593 224.645 338.336C224.407 338.079 224.221 337.755 224.088 337.364C223.954 336.97 223.888 336.505 223.888 335.968ZM226.466 337.892C226.762 337.892 227.003 337.791 227.188 337.589C227.374 337.387 227.467 337.071 227.467 336.642C227.467 336.293 227.385 336.02 227.223 335.821C227.063 335.619 226.821 335.519 226.495 335.519C226.274 335.519 226.078 335.569 225.909 335.67C225.743 335.768 225.615 335.893 225.523 336.046C225.432 336.196 225.387 336.35 225.387 336.51C225.387 336.676 225.409 336.84 225.455 337.003C225.501 337.166 225.569 337.314 225.66 337.447C225.751 337.581 225.864 337.688 225.997 337.77C226.134 337.851 226.29 337.892 226.466 337.892Z" fill="#2C3437"/>
<path d="M0 310H116.39V346H9.99999C4.47715 346 0 341.523 0 336V310Z" fill="#FBF0F4"/>
<path d="M73.6517 335.879L73.4222 337.012H74.682V338.018H73.2318L72.8558 340H71.7816L72.1625 338.018H71.2152L70.8441 340H69.7943L70.1556 338.018H68.9935V337.012H70.3461L70.5756 335.879H69.3451V334.858H70.7562L71.1322 332.871H72.2015L71.8256 334.858H72.7924L73.1732 332.871H74.223L73.8422 334.858H75.014V335.879H73.6517ZM71.4056 337.012H72.3627L72.5922 335.879H71.6351L71.4056 337.012ZM77.6263 340H76.1371V332.861H80.2289V334.102H77.6263V335.942H80.0482V337.178H77.6263V340ZM81.6254 332.861H83.847C84.7976 332.861 85.517 332.995 86.0052 333.262C86.4935 333.529 86.7377 333.997 86.7377 334.668C86.7377 334.938 86.6937 335.182 86.6058 335.4C86.5212 335.618 86.3975 335.798 86.2347 335.938C86.072 336.077 85.8734 336.169 85.639 336.211V336.26C85.8767 336.309 86.0915 336.393 86.2836 336.514C86.4756 336.631 86.6286 336.803 86.7426 337.031C86.8597 337.256 86.9183 337.555 86.9183 337.93C86.9183 338.363 86.8125 338.734 86.601 339.043C86.3894 339.352 86.0866 339.59 85.6927 339.756C85.3021 339.919 84.8366 340 84.2963 340H81.6254V332.861ZM83.139 335.688H84.0179C84.4574 335.688 84.7618 335.62 84.931 335.483C85.1003 335.343 85.1849 335.138 85.1849 334.868C85.1849 334.595 85.084 334.399 84.8822 334.282C84.6836 334.162 84.3679 334.102 83.9349 334.102H83.139V335.688ZM83.139 336.89V338.75H84.1254C84.5811 338.75 84.8985 338.662 85.0775 338.486C85.2566 338.311 85.3461 338.075 85.3461 337.778C85.3461 337.603 85.307 337.448 85.2289 337.314C85.1508 337.181 85.0189 337.077 84.8334 337.002C84.6511 336.927 84.3988 336.89 84.0765 336.89H83.139ZM89.8334 340H88.3441V332.861H92.4359V334.102H89.8334V335.942H92.2552V337.178H89.8334V340ZM98.2855 336.431C98.2855 337.007 98.2399 337.521 98.1488 337.974C98.0609 338.426 97.9177 338.81 97.7191 339.126C97.5238 339.442 97.2666 339.683 96.9476 339.849C96.6286 340.015 96.2413 340.098 95.7855 340.098C95.2126 340.098 94.7422 339.953 94.3744 339.663C94.0066 339.37 93.7347 338.95 93.559 338.403C93.3832 337.853 93.2953 337.196 93.2953 336.431C93.2953 335.659 93.375 335 93.5345 334.453C93.6973 333.903 93.961 333.481 94.3256 333.188C94.6901 332.896 95.1768 332.749 95.7855 332.749C96.3552 332.749 96.8239 332.896 97.1918 333.188C97.5629 333.478 97.8379 333.898 98.017 334.448C98.196 334.995 98.2855 335.656 98.2855 336.431ZM94.7943 336.431C94.7943 336.974 94.8236 337.428 94.8822 337.793C94.9441 338.154 95.0466 338.426 95.1898 338.608C95.333 338.791 95.5316 338.882 95.7855 338.882C96.0362 338.882 96.2331 338.792 96.3763 338.613C96.5228 338.431 96.627 338.159 96.6888 337.798C96.7507 337.433 96.7816 336.978 96.7816 336.431C96.7816 335.887 96.7507 335.433 96.6888 335.068C96.627 334.704 96.5228 334.43 96.3763 334.248C96.2331 334.062 96.0362 333.97 95.7855 333.97C95.5316 333.97 95.333 334.062 95.1898 334.248C95.0466 334.43 94.9441 334.704 94.8822 335.068C94.8236 335.433 94.7943 335.887 94.7943 336.431ZM101.044 340H99.5551V332.861H103.647V334.102H101.044V335.942H103.466V337.178H101.044V340ZM109.697 338.521H108.837V340H107.363V338.521H104.316V337.471L107.446 332.861H108.837V337.349H109.697V338.521ZM107.363 337.349V336.138C107.363 336.024 107.364 335.889 107.368 335.732C107.374 335.576 107.381 335.42 107.387 335.264C107.394 335.107 107.4 334.969 107.407 334.849C107.416 334.725 107.423 334.639 107.426 334.59H107.387C107.325 334.723 107.26 334.854 107.192 334.98C107.123 335.104 107.044 335.234 106.953 335.371L105.644 337.349H107.363Z" fill="#2C3437"/>
<rect width="934.03" height="134" rx="10" fill="#AF74E8"/>
<path d="M851.756 81.7578L851.297 84.0234H853.816V86.0352H850.916L850.164 90H848.016L848.777 86.0352H846.883L846.141 90H844.041L844.764 86.0352H842.439V84.0234H845.145L845.604 81.7578H843.143V79.7168H845.965L846.717 75.7422H848.855L848.104 79.7168H850.037L850.799 75.7422H852.898L852.137 79.7168H854.48V81.7578H851.756ZM847.264 84.0234H849.178L849.637 81.7578H847.723L847.264 84.0234ZM865.467 90L864.432 86.6016H859.227L858.191 90H854.93L859.969 75.6641H863.67L868.729 90H865.467ZM863.709 84.0625L862.674 80.7422C862.609 80.5208 862.521 80.2376 862.41 79.8926C862.306 79.541 862.199 79.1862 862.088 78.8281C861.984 78.4635 861.899 78.1478 861.834 77.8809C861.769 78.1478 861.678 78.4798 861.561 78.877C861.45 79.2676 861.342 79.6387 861.238 79.9902C861.134 80.3418 861.059 80.5924 861.014 80.7422L859.988 84.0625H863.709ZM873.514 90H870.535V75.7227H878.719V78.2031H873.514V81.8848H878.357V84.3555H873.514V90ZM881.932 90L887.293 78.2617H880.252V75.7227H890.496V77.6172L885.096 90H881.932ZM902.264 87.041H900.545V90H897.596V87.041H891.502V84.9414L897.762 75.7227H900.545V84.6973H902.264V87.041ZM897.596 84.6973V82.2754C897.596 82.0475 897.599 81.7773 897.605 81.4648C897.618 81.1523 897.632 80.8398 897.645 80.5273C897.658 80.2148 897.671 79.9382 897.684 79.6973C897.703 79.4499 897.716 79.2773 897.723 79.1797H897.645C897.521 79.4466 897.391 79.707 897.254 79.9609C897.117 80.2083 896.958 80.4688 896.775 80.7422L894.158 84.6973H897.596ZM912.625 90H904.402V75.7227H912.625V78.2031H907.43V81.3379H912.264V83.8184H907.43V87.5H912.625V90ZM919.539 75.5371C920.359 75.5371 921.115 75.6641 921.805 75.918C922.501 76.1719 923.058 76.556 923.475 77.0703C923.891 77.5781 924.1 78.2161 924.1 78.9844C924.1 79.5573 923.986 80.0586 923.758 80.4883C923.536 80.918 923.234 81.2956 922.85 81.6211C922.465 81.9401 922.029 82.2201 921.541 82.4609C922.049 82.7279 922.531 83.0404 922.986 83.3984C923.442 83.75 923.813 84.1634 924.1 84.6387C924.393 85.1139 924.539 85.6673 924.539 86.2988C924.539 87.0931 924.327 87.7832 923.904 88.3691C923.481 88.9486 922.895 89.3978 922.146 89.7168C921.398 90.0358 920.529 90.1953 919.539 90.1953C918.471 90.1953 917.563 90.0423 916.814 89.7363C916.066 89.4303 915.496 88.9941 915.105 88.4277C914.715 87.8548 914.52 87.1712 914.52 86.377C914.52 85.7259 914.64 85.1595 914.881 84.6777C915.128 84.196 915.46 83.7826 915.877 83.4375C916.294 83.0859 916.753 82.7865 917.254 82.5391C916.831 82.2721 916.443 81.9694 916.092 81.6309C915.747 81.2923 915.47 80.9049 915.262 80.4688C915.06 80.0326 914.959 79.5312 914.959 78.9648C914.959 78.2096 915.171 77.5781 915.594 77.0703C916.023 76.5625 916.587 76.1816 917.283 75.9277C917.98 75.6673 918.732 75.5371 919.539 75.5371ZM917.312 86.2012C917.312 86.7155 917.495 87.1419 917.859 87.4805C918.23 87.8125 918.777 87.9785 919.5 87.9785C920.249 87.9785 920.809 87.819 921.18 87.5C921.551 87.1745 921.736 86.748 921.736 86.2207C921.736 85.8561 921.629 85.5371 921.414 85.2637C921.206 84.9902 920.942 84.7461 920.623 84.5312C920.304 84.3099 919.982 84.1048 919.656 83.916L919.393 83.7793C918.976 83.9681 918.611 84.1797 918.299 84.4141C917.993 84.6484 917.752 84.9121 917.576 85.2051C917.4 85.498 917.312 85.8301 917.312 86.2012ZM919.52 77.7441C919.025 77.7441 918.615 77.8711 918.289 78.125C917.964 78.3789 917.801 78.737 917.801 79.1992C917.801 79.5247 917.879 79.8112 918.035 80.0586C918.198 80.2995 918.41 80.5111 918.67 80.6934C918.937 80.8757 919.227 81.0449 919.539 81.2012C919.839 81.0579 920.118 80.8984 920.379 80.7227C920.639 80.5469 920.851 80.3353 921.014 80.0879C921.176 79.8405 921.258 79.5443 921.258 79.1992C921.258 78.737 921.092 78.3789 920.76 78.125C920.434 77.8711 920.021 77.7441 919.52 77.7441Z" fill="white"/>
<path d="M817.64 98H934.03V124C934.03 129.523 929.553 134 924.03 134H817.64V98Z" fill="#361B52"/>
<path d="M893.232 123.879L893.002 125.012H894.262V126.018H892.812L892.436 128H891.362L891.742 126.018H890.795L890.424 128H889.374L889.736 126.018H888.573V125.012H889.926L890.155 123.879H888.925V122.858H890.336L890.712 120.871H891.781L891.405 122.858H892.372L892.753 120.871H893.803L893.422 122.858H894.594V123.879H893.232ZM890.986 125.012H891.943L892.172 123.879H891.215L890.986 125.012ZM899.931 122.458C899.931 122.787 899.862 123.072 899.726 123.312C899.589 123.553 899.404 123.75 899.169 123.903C898.938 124.056 898.678 124.169 898.388 124.24V124.27C898.961 124.341 899.395 124.517 899.692 124.797C899.991 125.077 900.141 125.451 900.141 125.92C900.141 126.337 900.038 126.709 899.833 127.038C899.631 127.367 899.319 127.626 898.896 127.814C898.473 128.003 897.927 128.098 897.26 128.098C896.866 128.098 896.498 128.065 896.156 128C895.818 127.938 895.499 127.842 895.199 127.712V126.428C895.505 126.584 895.826 126.703 896.161 126.784C896.497 126.862 896.809 126.901 897.099 126.901C897.639 126.901 898.017 126.809 898.232 126.623C898.45 126.434 898.559 126.171 898.559 125.832C898.559 125.633 898.508 125.466 898.407 125.329C898.306 125.192 898.131 125.088 897.88 125.017C897.633 124.945 897.286 124.909 896.84 124.909H896.298V123.752H896.85C897.289 123.752 897.623 123.711 897.851 123.63C898.082 123.545 898.238 123.431 898.32 123.288C898.404 123.142 898.446 122.976 898.446 122.79C898.446 122.536 898.368 122.338 898.212 122.194C898.056 122.051 897.795 121.979 897.431 121.979C897.203 121.979 896.995 122.009 896.806 122.067C896.62 122.123 896.453 122.191 896.303 122.272C896.153 122.351 896.021 122.427 895.907 122.502L895.209 121.462C895.489 121.26 895.816 121.092 896.191 120.959C896.568 120.826 897.017 120.759 897.538 120.759C898.274 120.759 898.857 120.907 899.286 121.203C899.716 121.499 899.931 121.918 899.931 122.458ZM900.893 124.968C900.893 124.558 900.922 124.152 900.981 123.752C901.043 123.348 901.148 122.969 901.298 122.614C901.448 122.256 901.658 121.94 901.928 121.667C902.198 121.39 902.542 121.174 902.958 121.018C903.375 120.858 903.879 120.778 904.472 120.778C904.612 120.778 904.775 120.785 904.96 120.798C905.149 120.808 905.305 120.826 905.429 120.852V122.058C905.299 122.028 905.159 122.006 905.009 121.989C904.862 121.97 904.716 121.96 904.57 121.96C903.977 121.96 903.518 122.054 903.193 122.243C902.87 122.432 902.642 122.694 902.509 123.029C902.379 123.361 902.302 123.749 902.279 124.191H902.343C902.434 124.032 902.548 123.89 902.685 123.767C902.825 123.643 902.994 123.545 903.193 123.474C903.391 123.399 903.624 123.361 903.891 123.361C904.307 123.361 904.669 123.451 904.975 123.63C905.281 123.806 905.517 124.061 905.683 124.396C905.849 124.732 905.932 125.14 905.932 125.622C905.932 126.136 905.833 126.579 905.634 126.95C905.435 127.321 905.154 127.606 904.789 127.805C904.428 128 903.998 128.098 903.5 128.098C903.136 128.098 902.795 128.036 902.48 127.912C902.164 127.785 901.887 127.593 901.65 127.336C901.412 127.079 901.226 126.755 901.093 126.364C900.959 125.97 900.893 125.505 900.893 124.968ZM903.471 126.892C903.767 126.892 904.008 126.791 904.194 126.589C904.379 126.387 904.472 126.071 904.472 125.642C904.472 125.293 904.39 125.02 904.228 124.821C904.068 124.619 903.826 124.519 903.5 124.519C903.279 124.519 903.084 124.569 902.914 124.67C902.748 124.768 902.62 124.893 902.529 125.046C902.437 125.196 902.392 125.35 902.392 125.51C902.392 125.676 902.415 125.84 902.46 126.003C902.506 126.166 902.574 126.314 902.665 126.447C902.756 126.581 902.869 126.688 903.002 126.77C903.139 126.851 903.295 126.892 903.471 126.892ZM910.395 128H908.886V123.869C908.886 123.755 908.888 123.615 908.891 123.449C908.894 123.28 908.899 123.107 908.905 122.932C908.912 122.753 908.918 122.591 908.925 122.448C908.889 122.491 908.816 122.564 908.705 122.668C908.598 122.769 908.497 122.86 908.403 122.941L907.582 123.601L906.855 122.692L909.154 120.861H910.395V128ZM912.885 120.861H915.107C916.057 120.861 916.777 120.995 917.265 121.262C917.753 121.529 917.997 121.997 917.997 122.668C917.997 122.938 917.953 123.182 917.865 123.4C917.781 123.618 917.657 123.798 917.494 123.938C917.332 124.077 917.133 124.169 916.899 124.211V124.26C917.136 124.309 917.351 124.393 917.543 124.514C917.735 124.631 917.888 124.803 918.002 125.031C918.119 125.256 918.178 125.555 918.178 125.93C918.178 126.363 918.072 126.734 917.861 127.043C917.649 127.352 917.346 127.59 916.952 127.756C916.562 127.919 916.096 128 915.556 128H912.885V120.861ZM914.399 123.688H915.278C915.717 123.688 916.021 123.62 916.191 123.483C916.36 123.343 916.445 123.138 916.445 122.868C916.445 122.595 916.344 122.399 916.142 122.282C915.943 122.162 915.627 122.102 915.195 122.102H914.399V123.688ZM914.399 124.89V126.75H915.385C915.841 126.75 916.158 126.662 916.337 126.486C916.516 126.311 916.606 126.075 916.606 125.778C916.606 125.603 916.567 125.448 916.488 125.314C916.41 125.181 916.279 125.077 916.093 125.002C915.911 124.927 915.658 124.89 915.336 124.89H914.399ZM921.703 123.439C922.14 123.439 922.527 123.522 922.865 123.688C923.207 123.854 923.476 124.099 923.671 124.421C923.866 124.743 923.964 125.14 923.964 125.612C923.964 126.127 923.857 126.571 923.642 126.945C923.43 127.316 923.113 127.601 922.69 127.8C922.27 127.998 921.746 128.098 921.117 128.098C920.743 128.098 920.39 128.065 920.058 128C919.729 127.938 919.441 127.842 919.194 127.712V126.408C919.441 126.538 919.737 126.649 920.082 126.74C920.431 126.828 920.758 126.872 921.064 126.872C921.363 126.872 921.615 126.833 921.82 126.755C922.026 126.674 922.18 126.55 922.284 126.384C922.392 126.215 922.445 126 922.445 125.739C922.445 125.391 922.328 125.124 922.094 124.938C921.86 124.753 921.5 124.66 921.015 124.66C920.829 124.66 920.636 124.678 920.434 124.714C920.235 124.75 920.069 124.785 919.936 124.821L919.335 124.499L919.604 120.861H923.476V122.141H920.927L920.795 123.542C920.906 123.519 921.026 123.496 921.156 123.474C921.287 123.451 921.469 123.439 921.703 123.439ZM929.819 128H924.828V126.95L926.62 125.139C926.982 124.768 927.271 124.458 927.489 124.211C927.711 123.96 927.87 123.732 927.968 123.527C928.069 123.322 928.119 123.103 928.119 122.868C928.119 122.585 928.04 122.373 927.88 122.233C927.724 122.09 927.514 122.019 927.25 122.019C926.973 122.019 926.705 122.082 926.445 122.209C926.184 122.336 925.912 122.517 925.629 122.751L924.809 121.779C925.014 121.604 925.23 121.438 925.458 121.281C925.689 121.125 925.956 121 926.259 120.905C926.565 120.808 926.931 120.759 927.358 120.759C927.826 120.759 928.228 120.843 928.564 121.013C928.902 121.182 929.163 121.413 929.345 121.706C929.527 121.996 929.618 122.325 929.618 122.692C929.618 123.086 929.54 123.446 929.384 123.771C929.228 124.097 929 124.419 928.7 124.738C928.404 125.057 928.046 125.41 927.626 125.798L926.708 126.662V126.73H929.819V128Z" fill="white"/>
<path d="M700.28 98H817.64V134H700.28V98Z" fill="#642B9E"/>
<path d="M776.842 123.879L776.612 125.012H777.872V126.018H776.422L776.046 128H774.971L775.352 126.018H774.405L774.034 128H772.984L773.345 126.018H772.183V125.012H773.536L773.765 123.879H772.535V122.858H773.946L774.322 120.871H775.391L775.015 122.858H775.982L776.363 120.871H777.413L777.032 122.858H778.204V123.879H776.842ZM774.595 125.012H775.552L775.782 123.879H774.825L774.595 125.012ZM778.78 124.968C778.78 124.558 778.809 124.152 778.868 123.752C778.93 123.348 779.036 122.969 779.185 122.614C779.335 122.256 779.545 121.94 779.815 121.667C780.085 121.39 780.429 121.174 780.845 121.018C781.262 120.858 781.767 120.778 782.359 120.778C782.499 120.778 782.662 120.785 782.847 120.798C783.036 120.808 783.192 120.826 783.316 120.852V122.058C783.186 122.028 783.046 122.006 782.896 121.989C782.75 121.97 782.603 121.96 782.457 121.96C781.864 121.96 781.405 122.054 781.08 122.243C780.758 122.432 780.53 122.694 780.396 123.029C780.266 123.361 780.19 123.749 780.167 124.191H780.23C780.321 124.032 780.435 123.89 780.572 123.767C780.712 123.643 780.881 123.545 781.08 123.474C781.278 123.399 781.511 123.361 781.778 123.361C782.195 123.361 782.556 123.451 782.862 123.63C783.168 123.806 783.404 124.061 783.57 124.396C783.736 124.732 783.819 125.14 783.819 125.622C783.819 126.136 783.72 126.579 783.521 126.95C783.323 127.321 783.041 127.606 782.677 127.805C782.315 128 781.885 128.098 781.387 128.098C781.023 128.098 780.683 128.036 780.367 127.912C780.051 127.785 779.774 127.593 779.537 127.336C779.299 127.079 779.114 126.755 778.98 126.364C778.847 125.97 778.78 125.505 778.78 124.968ZM781.358 126.892C781.654 126.892 781.895 126.791 782.081 126.589C782.266 126.387 782.359 126.071 782.359 125.642C782.359 125.293 782.278 125.02 782.115 124.821C781.955 124.619 781.713 124.519 781.387 124.519C781.166 124.519 780.971 124.569 780.802 124.67C780.635 124.768 780.507 124.893 780.416 125.046C780.325 125.196 780.279 125.35 780.279 125.51C780.279 125.676 780.302 125.84 780.347 126.003C780.393 126.166 780.461 126.314 780.552 126.447C780.644 126.581 780.756 126.688 780.889 126.77C781.026 126.851 781.182 126.892 781.358 126.892ZM789.703 126.521H788.844V128H787.369V126.521H784.322V125.471L787.452 120.861H788.844V125.349H789.703V126.521ZM787.369 125.349V124.138C787.369 124.024 787.371 123.889 787.374 123.732C787.38 123.576 787.387 123.42 787.393 123.264C787.4 123.107 787.406 122.969 787.413 122.849C787.423 122.725 787.429 122.639 787.432 122.59H787.393C787.331 122.723 787.266 122.854 787.198 122.98C787.13 123.104 787.05 123.234 786.959 123.371L785.65 125.349H787.369ZM795.264 128H790.274V126.95L792.066 125.139C792.427 124.768 792.717 124.458 792.935 124.211C793.157 123.96 793.316 123.732 793.414 123.527C793.515 123.322 793.565 123.103 793.565 122.868C793.565 122.585 793.485 122.373 793.326 122.233C793.17 122.09 792.96 122.019 792.696 122.019C792.419 122.019 792.151 122.082 791.89 122.209C791.63 122.336 791.358 122.517 791.075 122.751L790.255 121.779C790.46 121.604 790.676 121.438 790.904 121.281C791.135 121.125 791.402 121 791.705 120.905C792.011 120.808 792.377 120.759 792.803 120.759C793.272 120.759 793.674 120.843 794.01 121.013C794.348 121.182 794.608 121.413 794.791 121.706C794.973 121.996 795.064 122.325 795.064 122.692C795.064 123.086 794.986 123.446 794.83 123.771C794.674 124.097 794.446 124.419 794.146 124.738C793.85 125.057 793.492 125.41 793.072 125.798L792.154 126.662V126.73H795.264V128ZM796.495 120.861H798.717C799.667 120.861 800.386 120.995 800.875 121.262C801.363 121.529 801.607 121.997 801.607 122.668C801.607 122.938 801.563 123.182 801.475 123.4C801.391 123.618 801.267 123.798 801.104 123.938C800.941 124.077 800.743 124.169 800.509 124.211V124.26C800.746 124.309 800.961 124.393 801.153 124.514C801.345 124.631 801.498 124.803 801.612 125.031C801.729 125.256 801.788 125.555 801.788 125.93C801.788 126.363 801.682 126.734 801.47 127.043C801.259 127.352 800.956 127.59 800.562 127.756C800.172 127.919 799.706 128 799.166 128H796.495V120.861ZM798.009 123.688H798.887C799.327 123.688 799.631 123.62 799.801 123.483C799.97 123.343 800.054 123.138 800.054 122.868C800.054 122.595 799.954 122.399 799.752 122.282C799.553 122.162 799.237 122.102 798.804 122.102H798.009V123.688ZM798.009 124.89V126.75H798.995C799.451 126.75 799.768 126.662 799.947 126.486C800.126 126.311 800.216 126.075 800.216 125.778C800.216 125.603 800.177 125.448 800.098 125.314C800.02 125.181 799.888 125.077 799.703 125.002C799.521 124.927 799.268 124.89 798.946 124.89H798.009ZM807.677 123.908C807.677 124.318 807.646 124.725 807.584 125.129C807.525 125.533 807.421 125.913 807.271 126.271C807.122 126.626 806.912 126.942 806.641 127.219C806.371 127.492 806.028 127.707 805.611 127.863C805.194 128.02 804.69 128.098 804.097 128.098C803.957 128.098 803.793 128.091 803.604 128.078C803.415 128.068 803.259 128.052 803.135 128.029V126.818C803.266 126.851 803.404 126.877 803.551 126.896C803.697 126.913 803.845 126.921 803.995 126.921C804.591 126.921 805.05 126.826 805.372 126.638C805.697 126.449 805.925 126.187 806.055 125.852C806.189 125.516 806.265 125.129 806.285 124.689H806.226C806.132 124.846 806.02 124.987 805.889 125.114C805.762 125.238 805.6 125.337 805.401 125.412C805.203 125.484 804.95 125.52 804.644 125.52C804.237 125.52 803.883 125.432 803.58 125.256C803.28 125.077 803.048 124.82 802.882 124.484C802.719 124.146 802.637 123.737 802.637 123.259C802.637 122.741 802.735 122.299 802.93 121.931C803.129 121.56 803.411 121.275 803.775 121.076C804.14 120.878 804.569 120.778 805.064 120.778C805.429 120.778 805.769 120.842 806.085 120.969C806.4 121.092 806.677 121.283 806.915 121.54C807.156 121.797 807.343 122.123 807.476 122.517C807.61 122.91 807.677 123.374 807.677 123.908ZM805.094 121.989C804.801 121.989 804.561 122.09 804.376 122.292C804.19 122.494 804.097 122.81 804.097 123.239C804.097 123.584 804.177 123.858 804.337 124.06C804.496 124.261 804.739 124.362 805.064 124.362C805.289 124.362 805.484 124.313 805.65 124.216C805.816 124.115 805.945 123.99 806.036 123.84C806.13 123.687 806.177 123.531 806.177 123.371C806.177 123.205 806.155 123.041 806.109 122.878C806.064 122.715 805.995 122.567 805.904 122.434C805.813 122.3 805.699 122.193 805.562 122.111C805.429 122.03 805.273 121.989 805.094 121.989ZM813.048 128H808.936V120.861H813.048V122.102H810.45V123.669H812.867V124.909H810.45V126.75H813.048V128Z" fill="white"/>
<path d="M583.89 98H700.28V134H583.89V98Z" fill="#7D3CBE"/>
<path d="M658.512 123.879L658.282 125.012H659.542V126.018H658.092L657.716 128H656.642L657.022 126.018H656.075L655.704 128H654.654L655.016 126.018H653.854V125.012H655.206L655.436 123.879H654.205V122.858H655.616L655.992 120.871H657.062L656.686 122.858H657.652L658.033 120.871H659.083L658.702 122.858H659.874V123.879H658.512ZM656.266 125.012H657.223L657.452 123.879H656.495L656.266 125.012ZM661.207 128L663.888 122.131H660.367V120.861H665.489V121.809L662.789 128H661.207ZM672.643 124.362C672.643 125.166 672.488 125.839 672.179 126.379C671.873 126.916 671.428 127.321 670.846 127.595C670.263 127.865 669.562 128 668.741 128H666.72V120.861H668.961C669.71 120.861 670.359 120.995 670.909 121.262C671.459 121.525 671.886 121.918 672.188 122.438C672.491 122.956 672.643 123.597 672.643 124.362ZM671.07 124.401C671.07 123.874 670.992 123.441 670.836 123.103C670.683 122.761 670.455 122.508 670.152 122.346C669.853 122.183 669.482 122.102 669.039 122.102H668.233V126.75H668.883C669.622 126.75 670.17 126.553 670.528 126.159C670.89 125.765 671.07 125.179 671.07 124.401ZM678.336 122.458C678.336 122.787 678.268 123.072 678.131 123.312C677.994 123.553 677.809 123.75 677.574 123.903C677.343 124.056 677.083 124.169 676.793 124.24V124.27C677.366 124.341 677.8 124.517 678.097 124.797C678.396 125.077 678.546 125.451 678.546 125.92C678.546 126.337 678.443 126.709 678.238 127.038C678.036 127.367 677.724 127.626 677.301 127.814C676.878 128.003 676.332 128.098 675.665 128.098C675.271 128.098 674.903 128.065 674.562 128C674.223 127.938 673.904 127.842 673.604 127.712V126.428C673.91 126.584 674.231 126.703 674.566 126.784C674.902 126.862 675.214 126.901 675.504 126.901C676.044 126.901 676.422 126.809 676.637 126.623C676.855 126.434 676.964 126.171 676.964 125.832C676.964 125.633 676.913 125.466 676.812 125.329C676.712 125.192 676.536 125.088 676.285 125.017C676.038 124.945 675.691 124.909 675.245 124.909H674.703V123.752H675.255C675.694 123.752 676.028 123.711 676.256 123.63C676.487 123.545 676.643 123.431 676.725 123.288C676.809 123.142 676.852 122.976 676.852 122.79C676.852 122.536 676.773 122.338 676.617 122.194C676.461 122.051 676.201 121.979 675.836 121.979C675.608 121.979 675.4 122.009 675.211 122.067C675.025 122.123 674.858 122.191 674.708 122.272C674.558 122.351 674.426 122.427 674.312 122.502L673.614 121.462C673.894 121.26 674.221 121.092 674.596 120.959C674.973 120.826 675.423 120.759 675.943 120.759C676.679 120.759 677.262 120.907 677.691 121.203C678.121 121.499 678.336 121.918 678.336 122.458ZM682.877 122.019C682.587 122.019 682.33 122.076 682.105 122.189C681.884 122.3 681.697 122.461 681.544 122.673C681.394 122.884 681.28 123.14 681.202 123.439C681.124 123.739 681.085 124.076 681.085 124.45C681.085 124.955 681.147 125.386 681.271 125.744C681.397 126.099 681.593 126.371 681.856 126.56C682.12 126.745 682.46 126.838 682.877 126.838C683.167 126.838 683.456 126.805 683.746 126.74C684.039 126.675 684.356 126.582 684.698 126.462V127.731C684.382 127.862 684.072 127.954 683.766 128.01C683.46 128.068 683.116 128.098 682.735 128.098C682 128.098 681.394 127.946 680.919 127.644C680.447 127.338 680.097 126.911 679.869 126.364C679.641 125.814 679.527 125.173 679.527 124.44C679.527 123.9 679.601 123.405 679.747 122.956C679.894 122.507 680.108 122.118 680.392 121.789C680.675 121.46 681.025 121.206 681.441 121.027C681.858 120.848 682.337 120.759 682.877 120.759C683.232 120.759 683.587 120.804 683.941 120.896C684.299 120.983 684.641 121.105 684.967 121.262L684.479 122.492C684.212 122.365 683.943 122.255 683.673 122.16C683.403 122.066 683.137 122.019 682.877 122.019ZM686.222 120.861H688.443C689.394 120.861 690.113 120.995 690.602 121.262C691.09 121.529 691.334 121.997 691.334 122.668C691.334 122.938 691.29 123.182 691.202 123.4C691.118 123.618 690.994 123.798 690.831 123.938C690.668 124.077 690.47 124.169 690.235 124.211V124.26C690.473 124.309 690.688 124.393 690.88 124.514C691.072 124.631 691.225 124.803 691.339 125.031C691.456 125.256 691.515 125.555 691.515 125.93C691.515 126.363 691.409 126.734 691.197 127.043C690.986 127.352 690.683 127.59 690.289 127.756C689.898 127.919 689.433 128 688.893 128H686.222V120.861ZM687.735 123.688H688.614C689.054 123.688 689.358 123.62 689.527 123.483C689.697 123.343 689.781 123.138 689.781 122.868C689.781 122.595 689.68 122.399 689.479 122.282C689.28 122.162 688.964 122.102 688.531 122.102H687.735V123.688ZM687.735 124.89V126.75H688.722C689.177 126.75 689.495 126.662 689.674 126.486C689.853 126.311 689.942 126.075 689.942 125.778C689.942 125.603 689.903 125.448 689.825 125.314C689.747 125.181 689.615 125.077 689.43 125.002C689.247 124.927 688.995 124.89 688.673 124.89H687.735ZM697.052 128H692.94V120.861H697.052V122.102H694.454V123.669H696.871V124.909H694.454V126.75H697.052V128Z" fill="white"/>
<path d="M467.5 98H583.89V134H467.5V98Z" fill="#9756D6"/>
<path d="M544.061 123.879L543.832 125.012H545.092V126.018H543.642L543.266 128H542.191L542.572 126.018H541.625L541.254 128H540.204L540.565 126.018H539.403V125.012H540.756L540.985 123.879H539.755V122.858H541.166L541.542 120.871H542.611L542.235 122.858H543.202L543.583 120.871H544.633L544.252 122.858H545.424V123.879H544.061ZM541.815 125.012H542.772L543.002 123.879H542.045L541.815 125.012ZM551.01 123.908C551.01 124.318 550.979 124.725 550.917 125.129C550.858 125.533 550.754 125.913 550.604 126.271C550.455 126.626 550.245 126.942 549.975 127.219C549.704 127.492 549.361 127.707 548.944 127.863C548.528 128.02 548.023 128.098 547.431 128.098C547.291 128.098 547.126 128.091 546.937 128.078C546.749 128.068 546.592 128.052 546.469 128.029V126.818C546.599 126.851 546.737 126.877 546.884 126.896C547.03 126.913 547.178 126.921 547.328 126.921C547.924 126.921 548.383 126.826 548.705 126.638C549.031 126.449 549.258 126.187 549.389 125.852C549.522 125.516 549.599 125.129 549.618 124.689H549.56C549.465 124.846 549.353 124.987 549.223 125.114C549.096 125.238 548.933 125.337 548.734 125.412C548.536 125.484 548.283 125.52 547.977 125.52C547.571 125.52 547.216 125.432 546.913 125.256C546.614 125.077 546.381 124.82 546.215 124.484C546.052 124.146 545.971 123.737 545.971 123.259C545.971 122.741 546.068 122.299 546.264 121.931C546.462 121.56 546.744 121.275 547.108 121.076C547.473 120.878 547.903 120.778 548.397 120.778C548.762 120.778 549.102 120.842 549.418 120.969C549.734 121.092 550.01 121.283 550.248 121.54C550.489 121.797 550.676 122.123 550.81 122.517C550.943 122.91 551.01 123.374 551.01 123.908ZM548.427 121.989C548.134 121.989 547.894 122.09 547.709 122.292C547.523 122.494 547.431 122.81 547.431 123.239C547.431 123.584 547.51 123.858 547.67 124.06C547.829 124.261 548.072 124.362 548.397 124.362C548.622 124.362 548.817 124.313 548.983 124.216C549.149 124.115 549.278 123.99 549.369 123.84C549.463 123.687 549.511 123.531 549.511 123.371C549.511 123.205 549.488 123.041 549.442 122.878C549.397 122.715 549.328 122.567 549.237 122.434C549.146 122.3 549.032 122.193 548.895 122.111C548.762 122.03 548.606 121.989 548.427 121.989ZM552.479 128L555.16 122.131H551.64V120.861H556.762V121.809L554.061 128H552.479ZM560.092 123.439C560.528 123.439 560.915 123.522 561.254 123.688C561.596 123.854 561.864 124.099 562.06 124.421C562.255 124.743 562.352 125.14 562.352 125.612C562.352 126.127 562.245 126.571 562.03 126.945C561.819 127.316 561.501 127.601 561.078 127.8C560.658 127.998 560.134 128.098 559.506 128.098C559.131 128.098 558.778 128.065 558.446 128C558.117 127.938 557.829 127.842 557.582 127.712V126.408C557.829 126.538 558.126 126.649 558.471 126.74C558.819 126.828 559.146 126.872 559.452 126.872C559.752 126.872 560.004 126.833 560.209 126.755C560.414 126.674 560.569 126.55 560.673 126.384C560.78 126.215 560.834 126 560.834 125.739C560.834 125.391 560.717 125.124 560.482 124.938C560.248 124.753 559.888 124.66 559.403 124.66C559.218 124.66 559.024 124.678 558.822 124.714C558.624 124.75 558.458 124.785 558.324 124.821L557.724 124.499L557.992 120.861H561.864V122.141H559.315L559.184 123.542C559.294 123.519 559.415 123.496 559.545 123.474C559.675 123.451 559.857 123.439 560.092 123.439ZM563.168 124.968C563.168 124.558 563.197 124.152 563.256 123.752C563.318 123.348 563.423 122.969 563.573 122.614C563.723 122.256 563.933 121.94 564.203 121.667C564.473 121.39 564.817 121.174 565.233 121.018C565.65 120.858 566.155 120.778 566.747 120.778C566.887 120.778 567.05 120.785 567.235 120.798C567.424 120.808 567.58 120.826 567.704 120.852V122.058C567.574 122.028 567.434 122.006 567.284 121.989C567.138 121.97 566.991 121.96 566.845 121.96C566.252 121.96 565.793 122.054 565.468 122.243C565.145 122.432 564.918 122.694 564.784 123.029C564.654 123.361 564.577 123.749 564.555 124.191H564.618C564.709 124.032 564.823 123.89 564.96 123.767C565.1 123.643 565.269 123.545 565.468 123.474C565.666 123.399 565.899 123.361 566.166 123.361C566.583 123.361 566.944 123.451 567.25 123.63C567.556 123.806 567.792 124.061 567.958 124.396C568.124 124.732 568.207 125.14 568.207 125.622C568.207 126.136 568.108 126.579 567.909 126.95C567.711 127.321 567.429 127.606 567.064 127.805C566.703 128 566.273 128.098 565.775 128.098C565.411 128.098 565.071 128.036 564.755 127.912C564.439 127.785 564.162 127.593 563.925 127.336C563.687 127.079 563.502 126.755 563.368 126.364C563.235 125.97 563.168 125.505 563.168 124.968ZM565.746 126.892C566.042 126.892 566.283 126.791 566.469 126.589C566.654 126.387 566.747 126.071 566.747 125.642C566.747 125.293 566.666 125.02 566.503 124.821C566.343 124.619 566.101 124.519 565.775 124.519C565.554 124.519 565.359 124.569 565.189 124.67C565.023 124.768 564.895 124.893 564.804 125.046C564.713 125.196 564.667 125.35 564.667 125.51C564.667 125.676 564.69 125.84 564.735 126.003C564.781 126.166 564.849 126.314 564.94 126.447C565.032 126.581 565.144 126.688 565.277 126.77C565.414 126.851 565.57 126.892 565.746 126.892ZM575.36 124.362C575.36 125.166 575.206 125.839 574.896 126.379C574.59 126.916 574.146 127.321 573.563 127.595C572.981 127.865 572.279 128 571.459 128H569.437V120.861H571.679C572.427 120.861 573.077 120.995 573.627 121.262C574.177 121.525 574.603 121.918 574.906 122.438C575.209 122.956 575.36 123.597 575.36 124.362ZM573.788 124.401C573.788 123.874 573.71 123.441 573.554 123.103C573.401 122.761 573.173 122.508 572.87 122.346C572.571 122.183 572.199 122.102 571.757 122.102H570.951V126.75H571.601C572.339 126.75 572.888 126.553 573.246 126.159C573.607 125.765 573.788 125.179 573.788 124.401ZM576.293 124.968C576.293 124.558 576.322 124.152 576.381 123.752C576.443 123.348 576.548 122.969 576.698 122.614C576.848 122.256 577.058 121.94 577.328 121.667C577.598 121.39 577.942 121.174 578.358 121.018C578.775 120.858 579.28 120.778 579.872 120.778C580.012 120.778 580.175 120.785 580.36 120.798C580.549 120.808 580.705 120.826 580.829 120.852V122.058C580.699 122.028 580.559 122.006 580.409 121.989C580.263 121.97 580.116 121.96 579.97 121.96C579.377 121.96 578.918 122.054 578.593 122.243C578.27 122.432 578.043 122.694 577.909 123.029C577.779 123.361 577.702 123.749 577.68 124.191H577.743C577.834 124.032 577.948 123.89 578.085 123.767C578.225 123.643 578.394 123.545 578.593 123.474C578.791 123.399 579.024 123.361 579.291 123.361C579.708 123.361 580.069 123.451 580.375 123.63C580.681 123.806 580.917 124.061 581.083 124.396C581.249 124.732 581.332 125.14 581.332 125.622C581.332 126.136 581.233 126.579 581.034 126.95C580.836 127.321 580.554 127.606 580.189 127.805C579.828 128 579.398 128.098 578.9 128.098C578.536 128.098 578.196 128.036 577.88 127.912C577.564 127.785 577.287 127.593 577.05 127.336C576.812 127.079 576.627 126.755 576.493 126.364C576.36 125.97 576.293 125.505 576.293 124.968ZM578.871 126.892C579.167 126.892 579.408 126.791 579.594 126.589C579.779 126.387 579.872 126.071 579.872 125.642C579.872 125.293 579.791 125.02 579.628 124.821C579.468 124.619 579.226 124.519 578.9 124.519C578.679 124.519 578.484 124.569 578.314 124.67C578.148 124.768 578.02 124.893 577.929 125.046C577.838 125.196 577.792 125.35 577.792 125.51C577.792 125.676 577.815 125.84 577.86 126.003C577.906 126.166 577.974 126.314 578.065 126.447C578.157 126.581 578.269 126.688 578.402 126.77C578.539 126.851 578.695 126.892 578.871 126.892Z" fill="white"/>
<path d="M350.14 98H467.5V134H350.14V98Z" fill="#C79BF2"/>
<path d="M426.702 123.879L426.472 125.012H427.732V126.018H426.282L425.906 128H424.831L425.212 126.018H424.265L423.894 128H422.844L423.205 126.018H422.043V125.012H423.396L423.625 123.879H422.395V122.858H423.806L424.182 120.871H425.251L424.875 122.858H425.842L426.223 120.871H427.273L426.892 122.858H428.064V123.879H426.702ZM424.455 125.012H425.412L425.642 123.879H424.685L424.455 125.012ZM432.219 122.019C431.929 122.019 431.672 122.076 431.448 122.189C431.226 122.3 431.039 122.461 430.886 122.673C430.736 122.884 430.622 123.14 430.544 123.439C430.466 123.739 430.427 124.076 430.427 124.45C430.427 124.955 430.489 125.386 430.613 125.744C430.74 126.099 430.935 126.371 431.199 126.56C431.462 126.745 431.802 126.838 432.219 126.838C432.509 126.838 432.799 126.805 433.088 126.74C433.381 126.675 433.699 126.582 434.04 126.462V127.731C433.725 127.862 433.414 127.954 433.108 128.01C432.802 128.068 432.458 128.098 432.077 128.098C431.342 128.098 430.736 127.946 430.261 127.644C429.789 127.338 429.439 126.911 429.211 126.364C428.983 125.814 428.869 125.173 428.869 124.44C428.869 123.9 428.943 123.405 429.089 122.956C429.236 122.507 429.451 122.118 429.734 121.789C430.017 121.46 430.367 121.206 430.784 121.027C431.2 120.848 431.679 120.759 432.219 120.759C432.574 120.759 432.929 120.804 433.284 120.896C433.642 120.983 433.983 121.105 434.309 121.262L433.821 122.492C433.554 122.365 433.285 122.255 433.015 122.16C432.745 122.066 432.48 122.019 432.219 122.019ZM435.774 128L438.454 122.131H434.934V120.861H440.056V121.809L437.356 128H435.774ZM445.749 123.908C445.749 124.318 445.718 124.725 445.657 125.129C445.598 125.533 445.494 125.913 445.344 126.271C445.194 126.626 444.984 126.942 444.714 127.219C444.444 127.492 444.101 127.707 443.684 127.863C443.267 128.02 442.763 128.098 442.17 128.098C442.03 128.098 441.866 128.091 441.677 128.078C441.488 128.068 441.332 128.052 441.208 128.029V126.818C441.339 126.851 441.477 126.877 441.623 126.896C441.77 126.913 441.918 126.921 442.068 126.921C442.663 126.921 443.122 126.826 443.445 126.638C443.77 126.449 443.998 126.187 444.128 125.852C444.262 125.516 444.338 125.129 444.358 124.689H444.299C444.205 124.846 444.092 124.987 443.962 125.114C443.835 125.238 443.673 125.337 443.474 125.412C443.275 125.484 443.023 125.52 442.717 125.52C442.31 125.52 441.955 125.432 441.653 125.256C441.353 125.077 441.12 124.82 440.954 124.484C440.792 124.146 440.71 123.737 440.71 123.259C440.71 122.741 440.808 122.299 441.003 121.931C441.202 121.56 441.483 121.275 441.848 121.076C442.213 120.878 442.642 120.778 443.137 120.778C443.502 120.778 443.842 120.842 444.158 120.969C444.473 121.092 444.75 121.283 444.988 121.54C445.229 121.797 445.416 122.123 445.549 122.517C445.683 122.91 445.749 123.374 445.749 123.908ZM443.166 121.989C442.873 121.989 442.634 122.09 442.449 122.292C442.263 122.494 442.17 122.81 442.17 123.239C442.17 123.584 442.25 123.858 442.41 124.06C442.569 124.261 442.812 124.362 443.137 124.362C443.362 124.362 443.557 124.313 443.723 124.216C443.889 124.115 444.018 123.99 444.109 123.84C444.203 123.687 444.25 123.531 444.25 123.371C444.25 123.205 444.228 123.041 444.182 122.878C444.136 122.715 444.068 122.567 443.977 122.434C443.886 122.3 443.772 122.193 443.635 122.111C443.502 122.03 443.345 121.989 443.166 121.989ZM447.009 120.861H449.231C450.181 120.861 450.901 120.995 451.389 121.262C451.877 121.529 452.121 121.997 452.121 122.668C452.121 122.938 452.077 123.182 451.99 123.4C451.905 123.618 451.781 123.798 451.618 123.938C451.456 124.077 451.257 124.169 451.023 124.211V124.26C451.26 124.309 451.475 124.393 451.667 124.514C451.859 124.631 452.012 124.803 452.126 125.031C452.243 125.256 452.302 125.555 452.302 125.93C452.302 126.363 452.196 126.734 451.985 127.043C451.773 127.352 451.47 127.59 451.077 127.756C450.686 127.919 450.22 128 449.68 128H447.009V120.861ZM448.523 123.688H449.402C449.841 123.688 450.146 123.62 450.315 123.483C450.484 123.343 450.569 123.138 450.569 122.868C450.569 122.595 450.468 122.399 450.266 122.282C450.067 122.162 449.752 122.102 449.319 122.102H448.523V123.688ZM448.523 124.89V126.75H449.509C449.965 126.75 450.282 126.662 450.461 126.486C450.64 126.311 450.73 126.075 450.73 125.778C450.73 125.603 450.691 125.448 450.613 125.314C450.535 125.181 450.403 125.077 450.217 125.002C450.035 124.927 449.783 124.89 449.46 124.89H448.523ZM455.217 128H453.728V120.861H457.82V122.102H455.217V123.942H457.639V125.178H455.217V128ZM463.708 128H458.718V126.95L460.51 125.139C460.871 124.768 461.161 124.458 461.379 124.211C461.601 123.96 461.76 123.732 461.858 123.527C461.959 123.322 462.009 123.103 462.009 122.868C462.009 122.585 461.929 122.373 461.77 122.233C461.614 122.09 461.404 122.019 461.14 122.019C460.863 122.019 460.595 122.082 460.334 122.209C460.074 122.336 459.802 122.517 459.519 122.751L458.699 121.779C458.904 121.604 459.12 121.438 459.348 121.281C459.579 121.125 459.846 121 460.149 120.905C460.455 120.808 460.821 120.759 461.247 120.759C461.716 120.759 462.118 120.843 462.453 121.013C462.792 121.182 463.052 121.413 463.235 121.706C463.417 121.996 463.508 122.325 463.508 122.692C463.508 123.086 463.43 123.446 463.274 123.771C463.118 124.097 462.89 124.419 462.59 124.738C462.294 125.057 461.936 125.41 461.516 125.798L460.598 126.662V126.73H463.708V128Z" fill="#2C3437"/>
<path d="M233.75 98H350.14V134H233.75V98Z" fill="#DBBDF9"/>
<path d="M302.878 123.879L302.648 125.012H303.908V126.018H302.458L302.082 128H301.008L301.389 126.018H300.441L300.07 128H299.021L299.382 126.018H298.22V125.012H299.572L299.802 123.879H298.571V122.858H299.982L300.358 120.871H301.428L301.052 122.858H302.019L302.399 120.871H303.449L303.068 122.858H304.24V123.879H302.878ZM300.632 125.012H301.589L301.818 123.879H300.861L300.632 125.012ZM311.286 124.362C311.286 125.166 311.132 125.839 310.822 126.379C310.516 126.916 310.072 127.321 309.489 127.595C308.907 127.865 308.205 128 307.385 128H305.363V120.861H307.604C308.353 120.861 309.003 120.995 309.553 121.262C310.103 121.525 310.529 121.918 310.832 122.438C311.135 122.956 311.286 123.597 311.286 124.362ZM309.714 124.401C309.714 123.874 309.636 123.441 309.479 123.103C309.326 122.761 309.099 122.508 308.796 122.346C308.496 122.183 308.125 122.102 307.683 122.102H306.877V126.75H307.526C308.265 126.75 308.814 126.553 309.172 126.159C309.533 125.765 309.714 125.179 309.714 124.401ZM312.766 120.861H314.987C315.938 120.861 316.657 120.995 317.146 121.262C317.634 121.529 317.878 121.997 317.878 122.668C317.878 122.938 317.834 123.182 317.746 123.4C317.661 123.618 317.538 123.798 317.375 123.938C317.212 124.077 317.014 124.169 316.779 124.211V124.26C317.017 124.309 317.232 124.393 317.424 124.514C317.616 124.631 317.769 124.803 317.883 125.031C318 125.256 318.059 125.555 318.059 125.93C318.059 126.363 317.953 126.734 317.741 127.043C317.53 127.352 317.227 127.59 316.833 127.756C316.442 127.919 315.977 128 315.437 128H312.766V120.861ZM314.279 123.688H315.158C315.598 123.688 315.902 123.62 316.071 123.483C316.241 123.343 316.325 123.138 316.325 122.868C316.325 122.595 316.224 122.399 316.022 122.282C315.824 122.162 315.508 122.102 315.075 122.102H314.279V123.688ZM314.279 124.89V126.75H315.266C315.721 126.75 316.039 126.662 316.218 126.486C316.397 126.311 316.486 126.075 316.486 125.778C316.486 125.603 316.447 125.448 316.369 125.314C316.291 125.181 316.159 125.077 315.974 125.002C315.791 124.927 315.539 124.89 315.217 124.89H314.279ZM319.484 120.861H321.706C322.657 120.861 323.376 120.995 323.864 121.262C324.353 121.529 324.597 121.997 324.597 122.668C324.597 122.938 324.553 123.182 324.465 123.4C324.38 123.618 324.257 123.798 324.094 123.938C323.931 124.077 323.732 124.169 323.498 124.211V124.26C323.736 124.309 323.951 124.393 324.143 124.514C324.335 124.631 324.488 124.803 324.602 125.031C324.719 125.256 324.777 125.555 324.777 125.93C324.777 126.363 324.672 126.734 324.46 127.043C324.248 127.352 323.946 127.59 323.552 127.756C323.161 127.919 322.696 128 322.155 128H319.484V120.861ZM320.998 123.688H321.877C322.316 123.688 322.621 123.62 322.79 123.483C322.959 123.343 323.044 123.138 323.044 122.868C323.044 122.595 322.943 122.399 322.741 122.282C322.543 122.162 322.227 122.102 321.794 122.102H320.998V123.688ZM320.998 124.89V126.75H321.984C322.44 126.75 322.757 126.662 322.937 126.486C323.116 126.311 323.205 126.075 323.205 125.778C323.205 125.603 323.166 125.448 323.088 125.314C323.01 125.181 322.878 125.077 322.692 125.002C322.51 124.927 322.258 124.89 321.936 124.89H320.998ZM332.126 124.362C332.126 125.166 331.971 125.839 331.662 126.379C331.356 126.916 330.912 127.321 330.329 127.595C329.746 127.865 329.045 128 328.225 128H326.203V120.861H328.444C329.193 120.861 329.842 120.995 330.393 121.262C330.943 121.525 331.369 121.918 331.672 122.438C331.975 122.956 332.126 123.597 332.126 124.362ZM330.554 124.401C330.554 123.874 330.476 123.441 330.319 123.103C330.166 122.761 329.938 122.508 329.636 122.346C329.336 122.183 328.965 122.102 328.522 122.102H327.717V126.75H328.366C329.105 126.75 329.654 126.553 330.012 126.159C330.373 125.765 330.554 125.179 330.554 124.401ZM335.095 128H333.605V120.861H337.697V122.102H335.095V123.942H337.517V125.178H335.095V128ZM343.557 123.908C343.557 124.318 343.526 124.725 343.464 125.129C343.405 125.533 343.301 125.913 343.151 126.271C343.002 126.626 342.792 126.942 342.521 127.219C342.251 127.492 341.908 127.707 341.491 127.863C341.075 128.02 340.57 128.098 339.978 128.098C339.838 128.098 339.673 128.091 339.484 128.078C339.296 128.068 339.139 128.052 339.016 128.029V126.818C339.146 126.851 339.284 126.877 339.431 126.896C339.577 126.913 339.725 126.921 339.875 126.921C340.471 126.921 340.93 126.826 341.252 126.638C341.577 126.449 341.805 126.187 341.936 125.852C342.069 125.516 342.146 125.129 342.165 124.689H342.106C342.012 124.846 341.9 124.987 341.77 125.114C341.643 125.238 341.48 125.337 341.281 125.412C341.083 125.484 340.83 125.52 340.524 125.52C340.118 125.52 339.763 125.432 339.46 125.256C339.16 125.077 338.928 124.82 338.762 124.484C338.599 124.146 338.518 123.737 338.518 123.259C338.518 122.741 338.615 122.299 338.811 121.931C339.009 121.56 339.291 121.275 339.655 121.076C340.02 120.878 340.45 120.778 340.944 120.778C341.309 120.778 341.649 120.842 341.965 120.969C342.281 121.092 342.557 121.283 342.795 121.54C343.036 121.797 343.223 122.123 343.356 122.517C343.49 122.91 343.557 123.374 343.557 123.908ZM340.974 121.989C340.681 121.989 340.441 122.09 340.256 122.292C340.07 122.494 339.978 122.81 339.978 123.239C339.978 123.584 340.057 123.858 340.217 124.06C340.376 124.261 340.619 124.362 340.944 124.362C341.169 124.362 341.364 124.313 341.53 124.216C341.696 124.115 341.825 123.99 341.916 123.84C342.01 123.687 342.058 123.531 342.058 123.371C342.058 123.205 342.035 123.041 341.989 122.878C341.944 122.715 341.875 122.567 341.784 122.434C341.693 122.3 341.579 122.193 341.442 122.111C341.309 122.03 341.153 121.989 340.974 121.989Z" fill="#2C3437"/>
<path d="M116.39 98H233.75V134H116.39V98Z" fill="#EAD9FB"/>
<path d="M191.012 122.879L190.782 124.012H192.042V125.018H190.592L190.216 127H189.142L189.522 125.018H188.575L188.204 127H187.154L187.516 125.018H186.353V124.012H187.706L187.936 122.879H186.705V121.858H188.116L188.492 119.871H189.561L189.186 121.858H190.152L190.533 119.871H191.583L191.202 121.858H192.374V122.879H191.012ZM188.766 124.012H189.723L189.952 122.879H188.995L188.766 124.012ZM197.608 127H193.497V119.861H197.608V121.102H195.011V122.669H197.428V123.909H195.011V125.75H197.608V127ZM203.473 127L202.955 125.301H200.353L199.835 127H198.204L200.724 119.832H202.574L205.103 127H203.473ZM202.594 124.031L202.076 122.371C202.044 122.26 202 122.119 201.944 121.946C201.892 121.771 201.839 121.593 201.783 121.414C201.731 121.232 201.689 121.074 201.656 120.94C201.624 121.074 201.578 121.24 201.52 121.438C201.464 121.634 201.41 121.819 201.358 121.995C201.306 122.171 201.269 122.296 201.246 122.371L200.733 124.031H202.594ZM211.93 123.362C211.93 124.166 211.775 124.839 211.466 125.379C211.16 125.916 210.715 126.321 210.133 126.595C209.55 126.865 208.849 127 208.028 127H206.007V119.861H208.248C208.997 119.861 209.646 119.995 210.196 120.262C210.746 120.525 211.173 120.918 211.476 121.438C211.778 121.956 211.93 122.597 211.93 123.362ZM210.357 123.401C210.357 122.874 210.279 122.441 210.123 122.103C209.97 121.761 209.742 121.508 209.439 121.346C209.14 121.183 208.769 121.102 208.326 121.102H207.52V125.75H208.17C208.909 125.75 209.457 125.553 209.815 125.159C210.177 124.765 210.357 124.179 210.357 123.401ZM217.872 122.908C217.872 123.318 217.841 123.725 217.779 124.129C217.721 124.533 217.617 124.913 217.467 125.271C217.317 125.626 217.107 125.942 216.837 126.219C216.567 126.492 216.223 126.707 215.807 126.863C215.39 127.02 214.885 127.098 214.293 127.098C214.153 127.098 213.989 127.091 213.8 127.078C213.611 127.068 213.455 127.052 213.331 127.029V125.818C213.461 125.851 213.6 125.877 213.746 125.896C213.893 125.913 214.041 125.921 214.19 125.921C214.786 125.921 215.245 125.826 215.567 125.638C215.893 125.449 216.121 125.187 216.251 124.852C216.384 124.516 216.461 124.129 216.48 123.689H216.422C216.327 123.846 216.215 123.987 216.085 124.114C215.958 124.238 215.795 124.337 215.597 124.412C215.398 124.484 215.146 124.52 214.84 124.52C214.433 124.52 214.078 124.432 213.775 124.256C213.476 124.077 213.243 123.82 213.077 123.484C212.914 123.146 212.833 122.737 212.833 122.259C212.833 121.741 212.931 121.299 213.126 120.931C213.325 120.56 213.606 120.275 213.971 120.076C214.335 119.878 214.765 119.778 215.26 119.778C215.624 119.778 215.964 119.842 216.28 119.969C216.596 120.092 216.873 120.283 217.11 120.54C217.351 120.797 217.538 121.123 217.672 121.517C217.805 121.91 217.872 122.374 217.872 122.908ZM215.289 120.989C214.996 120.989 214.757 121.09 214.571 121.292C214.386 121.494 214.293 121.81 214.293 122.239C214.293 122.584 214.373 122.858 214.532 123.06C214.692 123.261 214.934 123.362 215.26 123.362C215.484 123.362 215.68 123.313 215.846 123.216C216.012 123.115 216.14 122.99 216.231 122.84C216.326 122.687 216.373 122.531 216.373 122.371C216.373 122.205 216.35 122.041 216.305 121.878C216.259 121.715 216.191 121.567 216.1 121.434C216.008 121.3 215.895 121.193 215.758 121.111C215.624 121.03 215.468 120.989 215.289 120.989ZM220.621 127H219.132V119.861H223.224V121.102H220.621V122.942H223.043V124.178H220.621V127ZM224.62 119.861H226.842C227.792 119.861 228.512 119.995 229 120.262C229.488 120.529 229.732 120.997 229.732 121.668C229.732 121.938 229.688 122.182 229.601 122.4C229.516 122.618 229.392 122.798 229.229 122.938C229.067 123.077 228.868 123.169 228.634 123.211V123.26C228.871 123.309 229.086 123.393 229.278 123.514C229.47 123.631 229.623 123.803 229.737 124.031C229.854 124.256 229.913 124.555 229.913 124.93C229.913 125.363 229.807 125.734 229.596 126.043C229.384 126.352 229.081 126.59 228.687 126.756C228.297 126.919 227.831 127 227.291 127H224.62V119.861ZM226.134 122.688H227.013C227.452 122.688 227.756 122.62 227.926 122.483C228.095 122.343 228.18 122.138 228.18 121.868C228.18 121.595 228.079 121.399 227.877 121.282C227.678 121.162 227.363 121.102 226.93 121.102H226.134V122.688ZM226.134 123.89V125.75H227.12C227.576 125.75 227.893 125.662 228.072 125.486C228.251 125.311 228.341 125.075 228.341 124.778C228.341 124.603 228.302 124.448 228.224 124.314C228.145 124.181 228.014 124.077 227.828 124.002C227.646 123.927 227.394 123.89 227.071 123.89H226.134Z" fill="#2C3437"/>
<path d="M0 98H116.39V134H9.99999C4.47715 134 0 129.523 0 124V98Z" fill="#F7F1FB"/>
<path d="M73.6517 123.879L73.4222 125.012H74.682V126.018H73.2318L72.8558 128H71.7816L72.1625 126.018H71.2152L70.8441 128H69.7943L70.1556 126.018H68.9935V125.012H70.3461L70.5756 123.879H69.3451V122.858H70.7562L71.1322 120.871H72.2015L71.8256 122.858H72.7924L73.1732 120.871H74.223L73.8422 122.858H75.014V123.879H73.6517ZM71.4056 125.012H72.3627L72.5922 123.879H71.6351L71.4056 125.012ZM77.6263 128H76.1371V120.861H80.2289V122.102H77.6263V123.942H80.0482V125.178H77.6263V128ZM81.8353 128L84.516 122.131H80.9955V120.861H86.1176V121.809L83.4174 128H81.8353ZM88.8373 128H87.348V120.861H91.4398V122.102H88.8373V123.942H91.2592V125.178H88.8373V128ZM96.0687 128H94.5599V123.869C94.5599 123.755 94.5616 123.615 94.5648 123.449C94.5681 123.28 94.573 123.107 94.5795 122.932C94.586 122.753 94.5925 122.591 94.599 122.448C94.5632 122.491 94.4899 122.564 94.3793 122.668C94.2719 122.769 94.1709 122.86 94.0765 122.941L93.2562 123.601L92.5287 122.692L94.8285 120.861H96.0687V128ZM100.048 128H98.559V120.861H102.651V122.102H100.048V123.942H102.47V125.178H100.048V128ZM104.047 120.861H106.269C107.219 120.861 107.939 120.995 108.427 121.262C108.915 121.529 109.16 121.997 109.16 122.668C109.16 122.938 109.116 123.182 109.028 123.4C108.943 123.618 108.819 123.798 108.657 123.938C108.494 124.077 108.295 124.169 108.061 124.211V124.26C108.299 124.309 108.513 124.393 108.705 124.514C108.898 124.631 109.05 124.803 109.164 125.031C109.282 125.256 109.34 125.555 109.34 125.93C109.34 126.363 109.234 126.734 109.023 127.043C108.811 127.352 108.509 127.59 108.115 127.756C107.724 127.919 107.259 128 106.718 128H104.047V120.861ZM105.561 123.688H106.44C106.879 123.688 107.184 123.62 107.353 123.483C107.522 123.343 107.607 123.138 107.607 122.868C107.607 122.595 107.506 122.399 107.304 122.282C107.106 122.162 106.79 122.102 106.357 122.102H105.561V123.688ZM105.561 124.89V126.75H106.547C107.003 126.75 107.32 126.662 107.499 126.486C107.678 126.311 107.768 126.075 107.768 125.778C107.768 125.603 107.729 125.448 107.651 125.314C107.573 125.181 107.441 125.077 107.255 125.002C107.073 124.927 106.821 124.89 106.498 124.89H105.561Z" fill="#2C3437"/>
</svg>
