<svg width="935" height="134" viewBox="0 0 935 134" fill="none" xmlns="http://www.w3.org/2000/svg">
<rect width="934.03" height="134" rx="10" fill="#2C3437"/>
<path d="M847.553 75.7578L847.094 78.0234H849.614V80.0352H846.713L845.961 84H843.813L844.575 80.0352H842.68L841.938 84H839.838L840.561 80.0352H838.237V78.0234H840.942L841.401 75.7578H838.94V73.7168H841.762L842.514 69.7422H844.653L843.901 73.7168H845.834L846.596 69.7422H848.696L847.934 73.7168H850.278V75.7578H847.553ZM843.061 78.0234H844.975L845.434 75.7578H843.52L843.061 78.0234ZM861.508 84H851.528V81.9004L855.112 78.2773C855.834 77.5352 856.414 76.9167 856.85 76.4219C857.293 75.9206 857.612 75.4648 857.807 75.0547C858.009 74.6445 858.11 74.2051 858.11 73.7363C858.11 73.1699 857.95 72.7467 857.631 72.4668C857.319 72.1803 856.899 72.0371 856.372 72.0371C855.818 72.0371 855.281 72.1641 854.76 72.418C854.239 72.6719 853.696 73.0332 853.129 73.502L851.489 71.5586C851.899 71.207 852.332 70.875 852.788 70.5625C853.25 70.25 853.784 69.9993 854.389 69.8105C855.001 69.6152 855.734 69.5176 856.586 69.5176C857.524 69.5176 858.328 69.6868 858.998 70.0254C859.676 70.3639 860.196 70.8262 860.561 71.4121C860.926 71.9915 861.108 72.6491 861.108 73.3848C861.108 74.1725 860.952 74.8919 860.639 75.543C860.327 76.194 859.871 76.8385 859.272 77.4766C858.679 78.1146 857.963 78.821 857.123 79.5957L855.288 81.3242V81.4609H861.508V84ZM870.034 72.0371C869.454 72.0371 868.94 72.151 868.491 72.3789C868.048 72.6003 867.674 72.9225 867.368 73.3457C867.068 73.7689 866.84 74.2799 866.684 74.8789C866.528 75.4779 866.45 76.1517 866.45 76.9004C866.45 77.9095 866.573 78.7721 866.821 79.4883C867.075 80.1979 867.465 80.7415 867.993 81.1191C868.52 81.4902 869.2 81.6758 870.034 81.6758C870.613 81.6758 871.192 81.6107 871.772 81.4805C872.358 81.3503 872.993 81.1647 873.676 80.9238V83.4629C873.045 83.7233 872.423 83.9089 871.811 84.0195C871.199 84.1367 870.512 84.1953 869.75 84.1953C868.279 84.1953 867.068 83.8926 866.118 83.2871C865.174 82.6751 864.474 81.8223 864.018 80.7285C863.562 79.6283 863.334 78.3457 863.334 76.8809C863.334 75.8001 863.481 74.8105 863.774 73.9121C864.067 73.0137 864.497 72.2357 865.063 71.5781C865.629 70.9206 866.329 70.4128 867.163 70.0547C867.996 69.6966 868.953 69.5176 870.034 69.5176C870.743 69.5176 871.453 69.6087 872.163 69.791C872.879 69.9668 873.562 70.2109 874.213 70.5234L873.237 72.9844C872.703 72.7305 872.166 72.5091 871.625 72.3203C871.085 72.1315 870.554 72.0371 870.034 72.0371ZM885.151 72.916C885.151 73.5736 885.014 74.1432 884.741 74.625C884.467 75.1068 884.096 75.5007 883.627 75.8066C883.165 76.1126 882.644 76.3372 882.065 76.4805V76.5391C883.211 76.6823 884.08 77.0339 884.672 77.5938C885.271 78.1536 885.571 78.9023 885.571 79.8398C885.571 80.6732 885.366 81.4186 884.956 82.0762C884.552 82.7337 883.927 83.2513 883.081 83.6289C882.234 84.0065 881.144 84.1953 879.809 84.1953C879.021 84.1953 878.286 84.1302 877.602 84C876.925 83.8763 876.287 83.6842 875.688 83.4238V80.8555C876.3 81.168 876.941 81.4056 877.612 81.5684C878.282 81.7246 878.907 81.8027 879.487 81.8027C880.567 81.8027 881.323 81.6172 881.752 81.2461C882.189 80.8685 882.407 80.3411 882.407 79.6641C882.407 79.2669 882.306 78.9316 882.104 78.6582C881.902 78.3848 881.551 78.1764 881.049 78.0332C880.554 77.89 879.861 77.8184 878.969 77.8184H877.885V75.5039H878.989C879.868 75.5039 880.535 75.4225 880.991 75.2598C881.453 75.0905 881.765 74.8626 881.928 74.5762C882.097 74.2832 882.182 73.9512 882.182 73.5801C882.182 73.0723 882.026 72.6751 881.713 72.3887C881.401 72.1022 880.88 71.959 880.151 71.959C879.695 71.959 879.278 72.0176 878.901 72.1348C878.53 72.2454 878.194 72.3822 877.895 72.5449C877.595 72.7012 877.332 72.8542 877.104 73.0039L875.707 70.9238C876.267 70.5202 876.922 70.1849 877.67 69.918C878.426 69.651 879.324 69.5176 880.366 69.5176C881.837 69.5176 883.002 69.8138 883.862 70.4062C884.721 70.9987 885.151 71.8353 885.151 72.916ZM897.475 81.041H895.756V84H892.807V81.041H886.713V78.9414L892.973 69.7227H895.756V78.6973H897.475V81.041ZM892.807 78.6973V76.2754C892.807 76.0475 892.81 75.7773 892.817 75.4648C892.83 75.1523 892.843 74.8398 892.856 74.5273C892.869 74.2148 892.882 73.9382 892.895 73.6973C892.914 73.4499 892.928 73.2773 892.934 73.1797H892.856C892.732 73.4466 892.602 73.707 892.465 73.9609C892.329 74.2083 892.169 74.4688 891.987 74.7422L889.37 78.6973H892.807ZM908.041 72.916C908.041 73.5736 907.905 74.1432 907.631 74.625C907.358 75.1068 906.987 75.5007 906.518 75.8066C906.056 76.1126 905.535 76.3372 904.956 76.4805V76.5391C906.101 76.6823 906.97 77.0339 907.563 77.5938C908.162 78.1536 908.461 78.9023 908.461 79.8398C908.461 80.6732 908.256 81.4186 907.846 82.0762C907.442 82.7337 906.817 83.2513 905.971 83.6289C905.125 84.0065 904.034 84.1953 902.7 84.1953C901.912 84.1953 901.176 84.1302 900.493 84C899.816 83.8763 899.178 83.6842 898.579 83.4238V80.8555C899.191 81.168 899.832 81.4056 900.502 81.5684C901.173 81.7246 901.798 81.8027 902.377 81.8027C903.458 81.8027 904.213 81.6172 904.643 81.2461C905.079 80.8685 905.297 80.3411 905.297 79.6641C905.297 79.2669 905.196 78.9316 904.995 78.6582C904.793 78.3848 904.441 78.1764 903.94 78.0332C903.445 77.89 902.752 77.8184 901.86 77.8184H900.776V75.5039H901.879C902.758 75.5039 903.426 75.4225 903.881 75.2598C904.344 75.0905 904.656 74.8626 904.819 74.5762C904.988 74.2832 905.073 73.9512 905.073 73.5801C905.073 73.0723 904.916 72.6751 904.604 72.3887C904.291 72.1022 903.771 71.959 903.041 71.959C902.586 71.959 902.169 72.0176 901.791 72.1348C901.42 72.2454 901.085 72.3822 900.786 72.5449C900.486 72.7012 900.222 72.8542 899.995 73.0039L898.598 70.9238C899.158 70.5202 899.812 70.1849 900.561 69.918C901.316 69.651 902.215 69.5176 903.256 69.5176C904.728 69.5176 905.893 69.8138 906.752 70.4062C907.612 70.9987 908.041 71.8353 908.041 72.916ZM911.479 84L916.84 72.2617H909.799V69.7227H920.043V71.6172L914.643 84H911.479Z" fill="white"/>
<path d="M830.536 98H934.03V124C934.03 129.523 929.553 134 924.03 134H830.536V98Z" fill="#556066"/>
<path d="M891.471 123.879L891.242 125.012H892.502V126.018H891.051L890.675 128H889.601L889.982 126.018H889.035L888.664 128H887.614L887.975 126.018H886.813V125.012H888.166L888.395 123.879H887.165V122.858H888.576L888.952 120.871H890.021L889.645 122.858H890.612L890.993 120.871H892.043L891.662 122.858H892.834V123.879H891.471ZM889.225 125.012H890.182L890.412 123.879H889.455L889.225 125.012ZM896.056 123.439C896.492 123.439 896.88 123.522 897.218 123.688C897.56 123.854 897.829 124.099 898.024 124.421C898.219 124.743 898.317 125.14 898.317 125.612C898.317 126.127 898.21 126.571 897.995 126.945C897.783 127.316 897.466 127.601 897.043 127.8C896.623 127.998 896.099 128.098 895.47 128.098C895.096 128.098 894.743 128.065 894.411 128C894.082 127.938 893.794 127.842 893.546 127.712V126.408C893.794 126.538 894.09 126.649 894.435 126.74C894.783 126.828 895.111 126.872 895.417 126.872C895.716 126.872 895.968 126.833 896.173 126.755C896.379 126.674 896.533 126.55 896.637 126.384C896.745 126.215 896.798 126 896.798 125.739C896.798 125.391 896.681 125.124 896.447 124.938C896.212 124.753 895.853 124.66 895.368 124.66C895.182 124.66 894.989 124.678 894.787 124.714C894.588 124.75 894.422 124.785 894.289 124.821L893.688 124.499L893.957 120.861H897.829V122.141H895.28L895.148 123.542C895.259 123.519 895.379 123.496 895.509 123.474C895.64 123.451 895.822 123.439 896.056 123.439ZM901.779 123.439C902.215 123.439 902.602 123.522 902.941 123.688C903.283 123.854 903.551 124.099 903.747 124.421C903.942 124.743 904.04 125.14 904.04 125.612C904.04 126.127 903.932 126.571 903.717 126.945C903.506 127.316 903.188 127.601 902.765 127.8C902.345 127.998 901.821 128.098 901.193 128.098C900.819 128.098 900.465 128.065 900.133 128C899.805 127.938 899.517 127.842 899.269 127.712V126.408C899.517 126.538 899.813 126.649 900.158 126.74C900.506 126.828 900.833 126.872 901.139 126.872C901.439 126.872 901.691 126.833 901.896 126.755C902.101 126.674 902.256 126.55 902.36 126.384C902.467 126.215 902.521 126 902.521 125.739C902.521 125.391 902.404 125.124 902.17 124.938C901.935 124.753 901.575 124.66 901.09 124.66C900.905 124.66 900.711 124.678 900.509 124.714C900.311 124.75 900.145 124.785 900.011 124.821L899.411 124.499L899.679 120.861H903.551V122.141H901.003L900.871 123.542C900.981 123.519 901.102 123.496 901.232 123.474C901.362 123.451 901.545 123.439 901.779 123.439ZM904.855 124.968C904.855 124.558 904.884 124.152 904.943 123.752C905.005 123.348 905.111 122.969 905.26 122.614C905.41 122.256 905.62 121.94 905.89 121.667C906.16 121.39 906.504 121.174 906.921 121.018C907.337 120.858 907.842 120.778 908.434 120.778C908.574 120.778 908.737 120.785 908.922 120.798C909.111 120.808 909.268 120.826 909.391 120.852V122.058C909.261 122.028 909.121 122.006 908.971 121.989C908.825 121.97 908.678 121.96 908.532 121.96C907.939 121.96 907.48 122.054 907.155 122.243C906.833 122.432 906.605 122.694 906.471 123.029C906.341 123.361 906.265 123.749 906.242 124.191H906.305C906.396 124.032 906.51 123.89 906.647 123.767C906.787 123.643 906.956 123.545 907.155 123.474C907.353 123.399 907.586 123.361 907.853 123.361C908.27 123.361 908.631 123.451 908.937 123.63C909.243 123.806 909.479 124.061 909.645 124.396C909.811 124.732 909.894 125.14 909.894 125.622C909.894 126.136 909.795 126.579 909.596 126.95C909.398 127.321 909.116 127.606 908.752 127.805C908.39 128 907.961 128.098 907.462 128.098C907.098 128.098 906.758 128.036 906.442 127.912C906.126 127.785 905.85 127.593 905.612 127.336C905.374 127.079 905.189 126.755 905.055 126.364C904.922 125.97 904.855 125.505 904.855 124.968ZM907.433 126.892C907.729 126.892 907.97 126.791 908.156 126.589C908.341 126.387 908.434 126.071 908.434 125.642C908.434 125.293 908.353 125.02 908.19 124.821C908.031 124.619 907.788 124.519 907.462 124.519C907.241 124.519 907.046 124.569 906.877 124.67C906.711 124.768 906.582 124.893 906.491 125.046C906.4 125.196 906.354 125.35 906.354 125.51C906.354 125.676 906.377 125.84 906.422 126.003C906.468 126.166 906.536 126.314 906.628 126.447C906.719 126.581 906.831 126.688 906.964 126.77C907.101 126.851 907.257 126.892 907.433 126.892ZM915.578 124.431C915.578 125.007 915.532 125.521 915.441 125.974C915.353 126.426 915.21 126.81 915.011 127.126C914.816 127.442 914.559 127.683 914.24 127.849C913.921 128.015 913.533 128.098 913.078 128.098C912.505 128.098 912.034 127.953 911.667 127.663C911.299 127.37 911.027 126.95 910.851 126.403C910.675 125.853 910.587 125.196 910.587 124.431C910.587 123.659 910.667 123 910.827 122.453C910.99 121.903 911.253 121.481 911.618 121.188C911.982 120.896 912.469 120.749 913.078 120.749C913.647 120.749 914.116 120.896 914.484 121.188C914.855 121.478 915.13 121.898 915.309 122.448C915.488 122.995 915.578 123.656 915.578 124.431ZM912.087 124.431C912.087 124.974 912.116 125.428 912.174 125.793C912.236 126.154 912.339 126.426 912.482 126.608C912.625 126.791 912.824 126.882 913.078 126.882C913.328 126.882 913.525 126.792 913.669 126.613C913.815 126.431 913.919 126.159 913.981 125.798C914.043 125.433 914.074 124.978 914.074 124.431C914.074 123.887 914.043 123.433 913.981 123.068C913.919 122.704 913.815 122.43 913.669 122.248C913.525 122.062 913.328 121.97 913.078 121.97C912.824 121.97 912.625 122.062 912.482 122.248C912.339 122.43 912.236 122.704 912.174 123.068C912.116 123.433 912.087 123.887 912.087 124.431ZM916.3 124.968C916.3 124.558 916.33 124.152 916.388 123.752C916.45 123.348 916.556 122.969 916.706 122.614C916.855 122.256 917.065 121.94 917.336 121.667C917.606 121.39 917.949 121.174 918.366 121.018C918.782 120.858 919.287 120.778 919.879 120.778C920.019 120.778 920.182 120.785 920.368 120.798C920.557 120.808 920.713 120.826 920.837 120.852V122.058C920.706 122.028 920.566 122.006 920.417 121.989C920.27 121.97 920.124 121.96 919.977 121.96C919.385 121.96 918.926 122.054 918.6 122.243C918.278 122.432 918.05 122.694 917.917 123.029C917.786 123.361 917.71 123.749 917.687 124.191H917.751C917.842 124.032 917.956 123.89 918.092 123.767C918.232 123.643 918.402 123.545 918.6 123.474C918.799 123.399 919.032 123.361 919.298 123.361C919.715 123.361 920.076 123.451 920.382 123.63C920.688 123.806 920.924 124.061 921.09 124.396C921.256 124.732 921.339 125.14 921.339 125.622C921.339 126.136 921.24 126.579 921.042 126.95C920.843 127.321 920.561 127.606 920.197 127.805C919.836 128 919.406 128.098 918.908 128.098C918.543 128.098 918.203 128.036 917.887 127.912C917.572 127.785 917.295 127.593 917.057 127.336C916.82 127.079 916.634 126.755 916.501 126.364C916.367 125.97 916.3 125.505 916.3 124.968ZM918.879 126.892C919.175 126.892 919.416 126.791 919.601 126.589C919.787 126.387 919.879 126.071 919.879 125.642C919.879 125.293 919.798 125.02 919.635 124.821C919.476 124.619 919.233 124.519 918.908 124.519C918.686 124.519 918.491 124.569 918.322 124.67C918.156 124.768 918.027 124.893 917.936 125.046C917.845 125.196 917.799 125.35 917.799 125.51C917.799 125.676 917.822 125.84 917.868 126.003C917.913 126.166 917.982 126.314 918.073 126.447C918.164 126.581 918.276 126.688 918.41 126.77C918.546 126.851 918.703 126.892 918.879 126.892ZM922.023 124.968C922.023 124.558 922.052 124.152 922.111 123.752C922.173 123.348 922.279 122.969 922.428 122.614C922.578 122.256 922.788 121.94 923.058 121.667C923.328 121.39 923.672 121.174 924.088 121.018C924.505 120.858 925.01 120.778 925.602 120.778C925.742 120.778 925.905 120.785 926.09 120.798C926.279 120.808 926.435 120.826 926.559 120.852V122.058C926.429 122.028 926.289 122.006 926.139 121.989C925.993 121.97 925.846 121.96 925.7 121.96C925.107 121.96 924.648 122.054 924.323 122.243C924.001 122.432 923.773 122.694 923.639 123.029C923.509 123.361 923.433 123.749 923.41 124.191H923.473C923.564 124.032 923.678 123.89 923.815 123.767C923.955 123.643 924.124 123.545 924.323 123.474C924.521 123.399 924.754 123.361 925.021 123.361C925.438 123.361 925.799 123.451 926.105 123.63C926.411 123.806 926.647 124.061 926.813 124.396C926.979 124.732 927.062 125.14 927.062 125.622C927.062 126.136 926.963 126.579 926.764 126.95C926.566 127.321 926.284 127.606 925.92 127.805C925.558 128 925.129 128.098 924.63 128.098C924.266 128.098 923.926 128.036 923.61 127.912C923.294 127.785 923.018 127.593 922.78 127.336C922.542 127.079 922.357 126.755 922.223 126.364C922.09 125.97 922.023 125.505 922.023 124.968ZM924.601 126.892C924.897 126.892 925.138 126.791 925.324 126.589C925.509 126.387 925.602 126.071 925.602 125.642C925.602 125.293 925.521 125.02 925.358 124.821C925.198 124.619 924.956 124.519 924.63 124.519C924.409 124.519 924.214 124.569 924.045 124.67C923.879 124.768 923.75 124.893 923.659 125.046C923.568 125.196 923.522 125.35 923.522 125.51C923.522 125.676 923.545 125.84 923.59 126.003C923.636 126.166 923.704 126.314 923.796 126.447C923.887 126.581 923.999 126.688 924.132 126.77C924.269 126.851 924.425 126.892 924.601 126.892Z" fill="white"/>
<path d="M727.043 98H830.536V134H727.043V98Z" fill="#6E7B83"/>
<path d="M787.099 123.879L786.869 125.012H788.129V126.018H786.679L786.303 128H785.229L785.609 126.018H784.662L784.291 128H783.241L783.603 126.018H782.44V125.012H783.793L784.022 123.879H782.792V122.858H784.203L784.579 120.871H785.648L785.272 122.858H786.239L786.62 120.871H787.67L787.289 122.858H788.461V123.879H787.099ZM784.853 125.012H785.81L786.039 123.879H785.082L784.853 125.012ZM789.037 124.968C789.037 124.558 789.066 124.152 789.125 123.752C789.187 123.348 789.293 122.969 789.442 122.614C789.592 122.256 789.802 121.94 790.072 121.667C790.342 121.39 790.686 121.174 791.103 121.018C791.519 120.858 792.024 120.778 792.616 120.778C792.756 120.778 792.919 120.785 793.105 120.798C793.293 120.808 793.45 120.826 793.573 120.852V122.058C793.443 122.028 793.303 122.006 793.153 121.989C793.007 121.97 792.86 121.96 792.714 121.96C792.121 121.96 791.662 122.054 791.337 122.243C791.015 122.432 790.787 122.694 790.653 123.029C790.523 123.361 790.447 123.749 790.424 124.191H790.487C790.578 124.032 790.692 123.89 790.829 123.767C790.969 123.643 791.138 123.545 791.337 123.474C791.536 123.399 791.768 123.361 792.035 123.361C792.452 123.361 792.813 123.451 793.119 123.63C793.425 123.806 793.661 124.061 793.827 124.396C793.993 124.732 794.076 125.14 794.076 125.622C794.076 126.136 793.977 126.579 793.778 126.95C793.58 127.321 793.298 127.606 792.934 127.805C792.572 128 792.143 128.098 791.645 128.098C791.28 128.098 790.94 128.036 790.624 127.912C790.308 127.785 790.032 127.593 789.794 127.336C789.556 127.079 789.371 126.755 789.237 126.364C789.104 125.97 789.037 125.505 789.037 124.968ZM791.615 126.892C791.911 126.892 792.152 126.791 792.338 126.589C792.523 126.387 792.616 126.071 792.616 125.642C792.616 125.293 792.535 125.02 792.372 124.821C792.213 124.619 791.97 124.519 791.645 124.519C791.423 124.519 791.228 124.569 791.059 124.67C790.893 124.768 790.764 124.893 790.673 125.046C790.582 125.196 790.536 125.35 790.536 125.51C790.536 125.676 790.559 125.84 790.605 126.003C790.65 126.166 790.718 126.314 790.81 126.447C790.901 126.581 791.013 126.688 791.147 126.77C791.283 126.851 791.439 126.892 791.615 126.892ZM799.418 128H795.307V120.861H799.418V122.102H796.82V123.669H799.237V124.909H796.82V126.75H799.418V128ZM801.122 128L803.803 122.131H800.282V120.861H805.404V121.809L802.704 128H801.122ZM806.635 120.861H808.856C809.807 120.861 810.526 120.995 811.015 121.262C811.503 121.529 811.747 121.997 811.747 122.668C811.747 122.938 811.703 123.182 811.615 123.4C811.531 123.618 811.407 123.798 811.244 123.938C811.081 124.077 810.883 124.169 810.648 124.211V124.26C810.886 124.309 811.101 124.393 811.293 124.514C811.485 124.631 811.638 124.803 811.752 125.031C811.869 125.256 811.928 125.555 811.928 125.93C811.928 126.363 811.822 126.734 811.61 127.043C811.399 127.352 811.096 127.59 810.702 127.756C810.312 127.919 809.846 128 809.306 128H806.635V120.861ZM808.148 123.688H809.027C809.467 123.688 809.771 123.62 809.94 123.483C810.11 123.343 810.194 123.138 810.194 122.868C810.194 122.595 810.093 122.399 809.892 122.282C809.693 122.162 809.377 122.102 808.944 122.102H808.148V123.688ZM808.148 124.89V126.75H809.135C809.591 126.75 809.908 126.662 810.087 126.486C810.266 126.311 810.355 126.075 810.355 125.778C810.355 125.603 810.316 125.448 810.238 125.314C810.16 125.181 810.028 125.077 809.843 125.002C809.661 124.927 809.408 124.89 809.086 124.89H808.148ZM815.316 120.769C815.727 120.769 816.104 120.832 816.449 120.959C816.798 121.086 817.076 121.278 817.284 121.535C817.493 121.789 817.597 122.108 817.597 122.492C817.597 122.779 817.54 123.029 817.426 123.244C817.315 123.459 817.164 123.648 816.972 123.811C816.78 123.97 816.562 124.11 816.317 124.23C816.571 124.364 816.812 124.52 817.04 124.699C817.268 124.875 817.453 125.082 817.597 125.319C817.743 125.557 817.816 125.834 817.816 126.149C817.816 126.547 817.711 126.892 817.499 127.185C817.287 127.474 816.994 127.699 816.62 127.858C816.246 128.018 815.811 128.098 815.316 128.098C814.783 128.098 814.328 128.021 813.954 127.868C813.58 127.715 813.295 127.497 813.1 127.214C812.904 126.927 812.807 126.586 812.807 126.188C812.807 125.863 812.867 125.58 812.987 125.339C813.111 125.098 813.277 124.891 813.485 124.719C813.694 124.543 813.923 124.393 814.174 124.27C813.962 124.136 813.769 123.985 813.593 123.815C813.42 123.646 813.282 123.452 813.178 123.234C813.077 123.016 813.026 122.766 813.026 122.482C813.026 122.105 813.132 121.789 813.344 121.535C813.559 121.281 813.84 121.091 814.189 120.964C814.537 120.834 814.913 120.769 815.316 120.769ZM814.203 126.101C814.203 126.358 814.294 126.571 814.477 126.74C814.662 126.906 814.936 126.989 815.297 126.989C815.671 126.989 815.951 126.91 816.137 126.75C816.322 126.587 816.415 126.374 816.415 126.11C816.415 125.928 816.361 125.769 816.254 125.632C816.15 125.495 816.018 125.373 815.858 125.266C815.699 125.155 815.538 125.052 815.375 124.958L815.243 124.89C815.035 124.984 814.853 125.09 814.696 125.207C814.543 125.324 814.423 125.456 814.335 125.603C814.247 125.749 814.203 125.915 814.203 126.101ZM815.307 121.872C815.059 121.872 814.854 121.936 814.691 122.062C814.529 122.189 814.447 122.368 814.447 122.6C814.447 122.762 814.486 122.906 814.564 123.029C814.646 123.15 814.752 123.256 814.882 123.347C815.015 123.438 815.16 123.522 815.316 123.601C815.466 123.529 815.606 123.449 815.736 123.361C815.867 123.273 815.972 123.168 816.054 123.044C816.135 122.92 816.176 122.772 816.176 122.6C816.176 122.368 816.093 122.189 815.927 122.062C815.764 121.936 815.557 121.872 815.307 121.872ZM823.29 122.458C823.29 122.787 823.222 123.072 823.085 123.312C822.948 123.553 822.763 123.75 822.528 123.903C822.297 124.056 822.037 124.169 821.747 124.24V124.27C822.32 124.341 822.755 124.517 823.051 124.797C823.35 125.077 823.5 125.451 823.5 125.92C823.5 126.337 823.397 126.709 823.192 127.038C822.991 127.367 822.678 127.626 822.255 127.814C821.832 128.003 821.286 128.098 820.619 128.098C820.225 128.098 819.857 128.065 819.516 128C819.177 127.938 818.858 127.842 818.559 127.712V126.428C818.865 126.584 819.185 126.703 819.521 126.784C819.856 126.862 820.168 126.901 820.458 126.901C820.998 126.901 821.376 126.809 821.591 126.623C821.809 126.434 821.918 126.171 821.918 125.832C821.918 125.633 821.868 125.466 821.767 125.329C821.666 125.192 821.49 125.088 821.239 125.017C820.992 124.945 820.645 124.909 820.199 124.909H819.657V123.752H820.209C820.648 123.752 820.982 123.711 821.21 123.63C821.441 123.545 821.597 123.431 821.679 123.288C821.763 123.142 821.806 122.976 821.806 122.79C821.806 122.536 821.728 122.338 821.571 122.194C821.415 122.051 821.155 121.979 820.79 121.979C820.562 121.979 820.354 122.009 820.165 122.067C819.98 122.123 819.812 122.191 819.662 122.272C819.512 122.351 819.381 122.427 819.267 122.502L818.568 121.462C818.848 121.26 819.175 121.092 819.55 120.959C819.927 120.826 820.377 120.759 820.897 120.759C821.633 120.759 822.216 120.907 822.646 121.203C823.075 121.499 823.29 121.918 823.29 122.458Z" fill="white"/>
<path d="M622.687 98H727.043V134H622.687V98Z" fill="#929FA5"/>
<path d="M683.537 123.879L683.307 125.012H684.567V126.018H683.117L682.741 128H681.667L682.048 126.018H681.1L680.729 128H679.679L680.041 126.018H678.879V125.012H680.231L680.461 123.879H679.23V122.858H680.641L681.017 120.871H682.087L681.711 122.858H682.677L683.058 120.871H684.108L683.727 122.858H684.899V123.879H683.537ZM681.291 125.012H682.248L682.477 123.879H681.52L681.291 125.012ZM690.485 123.908C690.485 124.318 690.454 124.725 690.392 125.129C690.334 125.533 690.229 125.913 690.08 126.271C689.93 126.626 689.72 126.942 689.45 127.219C689.18 127.492 688.836 127.707 688.42 127.863C688.003 128.02 687.498 128.098 686.906 128.098C686.766 128.098 686.602 128.091 686.413 128.078C686.224 128.068 686.068 128.052 685.944 128.029V126.818C686.074 126.851 686.213 126.877 686.359 126.896C686.506 126.913 686.654 126.921 686.803 126.921C687.399 126.921 687.858 126.826 688.18 126.638C688.506 126.449 688.734 126.187 688.864 125.852C688.997 125.516 689.074 125.129 689.093 124.689H689.035C688.94 124.846 688.828 124.987 688.698 125.114C688.571 125.238 688.408 125.337 688.21 125.412C688.011 125.484 687.759 125.52 687.453 125.52C687.046 125.52 686.691 125.432 686.388 125.256C686.089 125.077 685.856 124.82 685.69 124.484C685.527 124.146 685.446 123.737 685.446 123.259C685.446 122.741 685.544 122.299 685.739 121.931C685.937 121.56 686.219 121.275 686.584 121.076C686.948 120.878 687.378 120.778 687.873 120.778C688.237 120.778 688.577 120.842 688.893 120.969C689.209 121.092 689.486 121.283 689.723 121.54C689.964 121.797 690.151 122.123 690.285 122.517C690.418 122.91 690.485 123.374 690.485 123.908ZM687.902 121.989C687.609 121.989 687.37 122.09 687.184 122.292C686.999 122.494 686.906 122.81 686.906 123.239C686.906 123.584 686.986 123.858 687.145 124.06C687.305 124.261 687.547 124.362 687.873 124.362C688.097 124.362 688.293 124.313 688.459 124.216C688.625 124.115 688.753 123.99 688.844 123.84C688.939 123.687 688.986 123.531 688.986 123.371C688.986 123.205 688.963 123.041 688.918 122.878C688.872 122.715 688.804 122.567 688.713 122.434C688.621 122.3 688.507 122.193 688.371 122.111C688.237 122.03 688.081 121.989 687.902 121.989ZM696.237 128H691.247V126.95L693.039 125.139C693.4 124.768 693.69 124.458 693.908 124.211C694.129 123.96 694.289 123.732 694.386 123.527C694.487 123.322 694.538 123.103 694.538 122.868C694.538 122.585 694.458 122.373 694.298 122.233C694.142 122.09 693.932 122.019 693.669 122.019C693.392 122.019 693.123 122.082 692.863 122.209C692.603 122.336 692.331 122.517 692.048 122.751L691.227 121.779C691.432 121.604 691.649 121.438 691.877 121.281C692.108 121.125 692.375 121 692.677 120.905C692.983 120.808 693.35 120.759 693.776 120.759C694.245 120.759 694.647 120.843 694.982 121.013C695.321 121.182 695.581 121.413 695.763 121.706C695.946 121.996 696.037 122.325 696.037 122.692C696.037 123.086 695.959 123.446 695.802 123.771C695.646 124.097 695.418 124.419 695.119 124.738C694.823 125.057 694.465 125.41 694.045 125.798L693.127 126.662V126.73H696.237V128ZM701.93 123.908C701.93 124.318 701.899 124.725 701.838 125.129C701.779 125.533 701.675 125.913 701.525 126.271C701.375 126.626 701.165 126.942 700.895 127.219C700.625 127.492 700.282 127.707 699.865 127.863C699.448 128.02 698.944 128.098 698.351 128.098C698.211 128.098 698.047 128.091 697.858 128.078C697.669 128.068 697.513 128.052 697.389 128.029V126.818C697.52 126.851 697.658 126.877 697.804 126.896C697.951 126.913 698.099 126.921 698.249 126.921C698.844 126.921 699.303 126.826 699.626 126.638C699.951 126.449 700.179 126.187 700.309 125.852C700.443 125.516 700.519 125.129 700.539 124.689H700.48C700.386 124.846 700.273 124.987 700.143 125.114C700.016 125.238 699.854 125.337 699.655 125.412C699.456 125.484 699.204 125.52 698.898 125.52C698.491 125.52 698.136 125.432 697.834 125.256C697.534 125.077 697.301 124.82 697.135 124.484C696.973 124.146 696.891 123.737 696.891 123.259C696.891 122.741 696.989 122.299 697.184 121.931C697.383 121.56 697.664 121.275 698.029 121.076C698.394 120.878 698.823 120.778 699.318 120.778C699.683 120.778 700.023 120.842 700.339 120.969C700.654 121.092 700.931 121.283 701.169 121.54C701.409 121.797 701.597 122.123 701.73 122.517C701.864 122.91 701.93 123.374 701.93 123.908ZM699.347 121.989C699.054 121.989 698.815 122.09 698.63 122.292C698.444 122.494 698.351 122.81 698.351 123.239C698.351 123.584 698.431 123.858 698.59 124.06C698.75 124.261 698.993 124.362 699.318 124.362C699.543 124.362 699.738 124.313 699.904 124.216C700.07 124.115 700.199 123.99 700.29 123.84C700.384 123.687 700.431 123.531 700.431 123.371C700.431 123.205 700.409 123.041 700.363 122.878C700.317 122.715 700.249 122.567 700.158 122.434C700.067 122.3 699.953 122.193 699.816 122.111C699.683 122.03 699.526 121.989 699.347 121.989ZM704.679 128H703.19V120.861H707.282V122.102H704.679V123.942H707.101V125.178H704.679V128ZM713.048 128L712.531 126.301H709.928L709.411 128H707.78L710.299 120.832H712.15L714.679 128H713.048ZM712.17 125.031L711.652 123.371C711.619 123.26 711.576 123.119 711.52 122.946C711.468 122.771 711.414 122.593 711.359 122.414C711.307 122.232 711.265 122.074 711.232 121.94C711.2 122.074 711.154 122.24 711.095 122.438C711.04 122.634 710.986 122.819 710.934 122.995C710.882 123.171 710.845 123.296 710.822 123.371L710.309 125.031H712.17ZM717.682 123.439C718.118 123.439 718.506 123.522 718.844 123.688C719.186 123.854 719.455 124.099 719.65 124.421C719.845 124.743 719.943 125.14 719.943 125.612C719.943 126.127 719.836 126.571 719.621 126.945C719.409 127.316 719.092 127.601 718.669 127.8C718.249 127.998 717.725 128.098 717.096 128.098C716.722 128.098 716.369 128.065 716.037 128C715.708 127.938 715.42 127.842 715.173 127.712V126.408C715.42 126.538 715.716 126.649 716.061 126.74C716.409 126.828 716.737 126.872 717.043 126.872C717.342 126.872 717.594 126.833 717.799 126.755C718.005 126.674 718.159 126.55 718.263 126.384C718.371 126.215 718.424 126 718.424 125.739C718.424 125.391 718.307 125.124 718.073 124.938C717.839 124.753 717.479 124.66 716.994 124.66C716.808 124.66 716.615 124.678 716.413 124.714C716.214 124.75 716.048 124.785 715.915 124.821L715.314 124.499L715.583 120.861H719.455V122.141H716.906L716.774 123.542C716.885 123.519 717.005 123.496 717.135 123.474C717.266 123.451 717.448 123.439 717.682 123.439Z" fill="white"/>
<path d="M519.193 98H622.687V134H519.193V98Z" fill="#B1BCC2"/>
<path d="M575.965 123.879L575.735 125.012H576.995V126.018H575.545L575.169 128H574.095L574.476 126.018H573.528L573.157 128H572.107L572.469 126.018H571.307V125.012H572.659L572.889 123.879H571.658V122.858H573.069L573.445 120.871H574.515L574.139 122.858H575.105L575.486 120.871H576.536L576.155 122.858H577.327V123.879H575.965ZM573.719 125.012H574.676L574.905 123.879H573.948L573.719 125.012ZM578.45 120.861H580.672C581.622 120.861 582.342 120.995 582.83 121.262C583.318 121.529 583.562 121.997 583.562 122.668C583.562 122.938 583.518 123.182 583.431 123.4C583.346 123.618 583.222 123.798 583.06 123.938C582.897 124.077 582.698 124.169 582.464 124.211V124.26C582.701 124.309 582.916 124.393 583.108 124.514C583.3 124.631 583.453 124.803 583.567 125.031C583.685 125.256 583.743 125.555 583.743 125.93C583.743 126.363 583.637 126.734 583.426 127.043C583.214 127.352 582.911 127.59 582.518 127.756C582.127 127.919 581.661 128 581.121 128H578.45V120.861ZM579.964 123.688H580.843C581.282 123.688 581.587 123.62 581.756 123.483C581.925 123.343 582.01 123.138 582.01 122.868C582.01 122.595 581.909 122.399 581.707 122.282C581.508 122.162 581.193 122.102 580.76 122.102H579.964V123.688ZM579.964 124.89V126.75H580.95C581.406 126.75 581.723 126.662 581.902 126.486C582.081 126.311 582.171 126.075 582.171 125.778C582.171 125.603 582.132 125.448 582.054 125.314C581.976 125.181 581.844 125.077 581.658 125.002C581.476 124.927 581.224 124.89 580.901 124.89H579.964ZM588.401 128H586.893V123.869C586.893 123.755 586.894 123.615 586.897 123.449C586.901 123.28 586.906 123.107 586.912 122.932C586.919 122.753 586.925 122.591 586.932 122.448C586.896 122.491 586.823 122.564 586.712 122.668C586.604 122.769 586.504 122.86 586.409 122.941L585.589 123.601L584.861 122.692L587.161 120.861H588.401V128ZM590.892 120.861H593.113C594.064 120.861 594.783 120.995 595.271 121.262C595.76 121.529 596.004 121.997 596.004 122.668C596.004 122.938 595.96 123.182 595.872 123.4C595.787 123.618 595.664 123.798 595.501 123.938C595.338 124.077 595.14 124.169 594.905 124.211V124.26C595.143 124.309 595.358 124.393 595.55 124.514C595.742 124.631 595.895 124.803 596.009 125.031C596.126 125.256 596.185 125.555 596.185 125.93C596.185 126.363 596.079 126.734 595.867 127.043C595.656 127.352 595.353 127.59 594.959 127.756C594.568 127.919 594.103 128 593.562 128H590.892V120.861ZM592.405 123.688H593.284C593.724 123.688 594.028 123.62 594.197 123.483C594.366 123.343 594.451 123.138 594.451 122.868C594.451 122.595 594.35 122.399 594.148 122.282C593.95 122.162 593.634 122.102 593.201 122.102H592.405V123.688ZM592.405 124.89V126.75H593.392C593.847 126.75 594.165 126.662 594.344 126.486C594.523 126.311 594.612 126.075 594.612 125.778C594.612 125.603 594.573 125.448 594.495 125.314C594.417 125.181 594.285 125.077 594.1 125.002C593.917 124.927 593.665 124.89 593.343 124.89H592.405ZM600.643 122.019C600.353 122.019 600.096 122.076 599.871 122.189C599.65 122.3 599.463 122.461 599.31 122.673C599.16 122.884 599.046 123.14 598.968 123.439C598.89 123.739 598.851 124.076 598.851 124.45C598.851 124.955 598.912 125.386 599.036 125.744C599.163 126.099 599.358 126.371 599.622 126.56C599.886 126.745 600.226 126.838 600.643 126.838C600.932 126.838 601.222 126.805 601.512 126.74C601.805 126.675 602.122 126.582 602.464 126.462V127.731C602.148 127.862 601.837 127.954 601.531 128.01C601.225 128.068 600.882 128.098 600.501 128.098C599.765 128.098 599.16 127.946 598.685 127.644C598.213 127.338 597.863 126.911 597.635 126.364C597.407 125.814 597.293 125.173 597.293 124.44C597.293 123.9 597.366 123.405 597.513 122.956C597.659 122.507 597.874 122.118 598.157 121.789C598.44 121.46 598.79 121.206 599.207 121.027C599.624 120.848 600.102 120.759 600.643 120.759C600.997 120.759 601.352 120.804 601.707 120.896C602.065 120.983 602.407 121.105 602.732 121.262L602.244 122.492C601.977 122.365 601.709 122.255 601.438 122.16C601.168 122.066 600.903 122.019 600.643 122.019ZM607.019 122.019C606.73 122.019 606.473 122.076 606.248 122.189C606.027 122.3 605.839 122.461 605.686 122.673C605.537 122.884 605.423 123.14 605.345 123.439C605.267 123.739 605.227 124.076 605.227 124.45C605.227 124.955 605.289 125.386 605.413 125.744C605.54 126.099 605.735 126.371 605.999 126.56C606.263 126.745 606.603 126.838 607.019 126.838C607.309 126.838 607.599 126.805 607.889 126.74C608.182 126.675 608.499 126.582 608.841 126.462V127.731C608.525 127.862 608.214 127.954 607.908 128.01C607.602 128.068 607.259 128.098 606.878 128.098C606.142 128.098 605.537 127.946 605.061 127.644C604.589 127.338 604.24 126.911 604.012 126.364C603.784 125.814 603.67 125.173 603.67 124.44C603.67 123.9 603.743 123.405 603.89 122.956C604.036 122.507 604.251 122.118 604.534 121.789C604.817 121.46 605.167 121.206 605.584 121.027C606.001 120.848 606.479 120.759 607.019 120.759C607.374 120.759 607.729 120.804 608.084 120.896C608.442 120.983 608.784 121.105 609.109 121.262L608.621 122.492C608.354 122.365 608.086 122.255 607.815 122.16C607.545 122.066 607.28 122.019 607.019 122.019ZM614.856 128H609.866V126.95L611.658 125.139C612.019 124.768 612.309 124.458 612.527 124.211C612.749 123.96 612.908 123.732 613.006 123.527C613.107 123.322 613.157 123.103 613.157 122.868C613.157 122.585 613.077 122.373 612.918 122.233C612.762 122.09 612.552 122.019 612.288 122.019C612.011 122.019 611.743 122.082 611.482 122.209C611.222 122.336 610.95 122.517 610.667 122.751L609.847 121.779C610.052 121.604 610.268 121.438 610.496 121.281C610.727 121.125 610.994 121 611.297 120.905C611.603 120.808 611.969 120.759 612.395 120.759C612.864 120.759 613.266 120.843 613.602 121.013C613.94 121.182 614.2 121.413 614.383 121.706C614.565 121.996 614.656 122.325 614.656 122.692C614.656 123.086 614.578 123.446 614.422 123.771C614.266 124.097 614.038 124.419 613.738 124.738C613.442 125.057 613.084 125.41 612.664 125.798L611.746 126.662V126.73H614.856V128Z" fill="#2C3437"/>
<path d="M415.699 98H519.193V134H415.699V98Z" fill="#CBD4D9"/>
<path d="M472.487 123.879L472.258 125.012H473.517V126.018H472.067L471.691 128H470.617L470.998 126.018H470.05L469.679 128H468.63L468.991 126.018H467.829V125.012H469.181L469.411 123.879H468.18V122.858H469.591L469.967 120.871H471.037L470.661 122.858H471.628L472.008 120.871H473.058L472.677 122.858H473.849V123.879H472.487ZM470.241 125.012H471.198L471.427 123.879H470.47L470.241 125.012ZM478.005 122.019C477.715 122.019 477.458 122.076 477.233 122.189C477.012 122.3 476.825 122.461 476.672 122.673C476.522 122.884 476.408 123.14 476.33 123.439C476.252 123.739 476.213 124.076 476.213 124.45C476.213 124.955 476.274 125.386 476.398 125.744C476.525 126.099 476.72 126.371 476.984 126.56C477.248 126.745 477.588 126.838 478.005 126.838C478.294 126.838 478.584 126.805 478.874 126.74C479.167 126.675 479.484 126.582 479.826 126.462V127.731C479.51 127.862 479.199 127.954 478.893 128.01C478.587 128.068 478.244 128.098 477.863 128.098C477.127 128.098 476.522 127.946 476.047 127.644C475.575 127.338 475.225 126.911 474.997 126.364C474.769 125.814 474.655 125.173 474.655 124.44C474.655 123.9 474.728 123.405 474.875 122.956C475.021 122.507 475.236 122.118 475.519 121.789C475.802 121.46 476.152 121.206 476.569 121.027C476.986 120.848 477.464 120.759 478.005 120.759C478.359 120.759 478.714 120.804 479.069 120.896C479.427 120.983 479.769 121.105 480.094 121.262L479.606 122.492C479.339 122.365 479.071 122.255 478.8 122.16C478.53 122.066 478.265 122.019 478.005 122.019ZM481.349 120.861H483.571C484.522 120.861 485.241 120.995 485.729 121.262C486.217 121.529 486.462 121.997 486.462 122.668C486.462 122.938 486.418 123.182 486.33 123.4C486.245 123.618 486.121 123.798 485.959 123.938C485.796 124.077 485.597 124.169 485.363 124.211V124.26C485.601 124.309 485.815 124.393 486.008 124.514C486.2 124.631 486.353 124.803 486.466 125.031C486.584 125.256 486.642 125.555 486.642 125.93C486.642 126.363 486.536 126.734 486.325 127.043C486.113 127.352 485.811 127.59 485.417 127.756C485.026 127.919 484.561 128 484.02 128H481.349V120.861ZM482.863 123.688H483.742C484.181 123.688 484.486 123.62 484.655 123.483C484.824 123.343 484.909 123.138 484.909 122.868C484.909 122.595 484.808 122.399 484.606 122.282C484.408 122.162 484.092 122.102 483.659 122.102H482.863V123.688ZM482.863 124.89V126.75H483.849C484.305 126.75 484.622 126.662 484.801 126.486C484.98 126.311 485.07 126.075 485.07 125.778C485.07 125.603 485.031 125.448 484.953 125.314C484.875 125.181 484.743 125.077 484.557 125.002C484.375 124.927 484.123 124.89 483.8 124.89H482.863ZM493.991 124.362C493.991 125.166 493.836 125.839 493.527 126.379C493.221 126.916 492.777 127.321 492.194 127.595C491.611 127.865 490.91 128 490.09 128H488.068V120.861H490.309C491.058 120.861 491.707 120.995 492.258 121.262C492.808 121.525 493.234 121.918 493.537 122.438C493.84 122.956 493.991 123.597 493.991 124.362ZM492.419 124.401C492.419 123.874 492.341 123.441 492.184 123.103C492.031 122.761 491.803 122.508 491.501 122.346C491.201 122.183 490.83 122.102 490.387 122.102H489.582V126.75H490.231C490.97 126.75 491.519 126.553 491.877 126.159C492.238 125.765 492.419 125.179 492.419 124.401ZM500.124 126.521H499.264V128H497.79V126.521H494.743V125.471L497.873 120.861H499.264V125.349H500.124V126.521ZM497.79 125.349V124.138C497.79 124.024 497.791 123.889 497.795 123.732C497.801 123.576 497.808 123.42 497.814 123.264C497.821 123.107 497.827 122.969 497.834 122.849C497.843 122.725 497.85 122.639 497.853 122.59H497.814C497.752 122.723 497.687 122.854 497.619 122.98C497.55 123.104 497.471 123.234 497.38 123.371L496.071 125.349H497.79ZM507.116 124.362C507.116 125.166 506.961 125.839 506.652 126.379C506.346 126.916 505.902 127.321 505.319 127.595C504.736 127.865 504.035 128 503.215 128H501.193V120.861H503.434C504.183 120.861 504.832 120.995 505.383 121.262C505.933 121.525 506.359 121.918 506.662 122.438C506.965 122.956 507.116 123.597 507.116 124.362ZM505.544 124.401C505.544 123.874 505.466 123.441 505.309 123.103C505.156 122.761 504.928 122.508 504.626 122.346C504.326 122.183 503.955 122.102 503.512 122.102H502.707V126.75H503.356C504.095 126.75 504.644 126.553 505.002 126.159C505.363 125.765 505.544 125.179 505.544 124.401ZM513.058 123.908C513.058 124.318 513.027 124.725 512.966 125.129C512.907 125.533 512.803 125.913 512.653 126.271C512.503 126.626 512.293 126.942 512.023 127.219C511.753 127.492 511.41 127.707 510.993 127.863C510.576 128.02 510.072 128.098 509.479 128.098C509.339 128.098 509.175 128.091 508.986 128.078C508.797 128.068 508.641 128.052 508.517 128.029V126.818C508.647 126.851 508.786 126.877 508.932 126.896C509.079 126.913 509.227 126.921 509.377 126.921C509.972 126.921 510.431 126.826 510.754 126.638C511.079 126.449 511.307 126.187 511.437 125.852C511.571 125.516 511.647 125.129 511.667 124.689H511.608C511.514 124.846 511.401 124.987 511.271 125.114C511.144 125.238 510.981 125.337 510.783 125.412C510.584 125.484 510.332 125.52 510.026 125.52C509.619 125.52 509.264 125.432 508.962 125.256C508.662 125.077 508.429 124.82 508.263 124.484C508.101 124.146 508.019 123.737 508.019 123.259C508.019 122.741 508.117 122.299 508.312 121.931C508.511 121.56 508.792 121.275 509.157 121.076C509.522 120.878 509.951 120.778 510.446 120.778C510.811 120.778 511.151 120.842 511.466 120.969C511.782 121.092 512.059 121.283 512.297 121.54C512.537 121.797 512.725 122.123 512.858 122.517C512.992 122.91 513.058 123.374 513.058 123.908ZM510.475 121.989C510.182 121.989 509.943 122.09 509.758 122.292C509.572 122.494 509.479 122.81 509.479 123.239C509.479 123.584 509.559 123.858 509.718 124.06C509.878 124.261 510.12 124.362 510.446 124.362C510.671 124.362 510.866 124.313 511.032 124.216C511.198 124.115 511.327 123.99 511.418 123.84C511.512 123.687 511.559 123.531 511.559 123.371C511.559 123.205 511.536 123.041 511.491 122.878C511.445 122.715 511.377 122.567 511.286 122.434C511.195 122.3 511.081 122.193 510.944 122.111C510.811 122.03 510.654 121.989 510.475 121.989Z" fill="#2C3437"/>
<path d="M311.343 98H415.699V134H311.343V98Z" fill="#D9E1E4"/>
<path d="M371.695 123.879L371.466 125.012H372.726V126.018H371.275L370.899 128H369.825L370.206 126.018H369.259L368.888 128H367.838L368.199 126.018H367.037V125.012H368.39L368.619 123.879H367.389V122.858H368.8L369.176 120.871H370.245L369.869 122.858H370.836L371.217 120.871H372.267L371.886 122.858H373.058V123.879H371.695ZM369.449 125.012H370.406L370.636 123.879H369.679L369.449 125.012ZM380.103 124.362C380.103 125.166 379.949 125.839 379.64 126.379C379.334 126.916 378.889 127.321 378.307 127.595C377.724 127.865 377.022 128 376.202 128H374.181V120.861H376.422C377.171 120.861 377.82 120.995 378.37 121.262C378.92 121.525 379.347 121.918 379.649 122.438C379.952 122.956 380.103 123.597 380.103 124.362ZM378.531 124.401C378.531 123.874 378.453 123.441 378.297 123.103C378.144 122.761 377.916 122.508 377.613 122.346C377.314 122.183 376.943 122.102 376.5 122.102H375.694V126.75H376.344C377.083 126.75 377.631 126.553 377.989 126.159C378.351 125.765 378.531 125.179 378.531 124.401ZM386.046 123.908C386.046 124.318 386.015 124.725 385.953 125.129C385.894 125.533 385.79 125.913 385.641 126.271C385.491 126.626 385.281 126.942 385.011 127.219C384.741 127.492 384.397 127.707 383.98 127.863C383.564 128.02 383.059 128.098 382.467 128.098C382.327 128.098 382.162 128.091 381.974 128.078C381.785 128.068 381.629 128.052 381.505 128.029V126.818C381.635 126.851 381.773 126.877 381.92 126.896C382.066 126.913 382.214 126.921 382.364 126.921C382.96 126.921 383.419 126.826 383.741 126.638C384.067 126.449 384.295 126.187 384.425 125.852C384.558 125.516 384.635 125.129 384.654 124.689H384.596C384.501 124.846 384.389 124.987 384.259 125.114C384.132 125.238 383.969 125.337 383.77 125.412C383.572 125.484 383.32 125.52 383.014 125.52C382.607 125.52 382.252 125.432 381.949 125.256C381.65 125.077 381.417 124.82 381.251 124.484C381.088 124.146 381.007 123.737 381.007 123.259C381.007 122.741 381.104 122.299 381.3 121.931C381.498 121.56 381.78 121.275 382.144 121.076C382.509 120.878 382.939 120.778 383.434 120.778C383.798 120.778 384.138 120.842 384.454 120.969C384.77 121.092 385.047 121.283 385.284 121.54C385.525 121.797 385.712 122.123 385.846 122.517C385.979 122.91 386.046 123.374 386.046 123.908ZM383.463 121.989C383.17 121.989 382.931 122.09 382.745 122.292C382.56 122.494 382.467 122.81 382.467 123.239C382.467 123.584 382.547 123.858 382.706 124.06C382.866 124.261 383.108 124.362 383.434 124.362C383.658 124.362 383.853 124.313 384.019 124.216C384.186 124.115 384.314 123.99 384.405 123.84C384.5 123.687 384.547 123.531 384.547 123.371C384.547 123.205 384.524 123.041 384.478 122.878C384.433 122.715 384.365 122.567 384.273 122.434C384.182 122.3 384.068 122.193 383.932 122.111C383.798 122.03 383.642 121.989 383.463 121.989ZM391.417 128H387.306V120.861H391.417V122.102H388.819V123.669H391.236V124.909H388.819V126.75H391.417V128ZM396.144 128H394.635V123.869C394.635 123.755 394.636 123.615 394.64 123.449C394.643 123.28 394.648 123.107 394.654 122.932C394.661 122.753 394.667 122.591 394.674 122.448C394.638 122.491 394.565 122.564 394.454 122.668C394.347 122.769 394.246 122.86 394.151 122.941L393.331 123.601L392.603 122.692L394.903 120.861H396.144V128ZM402.745 128H398.634V120.861H402.745V122.102H400.147V123.669H402.564V124.909H400.147V126.75H402.745V128ZM408.893 126.521H408.033V128H406.559V126.521H403.512V125.471L406.642 120.861H408.033V125.349H408.893V126.521ZM406.559 125.349V124.138C406.559 124.024 406.56 123.889 406.563 123.732C406.57 123.576 406.576 123.42 406.583 123.264C406.589 123.107 406.596 122.969 406.603 122.849C406.612 122.725 406.619 122.639 406.622 122.59H406.583C406.521 122.723 406.456 122.854 406.388 122.98C406.319 123.104 406.24 123.234 406.148 123.371L404.84 125.349H406.559Z" fill="#2C3437"/>
<path d="M207.85 98H311.343V134H207.85V98Z" fill="#E9EDF0"/>
<path d="M267.574 123.879L267.344 125.012H268.604V126.018H267.154L266.778 128H265.704L266.084 126.018H265.137L264.766 128H263.716L264.078 126.018H262.916V125.012H264.268L264.498 123.879H263.267V122.858H264.678L265.054 120.871H266.124L265.748 122.858H266.714L267.095 120.871H268.145L267.764 122.858H268.936V123.879H267.574ZM265.328 125.012H266.285L266.514 123.879H265.557L265.328 125.012ZM274.17 128H270.059V120.861H274.17V122.102H271.573V123.669H273.99V124.909H271.573V126.75H274.17V128ZM280.127 123.908C280.127 124.318 280.097 124.725 280.035 125.129C279.976 125.533 279.872 125.913 279.722 126.271C279.572 126.626 279.362 126.942 279.092 127.219C278.822 127.492 278.479 127.707 278.062 127.863C277.645 128.02 277.141 128.098 276.548 128.098C276.408 128.098 276.244 128.091 276.055 128.078C275.866 128.068 275.71 128.052 275.586 128.029V126.818C275.717 126.851 275.855 126.877 276.001 126.896C276.148 126.913 276.296 126.921 276.446 126.921C277.042 126.921 277.5 126.826 277.823 126.638C278.148 126.449 278.376 126.187 278.506 125.852C278.64 125.516 278.716 125.129 278.736 124.689H278.677C278.583 124.846 278.471 124.987 278.34 125.114C278.213 125.238 278.051 125.337 277.852 125.412C277.653 125.484 277.401 125.52 277.095 125.52C276.688 125.52 276.333 125.432 276.031 125.256C275.731 125.077 275.499 124.82 275.333 124.484C275.17 124.146 275.088 123.737 275.088 123.259C275.088 122.741 275.186 122.299 275.381 121.931C275.58 121.56 275.861 121.275 276.226 121.076C276.591 120.878 277.02 120.778 277.515 120.778C277.88 120.778 278.22 120.842 278.536 120.969C278.851 121.092 279.128 121.283 279.366 121.54C279.607 121.797 279.794 122.123 279.927 122.517C280.061 122.91 280.127 123.374 280.127 123.908ZM277.544 121.989C277.251 121.989 277.012 122.09 276.827 122.292C276.641 122.494 276.548 122.81 276.548 123.239C276.548 123.584 276.628 123.858 276.788 124.06C276.947 124.261 277.19 124.362 277.515 124.362C277.74 124.362 277.935 124.313 278.101 124.216C278.267 124.115 278.396 123.99 278.487 123.84C278.581 123.687 278.628 123.531 278.628 123.371C278.628 123.205 278.606 123.041 278.56 122.878C278.514 122.715 278.446 122.567 278.355 122.434C278.264 122.3 278.15 122.193 278.013 122.111C277.88 122.03 277.723 121.989 277.544 121.989ZM285.499 128H281.387V120.861H285.499V122.102H282.901V123.669H285.318V124.909H282.901V126.75H285.499V128ZM292.916 124.362C292.916 125.166 292.761 125.839 292.452 126.379C292.146 126.916 291.701 127.321 291.119 127.595C290.536 127.865 289.834 128 289.014 128H286.993V120.861H289.234C289.983 120.861 290.632 120.995 291.182 121.262C291.732 121.525 292.159 121.918 292.461 122.438C292.764 122.956 292.916 123.597 292.916 124.362ZM291.343 124.401C291.343 123.874 291.265 123.441 291.109 123.103C290.956 122.761 290.728 122.508 290.425 122.346C290.126 122.183 289.755 122.102 289.312 122.102H288.506V126.75H289.156C289.895 126.75 290.443 126.553 290.801 126.159C291.163 125.765 291.343 125.179 291.343 124.401ZM295.884 128H294.395V120.861H298.487V122.102H295.884V123.942H298.306V125.178H295.884V128ZM304.336 124.431C304.336 125.007 304.291 125.521 304.2 125.974C304.112 126.426 303.969 126.81 303.77 127.126C303.575 127.442 303.318 127.683 302.999 127.849C302.68 128.015 302.292 128.098 301.836 128.098C301.264 128.098 300.793 127.953 300.425 127.663C300.057 127.37 299.786 126.95 299.61 126.403C299.434 125.853 299.346 125.196 299.346 124.431C299.346 123.659 299.426 123 299.585 122.453C299.748 121.903 300.012 121.481 300.376 121.188C300.741 120.896 301.228 120.749 301.836 120.749C302.406 120.749 302.875 120.896 303.243 121.188C303.614 121.478 303.889 121.898 304.068 122.448C304.247 122.995 304.336 123.656 304.336 124.431ZM300.845 124.431C300.845 124.974 300.875 125.428 300.933 125.793C300.995 126.154 301.097 126.426 301.241 126.608C301.384 126.791 301.583 126.882 301.836 126.882C302.087 126.882 302.284 126.792 302.427 126.613C302.574 126.431 302.678 126.159 302.74 125.798C302.802 125.433 302.833 124.978 302.833 124.431C302.833 123.887 302.802 123.433 302.74 123.068C302.678 122.704 302.574 122.43 302.427 122.248C302.284 122.062 302.087 121.97 301.836 121.97C301.583 121.97 301.384 122.062 301.241 122.248C301.097 122.43 300.995 122.704 300.933 123.068C300.875 123.433 300.845 123.887 300.845 124.431Z" fill="#2C3437"/>
<path d="M103.494 98H207.85V134H103.494V98Z" fill="#F6F7F9"/>
<path d="M164.269 122.879L164.04 124.012H165.299V125.018H163.849L163.473 127H162.399L162.78 125.018H161.833L161.462 127H160.412L160.773 125.018H159.611V124.012H160.964L161.193 122.879H159.963V121.858H161.374L161.75 119.871H162.819L162.443 121.858H163.41L163.791 119.871H164.841L164.46 121.858H165.632V122.879H164.269ZM162.023 124.012H162.98L163.21 122.879H162.253L162.023 124.012ZM168.244 127H166.755V119.861H170.846V121.102H168.244V122.942H170.666V124.178H168.244V127ZM171.696 123.968C171.696 123.558 171.725 123.152 171.784 122.752C171.846 122.348 171.952 121.969 172.101 121.614C172.251 121.256 172.461 120.94 172.731 120.667C173.001 120.39 173.345 120.174 173.761 120.018C174.178 119.858 174.683 119.778 175.275 119.778C175.415 119.778 175.578 119.785 175.763 119.798C175.952 119.808 176.108 119.826 176.232 119.852V121.058C176.102 121.028 175.962 121.006 175.812 120.989C175.666 120.97 175.519 120.96 175.373 120.96C174.78 120.96 174.321 121.054 173.996 121.243C173.674 121.432 173.446 121.694 173.312 122.029C173.182 122.361 173.105 122.749 173.083 123.191H173.146C173.237 123.032 173.351 122.89 173.488 122.767C173.628 122.643 173.797 122.545 173.996 122.474C174.194 122.399 174.427 122.361 174.694 122.361C175.111 122.361 175.472 122.451 175.778 122.63C176.084 122.806 176.32 123.061 176.486 123.396C176.652 123.732 176.735 124.14 176.735 124.622C176.735 125.136 176.636 125.579 176.437 125.95C176.239 126.321 175.957 126.606 175.592 126.805C175.231 127 174.801 127.098 174.303 127.098C173.939 127.098 173.599 127.036 173.283 126.912C172.967 126.785 172.69 126.593 172.453 126.336C172.215 126.079 172.03 125.755 171.896 125.364C171.763 124.97 171.696 124.505 171.696 123.968ZM174.274 125.892C174.57 125.892 174.811 125.791 174.997 125.589C175.182 125.387 175.275 125.071 175.275 124.642C175.275 124.293 175.194 124.02 175.031 123.821C174.871 123.619 174.629 123.519 174.303 123.519C174.082 123.519 173.887 123.569 173.717 123.67C173.551 123.768 173.423 123.893 173.332 124.046C173.241 124.196 173.195 124.35 173.195 124.51C173.195 124.676 173.218 124.84 173.263 125.003C173.309 125.166 173.377 125.314 173.468 125.447C173.56 125.581 173.672 125.688 173.805 125.77C173.942 125.851 174.098 125.892 174.274 125.892ZM179.455 127H177.966V119.861H182.057V121.102H179.455V122.942H181.877V124.178H179.455V127ZM183.664 127L186.344 121.131H182.824V119.861H187.946V120.809L185.246 127H183.664ZM190.666 127H189.176V119.861H193.268V121.102H190.666V122.942H193.088V124.178H190.666V127ZM199.128 122.908C199.128 123.318 199.097 123.725 199.035 124.129C198.976 124.533 198.872 124.913 198.722 125.271C198.573 125.626 198.363 125.942 198.092 126.219C197.822 126.492 197.479 126.707 197.062 126.863C196.646 127.02 196.141 127.098 195.549 127.098C195.409 127.098 195.244 127.091 195.055 127.078C194.867 127.068 194.71 127.052 194.587 127.029V125.818C194.717 125.851 194.855 125.877 195.002 125.896C195.148 125.913 195.296 125.921 195.446 125.921C196.042 125.921 196.501 125.826 196.823 125.638C197.148 125.449 197.376 125.187 197.507 124.852C197.64 124.516 197.716 124.129 197.736 123.689H197.677C197.583 123.846 197.471 123.987 197.341 124.114C197.214 124.238 197.051 124.337 196.852 124.412C196.654 124.484 196.401 124.52 196.095 124.52C195.688 124.52 195.334 124.432 195.031 124.256C194.731 124.077 194.499 123.82 194.333 123.484C194.17 123.146 194.089 122.737 194.089 122.259C194.089 121.741 194.186 121.299 194.382 120.931C194.58 120.56 194.862 120.275 195.226 120.076C195.591 119.878 196.021 119.778 196.515 119.778C196.88 119.778 197.22 119.842 197.536 119.969C197.852 120.092 198.128 120.283 198.366 120.54C198.607 120.797 198.794 121.123 198.927 121.517C199.061 121.91 199.128 122.374 199.128 122.908ZM196.545 120.989C196.252 120.989 196.012 121.09 195.827 121.292C195.641 121.494 195.549 121.81 195.549 122.239C195.549 122.584 195.628 122.858 195.788 123.06C195.947 123.261 196.19 123.362 196.515 123.362C196.74 123.362 196.935 123.313 197.101 123.216C197.267 123.115 197.396 122.99 197.487 122.84C197.581 122.687 197.629 122.531 197.629 122.371C197.629 122.205 197.606 122.041 197.56 121.878C197.515 121.715 197.446 121.567 197.355 121.434C197.264 121.3 197.15 121.193 197.013 121.111C196.88 121.03 196.724 120.989 196.545 120.989Z" fill="#2C3437"/>
<path d="M0 98H103.494V134H10C4.47715 134 0 129.523 0 124V98Z" fill="white"/>
<path d="M60.6163 123.879L60.3868 125.012H61.6465V126.018H60.1964L59.8204 128H58.7462L59.127 126.018H58.1797L57.8087 128H56.7589L57.1202 126.018H55.9581V125.012H57.3106L57.5401 123.879H56.3096V122.858H57.7208L58.0967 120.871H59.1661L58.7901 122.858H59.7569L60.1378 120.871H61.1876L60.8067 122.858H61.9786V123.879H60.6163ZM58.3702 125.012H59.3272L59.5567 123.879H58.5997L58.3702 125.012ZM64.5909 128H63.1016V120.861H67.1934V122.102H64.5909V123.942H67.0128V125.178H64.5909V128ZM70.0792 128H68.5899V120.861H72.6817V122.102H70.0792V123.942H72.501V125.178H70.0792V128ZM75.5674 128H74.0782V120.861H78.17V122.102H75.5674V123.942H77.9893V125.178H75.5674V128ZM81.0557 128H79.5665V120.861H83.6583V122.102H81.0557V123.942H83.4776V125.178H81.0557V128ZM86.544 128H85.0547V120.861H89.1465V122.102H86.544V123.942H88.9659V125.178H86.544V128ZM92.0323 128H90.543V120.861H94.6348V122.102H92.0323V123.942H94.4542V125.178H92.0323V128Z" fill="#2C3437"/>
</svg>
