<svg width="935" height="134" viewBox="0 0 935 134" fill="none" xmlns="http://www.w3.org/2000/svg">
<rect width="934.03" height="134" rx="10" fill="#E99C40"/>
<path d="M847.787 72.7578L847.328 75.0234H849.848V77.0352H846.948L846.196 81H844.047L844.809 77.0352H842.914L842.172 81H840.073L840.795 77.0352H838.471V75.0234H841.176L841.635 72.7578H839.174V70.7168H841.996L842.748 66.7422H844.887L844.135 70.7168H846.069L846.83 66.7422H848.93L848.168 70.7168H850.512V72.7578H847.787ZM843.295 75.0234H845.209L845.668 72.7578H843.754L843.295 75.0234ZM860.981 81H852.758V66.7227H860.981V69.2031H855.786V72.3379H860.62V74.8184H855.786V78.5H860.981V81ZM872.895 72.8164C872.895 73.6367 872.833 74.4505 872.709 75.2578C872.592 76.0651 872.384 76.8268 872.084 77.543C871.785 78.2526 871.365 78.8841 870.825 79.4375C870.284 79.9844 869.597 80.4141 868.764 80.7266C867.931 81.0391 866.922 81.1953 865.737 81.1953C865.457 81.1953 865.128 81.1823 864.75 81.1562C864.373 81.1367 864.06 81.1042 863.813 81.0586V78.6367C864.073 78.7018 864.35 78.7539 864.643 78.793C864.936 78.8255 865.232 78.8418 865.532 78.8418C866.723 78.8418 867.641 78.653 868.286 78.2754C868.937 77.8978 869.392 77.3737 869.653 76.7031C869.92 76.0326 870.073 75.2578 870.112 74.3789H869.995C869.806 74.6914 869.581 74.9746 869.321 75.2285C869.067 75.4759 868.741 75.6745 868.344 75.8242C867.947 75.9674 867.442 76.0391 866.83 76.0391C866.017 76.0391 865.307 75.8633 864.702 75.5117C864.103 75.1536 863.637 74.6393 863.305 73.9688C862.98 73.2917 862.817 72.4746 862.817 71.5176C862.817 70.4824 863.012 69.597 863.403 68.8613C863.8 68.1191 864.363 67.5495 865.092 67.1523C865.821 66.7552 866.681 66.5566 867.67 66.5566C868.399 66.5566 869.08 66.6836 869.711 66.9375C870.343 67.1849 870.896 67.5658 871.371 68.0801C871.853 68.5944 872.228 69.2454 872.495 70.0332C872.761 70.821 872.895 71.7487 872.895 72.8164ZM867.729 68.9785C867.143 68.9785 866.664 69.1803 866.293 69.584C865.922 69.9876 865.737 70.6191 865.737 71.4785C865.737 72.1686 865.896 72.7155 866.215 73.1191C866.534 73.5228 867.019 73.7246 867.67 73.7246C868.12 73.7246 868.51 73.627 868.842 73.4316C869.174 73.2298 869.431 72.9792 869.614 72.6797C869.802 72.3737 869.897 72.0612 869.897 71.7422C869.897 71.4102 869.851 71.0814 869.76 70.7559C869.669 70.4303 869.532 70.1341 869.35 69.8672C869.168 69.6003 868.94 69.3854 868.666 69.2227C868.399 69.0599 868.087 68.9785 867.729 68.9785ZM884.34 72.8164C884.34 73.6367 884.278 74.4505 884.155 75.2578C884.037 76.0651 883.829 76.8268 883.53 77.543C883.23 78.2526 882.81 78.8841 882.27 79.4375C881.73 79.9844 881.043 80.4141 880.209 80.7266C879.376 81.0391 878.367 81.1953 877.182 81.1953C876.902 81.1953 876.573 81.1823 876.196 81.1562C875.818 81.1367 875.506 81.1042 875.258 81.0586V78.6367C875.519 78.7018 875.795 78.7539 876.088 78.793C876.381 78.8255 876.677 78.8418 876.977 78.8418C878.168 78.8418 879.086 78.653 879.731 78.2754C880.382 77.8978 880.838 77.3737 881.098 76.7031C881.365 76.0326 881.518 75.2578 881.557 74.3789H881.44C881.251 74.6914 881.026 74.9746 880.766 75.2285C880.512 75.4759 880.187 75.6745 879.789 75.8242C879.392 75.9674 878.888 76.0391 878.276 76.0391C877.462 76.0391 876.752 75.8633 876.147 75.5117C875.548 75.1536 875.082 74.6393 874.75 73.9688C874.425 73.2917 874.262 72.4746 874.262 71.5176C874.262 70.4824 874.457 69.597 874.848 68.8613C875.245 68.1191 875.808 67.5495 876.537 67.1523C877.267 66.7552 878.126 66.5566 879.116 66.5566C879.845 66.5566 880.525 66.6836 881.157 66.9375C881.788 67.1849 882.342 67.5658 882.817 68.0801C883.299 68.5944 883.673 69.2454 883.94 70.0332C884.207 70.821 884.34 71.7487 884.34 72.8164ZM879.174 68.9785C878.588 68.9785 878.11 69.1803 877.739 69.584C877.368 69.9876 877.182 70.6191 877.182 71.4785C877.182 72.1686 877.342 72.7155 877.661 73.1191C877.98 73.5228 878.465 73.7246 879.116 73.7246C879.565 73.7246 879.955 73.627 880.287 73.4316C880.62 73.2298 880.877 72.9792 881.059 72.6797C881.248 72.3737 881.342 72.0612 881.342 71.7422C881.342 71.4102 881.297 71.0814 881.205 70.7559C881.114 70.4303 880.978 70.1341 880.795 69.8672C880.613 69.6003 880.385 69.3854 880.112 69.2227C879.845 69.0599 879.532 68.9785 879.174 68.9785ZM892.924 69.0371C892.345 69.0371 891.83 69.151 891.381 69.3789C890.939 69.6003 890.564 69.9225 890.258 70.3457C889.959 70.7689 889.731 71.2799 889.575 71.8789C889.418 72.4779 889.34 73.1517 889.34 73.9004C889.34 74.9095 889.464 75.7721 889.711 76.4883C889.965 77.1979 890.356 77.7415 890.883 78.1191C891.411 78.4902 892.091 78.6758 892.924 78.6758C893.504 78.6758 894.083 78.6107 894.662 78.4805C895.248 78.3503 895.883 78.1647 896.567 77.9238V80.4629C895.935 80.7233 895.314 80.9089 894.702 81.0195C894.09 81.1367 893.403 81.1953 892.641 81.1953C891.17 81.1953 889.959 80.8926 889.008 80.2871C888.064 79.6751 887.364 78.8223 886.909 77.7285C886.453 76.6283 886.225 75.3457 886.225 73.8809C886.225 72.8001 886.371 71.8105 886.664 70.9121C886.957 70.0137 887.387 69.2357 887.953 68.5781C888.52 67.9206 889.22 67.4128 890.053 67.0547C890.886 66.6966 891.843 66.5176 892.924 66.5176C893.634 66.5176 894.343 66.6087 895.053 66.791C895.769 66.9668 896.453 67.2109 897.104 67.5234L896.127 69.9844C895.593 69.7305 895.056 69.5091 894.516 69.3203C893.976 69.1315 893.445 69.0371 892.924 69.0371ZM908.92 78.041H907.202V81H904.252V78.041H898.159V75.9414L904.418 66.7227H907.202V75.6973H908.92V78.041ZM904.252 75.6973V73.2754C904.252 73.0475 904.256 72.7773 904.262 72.4648C904.275 72.1523 904.288 71.8398 904.301 71.5273C904.314 71.2148 904.327 70.9382 904.34 70.6973C904.36 70.4499 904.373 70.2773 904.379 70.1797H904.301C904.177 70.4466 904.047 70.707 903.911 70.9609C903.774 71.2083 903.614 71.4688 903.432 71.7422L900.815 75.6973H904.252ZM919.965 73.8613C919.965 75.0137 919.874 76.0423 919.692 76.9473C919.516 77.8522 919.23 78.6204 918.832 79.252C918.442 79.8835 917.927 80.3652 917.289 80.6973C916.651 81.0293 915.877 81.1953 914.965 81.1953C913.819 81.1953 912.879 80.9056 912.143 80.3262C911.407 79.7402 910.864 78.9004 910.512 77.8066C910.161 76.7064 909.985 75.3913 909.985 73.8613C909.985 72.3184 910.144 71 910.463 69.9062C910.789 68.806 911.316 67.9629 912.045 67.377C912.774 66.791 913.748 66.498 914.965 66.498C916.105 66.498 917.042 66.791 917.778 67.377C918.52 67.9564 919.07 68.7962 919.428 69.8965C919.786 70.9902 919.965 72.3118 919.965 73.8613ZM912.983 73.8613C912.983 74.9486 913.041 75.8568 913.159 76.5859C913.282 77.3086 913.487 77.8522 913.774 78.2168C914.06 78.5814 914.457 78.7637 914.965 78.7637C915.467 78.7637 915.86 78.5846 916.147 78.2266C916.44 77.862 916.648 77.3184 916.772 76.5957C916.896 75.8665 916.957 74.9551 916.957 73.8613C916.957 72.7741 916.896 71.8659 916.772 71.1367C916.648 70.4076 916.44 69.8607 916.147 69.4961C915.86 69.125 915.467 68.9395 914.965 68.9395C914.457 68.9395 914.06 69.125 913.774 69.4961C913.487 69.8607 913.282 70.4076 913.159 71.1367C913.041 71.8659 912.983 72.7741 912.983 73.8613Z" fill="white"/>
<path d="M817.64 98H934.03V124C934.03 129.523 929.553 134 924.03 134H817.64V98Z" fill="#4D2F0B"/>
<path d="M889.05 123.879L888.82 125.012H890.08V126.018H888.63L888.254 128H887.179L887.56 126.018H886.613L886.242 128H885.192L885.553 126.018H884.391V125.012H885.744L885.973 123.879H884.743V122.858H886.154L886.53 120.871H887.599L887.223 122.858H888.19L888.571 120.871H889.621L889.24 122.858H890.412V123.879H889.05ZM886.803 125.012H887.761L887.99 123.879H887.033L886.803 125.012ZM896.188 126.521H895.329V128H893.854V126.521H890.807V125.471L893.937 120.861H895.329V125.349H896.188V126.521ZM893.854 125.349V124.138C893.854 124.024 893.856 123.889 893.859 123.732C893.866 123.576 893.872 123.42 893.879 123.264C893.885 123.107 893.892 122.969 893.898 122.849C893.908 122.725 893.914 122.639 893.918 122.59H893.879C893.817 122.723 893.752 122.854 893.683 122.98C893.615 123.104 893.535 123.234 893.444 123.371L892.136 125.349H893.854ZM903.18 124.362C903.18 125.166 903.026 125.839 902.717 126.379C902.411 126.916 901.966 127.321 901.384 127.595C900.801 127.865 900.099 128 899.279 128H897.258V120.861H899.499C900.248 120.861 900.897 120.995 901.447 121.262C901.997 121.525 902.424 121.918 902.726 122.438C903.029 122.956 903.18 123.597 903.18 124.362ZM901.608 124.401C901.608 123.874 901.53 123.441 901.374 123.103C901.221 122.761 900.993 122.508 900.69 122.346C900.391 122.183 900.02 122.102 899.577 122.102H898.771V126.75H899.421C900.16 126.75 900.708 126.553 901.066 126.159C901.428 125.765 901.608 125.179 901.608 124.401ZM909.152 128H904.162V126.95L905.954 125.139C906.315 124.768 906.605 124.458 906.823 124.211C907.044 123.96 907.204 123.732 907.302 123.527C907.402 123.322 907.453 123.103 907.453 122.868C907.453 122.585 907.373 122.373 907.214 122.233C907.057 122.09 906.847 122.019 906.584 122.019C906.307 122.019 906.039 122.082 905.778 122.209C905.518 122.336 905.246 122.517 904.963 122.751L904.142 121.779C904.347 121.604 904.564 121.438 904.792 121.281C905.023 121.125 905.29 121 905.593 120.905C905.899 120.808 906.265 120.759 906.691 120.759C907.16 120.759 907.562 120.843 907.897 121.013C908.236 121.182 908.496 121.413 908.678 121.706C908.861 121.996 908.952 122.325 908.952 122.692C908.952 123.086 908.874 123.446 908.718 123.771C908.561 124.097 908.333 124.419 908.034 124.738C907.738 125.057 907.38 125.41 906.96 125.798L906.042 126.662V126.73H909.152V128ZM911.872 128H910.383V120.861H914.474V122.102H911.872V123.942H914.294V125.178H911.872V128ZM920.324 124.431C920.324 125.007 920.278 125.521 920.187 125.974C920.099 126.426 919.956 126.81 919.758 127.126C919.562 127.442 919.305 127.683 918.986 127.849C918.667 128.015 918.28 128.098 917.824 128.098C917.251 128.098 916.781 127.953 916.413 127.663C916.045 127.37 915.773 126.95 915.597 126.403C915.422 125.853 915.334 125.196 915.334 124.431C915.334 123.659 915.414 123 915.573 122.453C915.736 121.903 915.999 121.481 916.364 121.188C916.729 120.896 917.215 120.749 917.824 120.749C918.394 120.749 918.862 120.896 919.23 121.188C919.601 121.478 919.876 121.898 920.055 122.448C920.234 122.995 920.324 123.656 920.324 124.431ZM916.833 124.431C916.833 124.974 916.862 125.428 916.921 125.793C916.983 126.154 917.085 126.426 917.228 126.608C917.372 126.791 917.57 126.882 917.824 126.882C918.075 126.882 918.272 126.792 918.415 126.613C918.561 126.431 918.665 126.159 918.727 125.798C918.789 125.433 918.82 124.978 918.82 124.431C918.82 123.887 918.789 123.433 918.727 123.068C918.665 122.704 918.561 122.43 918.415 122.248C918.272 122.062 918.075 121.97 917.824 121.97C917.57 121.97 917.372 122.062 917.228 122.248C917.085 122.43 916.983 122.704 916.921 123.068C916.862 123.433 916.833 123.887 916.833 124.431ZM921.594 120.861H923.815C924.766 120.861 925.485 120.995 925.973 121.262C926.462 121.529 926.706 121.997 926.706 122.668C926.706 122.938 926.662 123.182 926.574 123.4C926.489 123.618 926.366 123.798 926.203 123.938C926.04 124.077 925.842 124.169 925.607 124.211V124.26C925.845 124.309 926.06 124.393 926.252 124.514C926.444 124.631 926.597 124.803 926.711 125.031C926.828 125.256 926.887 125.555 926.887 125.93C926.887 126.363 926.781 126.734 926.569 127.043C926.358 127.352 926.055 127.59 925.661 127.756C925.27 127.919 924.805 128 924.264 128H921.594V120.861ZM923.107 123.688H923.986C924.426 123.688 924.73 123.62 924.899 123.483C925.068 123.343 925.153 123.138 925.153 122.868C925.153 122.595 925.052 122.399 924.85 122.282C924.652 122.162 924.336 122.102 923.903 122.102H923.107V123.688ZM923.107 124.89V126.75H924.094C924.549 126.75 924.867 126.662 925.046 126.486C925.225 126.311 925.314 126.075 925.314 125.778C925.314 125.603 925.275 125.448 925.197 125.314C925.119 125.181 924.987 125.077 924.802 125.002C924.619 124.927 924.367 124.89 924.045 124.89H923.107Z" fill="white"/>
<path d="M700.28 98H817.64V134H700.28V98Z" fill="#683D08"/>
<path d="M773.421 123.879L773.192 125.012H774.452V126.018H773.001L772.625 128H771.551L771.932 126.018H770.985L770.614 128H769.564L769.925 126.018H768.763V125.012H770.116L770.345 123.879H769.115V122.858H770.526L770.902 120.871H771.971L771.595 122.858H772.562L772.943 120.871H773.993L773.612 122.858H774.784V123.879H773.421ZM771.175 125.012H772.132L772.362 123.879H771.405L771.175 125.012ZM775.36 124.968C775.36 124.558 775.389 124.152 775.448 123.752C775.509 123.348 775.615 122.969 775.765 122.614C775.915 122.256 776.125 121.94 776.395 121.667C776.665 121.39 777.009 121.174 777.425 121.018C777.842 120.858 778.346 120.778 778.939 120.778C779.079 120.778 779.242 120.785 779.427 120.798C779.616 120.808 779.772 120.826 779.896 120.852V122.058C779.766 122.028 779.626 122.006 779.476 121.989C779.329 121.97 779.183 121.96 779.036 121.96C778.444 121.96 777.985 122.054 777.66 122.243C777.337 122.432 777.109 122.694 776.976 123.029C776.846 123.361 776.769 123.749 776.746 124.191H776.81C776.901 124.032 777.015 123.89 777.152 123.767C777.292 123.643 777.461 123.545 777.66 123.474C777.858 123.399 778.091 123.361 778.358 123.361C778.774 123.361 779.136 123.451 779.442 123.63C779.748 123.806 779.984 124.061 780.15 124.396C780.316 124.732 780.399 125.14 780.399 125.622C780.399 126.136 780.3 126.579 780.101 126.95C779.902 127.321 779.621 127.606 779.256 127.805C778.895 128 778.465 128.098 777.967 128.098C777.603 128.098 777.262 128.036 776.947 127.912C776.631 127.785 776.354 127.593 776.117 127.336C775.879 127.079 775.693 126.755 775.56 126.364C775.426 125.97 775.36 125.505 775.36 124.968ZM777.938 126.892C778.234 126.892 778.475 126.791 778.661 126.589C778.846 126.387 778.939 126.071 778.939 125.642C778.939 125.293 778.857 125.02 778.695 124.821C778.535 124.619 778.293 124.519 777.967 124.519C777.746 124.519 777.55 124.569 777.381 124.67C777.215 124.768 777.087 124.893 776.995 125.046C776.904 125.196 776.859 125.35 776.859 125.51C776.859 125.676 776.882 125.84 776.927 126.003C776.973 126.166 777.041 126.314 777.132 126.447C777.223 126.581 777.336 126.688 777.469 126.77C777.606 126.851 777.762 126.892 777.938 126.892ZM783.592 120.769C784.002 120.769 784.38 120.832 784.725 120.959C785.073 121.086 785.352 121.278 785.56 121.535C785.768 121.789 785.872 122.108 785.872 122.492C785.872 122.779 785.815 123.029 785.702 123.244C785.591 123.459 785.439 123.648 785.247 123.811C785.055 123.97 784.837 124.11 784.593 124.23C784.847 124.364 785.088 124.52 785.316 124.699C785.544 124.875 785.729 125.082 785.872 125.319C786.019 125.557 786.092 125.834 786.092 126.149C786.092 126.547 785.986 126.892 785.775 127.185C785.563 127.474 785.27 127.699 784.896 127.858C784.522 128.018 784.087 128.098 783.592 128.098C783.058 128.098 782.604 128.021 782.23 127.868C781.856 127.715 781.571 127.497 781.375 127.214C781.18 126.927 781.082 126.586 781.082 126.188C781.082 125.863 781.143 125.58 781.263 125.339C781.387 125.098 781.553 124.891 781.761 124.719C781.969 124.543 782.199 124.393 782.45 124.27C782.238 124.136 782.044 123.985 781.869 123.815C781.696 123.646 781.558 123.452 781.453 123.234C781.353 123.016 781.302 122.766 781.302 122.482C781.302 122.105 781.408 121.789 781.62 121.535C781.834 121.281 782.116 121.091 782.464 120.964C782.813 120.834 783.189 120.769 783.592 120.769ZM782.479 126.101C782.479 126.358 782.57 126.571 782.752 126.74C782.938 126.906 783.211 126.989 783.573 126.989C783.947 126.989 784.227 126.91 784.412 126.75C784.598 126.587 784.691 126.374 784.691 126.11C784.691 125.928 784.637 125.769 784.53 125.632C784.425 125.495 784.294 125.373 784.134 125.266C783.975 125.155 783.814 125.052 783.651 124.958L783.519 124.89C783.311 124.984 783.128 125.09 782.972 125.207C782.819 125.324 782.699 125.456 782.611 125.603C782.523 125.749 782.479 125.915 782.479 126.101ZM783.582 121.872C783.335 121.872 783.13 121.936 782.967 122.062C782.804 122.189 782.723 122.368 782.723 122.6C782.723 122.762 782.762 122.906 782.84 123.029C782.922 123.15 783.027 123.256 783.158 123.347C783.291 123.438 783.436 123.522 783.592 123.601C783.742 123.529 783.882 123.449 784.012 123.361C784.142 123.273 784.248 123.168 784.329 123.044C784.411 122.92 784.452 122.772 784.452 122.6C784.452 122.368 784.369 122.189 784.203 122.062C784.04 121.936 783.833 121.872 783.582 121.872ZM791.566 122.458C791.566 122.787 791.497 123.072 791.361 123.312C791.224 123.553 791.038 123.75 790.804 123.903C790.573 124.056 790.313 124.169 790.023 124.24V124.27C790.596 124.341 791.03 124.517 791.327 124.797C791.626 125.077 791.776 125.451 791.776 125.92C791.776 126.337 791.673 126.709 791.468 127.038C791.266 127.367 790.954 127.626 790.531 127.814C790.107 128.003 789.562 128.098 788.895 128.098C788.501 128.098 788.133 128.065 787.791 128C787.453 127.938 787.134 127.842 786.834 127.712V126.428C787.14 126.584 787.461 126.703 787.796 126.784C788.132 126.862 788.444 126.901 788.734 126.901C789.274 126.901 789.652 126.809 789.867 126.623C790.085 126.434 790.194 126.171 790.194 125.832C790.194 125.633 790.143 125.466 790.042 125.329C789.941 125.192 789.766 125.088 789.515 125.017C789.268 124.945 788.921 124.909 788.475 124.909H787.933V123.752H788.485C788.924 123.752 789.258 123.711 789.486 123.63C789.717 123.545 789.873 123.431 789.954 123.288C790.039 123.142 790.081 122.976 790.081 122.79C790.081 122.536 790.003 122.338 789.847 122.194C789.691 122.051 789.43 121.979 789.066 121.979C788.838 121.979 788.63 122.009 788.441 122.067C788.255 122.123 788.088 122.191 787.938 122.272C787.788 122.351 787.656 122.427 787.542 122.502L786.844 121.462C787.124 121.26 787.451 121.092 787.826 120.959C788.203 120.826 788.652 120.759 789.173 120.759C789.909 120.759 790.492 120.907 790.921 121.203C791.351 121.499 791.566 121.918 791.566 122.458ZM798.997 124.362C798.997 125.166 798.843 125.839 798.534 126.379C798.228 126.916 797.783 127.321 797.201 127.595C796.618 127.865 795.916 128 795.096 128H793.075V120.861H795.316C796.064 120.861 796.714 120.995 797.264 121.262C797.814 121.525 798.241 121.918 798.543 122.438C798.846 122.956 798.997 123.597 798.997 124.362ZM797.425 124.401C797.425 123.874 797.347 123.441 797.191 123.103C797.038 122.761 796.81 122.508 796.507 122.346C796.208 122.183 795.837 122.102 795.394 122.102H794.588V126.75H795.238C795.977 126.75 796.525 126.553 796.883 126.159C797.245 125.765 797.425 125.179 797.425 124.401ZM804.93 124.431C804.93 125.007 804.884 125.521 804.793 125.974C804.705 126.426 804.562 126.81 804.364 127.126C804.168 127.442 803.911 127.683 803.592 127.849C803.273 128.015 802.886 128.098 802.43 128.098C801.857 128.098 801.387 127.953 801.019 127.663C800.651 127.37 800.379 126.95 800.203 126.403C800.028 125.853 799.94 125.196 799.94 124.431C799.94 123.659 800.02 123 800.179 122.453C800.342 121.903 800.606 121.481 800.97 121.188C801.335 120.896 801.821 120.749 802.43 120.749C803 120.749 803.468 120.896 803.836 121.188C804.207 121.478 804.482 121.898 804.661 122.448C804.841 122.995 804.93 123.656 804.93 124.431ZM801.439 124.431C801.439 124.974 801.468 125.428 801.527 125.793C801.589 126.154 801.691 126.426 801.834 126.608C801.978 126.791 802.176 126.882 802.43 126.882C802.681 126.882 802.878 126.792 803.021 126.613C803.167 126.431 803.272 126.159 803.333 125.798C803.395 125.433 803.426 124.978 803.426 124.431C803.426 123.887 803.395 123.433 803.333 123.068C803.272 122.704 803.167 122.43 803.021 122.248C802.878 122.062 802.681 121.97 802.43 121.97C802.176 121.97 801.978 122.062 801.834 122.248C801.691 122.43 801.589 122.704 801.527 123.068C801.468 123.433 801.439 123.887 801.439 124.431ZM808.162 120.769C808.573 120.769 808.95 120.832 809.295 120.959C809.644 121.086 809.922 121.278 810.13 121.535C810.339 121.789 810.443 122.108 810.443 122.492C810.443 122.779 810.386 123.029 810.272 123.244C810.161 123.459 810.01 123.648 809.818 123.811C809.626 123.97 809.408 124.11 809.163 124.23C809.417 124.364 809.658 124.52 809.886 124.699C810.114 124.875 810.3 125.082 810.443 125.319C810.589 125.557 810.662 125.834 810.662 126.149C810.662 126.547 810.557 126.892 810.345 127.185C810.134 127.474 809.841 127.699 809.466 127.858C809.092 128.018 808.657 128.098 808.162 128.098C807.629 128.098 807.175 128.021 806.8 127.868C806.426 127.715 806.141 127.497 805.946 127.214C805.75 126.927 805.653 126.586 805.653 126.188C805.653 125.863 805.713 125.58 805.833 125.339C805.957 125.098 806.123 124.891 806.331 124.719C806.54 124.543 806.769 124.393 807.02 124.27C806.808 124.136 806.615 123.985 806.439 123.815C806.266 123.646 806.128 123.452 806.024 123.234C805.923 123.016 805.872 122.766 805.872 122.482C805.872 122.105 805.978 121.789 806.19 121.535C806.405 121.281 806.686 121.091 807.035 120.964C807.383 120.834 807.759 120.769 808.162 120.769ZM807.049 126.101C807.049 126.358 807.14 126.571 807.323 126.74C807.508 126.906 807.782 126.989 808.143 126.989C808.517 126.989 808.797 126.91 808.983 126.75C809.168 126.587 809.261 126.374 809.261 126.11C809.261 125.928 809.207 125.769 809.1 125.632C808.996 125.495 808.864 125.373 808.704 125.266C808.545 125.155 808.384 125.052 808.221 124.958L808.089 124.89C807.881 124.984 807.699 125.09 807.542 125.207C807.389 125.324 807.269 125.456 807.181 125.603C807.093 125.749 807.049 125.915 807.049 126.101ZM808.153 121.872C807.905 121.872 807.7 121.936 807.537 122.062C807.375 122.189 807.293 122.368 807.293 122.6C807.293 122.762 807.332 122.906 807.411 123.029C807.492 123.15 807.598 123.256 807.728 123.347C807.861 123.438 808.006 123.522 808.162 123.601C808.312 123.529 808.452 123.449 808.582 123.361C808.713 123.273 808.818 123.168 808.9 123.044C808.981 122.92 809.022 122.772 809.022 122.6C809.022 122.368 808.939 122.189 808.773 122.062C808.61 121.936 808.403 121.872 808.153 121.872Z" fill="white"/>
<path d="M583.89 98H700.28V134H583.89V98Z" fill="#8B4D04"/>
<path d="M654.095 123.879L653.866 125.012H655.126V126.018H653.675L653.299 128H652.225L652.606 126.018H651.659L651.288 128H650.238L650.599 126.018H649.437V125.012H650.79L651.019 123.879H649.789V122.858H651.2L651.576 120.871H652.645L652.269 122.858H653.236L653.617 120.871H654.667L654.286 122.858H655.458V123.879H654.095ZM651.849 125.012H652.806L653.036 123.879H652.079L651.849 125.012ZM658.544 120.769C658.954 120.769 659.331 120.832 659.676 120.959C660.025 121.086 660.303 121.278 660.511 121.535C660.72 121.789 660.824 122.108 660.824 122.492C660.824 122.779 660.767 123.029 660.653 123.244C660.542 123.459 660.391 123.648 660.199 123.811C660.007 123.97 659.789 124.11 659.545 124.23C659.798 124.364 660.039 124.52 660.267 124.699C660.495 124.875 660.681 125.082 660.824 125.319C660.97 125.557 661.044 125.834 661.044 126.149C661.044 126.547 660.938 126.892 660.726 127.185C660.515 127.474 660.222 127.699 659.847 127.858C659.473 128.018 659.038 128.098 658.544 128.098C658.01 128.098 657.556 128.021 657.181 127.868C656.807 127.715 656.522 127.497 656.327 127.214C656.131 126.927 656.034 126.586 656.034 126.188C656.034 125.863 656.094 125.58 656.214 125.339C656.338 125.098 656.504 124.891 656.712 124.719C656.921 124.543 657.15 124.393 657.401 124.27C657.189 124.136 656.996 123.985 656.82 123.815C656.647 123.646 656.509 123.452 656.405 123.234C656.304 123.016 656.254 122.766 656.254 122.482C656.254 122.105 656.359 121.789 656.571 121.535C656.786 121.281 657.067 121.091 657.416 120.964C657.764 120.834 658.14 120.769 658.544 120.769ZM657.43 126.101C657.43 126.358 657.521 126.571 657.704 126.74C657.889 126.906 658.163 126.989 658.524 126.989C658.898 126.989 659.178 126.91 659.364 126.75C659.549 126.587 659.642 126.374 659.642 126.11C659.642 125.928 659.588 125.769 659.481 125.632C659.377 125.495 659.245 125.373 659.086 125.266C658.926 125.155 658.765 125.052 658.602 124.958L658.47 124.89C658.262 124.984 658.08 125.09 657.923 125.207C657.77 125.324 657.65 125.456 657.562 125.603C657.474 125.749 657.43 125.915 657.43 126.101ZM658.534 121.872C658.286 121.872 658.081 121.936 657.919 122.062C657.756 122.189 657.674 122.368 657.674 122.6C657.674 122.762 657.713 122.906 657.792 123.029C657.873 123.15 657.979 123.256 658.109 123.347C658.242 123.438 658.387 123.522 658.544 123.601C658.693 123.529 658.833 123.449 658.963 123.361C659.094 123.273 659.199 123.168 659.281 123.044C659.362 122.92 659.403 122.772 659.403 122.6C659.403 122.368 659.32 122.189 659.154 122.062C658.991 121.936 658.784 121.872 658.534 121.872ZM662.303 120.861H664.525C665.476 120.861 666.195 120.995 666.683 121.262C667.171 121.529 667.416 121.997 667.416 122.668C667.416 122.938 667.372 123.182 667.284 123.4C667.199 123.618 667.075 123.798 666.913 123.938C666.75 124.077 666.551 124.169 666.317 124.211V124.26C666.555 124.309 666.769 124.393 666.962 124.514C667.154 124.631 667.307 124.803 667.421 125.031C667.538 125.256 667.596 125.555 667.596 125.93C667.596 126.363 667.49 126.734 667.279 127.043C667.067 127.352 666.765 127.59 666.371 127.756C665.98 127.919 665.515 128 664.974 128H662.303V120.861ZM663.817 123.688H664.696C665.135 123.688 665.44 123.62 665.609 123.483C665.778 123.343 665.863 123.138 665.863 122.868C665.863 122.595 665.762 122.399 665.56 122.282C665.362 122.162 665.046 122.102 664.613 122.102H663.817V123.688ZM663.817 124.89V126.75H664.803C665.259 126.75 665.576 126.662 665.755 126.486C665.934 126.311 666.024 126.075 666.024 125.778C666.024 125.603 665.985 125.448 665.907 125.314C665.829 125.181 665.697 125.077 665.511 125.002C665.329 124.927 665.077 124.89 664.754 124.89H663.817ZM673.675 126.521H672.816V128H671.341V126.521H668.295V125.471L671.424 120.861H672.816V125.349H673.675V126.521ZM671.341 125.349V124.138C671.341 124.024 671.343 123.889 671.346 123.732C671.353 123.576 671.359 123.42 671.366 123.264C671.372 123.107 671.379 122.969 671.385 122.849C671.395 122.725 671.402 122.639 671.405 122.59H671.366C671.304 122.723 671.239 122.854 671.171 122.98C671.102 123.104 671.022 123.234 670.931 123.371L669.623 125.349H671.341ZM680.668 124.362C680.668 125.166 680.513 125.839 680.204 126.379C679.898 126.916 679.453 127.321 678.871 127.595C678.288 127.865 677.587 128 676.766 128H674.745V120.861H676.986C677.735 120.861 678.384 120.995 678.934 121.262C679.484 121.525 679.911 121.918 680.213 122.438C680.516 122.956 680.668 123.597 680.668 124.362ZM679.095 124.401C679.095 123.874 679.017 123.441 678.861 123.103C678.708 122.761 678.48 122.508 678.177 122.346C677.878 122.183 677.507 122.102 677.064 122.102H676.258V126.75H676.908C677.647 126.75 678.195 126.553 678.553 126.159C678.915 125.765 679.095 125.179 679.095 124.401ZM686.6 124.431C686.6 125.007 686.555 125.521 686.463 125.974C686.376 126.426 686.232 126.81 686.034 127.126C685.838 127.442 685.581 127.683 685.262 127.849C684.943 128.015 684.556 128.098 684.1 128.098C683.527 128.098 683.057 127.953 682.689 127.663C682.321 127.37 682.049 126.95 681.874 126.403C681.698 125.853 681.61 125.196 681.61 124.431C681.61 123.659 681.69 123 681.849 122.453C682.012 121.903 682.276 121.481 682.64 121.188C683.005 120.896 683.491 120.749 684.1 120.749C684.67 120.749 685.139 120.896 685.506 121.188C685.878 121.478 686.153 121.898 686.332 122.448C686.511 122.995 686.6 123.656 686.6 124.431ZM683.109 124.431C683.109 124.974 683.138 125.428 683.197 125.793C683.259 126.154 683.361 126.426 683.504 126.608C683.648 126.791 683.846 126.882 684.1 126.882C684.351 126.882 684.548 126.792 684.691 126.613C684.837 126.431 684.942 126.159 685.004 125.798C685.065 125.433 685.096 124.978 685.096 124.431C685.096 123.887 685.065 123.433 685.004 123.068C684.942 122.704 684.837 122.43 684.691 122.248C684.548 122.062 684.351 121.97 684.1 121.97C683.846 121.97 683.648 122.062 683.504 122.248C683.361 122.43 683.259 122.704 683.197 123.068C683.138 123.433 683.109 123.887 683.109 124.431ZM692.523 126.521H691.664V128H690.189V126.521H687.142V125.471L690.272 120.861H691.664V125.349H692.523V126.521ZM690.189 125.349V124.138C690.189 124.024 690.191 123.889 690.194 123.732C690.2 123.576 690.207 123.42 690.213 123.264C690.22 123.107 690.226 122.969 690.233 122.849C690.243 122.725 690.249 122.639 690.253 122.59H690.213C690.152 122.723 690.087 122.854 690.018 122.98C689.95 123.104 689.87 123.234 689.779 123.371L688.47 125.349H690.189Z" fill="white"/>
<path d="M467.5 98H583.89V134H467.5V98Z" fill="#AE5F00"/>
<path d="M541.491 123.879L541.261 125.012H542.521V126.018H541.071L540.695 128H539.621L540.002 126.018H539.054L538.683 128H537.633L537.995 126.018H536.833V125.012H538.185L538.415 123.879H537.184V122.858H538.595L538.971 120.871H540.041L539.665 122.858H540.631L541.012 120.871H542.062L541.681 122.858H542.853V123.879H541.491ZM539.245 125.012H540.202L540.431 123.879H539.474L539.245 125.012ZM548.346 128L547.829 126.301H545.226L544.709 128H543.078L545.597 120.832H547.448L549.977 128H548.346ZM547.467 125.031L546.95 123.371C546.917 123.26 546.873 123.119 546.818 122.946C546.766 122.771 546.712 122.593 546.657 122.414C546.605 122.232 546.562 122.074 546.53 121.94C546.497 122.074 546.452 122.24 546.393 122.438C546.338 122.634 546.284 122.819 546.232 122.995C546.18 123.171 546.142 123.296 546.12 123.371L545.607 125.031H547.467ZM554.992 128H550.88V120.861H554.992V122.102H552.394V123.669H554.811V124.909H552.394V126.75H554.992V128ZM558.586 123.439C559.022 123.439 559.409 123.522 559.748 123.688C560.089 123.854 560.358 124.099 560.553 124.421C560.749 124.743 560.846 125.14 560.846 125.612C560.846 126.127 560.739 126.571 560.524 126.945C560.312 127.316 559.995 127.601 559.572 127.8C559.152 127.998 558.628 128.098 558 128.098C557.625 128.098 557.272 128.065 556.94 128C556.611 127.938 556.323 127.842 556.076 127.712V126.408C556.323 126.538 556.619 126.649 556.964 126.74C557.313 126.828 557.64 126.872 557.946 126.872C558.245 126.872 558.498 126.833 558.703 126.755C558.908 126.674 559.062 126.55 559.167 126.384C559.274 126.215 559.328 126 559.328 125.739C559.328 125.391 559.211 125.124 558.976 124.938C558.742 124.753 558.382 124.66 557.897 124.66C557.711 124.66 557.518 124.678 557.316 124.714C557.117 124.75 556.951 124.785 556.818 124.821L556.217 124.499L556.486 120.861H560.358V122.141H557.809L557.677 123.542C557.788 123.519 557.908 123.496 558.039 123.474C558.169 123.451 558.351 123.439 558.586 123.439ZM563.698 128H562.209V120.861H566.3V122.102H563.698V123.942H566.12V125.178H563.698V128ZM572.15 124.431C572.15 125.007 572.104 125.521 572.013 125.974C571.925 126.426 571.782 126.81 571.584 127.126C571.388 127.442 571.131 127.683 570.812 127.849C570.493 128.015 570.106 128.098 569.65 128.098C569.077 128.098 568.607 127.953 568.239 127.663C567.871 127.37 567.599 126.95 567.423 126.403C567.248 125.853 567.16 125.196 567.16 124.431C567.16 123.659 567.239 123 567.399 122.453C567.562 121.903 567.825 121.481 568.19 121.188C568.555 120.896 569.041 120.749 569.65 120.749C570.22 120.749 570.688 120.896 571.056 121.188C571.427 121.478 571.702 121.898 571.881 122.448C572.06 122.995 572.15 123.656 572.15 124.431ZM568.659 124.431C568.659 124.974 568.688 125.428 568.747 125.793C568.808 126.154 568.911 126.426 569.054 126.608C569.197 126.791 569.396 126.882 569.65 126.882C569.901 126.882 570.098 126.792 570.241 126.613C570.387 126.431 570.491 126.159 570.553 125.798C570.615 125.433 570.646 124.978 570.646 124.431C570.646 123.887 570.615 123.433 570.553 123.068C570.491 122.704 570.387 122.43 570.241 122.248C570.098 122.062 569.901 121.97 569.65 121.97C569.396 121.97 569.197 122.062 569.054 122.248C568.911 122.43 568.808 122.704 568.747 123.068C568.688 123.433 568.659 123.887 568.659 124.431ZM577.873 124.431C577.873 125.007 577.827 125.521 577.736 125.974C577.648 126.426 577.505 126.81 577.306 127.126C577.111 127.442 576.854 127.683 576.535 127.849C576.216 128.015 575.828 128.098 575.373 128.098C574.8 128.098 574.329 127.953 573.961 127.663C573.594 127.37 573.322 126.95 573.146 126.403C572.97 125.853 572.882 125.196 572.882 124.431C572.882 123.659 572.962 123 573.122 122.453C573.284 121.903 573.548 121.481 573.913 121.188C574.277 120.896 574.764 120.749 575.373 120.749C575.942 120.749 576.411 120.896 576.779 121.188C577.15 121.478 577.425 121.898 577.604 122.448C577.783 122.995 577.873 123.656 577.873 124.431ZM574.381 124.431C574.381 124.974 574.411 125.428 574.469 125.793C574.531 126.154 574.634 126.426 574.777 126.608C574.92 126.791 575.119 126.882 575.373 126.882C575.623 126.882 575.82 126.792 575.963 126.613C576.11 126.431 576.214 126.159 576.276 125.798C576.338 125.433 576.369 124.978 576.369 124.431C576.369 123.887 576.338 123.433 576.276 123.068C576.214 122.704 576.11 122.43 575.963 122.248C575.82 122.062 575.623 121.97 575.373 121.97C575.119 121.97 574.92 122.062 574.777 122.248C574.634 122.43 574.531 122.704 574.469 123.068C574.411 123.433 574.381 123.887 574.381 124.431Z" fill="white"/>
<path d="M350.14 98H467.5V134H350.14V98Z" fill="#D07912"/>
<path d="M423.281 123.879L423.052 125.012H424.311V126.018H422.861L422.485 128H421.411L421.792 126.018H420.845L420.474 128H419.424L419.785 126.018H418.623V125.012H419.976L420.205 123.879H418.975V122.858H420.386L420.762 120.871H421.831L421.455 122.858H422.422L422.803 120.871H423.852L423.472 122.858H424.644V123.879H423.281ZM421.035 125.012H421.992L422.222 123.879H421.265L421.035 125.012ZM431.689 124.362C431.689 125.166 431.535 125.839 431.226 126.379C430.92 126.916 430.475 127.321 429.893 127.595C429.31 127.865 428.608 128 427.788 128H425.767V120.861H428.008C428.756 120.861 429.406 120.995 429.956 121.262C430.506 121.525 430.933 121.918 431.235 122.438C431.538 122.956 431.689 123.597 431.689 124.362ZM430.117 124.401C430.117 123.874 430.039 123.441 429.883 123.103C429.73 122.761 429.502 122.508 429.199 122.346C428.9 122.183 428.529 122.102 428.086 122.102H427.28V126.75H427.93C428.669 126.75 429.217 126.553 429.575 126.159C429.936 125.765 430.117 125.179 430.117 124.401ZM437.622 124.431C437.622 125.007 437.576 125.521 437.485 125.974C437.397 126.426 437.254 126.81 437.056 127.126C436.86 127.442 436.603 127.683 436.284 127.849C435.965 128.015 435.578 128.098 435.122 128.098C434.549 128.098 434.079 127.953 433.711 127.663C433.343 127.37 433.071 126.95 432.895 126.403C432.72 125.853 432.632 125.196 432.632 124.431C432.632 123.659 432.712 123 432.871 122.453C433.034 121.903 433.297 121.481 433.662 121.188C434.027 120.896 434.513 120.749 435.122 120.749C435.692 120.749 436.16 120.896 436.528 121.188C436.899 121.478 437.174 121.898 437.353 122.448C437.532 122.995 437.622 123.656 437.622 124.431ZM434.131 124.431C434.131 124.974 434.16 125.428 434.219 125.793C434.281 126.154 434.383 126.426 434.526 126.608C434.67 126.791 434.868 126.882 435.122 126.882C435.373 126.882 435.57 126.792 435.713 126.613C435.859 126.431 435.963 126.159 436.025 125.798C436.087 125.433 436.118 124.978 436.118 124.431C436.118 123.887 436.087 123.433 436.025 123.068C435.963 122.704 435.859 122.43 435.713 122.248C435.57 122.062 435.373 121.97 435.122 121.97C434.868 121.97 434.67 122.062 434.526 122.248C434.383 122.43 434.281 122.704 434.219 123.068C434.16 123.433 434.131 123.887 434.131 124.431ZM439.102 128L441.782 122.131H438.262V120.861H443.384V121.809L440.684 128H439.102ZM449.077 123.908C449.077 124.318 449.046 124.725 448.984 125.129C448.926 125.533 448.822 125.913 448.672 126.271C448.522 126.626 448.312 126.942 448.042 127.219C447.772 127.492 447.428 127.707 447.012 127.863C446.595 128.02 446.09 128.098 445.498 128.098C445.358 128.098 445.194 128.091 445.005 128.078C444.816 128.068 444.66 128.052 444.536 128.029V126.818C444.666 126.851 444.805 126.877 444.951 126.896C445.098 126.913 445.246 126.921 445.395 126.921C445.991 126.921 446.45 126.826 446.772 126.638C447.098 126.449 447.326 126.187 447.456 125.852C447.589 125.516 447.666 125.129 447.685 124.689H447.627C447.532 124.846 447.42 124.987 447.29 125.114C447.163 125.238 447 125.337 446.802 125.412C446.603 125.484 446.351 125.52 446.045 125.52C445.638 125.52 445.283 125.432 444.98 125.256C444.681 125.077 444.448 124.82 444.282 124.484C444.119 124.146 444.038 123.737 444.038 123.259C444.038 122.741 444.136 122.299 444.331 121.931C444.53 121.56 444.811 121.275 445.176 121.076C445.54 120.878 445.97 120.778 446.465 120.778C446.829 120.778 447.17 120.842 447.485 120.969C447.801 121.092 448.078 121.283 448.315 121.54C448.556 121.797 448.743 122.123 448.877 122.517C449.01 122.91 449.077 123.374 449.077 123.908ZM446.494 121.989C446.201 121.989 445.962 122.09 445.776 122.292C445.591 122.494 445.498 122.81 445.498 123.239C445.498 123.584 445.578 123.858 445.737 124.06C445.897 124.261 446.139 124.362 446.465 124.362C446.689 124.362 446.885 124.313 447.051 124.216C447.217 124.115 447.345 123.99 447.436 123.84C447.531 123.687 447.578 123.531 447.578 123.371C447.578 123.205 447.555 123.041 447.51 122.878C447.464 122.715 447.396 122.567 447.305 122.434C447.213 122.3 447.1 122.193 446.963 122.111C446.829 122.03 446.673 121.989 446.494 121.989ZM453.569 128H452.06V123.869C452.06 123.755 452.062 123.615 452.065 123.449C452.069 123.28 452.074 123.107 452.08 122.932C452.087 122.753 452.093 122.591 452.1 122.448C452.064 122.491 451.991 122.564 451.88 122.668C451.772 122.769 451.671 122.86 451.577 122.941L450.757 123.601L450.029 122.692L452.329 120.861H453.569V128ZM460.552 128H455.561V126.95L457.353 125.139C457.715 124.768 458.005 124.458 458.223 124.211C458.444 123.96 458.603 123.732 458.701 123.527C458.802 123.322 458.852 123.103 458.852 122.868C458.852 122.585 458.773 122.373 458.613 122.233C458.457 122.09 458.247 122.019 457.983 122.019C457.707 122.019 457.438 122.082 457.178 122.209C456.917 122.336 456.645 122.517 456.362 122.751L455.542 121.779C455.747 121.604 455.963 121.438 456.191 121.281C456.422 121.125 456.689 121 456.992 120.905C457.298 120.808 457.664 120.759 458.091 120.759C458.56 120.759 458.962 120.843 459.297 121.013C459.635 121.182 459.896 121.413 460.078 121.706C460.26 121.996 460.352 122.325 460.352 122.692C460.352 123.086 460.273 123.446 460.117 123.771C459.961 124.097 459.733 124.419 459.434 124.738C459.137 125.057 458.779 125.41 458.359 125.798L457.441 126.662V126.73H460.552V128Z" fill="#2C3437"/>
<path d="M233.75 98H350.14V134H233.75V98Z" fill="#F5BC75"/>
<path d="M306.185 123.879L305.955 125.012H307.215V126.018H305.765L305.389 128H304.315L304.696 126.018H303.748L303.377 128H302.327L302.689 126.018H301.527V125.012H302.879L303.109 123.879H301.878V122.858H303.289L303.665 120.871H304.735L304.359 122.858H305.326L305.706 120.871H306.756L306.375 122.858H307.547V123.879H306.185ZM303.939 125.012H304.896L305.125 123.879H304.168L303.939 125.012ZM310.159 128H308.67V120.861H312.762V122.102H310.159V123.942H312.581V125.178H310.159V128ZM316.258 123.439C316.694 123.439 317.082 123.522 317.42 123.688C317.762 123.854 318.031 124.099 318.226 124.421C318.421 124.743 318.519 125.14 318.519 125.612C318.519 126.127 318.411 126.571 318.197 126.945C317.985 127.316 317.668 127.601 317.244 127.8C316.825 127.998 316.3 128.098 315.672 128.098C315.298 128.098 314.945 128.065 314.613 128C314.284 127.938 313.996 127.842 313.748 127.712V126.408C313.996 126.538 314.292 126.649 314.637 126.74C314.985 126.828 315.312 126.872 315.618 126.872C315.918 126.872 316.17 126.833 316.375 126.755C316.58 126.674 316.735 126.55 316.839 126.384C316.947 126.215 317 126 317 125.739C317 125.391 316.883 125.124 316.649 124.938C316.414 124.753 316.055 124.66 315.57 124.66C315.384 124.66 315.19 124.678 314.989 124.714C314.79 124.75 314.624 124.785 314.491 124.821L313.89 124.499L314.159 120.861H318.031V122.141H315.482L315.35 123.542C315.461 123.519 315.581 123.496 315.711 123.474C315.841 123.451 316.024 123.439 316.258 123.439ZM319.881 120.861H322.103C323.053 120.861 323.773 120.995 324.261 121.262C324.749 121.529 324.993 121.997 324.993 122.668C324.993 122.938 324.95 123.182 324.862 123.4C324.777 123.618 324.653 123.798 324.491 123.938C324.328 124.077 324.129 124.169 323.895 124.211V124.26C324.132 124.309 324.347 124.393 324.539 124.514C324.731 124.631 324.884 124.803 324.998 125.031C325.116 125.256 325.174 125.555 325.174 125.93C325.174 126.363 325.068 126.734 324.857 127.043C324.645 127.352 324.342 127.59 323.949 127.756C323.558 127.919 323.092 128 322.552 128H319.881V120.861ZM321.395 123.688H322.274C322.713 123.688 323.018 123.62 323.187 123.483C323.356 123.343 323.441 123.138 323.441 122.868C323.441 122.595 323.34 122.399 323.138 122.282C322.939 122.162 322.624 122.102 322.191 122.102H321.395V123.688ZM321.395 124.89V126.75H322.381C322.837 126.75 323.154 126.662 323.333 126.486C323.512 126.311 323.602 126.075 323.602 125.778C323.602 125.603 323.563 125.448 323.485 125.314C323.407 125.181 323.275 125.077 323.089 125.002C322.907 124.927 322.655 124.89 322.332 124.89H321.395ZM329.632 122.019C329.342 122.019 329.085 122.076 328.861 122.189C328.639 122.3 328.452 122.461 328.299 122.673C328.149 122.884 328.035 123.14 327.957 123.439C327.879 123.739 327.84 124.076 327.84 124.45C327.84 124.955 327.902 125.386 328.026 125.744C328.153 126.099 328.348 126.371 328.612 126.56C328.875 126.745 329.215 126.838 329.632 126.838C329.922 126.838 330.212 126.805 330.501 126.74C330.794 126.675 331.112 126.582 331.453 126.462V127.731C331.138 127.862 330.827 127.954 330.521 128.01C330.215 128.068 329.871 128.098 329.491 128.098C328.755 128.098 328.149 127.946 327.674 127.644C327.202 127.338 326.852 126.911 326.624 126.364C326.396 125.814 326.283 125.173 326.283 124.44C326.283 123.9 326.356 123.405 326.502 122.956C326.649 122.507 326.864 122.118 327.147 121.789C327.43 121.46 327.78 121.206 328.197 121.027C328.613 120.848 329.092 120.759 329.632 120.759C329.987 120.759 330.342 120.804 330.697 120.896C331.055 120.983 331.396 121.105 331.722 121.262L331.234 122.492C330.967 122.365 330.698 122.255 330.428 122.16C330.158 122.066 329.893 122.019 329.632 122.019ZM333.187 128L335.867 122.131H332.347V120.861H337.469V121.809L334.769 128H333.187ZM340.799 123.439C341.235 123.439 341.623 123.522 341.961 123.688C342.303 123.854 342.572 124.099 342.767 124.421C342.962 124.743 343.06 125.14 343.06 125.612C343.06 126.127 342.952 126.571 342.738 126.945C342.526 127.316 342.209 127.601 341.785 127.8C341.366 127.998 340.841 128.098 340.213 128.098C339.839 128.098 339.486 128.065 339.154 128C338.825 127.938 338.537 127.842 338.289 127.712V126.408C338.537 126.538 338.833 126.649 339.178 126.74C339.526 126.828 339.853 126.872 340.159 126.872C340.459 126.872 340.711 126.833 340.916 126.755C341.121 126.674 341.276 126.55 341.38 126.384C341.488 126.215 341.541 126 341.541 125.739C341.541 125.391 341.424 125.124 341.19 124.938C340.955 124.753 340.596 124.66 340.111 124.66C339.925 124.66 339.731 124.678 339.53 124.714C339.331 124.75 339.165 124.785 339.032 124.821L338.431 124.499L338.7 120.861H342.572V122.141H340.023L339.891 123.542C340.002 123.519 340.122 123.496 340.252 123.474C340.382 123.451 340.565 123.439 340.799 123.439Z" fill="#2C3437"/>
<path d="M116.39 98H233.75V134H116.39V98Z" fill="#FAD9B0"/>
<path d="M185.648 122.879L185.419 124.012H186.678V125.018H185.228L184.852 127H183.778L184.159 125.018H183.211L182.84 127H181.791L182.152 125.018H180.99V124.012H182.342L182.572 122.879H181.341V121.858H182.753L183.128 119.871H184.198L183.822 121.858H184.789L185.169 119.871H186.219L185.838 121.858H187.01V122.879H185.648ZM183.402 124.012H184.359L184.588 122.879H183.631L183.402 124.012ZM189.623 127H188.133V119.861H192.225V121.102H189.623V122.942H192.044V124.178H189.623V127ZM197.992 127L197.474 125.301H194.872L194.354 127H192.723L195.243 119.832H197.093L199.623 127H197.992ZM197.113 124.031L196.595 122.371C196.563 122.26 196.519 122.119 196.463 121.946C196.411 121.771 196.358 121.593 196.302 121.414C196.25 121.232 196.208 121.074 196.175 120.94C196.143 121.074 196.097 121.24 196.039 121.438C195.983 121.634 195.93 121.819 195.878 121.995C195.825 122.171 195.788 122.296 195.765 122.371L195.253 124.031H197.113ZM206.449 123.362C206.449 124.166 206.294 124.839 205.985 125.379C205.679 125.916 205.235 126.321 204.652 126.595C204.069 126.865 203.368 127 202.547 127H200.526V119.861H202.767C203.516 119.861 204.165 119.995 204.715 120.262C205.266 120.525 205.692 120.918 205.995 121.438C206.297 121.956 206.449 122.597 206.449 123.362ZM204.877 123.401C204.877 122.874 204.798 122.441 204.642 122.103C204.489 121.761 204.261 121.508 203.959 121.346C203.659 121.183 203.288 121.102 202.845 121.102H202.04V125.75H202.689C203.428 125.75 203.976 125.553 204.335 125.159C204.696 124.765 204.877 124.179 204.877 123.401ZM212.391 122.908C212.391 123.318 212.36 123.725 212.298 124.129C212.24 124.533 212.136 124.913 211.986 125.271C211.836 125.626 211.626 125.942 211.356 126.219C211.086 126.492 210.742 126.707 210.326 126.863C209.909 127.02 209.405 127.098 208.812 127.098C208.672 127.098 208.508 127.091 208.319 127.078C208.13 127.068 207.974 127.052 207.85 127.029V125.818C207.98 125.851 208.119 125.877 208.265 125.896C208.412 125.913 208.56 125.921 208.71 125.921C209.305 125.921 209.764 125.826 210.086 125.638C210.412 125.449 210.64 125.187 210.77 124.852C210.904 124.516 210.98 124.129 211 123.689H210.941C210.847 123.846 210.734 123.987 210.604 124.114C210.477 124.238 210.314 124.337 210.116 124.412C209.917 124.484 209.665 124.52 209.359 124.52C208.952 124.52 208.597 124.432 208.294 124.256C207.995 124.077 207.762 123.82 207.596 123.484C207.433 123.146 207.352 122.737 207.352 122.259C207.352 121.741 207.45 121.299 207.645 120.931C207.844 120.56 208.125 120.275 208.49 120.076C208.854 119.878 209.284 119.778 209.779 119.778C210.143 119.778 210.484 119.842 210.799 119.969C211.115 120.092 211.392 120.283 211.629 120.54C211.87 120.797 212.058 121.123 212.191 121.517C212.324 121.91 212.391 122.374 212.391 122.908ZM209.808 120.989C209.515 120.989 209.276 121.09 209.09 121.292C208.905 121.494 208.812 121.81 208.812 122.239C208.812 122.584 208.892 122.858 209.051 123.06C209.211 123.261 209.453 123.362 209.779 123.362C210.003 123.362 210.199 123.313 210.365 123.216C210.531 123.115 210.659 122.99 210.751 122.84C210.845 122.687 210.892 122.531 210.892 122.371C210.892 122.205 210.869 122.041 210.824 121.878C210.778 121.715 210.71 121.567 210.619 121.434C210.528 121.3 210.414 121.193 210.277 121.111C210.143 121.03 209.987 120.989 209.808 120.989ZM213.651 119.861H215.873C216.823 119.861 217.543 119.995 218.031 120.262C218.519 120.529 218.763 120.997 218.763 121.668C218.763 121.938 218.719 122.182 218.631 122.4C218.547 122.618 218.423 122.798 218.26 122.938C218.098 123.077 217.899 123.169 217.665 123.211V123.26C217.902 123.309 218.117 123.393 218.309 123.514C218.501 123.631 218.654 123.803 218.768 124.031C218.885 124.256 218.944 124.555 218.944 124.93C218.944 125.363 218.838 125.734 218.627 126.043C218.415 126.352 218.112 126.59 217.718 126.756C217.328 126.919 216.862 127 216.322 127H213.651V119.861ZM215.165 122.688H216.044C216.483 122.688 216.787 122.62 216.957 122.483C217.126 122.343 217.211 122.138 217.211 121.868C217.211 121.595 217.11 121.399 216.908 121.282C216.709 121.162 216.393 121.102 215.961 121.102H215.165V122.688ZM215.165 123.89V125.75H216.151C216.607 125.75 216.924 125.662 217.103 125.486C217.282 125.311 217.372 125.075 217.372 124.778C217.372 124.603 217.333 124.448 217.254 124.314C217.176 124.181 217.044 124.077 216.859 124.002C216.677 123.927 216.424 123.89 216.102 123.89H215.165ZM224.823 123.431C224.823 124.007 224.777 124.521 224.686 124.974C224.598 125.426 224.455 125.81 224.256 126.126C224.061 126.442 223.804 126.683 223.485 126.849C223.166 127.015 222.779 127.098 222.323 127.098C221.75 127.098 221.28 126.953 220.912 126.663C220.544 126.37 220.272 125.95 220.096 125.403C219.92 124.853 219.833 124.196 219.833 123.431C219.833 122.659 219.912 122 220.072 121.453C220.235 120.903 220.498 120.481 220.863 120.188C221.227 119.896 221.714 119.749 222.323 119.749C222.892 119.749 223.361 119.896 223.729 120.188C224.1 120.478 224.375 120.898 224.554 121.448C224.733 121.995 224.823 122.656 224.823 123.431ZM221.332 123.431C221.332 123.974 221.361 124.428 221.419 124.793C221.481 125.154 221.584 125.426 221.727 125.608C221.87 125.791 222.069 125.882 222.323 125.882C222.573 125.882 222.77 125.792 222.914 125.613C223.06 125.431 223.164 125.159 223.226 124.798C223.288 124.433 223.319 123.978 223.319 123.431C223.319 122.887 223.288 122.433 223.226 122.068C223.164 121.704 223.06 121.43 222.914 121.248C222.77 121.062 222.573 120.97 222.323 120.97C222.069 120.97 221.87 121.062 221.727 121.248C221.584 121.43 221.481 121.704 221.419 122.068C221.361 122.433 221.332 122.887 221.332 123.431Z" fill="#2C3437"/>
<path d="M0 98H116.39V134H9.99999C4.47715 134 0 129.523 0 124V98Z" fill="#FDF3E7"/>
<path d="M70.8174 123.879L70.5879 125.012H71.8477V126.018H70.3975L70.0215 128H68.9473L69.3281 126.018H68.3809L68.0098 128H66.96L67.3213 126.018H66.1592V125.012H67.5117L67.7412 123.879H66.5107V122.858H67.9219L68.2979 120.871H69.3672L68.9912 122.858H69.958L70.3389 120.871H71.3887L71.0078 122.858H72.1797V123.879H70.8174ZM68.5713 125.012H69.5283L69.7578 123.879H68.8008L68.5713 125.012ZM74.792 128H73.3027V120.861H77.3945V122.102H74.792V123.942H77.2139V125.178H74.792V128ZM84.7139 124.362C84.7139 125.166 84.5592 125.839 84.25 126.379C83.944 126.916 83.4997 127.321 82.917 127.595C82.3343 127.865 81.6328 128 80.8125 128H78.791V120.861H81.0322C81.7809 120.861 82.4303 120.995 82.9805 121.262C83.5306 121.525 83.957 121.918 84.2598 122.438C84.5625 122.956 84.7139 123.597 84.7139 124.362ZM83.1416 124.401C83.1416 123.874 83.0635 123.441 82.9072 123.103C82.7542 122.761 82.5264 122.508 82.2236 122.346C81.9242 122.183 81.5531 122.102 81.1104 122.102H80.3047V126.75H80.9541C81.693 126.75 82.2415 126.553 82.5996 126.159C82.9609 125.765 83.1416 125.179 83.1416 124.401ZM87.6826 128H86.1934V120.861H90.2852V122.102H87.6826V123.942H90.1045V125.178H87.6826V128ZM95.8955 122.458C95.8955 122.787 95.8271 123.072 95.6904 123.312C95.5537 123.553 95.3682 123.75 95.1338 123.903C94.9027 124.056 94.6423 124.169 94.3525 124.24V124.27C94.9255 124.341 95.36 124.517 95.6562 124.797C95.9557 125.077 96.1055 125.451 96.1055 125.92C96.1055 126.337 96.0029 126.709 95.7979 127.038C95.596 127.367 95.2835 127.626 94.8604 127.814C94.4372 128.003 93.8919 128.098 93.2246 128.098C92.8307 128.098 92.4629 128.065 92.1211 128C91.7826 127.938 91.4635 127.842 91.1641 127.712V126.428C91.4701 126.584 91.7907 126.703 92.126 126.784C92.4613 126.862 92.7738 126.901 93.0635 126.901C93.6038 126.901 93.9814 126.809 94.1963 126.623C94.4144 126.434 94.5234 126.171 94.5234 125.832C94.5234 125.633 94.473 125.466 94.3721 125.329C94.2712 125.192 94.0954 125.088 93.8447 125.017C93.5973 124.945 93.2507 124.909 92.8047 124.909H92.2627V123.752H92.8145C93.2539 123.752 93.5876 123.711 93.8154 123.63C94.0465 123.545 94.2028 123.431 94.2842 123.288C94.3688 123.142 94.4111 122.976 94.4111 122.79C94.4111 122.536 94.333 122.338 94.1768 122.194C94.0205 122.051 93.7601 121.979 93.3955 121.979C93.1676 121.979 92.9593 122.009 92.7705 122.067C92.585 122.123 92.4173 122.191 92.2676 122.272C92.1178 122.351 91.986 122.427 91.8721 122.502L91.1738 121.462C91.4538 121.26 91.7809 121.092 92.1553 120.959C92.5329 120.826 92.9821 120.759 93.5029 120.759C94.2386 120.759 94.8213 120.907 95.251 121.203C95.6807 121.499 95.8955 121.918 95.8955 122.458ZM101.516 128H97.4043V120.861H101.516V122.102H98.918V123.669H101.335V124.909H98.918V126.75H101.516V128ZM103.22 128L105.9 122.131H102.38V120.861H107.502V121.809L104.802 128H103.22Z" fill="#2C3437"/>
</svg>
