<svg width="935" height="134" viewBox="0 0 935 134" fill="none" xmlns="http://www.w3.org/2000/svg">
<rect width="934.03" height="134" rx="10" fill="#F65354"/>
<path d="M853.21 77.7578L852.751 80.0234H855.271V82.0352H852.37L851.618 86H849.47L850.232 82.0352H848.337L847.595 86H845.495L846.218 82.0352H843.894V80.0234H846.599L847.058 77.7578H844.597V75.7168H847.419L848.171 71.7422H850.31L849.558 75.7168H851.491L852.253 71.7422H854.353L853.591 75.7168H855.935V77.7578H853.21ZM848.718 80.0234H850.632L851.091 77.7578H849.177L848.718 80.0234ZM861.159 86H858.181V71.7227H866.364V74.2031H861.159V77.8848H866.003V80.3555H861.159V86ZM868.064 79.9355C868.064 79.1152 868.122 78.3047 868.239 77.5039C868.363 76.6966 868.575 75.9382 868.874 75.2285C869.174 74.5124 869.594 73.8809 870.134 73.334C870.674 72.7806 871.361 72.3477 872.195 72.0352C873.028 71.7161 874.037 71.5566 875.222 71.5566C875.502 71.5566 875.827 71.5697 876.198 71.5957C876.576 71.6152 876.889 71.651 877.136 71.7031V74.1152C876.876 74.0566 876.596 74.0111 876.296 73.9785C876.003 73.9395 875.71 73.9199 875.417 73.9199C874.232 73.9199 873.314 74.1087 872.663 74.4863C872.019 74.8639 871.563 75.388 871.296 76.0586C871.036 76.7227 870.883 77.4974 870.837 78.3828H870.964C871.146 78.0638 871.374 77.7806 871.648 77.5332C871.928 77.2858 872.266 77.0905 872.663 76.9473C873.06 76.7975 873.526 76.7227 874.06 76.7227C874.893 76.7227 875.616 76.9017 876.228 77.2598C876.84 77.6113 877.312 78.1224 877.644 78.793C877.976 79.4635 878.142 80.2806 878.142 81.2441C878.142 82.2728 877.943 83.1582 877.546 83.9004C877.149 84.6426 876.586 85.2122 875.857 85.6094C875.134 86 874.275 86.1953 873.279 86.1953C872.549 86.1953 871.869 86.0716 871.237 85.8242C870.606 85.5703 870.053 85.1862 869.577 84.6719C869.102 84.1576 868.731 83.5098 868.464 82.7285C868.197 81.9408 868.064 81.0098 868.064 79.9355ZM873.22 83.7832C873.812 83.7832 874.294 83.5814 874.665 83.1777C875.036 82.7741 875.222 82.1426 875.222 81.2832C875.222 80.5866 875.059 80.0397 874.734 79.6426C874.415 79.2389 873.93 79.0371 873.279 79.0371C872.836 79.0371 872.445 79.138 872.107 79.3398C871.775 79.5352 871.517 79.7858 871.335 80.0918C871.153 80.3913 871.062 80.7005 871.062 81.0195C871.062 81.3516 871.107 81.6803 871.198 82.0059C871.29 82.3314 871.426 82.6276 871.609 82.8945C871.791 83.1615 872.015 83.3763 872.282 83.5391C872.556 83.7018 872.868 83.7832 873.22 83.7832ZM884.802 76.8789C885.674 76.8789 886.449 77.0449 887.126 77.377C887.81 77.709 888.347 78.1973 888.737 78.8418C889.128 79.4863 889.323 80.2806 889.323 81.2246C889.323 82.2533 889.109 83.1419 888.679 83.8906C888.256 84.6328 887.621 85.2025 886.775 85.5996C885.935 85.9967 884.887 86.1953 883.63 86.1953C882.881 86.1953 882.175 86.1302 881.511 86C880.853 85.8763 880.277 85.6842 879.782 85.4238V82.8164C880.277 83.0768 880.87 83.2982 881.56 83.4805C882.256 83.6562 882.911 83.7441 883.523 83.7441C884.122 83.7441 884.626 83.666 885.036 83.5098C885.446 83.347 885.756 83.0996 885.964 82.7676C886.179 82.429 886.286 81.9993 886.286 81.4785C886.286 80.7819 886.052 80.248 885.583 79.877C885.114 79.5059 884.395 79.3203 883.425 79.3203C883.054 79.3203 882.667 79.3561 882.263 79.4277C881.866 79.4993 881.534 79.571 881.267 79.6426L880.066 78.998L880.603 71.7227H888.347V74.2812H883.249L882.986 77.084C883.207 77.0384 883.448 76.9928 883.708 76.9473C883.969 76.9017 884.333 76.8789 884.802 76.8789ZM900.476 74.916C900.476 75.5736 900.339 76.1432 900.066 76.625C899.792 77.1068 899.421 77.5007 898.952 77.8066C898.49 78.1126 897.969 78.3372 897.39 78.4805V78.5391C898.536 78.6823 899.405 79.0339 899.997 79.5938C900.596 80.1536 900.896 80.9023 900.896 81.8398C900.896 82.6732 900.691 83.4186 900.28 84.0762C899.877 84.7337 899.252 85.2513 898.405 85.6289C897.559 86.0065 896.469 86.1953 895.134 86.1953C894.346 86.1953 893.611 86.1302 892.927 86C892.25 85.8763 891.612 85.6842 891.013 85.4238V82.8555C891.625 83.168 892.266 83.4056 892.937 83.5684C893.607 83.7246 894.232 83.8027 894.812 83.8027C895.892 83.8027 896.648 83.6172 897.077 83.2461C897.514 82.8685 897.732 82.3411 897.732 81.6641C897.732 81.2669 897.631 80.9316 897.429 80.6582C897.227 80.3848 896.876 80.1764 896.374 80.0332C895.879 79.89 895.186 79.8184 894.294 79.8184H893.21V77.5039H894.314C895.193 77.5039 895.86 77.4225 896.316 77.2598C896.778 77.0905 897.09 76.8626 897.253 76.5762C897.422 76.2832 897.507 75.9512 897.507 75.5801C897.507 75.0723 897.351 74.6751 897.038 74.3887C896.726 74.1022 896.205 73.959 895.476 73.959C895.02 73.959 894.603 74.0176 894.226 74.1348C893.855 74.2454 893.519 74.3822 893.22 74.5449C892.92 74.7012 892.657 74.8542 892.429 75.0039L891.032 72.9238C891.592 72.5202 892.247 72.1849 892.995 71.918C893.751 71.651 894.649 71.5176 895.691 71.5176C897.162 71.5176 898.327 71.8138 899.187 72.4062C900.046 72.9987 900.476 73.8353 900.476 74.916ZM907.693 76.8789C908.565 76.8789 909.34 77.0449 910.017 77.377C910.7 77.709 911.237 78.1973 911.628 78.8418C912.019 79.4863 912.214 80.2806 912.214 81.2246C912.214 82.2533 911.999 83.1419 911.57 83.8906C911.146 84.6328 910.512 85.2025 909.665 85.5996C908.825 85.9967 907.777 86.1953 906.521 86.1953C905.772 86.1953 905.066 86.1302 904.402 86C903.744 85.8763 903.168 85.6842 902.673 85.4238V82.8164C903.168 83.0768 903.76 83.2982 904.45 83.4805C905.147 83.6562 905.801 83.7441 906.413 83.7441C907.012 83.7441 907.517 83.666 907.927 83.5098C908.337 83.347 908.646 83.0996 908.855 82.7676C909.07 82.429 909.177 81.9993 909.177 81.4785C909.177 80.7819 908.943 80.248 908.474 79.877C908.005 79.5059 907.286 79.3203 906.316 79.3203C905.945 79.3203 905.557 79.3561 905.154 79.4277C904.756 79.4993 904.424 79.571 904.157 79.6426L902.956 78.998L903.493 71.7227H911.237V74.2812H906.14L905.876 77.084C906.098 77.0384 906.338 76.9928 906.599 76.9473C906.859 76.9017 907.224 76.8789 907.693 76.8789ZM924.245 83.041H922.527V86H919.577V83.041H913.484V80.9414L919.743 71.7227H922.527V80.6973H924.245V83.041ZM919.577 80.6973V78.2754C919.577 78.0475 919.581 77.7773 919.587 77.4648C919.6 77.1523 919.613 76.8398 919.626 76.5273C919.639 76.2148 919.652 75.9382 919.665 75.6973C919.685 75.4499 919.698 75.2773 919.704 75.1797H919.626C919.502 75.4466 919.372 75.707 919.236 75.9609C919.099 76.2083 918.939 76.4688 918.757 76.7422L916.14 80.6973H919.577Z" fill="white"/>
<path d="M817.64 98H934.03V124C934.03 129.523 929.553 134 924.03 134H817.64V98Z" fill="#661514"/>
<path d="M891.491 123.879L891.262 125.012H892.521V126.018H891.071L890.695 128H889.621L890.002 126.018H889.054L888.683 128H887.634L887.995 126.018H886.833V125.012H888.185L888.415 123.879H887.184V122.858H888.595L888.971 120.871H890.041L889.665 122.858H890.632L891.012 120.871H892.062L891.681 122.858H892.853V123.879H891.491ZM889.245 125.012H890.202L890.431 123.879H889.474L889.245 125.012ZM893.429 124.968C893.429 124.558 893.459 124.152 893.517 123.752C893.579 123.348 893.685 122.969 893.835 122.614C893.984 122.256 894.194 121.94 894.465 121.667C894.735 121.39 895.078 121.174 895.495 121.018C895.912 120.858 896.416 120.778 897.009 120.778C897.149 120.778 897.311 120.785 897.497 120.798C897.686 120.808 897.842 120.826 897.966 120.852V122.058C897.835 122.028 897.695 122.006 897.546 121.989C897.399 121.97 897.253 121.96 897.106 121.96C896.514 121.96 896.055 122.054 895.729 122.243C895.407 122.432 895.179 122.694 895.046 123.029C894.915 123.361 894.839 123.749 894.816 124.191H894.88C894.971 124.032 895.085 123.89 895.221 123.767C895.361 123.643 895.531 123.545 895.729 123.474C895.928 123.399 896.161 123.361 896.428 123.361C896.844 123.361 897.206 123.451 897.512 123.63C897.817 123.806 898.053 124.061 898.22 124.396C898.386 124.732 898.469 125.14 898.469 125.622C898.469 126.136 898.369 126.579 898.171 126.95C897.972 127.321 897.691 127.606 897.326 127.805C896.965 128 896.535 128.098 896.037 128.098C895.672 128.098 895.332 128.036 895.016 127.912C894.701 127.785 894.424 127.593 894.186 127.336C893.949 127.079 893.763 126.755 893.63 126.364C893.496 125.97 893.429 125.505 893.429 124.968ZM896.008 126.892C896.304 126.892 896.545 126.791 896.73 126.589C896.916 126.387 897.009 126.071 897.009 125.642C897.009 125.293 896.927 125.02 896.764 124.821C896.605 124.619 896.362 124.519 896.037 124.519C895.816 124.519 895.62 124.569 895.451 124.67C895.285 124.768 895.156 124.893 895.065 125.046C894.974 125.196 894.928 125.35 894.928 125.51C894.928 125.676 894.951 125.84 894.997 126.003C895.042 126.166 895.111 126.314 895.202 126.447C895.293 126.581 895.405 126.688 895.539 126.77C895.676 126.851 895.832 126.892 896.008 126.892ZM899.152 124.968C899.152 124.558 899.181 124.152 899.24 123.752C899.302 123.348 899.408 122.969 899.557 122.614C899.707 122.256 899.917 121.94 900.187 121.667C900.457 121.39 900.801 121.174 901.218 121.018C901.634 120.858 902.139 120.778 902.731 120.778C902.871 120.778 903.034 120.785 903.22 120.798C903.408 120.808 903.565 120.826 903.688 120.852V122.058C903.558 122.028 903.418 122.006 903.268 121.989C903.122 121.97 902.975 121.96 902.829 121.96C902.236 121.96 901.777 122.054 901.452 122.243C901.13 122.432 900.902 122.694 900.768 123.029C900.638 123.361 900.562 123.749 900.539 124.191H900.602C900.693 124.032 900.807 123.89 900.944 123.767C901.084 123.643 901.253 123.545 901.452 123.474C901.651 123.399 901.883 123.361 902.15 123.361C902.567 123.361 902.928 123.451 903.234 123.63C903.54 123.806 903.776 124.061 903.942 124.396C904.108 124.732 904.191 125.14 904.191 125.622C904.191 126.136 904.092 126.579 903.893 126.95C903.695 127.321 903.413 127.606 903.049 127.805C902.687 128 902.258 128.098 901.76 128.098C901.395 128.098 901.055 128.036 900.739 127.912C900.423 127.785 900.147 127.593 899.909 127.336C899.671 127.079 899.486 126.755 899.352 126.364C899.219 125.97 899.152 125.505 899.152 124.968ZM901.73 126.892C902.026 126.892 902.267 126.791 902.453 126.589C902.638 126.387 902.731 126.071 902.731 125.642C902.731 125.293 902.65 125.02 902.487 124.821C902.328 124.619 902.085 124.519 901.76 124.519C901.538 124.519 901.343 124.569 901.174 124.67C901.008 124.768 900.879 124.893 900.788 125.046C900.697 125.196 900.651 125.35 900.651 125.51C900.651 125.676 900.674 125.84 900.72 126.003C900.765 126.166 900.833 126.314 900.925 126.447C901.016 126.581 901.128 126.688 901.262 126.77C901.398 126.851 901.554 126.892 901.73 126.892ZM908.654 128H907.145V123.869C907.145 123.755 907.147 123.615 907.15 123.449C907.153 123.28 907.158 123.107 907.165 122.932C907.171 122.753 907.178 122.591 907.184 122.448C907.149 122.491 907.075 122.564 906.965 122.668C906.857 122.769 906.756 122.86 906.662 122.941L905.842 123.601L905.114 122.692L907.414 120.861H908.654V128ZM913.244 123.439C913.68 123.439 914.067 123.522 914.406 123.688C914.748 123.854 915.016 124.099 915.212 124.421C915.407 124.743 915.505 125.14 915.505 125.612C915.505 126.127 915.397 126.571 915.182 126.945C914.971 127.316 914.653 127.601 914.23 127.8C913.81 127.998 913.286 128.098 912.658 128.098C912.284 128.098 911.93 128.065 911.598 128C911.27 127.938 910.982 127.842 910.734 127.712V126.408C910.982 126.538 911.278 126.649 911.623 126.74C911.971 126.828 912.298 126.872 912.604 126.872C912.904 126.872 913.156 126.833 913.361 126.755C913.566 126.674 913.721 126.55 913.825 126.384C913.932 126.215 913.986 126 913.986 125.739C913.986 125.391 913.869 125.124 913.635 124.938C913.4 124.753 913.04 124.66 912.555 124.66C912.37 124.66 912.176 124.678 911.974 124.714C911.776 124.75 911.61 124.785 911.476 124.821L910.876 124.499L911.144 120.861H915.016V122.141H912.468L912.336 123.542C912.446 123.519 912.567 123.496 912.697 123.474C912.827 123.451 913.01 123.439 913.244 123.439ZM920.099 128H918.591V123.869C918.591 123.755 918.592 123.615 918.595 123.449C918.599 123.28 918.604 123.107 918.61 122.932C918.617 122.753 918.623 122.591 918.63 122.448C918.594 122.491 918.521 122.564 918.41 122.668C918.303 122.769 918.202 122.86 918.107 122.941L917.287 123.601L916.559 122.692L918.859 120.861H920.099V128ZM927.243 126.521H926.384V128H924.909V126.521H921.862V125.471L924.992 120.861H926.384V125.349H927.243V126.521ZM924.909 125.349V124.138C924.909 124.024 924.911 123.889 924.914 123.732C924.92 123.576 924.927 123.42 924.933 123.264C924.94 123.107 924.946 122.969 924.953 122.849C924.963 122.725 924.969 122.639 924.972 122.59H924.933C924.872 122.723 924.806 122.854 924.738 122.98C924.67 123.104 924.59 123.234 924.499 123.371L923.19 125.349H924.909Z" fill="white"/>
<path d="M700.28 98H817.64V134H700.28V98Z" fill="#900E0E"/>
<path d="M775.335 123.879L775.106 125.012H776.366V126.018H774.915L774.539 128H773.465L773.846 126.018H772.899L772.528 128H771.478L771.839 126.018H770.677V125.012H772.03L772.259 123.879H771.029V122.858H772.44L772.816 120.871H773.885L773.509 122.858H774.476L774.857 120.871H775.907L775.526 122.858H776.698V123.879H775.335ZM773.089 125.012H774.046L774.276 123.879H773.319L773.089 125.012ZM782.284 123.908C782.284 124.318 782.253 124.725 782.191 125.129C782.132 125.533 782.028 125.913 781.878 126.271C781.729 126.626 781.519 126.942 781.248 127.219C780.978 127.492 780.635 127.707 780.218 127.863C779.801 128.02 779.297 128.098 778.704 128.098C778.564 128.098 778.4 128.091 778.211 128.078C778.023 128.068 777.866 128.052 777.743 128.029V126.818C777.873 126.851 778.011 126.877 778.158 126.896C778.304 126.913 778.452 126.921 778.602 126.921C779.198 126.921 779.657 126.826 779.979 126.638C780.304 126.449 780.532 126.187 780.662 125.852C780.796 125.516 780.872 125.129 780.892 124.689H780.833C780.739 124.846 780.627 124.987 780.496 125.114C780.37 125.238 780.207 125.337 780.008 125.412C779.81 125.484 779.557 125.52 779.251 125.52C778.844 125.52 778.49 125.432 778.187 125.256C777.887 125.077 777.655 124.82 777.489 124.484C777.326 124.146 777.245 123.737 777.245 123.259C777.245 122.741 777.342 122.299 777.537 121.931C777.736 121.56 778.018 121.275 778.382 121.076C778.747 120.878 779.176 120.778 779.671 120.778C780.036 120.778 780.376 120.842 780.692 120.969C781.008 121.092 781.284 121.283 781.522 121.54C781.763 121.797 781.95 122.123 782.083 122.517C782.217 122.91 782.284 123.374 782.284 123.908ZM779.701 121.989C779.408 121.989 779.168 122.09 778.983 122.292C778.797 122.494 778.704 122.81 778.704 123.239C778.704 123.584 778.784 123.858 778.944 124.06C779.103 124.261 779.346 124.362 779.671 124.362C779.896 124.362 780.091 124.313 780.257 124.216C780.423 124.115 780.552 123.99 780.643 123.84C780.737 123.687 780.785 123.531 780.785 123.371C780.785 123.205 780.762 123.041 780.716 122.878C780.671 122.715 780.602 122.567 780.511 122.434C780.42 122.3 780.306 122.193 780.169 122.111C780.036 122.03 779.88 121.989 779.701 121.989ZM787.996 124.431C787.996 125.007 787.951 125.521 787.86 125.974C787.772 126.426 787.629 126.81 787.43 127.126C787.235 127.442 786.978 127.683 786.659 127.849C786.34 128.015 785.952 128.098 785.496 128.098C784.924 128.098 784.453 127.953 784.085 127.663C783.717 127.37 783.446 126.95 783.27 126.403C783.094 125.853 783.006 125.196 783.006 124.431C783.006 123.659 783.086 123 783.245 122.453C783.408 121.903 783.672 121.481 784.036 121.188C784.401 120.896 784.888 120.749 785.496 120.749C786.066 120.749 786.535 120.896 786.903 121.188C787.274 121.478 787.549 121.898 787.728 122.448C787.907 122.995 787.996 123.656 787.996 124.431ZM784.505 124.431C784.505 124.974 784.535 125.428 784.593 125.793C784.655 126.154 784.758 126.426 784.901 126.608C785.044 126.791 785.243 126.882 785.496 126.882C785.747 126.882 785.944 126.792 786.087 126.613C786.234 126.431 786.338 126.159 786.4 125.798C786.462 125.433 786.493 124.978 786.493 124.431C786.493 123.887 786.462 123.433 786.4 123.068C786.338 122.704 786.234 122.43 786.087 122.248C785.944 122.062 785.747 121.97 785.496 121.97C785.243 121.97 785.044 122.062 784.901 122.248C784.758 122.43 784.655 122.704 784.593 123.068C784.535 123.433 784.505 123.887 784.505 124.431ZM793.719 124.431C793.719 125.007 793.674 125.521 793.582 125.974C793.495 126.426 793.351 126.81 793.153 127.126C792.957 127.442 792.7 127.683 792.381 127.849C792.062 128.015 791.675 128.098 791.219 128.098C790.646 128.098 790.176 127.953 789.808 127.663C789.44 127.37 789.168 126.95 788.993 126.403C788.817 125.853 788.729 125.196 788.729 124.431C788.729 123.659 788.809 123 788.968 122.453C789.131 121.903 789.395 121.481 789.759 121.188C790.124 120.896 790.61 120.749 791.219 120.749C791.789 120.749 792.258 120.896 792.625 121.188C792.996 121.478 793.272 121.898 793.451 122.448C793.63 122.995 793.719 123.656 793.719 124.431ZM790.228 124.431C790.228 124.974 790.257 125.428 790.316 125.793C790.378 126.154 790.48 126.426 790.623 126.608C790.767 126.791 790.965 126.882 791.219 126.882C791.47 126.882 791.667 126.792 791.81 126.613C791.956 126.431 792.061 126.159 792.122 125.798C792.184 125.433 792.215 124.978 792.215 124.431C792.215 123.887 792.184 123.433 792.122 123.068C792.061 122.704 791.956 122.43 791.81 122.248C791.667 122.062 791.47 121.97 791.219 121.97C790.965 121.97 790.767 122.062 790.623 122.248C790.48 122.43 790.378 122.704 790.316 123.068C790.257 123.433 790.228 123.887 790.228 124.431ZM799.1 128H794.989V120.861H799.1V122.102H796.502V123.669H798.919V124.909H796.502V126.75H799.1V128ZM805.047 124.431C805.047 125.007 805.002 125.521 804.911 125.974C804.823 126.426 804.679 126.81 804.481 127.126C804.286 127.442 804.028 127.683 803.709 127.849C803.39 128.015 803.003 128.098 802.547 128.098C801.974 128.098 801.504 127.953 801.136 127.663C800.768 127.37 800.496 126.95 800.321 126.403C800.145 125.853 800.057 125.196 800.057 124.431C800.057 123.659 800.137 123 800.296 122.453C800.459 121.903 800.723 121.481 801.087 121.188C801.452 120.896 801.939 120.749 802.547 120.749C803.117 120.749 803.586 120.896 803.953 121.188C804.325 121.478 804.6 121.898 804.779 122.448C804.958 122.995 805.047 123.656 805.047 124.431ZM801.556 124.431C801.556 124.974 801.585 125.428 801.644 125.793C801.706 126.154 801.808 126.426 801.952 126.608C802.095 126.791 802.293 126.882 802.547 126.882C802.798 126.882 802.995 126.792 803.138 126.613C803.285 126.431 803.389 126.159 803.451 125.798C803.512 125.433 803.543 124.978 803.543 124.431C803.543 123.887 803.512 123.433 803.451 123.068C803.389 122.704 803.285 122.43 803.138 122.248C802.995 122.062 802.798 121.97 802.547 121.97C802.293 121.97 802.095 122.062 801.952 122.248C801.808 122.43 801.706 122.704 801.644 123.068C801.585 123.433 801.556 123.887 801.556 124.431ZM810.428 128H806.317V120.861H810.428V122.102H807.83V123.669H810.247V124.909H807.83V126.75H810.428V128Z" fill="white"/>
<path d="M583.89 98H700.28V134H583.89V98Z" fill="#B80C0C"/>
<path d="M654.466 123.879L654.237 125.012H655.497V126.018H654.046L653.671 128H652.596L652.977 126.018H652.03L651.659 128H650.609L650.97 126.018H649.808V125.012H651.161L651.39 123.879H650.16V122.858H651.571L651.947 120.871H653.016L652.64 122.858H653.607L653.988 120.871H655.038L654.657 122.858H655.829V123.879H654.466ZM652.22 125.012H653.177L653.407 123.879H652.45L652.22 125.012ZM656.952 120.861H659.173C660.124 120.861 660.843 120.995 661.332 121.262C661.82 121.529 662.064 121.997 662.064 122.668C662.064 122.938 662.02 123.182 661.932 123.4C661.848 123.618 661.724 123.798 661.561 123.938C661.398 124.077 661.2 124.169 660.965 124.211V124.26C661.203 124.309 661.418 124.393 661.61 124.514C661.802 124.631 661.955 124.803 662.069 125.031C662.186 125.256 662.245 125.555 662.245 125.93C662.245 126.363 662.139 126.734 661.927 127.043C661.716 127.352 661.413 127.59 661.019 127.756C660.629 127.919 660.163 128 659.623 128H656.952V120.861ZM658.465 123.688H659.344C659.784 123.688 660.088 123.62 660.257 123.483C660.427 123.343 660.511 123.138 660.511 122.868C660.511 122.595 660.41 122.399 660.209 122.282C660.01 122.162 659.694 122.102 659.261 122.102H658.465V123.688ZM658.465 124.89V126.75H659.452C659.907 126.75 660.225 126.662 660.404 126.486C660.583 126.311 660.672 126.075 660.672 125.778C660.672 125.603 660.633 125.448 660.555 125.314C660.477 125.181 660.345 125.077 660.16 125.002C659.977 124.927 659.725 124.89 659.403 124.89H658.465ZM665.633 120.769C666.044 120.769 666.421 120.832 666.766 120.959C667.115 121.086 667.393 121.278 667.601 121.535C667.809 121.789 667.914 122.108 667.914 122.492C667.914 122.779 667.857 123.029 667.743 123.244C667.632 123.459 667.481 123.648 667.289 123.811C667.097 123.97 666.879 124.11 666.634 124.23C666.888 124.364 667.129 124.52 667.357 124.699C667.585 124.875 667.77 125.082 667.914 125.319C668.06 125.557 668.133 125.834 668.133 126.149C668.133 126.547 668.028 126.892 667.816 127.185C667.604 127.474 667.311 127.699 666.937 127.858C666.563 128.018 666.128 128.098 665.633 128.098C665.1 128.098 664.645 128.021 664.271 127.868C663.897 127.715 663.612 127.497 663.417 127.214C663.221 126.927 663.124 126.586 663.124 126.188C663.124 125.863 663.184 125.58 663.304 125.339C663.428 125.098 663.594 124.891 663.802 124.719C664.011 124.543 664.24 124.393 664.491 124.27C664.279 124.136 664.086 123.985 663.91 123.815C663.737 123.646 663.599 123.452 663.495 123.234C663.394 123.016 663.343 122.766 663.343 122.482C663.343 122.105 663.449 121.789 663.661 121.535C663.876 121.281 664.157 121.091 664.505 120.964C664.854 120.834 665.23 120.769 665.633 120.769ZM664.52 126.101C664.52 126.358 664.611 126.571 664.794 126.74C664.979 126.906 665.253 126.989 665.614 126.989C665.988 126.989 666.268 126.91 666.454 126.75C666.639 126.587 666.732 126.374 666.732 126.11C666.732 125.928 666.678 125.769 666.571 125.632C666.467 125.495 666.335 125.373 666.175 125.266C666.016 125.155 665.855 125.052 665.692 124.958L665.56 124.89C665.352 124.984 665.17 125.09 665.013 125.207C664.86 125.324 664.74 125.456 664.652 125.603C664.564 125.749 664.52 125.915 664.52 126.101ZM665.624 121.872C665.376 121.872 665.171 121.936 665.008 122.062C664.846 122.189 664.764 122.368 664.764 122.6C664.764 122.762 664.803 122.906 664.881 123.029C664.963 123.15 665.069 123.256 665.199 123.347C665.332 123.438 665.477 123.522 665.633 123.601C665.783 123.529 665.923 123.449 666.053 123.361C666.184 123.273 666.289 123.168 666.371 123.044C666.452 122.92 666.493 122.772 666.493 122.6C666.493 122.368 666.41 122.189 666.244 122.062C666.081 121.936 665.874 121.872 665.624 121.872ZM673.846 124.431C673.846 125.007 673.801 125.521 673.71 125.974C673.622 126.426 673.478 126.81 673.28 127.126C673.085 127.442 672.827 127.683 672.508 127.849C672.189 128.015 671.802 128.098 671.346 128.098C670.773 128.098 670.303 127.953 669.935 127.663C669.567 127.37 669.296 126.95 669.12 126.403C668.944 125.853 668.856 125.196 668.856 124.431C668.856 123.659 668.936 123 669.095 122.453C669.258 121.903 669.522 121.481 669.886 121.188C670.251 120.896 670.738 120.749 671.346 120.749C671.916 120.749 672.385 120.896 672.753 121.188C673.124 121.478 673.399 121.898 673.578 122.448C673.757 122.995 673.846 123.656 673.846 124.431ZM670.355 124.431C670.355 124.974 670.384 125.428 670.443 125.793C670.505 126.154 670.607 126.426 670.751 126.608C670.894 126.791 671.092 126.882 671.346 126.882C671.597 126.882 671.794 126.792 671.937 126.613C672.084 126.431 672.188 126.159 672.25 125.798C672.311 125.433 672.342 124.978 672.342 124.431C672.342 123.887 672.311 123.433 672.25 123.068C672.188 122.704 672.084 122.43 671.937 122.248C671.794 122.062 671.597 121.97 671.346 121.97C671.092 121.97 670.894 122.062 670.751 122.248C670.607 122.43 670.505 122.704 670.443 123.068C670.384 123.433 670.355 123.887 670.355 124.431ZM678.148 122.019C677.858 122.019 677.601 122.076 677.377 122.189C677.155 122.3 676.968 122.461 676.815 122.673C676.665 122.884 676.551 123.14 676.473 123.439C676.395 123.739 676.356 124.076 676.356 124.45C676.356 124.955 676.418 125.386 676.542 125.744C676.669 126.099 676.864 126.371 677.128 126.56C677.391 126.745 677.731 126.838 678.148 126.838C678.438 126.838 678.727 126.805 679.017 126.74C679.31 126.675 679.628 126.582 679.969 126.462V127.731C679.654 127.862 679.343 127.954 679.037 128.01C678.731 128.068 678.387 128.098 678.006 128.098C677.271 128.098 676.665 127.946 676.19 127.644C675.718 127.338 675.368 126.911 675.14 126.364C674.912 125.814 674.798 125.173 674.798 124.44C674.798 123.9 674.872 123.405 675.018 122.956C675.165 122.507 675.379 122.118 675.663 121.789C675.946 121.46 676.296 121.206 676.712 121.027C677.129 120.848 677.608 120.759 678.148 120.759C678.503 120.759 678.858 120.804 679.212 120.896C679.571 120.983 679.912 121.105 680.238 121.262L679.75 122.492C679.483 122.365 679.214 122.255 678.944 122.16C678.674 122.066 678.408 122.019 678.148 122.019ZM685.946 124.431C685.946 125.007 685.9 125.521 685.809 125.974C685.721 126.426 685.578 126.81 685.379 127.126C685.184 127.442 684.927 127.683 684.608 127.849C684.289 128.015 683.902 128.098 683.446 128.098C682.873 128.098 682.403 127.953 682.035 127.663C681.667 127.37 681.395 126.95 681.219 126.403C681.044 125.853 680.956 125.196 680.956 124.431C680.956 123.659 681.035 123 681.195 122.453C681.358 121.903 681.621 121.481 681.986 121.188C682.351 120.896 682.837 120.749 683.446 120.749C684.016 120.749 684.484 120.896 684.852 121.188C685.223 121.478 685.498 121.898 685.677 122.448C685.856 122.995 685.946 123.656 685.946 124.431ZM682.455 124.431C682.455 124.974 682.484 125.428 682.543 125.793C682.604 126.154 682.707 126.426 682.85 126.608C682.993 126.791 683.192 126.882 683.446 126.882C683.697 126.882 683.893 126.792 684.037 126.613C684.183 126.431 684.287 126.159 684.349 125.798C684.411 125.433 684.442 124.978 684.442 124.431C684.442 123.887 684.411 123.433 684.349 123.068C684.287 122.704 684.183 122.43 684.037 122.248C683.893 122.062 683.697 121.97 683.446 121.97C683.192 121.97 682.993 122.062 682.85 122.248C682.707 122.43 682.604 122.704 682.543 123.068C682.484 123.433 682.455 123.887 682.455 124.431ZM690.248 122.019C689.958 122.019 689.701 122.076 689.476 122.189C689.255 122.3 689.068 122.461 688.915 122.673C688.765 122.884 688.651 123.14 688.573 123.439C688.495 123.739 688.456 124.076 688.456 124.45C688.456 124.955 688.518 125.386 688.641 125.744C688.768 126.099 688.963 126.371 689.227 126.56C689.491 126.745 689.831 126.838 690.248 126.838C690.537 126.838 690.827 126.805 691.117 126.74C691.41 126.675 691.727 126.582 692.069 126.462V127.731C691.753 127.862 691.442 127.954 691.136 128.01C690.83 128.068 690.487 128.098 690.106 128.098C689.37 128.098 688.765 127.946 688.29 127.644C687.818 127.338 687.468 126.911 687.24 126.364C687.012 125.814 686.898 125.173 686.898 124.44C686.898 123.9 686.971 123.405 687.118 122.956C687.264 122.507 687.479 122.118 687.762 121.789C688.046 121.46 688.395 121.206 688.812 121.027C689.229 120.848 689.707 120.759 690.248 120.759C690.602 120.759 690.957 120.804 691.312 120.896C691.67 120.983 692.012 121.105 692.337 121.262L691.849 122.492C691.582 122.365 691.314 122.255 691.044 122.16C690.773 122.066 690.508 122.019 690.248 122.019Z" fill="white"/>
<path d="M467.5 98H583.89V134H467.5V98Z" fill="#DE1A1B"/>
<path d="M538.581 123.879L538.351 125.012H539.611V126.018H538.161L537.785 128H536.711L537.091 126.018H536.144L535.773 128H534.723L535.085 126.018H533.922V125.012H535.275L535.504 123.879H534.274V122.858H535.685L536.061 120.871H537.13L536.754 122.858H537.721L538.102 120.871H539.152L538.771 122.858H539.943V123.879H538.581ZM536.335 125.012H537.292L537.521 123.879H536.564L536.335 125.012ZM546.989 124.362C546.989 125.166 546.834 125.839 546.525 126.379C546.219 126.916 545.775 127.321 545.192 127.595C544.609 127.865 543.908 128 543.087 128H541.066V120.861H543.307C544.056 120.861 544.705 120.995 545.255 121.262C545.806 121.525 546.232 121.918 546.535 122.438C546.837 122.956 546.989 123.597 546.989 124.362ZM545.417 124.401C545.417 123.874 545.338 123.441 545.182 123.103C545.029 122.761 544.801 122.508 544.499 122.346C544.199 122.183 543.828 122.102 543.385 122.102H542.58V126.75H543.229C543.968 126.75 544.517 126.553 544.875 126.159C545.236 125.765 545.417 125.179 545.417 124.401ZM552.58 128H548.468V120.861H552.58V122.102H549.982V123.669H552.399V124.909H549.982V126.75H552.58V128ZM557.306 128H555.797V123.869C555.797 123.755 555.799 123.615 555.802 123.449C555.806 123.28 555.81 123.107 555.817 122.932C555.823 122.753 555.83 122.591 555.836 122.448C555.801 122.491 555.727 122.564 555.617 122.668C555.509 122.769 555.408 122.86 555.314 122.941L554.494 123.601L553.766 122.692L556.066 120.861H557.306V128ZM564.167 128L563.649 126.301H561.046L560.529 128H558.898L561.418 120.832H563.268L565.797 128H564.167ZM563.288 125.031L562.77 123.371C562.738 123.26 562.694 123.119 562.638 122.946C562.586 122.771 562.532 122.593 562.477 122.414C562.425 122.232 562.383 122.074 562.35 121.94C562.318 122.074 562.272 122.24 562.213 122.438C562.158 122.634 562.104 122.819 562.052 122.995C562 123.171 561.963 123.296 561.94 123.371L561.427 125.031H563.288ZM569.933 128H568.424V123.869C568.424 123.755 568.426 123.615 568.429 123.449C568.433 123.28 568.437 123.107 568.444 122.932C568.45 122.753 568.457 122.591 568.463 122.448C568.428 122.491 568.354 122.564 568.244 122.668C568.136 122.769 568.035 122.86 567.941 122.941L567.121 123.601L566.393 122.692L568.693 120.861H569.933V128ZM572.423 120.861H574.645C575.596 120.861 576.315 120.995 576.803 121.262C577.292 121.529 577.536 121.997 577.536 122.668C577.536 122.938 577.492 123.182 577.404 123.4C577.319 123.618 577.196 123.798 577.033 123.938C576.87 124.077 576.671 124.169 576.437 124.211V124.26C576.675 124.309 576.89 124.393 577.082 124.514C577.274 124.631 577.427 124.803 577.541 125.031C577.658 125.256 577.716 125.555 577.716 125.93C577.716 126.363 577.611 126.734 577.399 127.043C577.187 127.352 576.885 127.59 576.491 127.756C576.1 127.919 575.635 128 575.094 128H572.423V120.861ZM573.937 123.688H574.816C575.255 123.688 575.56 123.62 575.729 123.483C575.898 123.343 575.983 123.138 575.983 122.868C575.983 122.595 575.882 122.399 575.68 122.282C575.482 122.162 575.166 122.102 574.733 122.102H573.937V123.688ZM573.937 124.89V126.75H574.923C575.379 126.75 575.697 126.662 575.876 126.486C576.055 126.311 576.144 126.075 576.144 125.778C576.144 125.603 576.105 125.448 576.027 125.314C575.949 125.181 575.817 125.077 575.631 125.002C575.449 124.927 575.197 124.89 574.875 124.89H573.937Z" fill="white"/>
<path d="M350.14 98H467.5V134H350.14V98Z" fill="#FA8E8E"/>
<path d="M424.248 123.879L424.019 125.012H425.278V126.018H423.828L423.452 128H422.378L422.759 126.018H421.811L421.44 128H420.391L420.752 126.018H419.59V125.012H420.942L421.172 123.879H419.941V122.858H421.352L421.728 120.871H422.798L422.422 122.858H423.389L423.769 120.871H424.819L424.438 122.858H425.61V123.879H424.248ZM422.002 125.012H422.959L423.188 123.879H422.231L422.002 125.012ZM428.223 128H426.733V120.861H430.825V122.102H428.223V123.942H430.644V125.178H428.223V128ZM436.592 128L436.074 126.301H433.472L432.954 128H431.323L433.843 120.832H435.693L438.223 128H436.592ZM435.713 125.031L435.195 123.371C435.163 123.26 435.119 123.119 435.063 122.946C435.011 122.771 434.958 122.593 434.902 122.414C434.85 122.232 434.808 122.074 434.775 121.94C434.743 122.074 434.697 122.24 434.639 122.438C434.583 122.634 434.53 122.819 434.477 122.995C434.425 123.171 434.388 123.296 434.365 123.371L433.852 125.031H435.713ZM441.089 120.769C441.499 120.769 441.877 120.832 442.222 120.959C442.57 121.086 442.848 121.278 443.057 121.535C443.265 121.789 443.369 122.108 443.369 122.492C443.369 122.779 443.312 123.029 443.198 123.244C443.088 123.459 442.936 123.648 442.744 123.811C442.552 123.97 442.334 124.11 442.09 124.23C442.344 124.364 442.585 124.52 442.812 124.699C443.04 124.875 443.226 125.082 443.369 125.319C443.516 125.557 443.589 125.834 443.589 126.149C443.589 126.547 443.483 126.892 443.271 127.185C443.06 127.474 442.767 127.699 442.393 127.858C442.018 128.018 441.584 128.098 441.089 128.098C440.555 128.098 440.101 128.021 439.727 127.868C439.352 127.715 439.067 127.497 438.872 127.214C438.677 126.927 438.579 126.586 438.579 126.188C438.579 125.863 438.639 125.58 438.76 125.339C438.883 125.098 439.049 124.891 439.258 124.719C439.466 124.543 439.696 124.393 439.946 124.27C439.735 124.136 439.541 123.985 439.365 123.815C439.193 123.646 439.054 123.452 438.95 123.234C438.849 123.016 438.799 122.766 438.799 122.482C438.799 122.105 438.905 121.789 439.116 121.535C439.331 121.281 439.613 121.091 439.961 120.964C440.309 120.834 440.685 120.769 441.089 120.769ZM439.976 126.101C439.976 126.358 440.067 126.571 440.249 126.74C440.435 126.906 440.708 126.989 441.069 126.989C441.444 126.989 441.724 126.91 441.909 126.75C442.095 126.587 442.187 126.374 442.187 126.11C442.187 125.928 442.134 125.769 442.026 125.632C441.922 125.495 441.79 125.373 441.631 125.266C441.471 125.155 441.31 125.052 441.147 124.958L441.016 124.89C440.807 124.984 440.625 125.09 440.469 125.207C440.316 125.324 440.195 125.456 440.107 125.603C440.019 125.749 439.976 125.915 439.976 126.101ZM441.079 121.872C440.832 121.872 440.627 121.936 440.464 122.062C440.301 122.189 440.22 122.368 440.22 122.6C440.22 122.762 440.259 122.906 440.337 123.029C440.418 123.15 440.524 123.256 440.654 123.347C440.788 123.438 440.933 123.522 441.089 123.601C441.239 123.529 441.379 123.449 441.509 123.361C441.639 123.273 441.745 123.168 441.826 123.044C441.907 122.92 441.948 122.772 441.948 122.6C441.948 122.368 441.865 122.189 441.699 122.062C441.536 121.936 441.33 121.872 441.079 121.872ZM448.96 128H444.849V120.861H448.96V122.102H446.362V123.669H448.779V124.909H446.362V126.75H448.96V128ZM452.417 120.769C452.827 120.769 453.205 120.832 453.55 120.959C453.898 121.086 454.176 121.278 454.385 121.535C454.593 121.789 454.697 122.108 454.697 122.492C454.697 122.779 454.64 123.029 454.526 123.244C454.416 123.459 454.264 123.648 454.072 123.811C453.88 123.97 453.662 124.11 453.418 124.23C453.672 124.364 453.913 124.52 454.141 124.699C454.368 124.875 454.554 125.082 454.697 125.319C454.844 125.557 454.917 125.834 454.917 126.149C454.917 126.547 454.811 126.892 454.6 127.185C454.388 127.474 454.095 127.699 453.721 127.858C453.346 128.018 452.912 128.098 452.417 128.098C451.883 128.098 451.429 128.021 451.055 127.868C450.68 127.715 450.395 127.497 450.2 127.214C450.005 126.927 449.907 126.586 449.907 126.188C449.907 125.863 449.967 125.58 450.088 125.339C450.212 125.098 450.378 124.891 450.586 124.719C450.794 124.543 451.024 124.393 451.274 124.27C451.063 124.136 450.869 123.985 450.693 123.815C450.521 123.646 450.382 123.452 450.278 123.234C450.177 123.016 450.127 122.766 450.127 122.482C450.127 122.105 450.233 121.789 450.444 121.535C450.659 121.281 450.941 121.091 451.289 120.964C451.637 120.834 452.013 120.769 452.417 120.769ZM451.304 126.101C451.304 126.358 451.395 126.571 451.577 126.74C451.763 126.906 452.036 126.989 452.397 126.989C452.772 126.989 453.052 126.91 453.237 126.75C453.423 126.587 453.516 126.374 453.516 126.11C453.516 125.928 453.462 125.769 453.354 125.632C453.25 125.495 453.118 125.373 452.959 125.266C452.799 125.155 452.638 125.052 452.476 124.958L452.344 124.89C452.135 124.984 451.953 125.09 451.797 125.207C451.644 125.324 451.523 125.456 451.435 125.603C451.348 125.749 451.304 125.915 451.304 126.101ZM452.407 121.872C452.16 121.872 451.955 121.936 451.792 122.062C451.629 122.189 451.548 122.368 451.548 122.6C451.548 122.762 451.587 122.906 451.665 123.029C451.746 123.15 451.852 123.256 451.982 123.347C452.116 123.438 452.261 123.522 452.417 123.601C452.567 123.529 452.707 123.449 452.837 123.361C452.967 123.273 453.073 123.168 453.154 123.044C453.236 122.92 453.276 122.772 453.276 122.6C453.276 122.368 453.193 122.189 453.027 122.062C452.865 121.936 452.658 121.872 452.407 121.872ZM460.288 128H456.177V120.861H460.288V122.102H457.69V123.669H460.107V124.909H457.69V126.75H460.288V128Z" fill="#2C3437"/>
<path d="M233.75 98H350.14V134H233.75V98Z" fill="#FAB6B7"/>
<path d="M304.661 123.879L304.432 125.012H305.692V126.018H304.242L303.866 128H302.791L303.172 126.018H302.225L301.854 128H300.804L301.165 126.018H300.003V125.012H301.356L301.585 123.879H300.355V122.858H301.766L302.142 120.871H303.211L302.835 122.858H303.802L304.183 120.871H305.233L304.852 122.858H306.024V123.879H304.661ZM302.415 125.012H303.372L303.602 123.879H302.645L302.415 125.012ZM308.636 128H307.147V120.861H311.239V122.102H308.636V123.942H311.058V125.178H308.636V128ZM317.005 128L316.488 126.301H313.885L313.367 128H311.737L314.256 120.832H316.107L318.636 128H317.005ZM316.126 125.031L315.609 123.371C315.576 123.26 315.532 123.119 315.477 122.946C315.425 122.771 315.371 122.593 315.316 122.414C315.264 122.232 315.221 122.074 315.189 121.94C315.156 122.074 315.111 122.24 315.052 122.438C314.997 122.634 314.943 122.819 314.891 122.995C314.839 123.171 314.801 123.296 314.779 123.371L314.266 125.031H316.126ZM319.539 120.861H321.761C322.712 120.861 323.431 120.995 323.919 121.262C324.408 121.529 324.652 121.997 324.652 122.668C324.652 122.938 324.608 123.182 324.52 123.4C324.435 123.618 324.312 123.798 324.149 123.938C323.986 124.077 323.787 124.169 323.553 124.211V124.26C323.791 124.309 324.006 124.393 324.198 124.514C324.39 124.631 324.543 124.803 324.657 125.031C324.774 125.256 324.832 125.555 324.832 125.93C324.832 126.363 324.727 126.734 324.515 127.043C324.303 127.352 324.001 127.59 323.607 127.756C323.216 127.919 322.751 128 322.21 128H319.539V120.861ZM321.053 123.688H321.932C322.371 123.688 322.676 123.62 322.845 123.483C323.014 123.343 323.099 123.138 323.099 122.868C323.099 122.595 322.998 122.399 322.796 122.282C322.598 122.162 322.282 122.102 321.849 122.102H321.053V123.688ZM321.053 124.89V126.75H322.039C322.495 126.75 322.812 126.662 322.992 126.486C323.171 126.311 323.26 126.075 323.26 125.778C323.26 125.603 323.221 125.448 323.143 125.314C323.065 125.181 322.933 125.077 322.747 125.002C322.565 124.927 322.313 124.89 321.991 124.89H321.053ZM325.711 124.968C325.711 124.558 325.741 124.152 325.799 123.752C325.861 123.348 325.967 122.969 326.117 122.614C326.266 122.256 326.476 121.94 326.746 121.667C327.017 121.39 327.36 121.174 327.777 121.018C328.193 120.858 328.698 120.778 329.29 120.778C329.43 120.778 329.593 120.785 329.779 120.798C329.967 120.808 330.124 120.826 330.247 120.852V122.058C330.117 122.028 329.977 122.006 329.827 121.989C329.681 121.97 329.534 121.96 329.388 121.96C328.796 121.96 328.337 122.054 328.011 122.243C327.689 122.432 327.461 122.694 327.327 123.029C327.197 123.361 327.121 123.749 327.098 124.191H327.161C327.253 124.032 327.367 123.89 327.503 123.767C327.643 123.643 327.812 123.545 328.011 123.474C328.21 123.399 328.442 123.361 328.709 123.361C329.126 123.361 329.487 123.451 329.793 123.63C330.099 123.806 330.335 124.061 330.501 124.396C330.667 124.732 330.75 125.14 330.75 125.622C330.75 126.136 330.651 126.579 330.452 126.95C330.254 127.321 329.972 127.606 329.608 127.805C329.246 128 328.817 128.098 328.319 128.098C327.954 128.098 327.614 128.036 327.298 127.912C326.982 127.785 326.706 127.593 326.468 127.336C326.23 127.079 326.045 126.755 325.911 126.364C325.778 125.97 325.711 125.505 325.711 124.968ZM328.289 126.892C328.586 126.892 328.826 126.791 329.012 126.589C329.198 126.387 329.29 126.071 329.29 125.642C329.29 125.293 329.209 125.02 329.046 124.821C328.887 124.619 328.644 124.519 328.319 124.519C328.097 124.519 327.902 124.569 327.733 124.67C327.567 124.768 327.438 124.893 327.347 125.046C327.256 125.196 327.21 125.35 327.21 125.51C327.21 125.676 327.233 125.84 327.279 126.003C327.324 126.166 327.393 126.314 327.484 126.447C327.575 126.581 327.687 126.688 327.821 126.77C327.957 126.851 328.114 126.892 328.289 126.892ZM331.981 120.861H334.202C335.153 120.861 335.872 120.995 336.361 121.262C336.849 121.529 337.093 121.997 337.093 122.668C337.093 122.938 337.049 123.182 336.961 123.4C336.877 123.618 336.753 123.798 336.59 123.938C336.427 124.077 336.229 124.169 335.994 124.211V124.26C336.232 124.309 336.447 124.393 336.639 124.514C336.831 124.631 336.984 124.803 337.098 125.031C337.215 125.256 337.274 125.555 337.274 125.93C337.274 126.363 337.168 126.734 336.956 127.043C336.745 127.352 336.442 127.59 336.048 127.756C335.658 127.919 335.192 128 334.652 128H331.981V120.861ZM333.494 123.688H334.373C334.813 123.688 335.117 123.62 335.286 123.483C335.456 123.343 335.54 123.138 335.54 122.868C335.54 122.595 335.439 122.399 335.238 122.282C335.039 122.162 334.723 122.102 334.29 122.102H333.494V123.688ZM333.494 124.89V126.75H334.481C334.937 126.75 335.254 126.662 335.433 126.486C335.612 126.311 335.701 126.075 335.701 125.778C335.701 125.603 335.662 125.448 335.584 125.314C335.506 125.181 335.374 125.077 335.189 125.002C335.006 124.927 334.754 124.89 334.432 124.89H333.494ZM338.909 128L341.59 122.131H338.07V120.861H343.192V121.809L340.492 128H338.909Z" fill="#2C3437"/>
<path d="M116.39 98H233.75V134H116.39V98Z" fill="#FAD3D4"/>
<path d="M184.964 122.879L184.735 124.012H185.995V125.018H184.544L184.169 127H183.094L183.475 125.018H182.528L182.157 127H181.107L181.468 125.018H180.306V124.012H181.659L181.888 122.879H180.658V121.858H182.069L182.445 119.871H183.514L183.138 121.858H184.105L184.486 119.871H185.536L185.155 121.858H186.327V122.879H184.964ZM182.718 124.012H183.675L183.905 122.879H182.948L182.718 124.012ZM188.939 127H187.45V119.861H191.542V121.102H188.939V122.942H191.361V124.178H188.939V127ZM197.308 127L196.791 125.301H194.188L193.67 127H192.04L194.559 119.832H196.41L198.939 127H197.308ZM196.429 124.031L195.912 122.371C195.879 122.26 195.835 122.119 195.78 121.946C195.728 121.771 195.674 121.593 195.619 121.414C195.567 121.232 195.524 121.074 195.492 120.94C195.459 121.074 195.414 121.24 195.355 121.438C195.3 121.634 195.246 121.819 195.194 121.995C195.142 122.171 195.104 122.296 195.082 122.371L194.569 124.031H196.429ZM205.765 123.362C205.765 124.166 205.611 124.839 205.301 125.379C204.995 125.916 204.551 126.321 203.968 126.595C203.386 126.865 202.684 127 201.864 127H199.842V119.861H202.084C202.832 119.861 203.482 119.995 204.032 120.262C204.582 120.525 205.008 120.918 205.311 121.438C205.614 121.956 205.765 122.597 205.765 123.362ZM204.193 123.401C204.193 122.874 204.115 122.441 203.959 122.103C203.806 121.761 203.578 121.508 203.275 121.346C202.975 121.183 202.604 121.102 202.162 121.102H201.356V125.75H202.005C202.744 125.75 203.293 125.553 203.651 125.159C204.012 124.765 204.193 124.179 204.193 123.401ZM211.459 121.458C211.459 121.787 211.39 122.072 211.253 122.312C211.117 122.553 210.931 122.75 210.697 122.903C210.466 123.056 210.205 123.169 209.916 123.24V123.27C210.489 123.341 210.923 123.517 211.219 123.797C211.519 124.077 211.669 124.451 211.669 124.92C211.669 125.337 211.566 125.709 211.361 126.038C211.159 126.367 210.847 126.626 210.423 126.814C210 127.003 209.455 127.098 208.788 127.098C208.394 127.098 208.026 127.065 207.684 127C207.346 126.938 207.027 126.842 206.727 126.712V125.428C207.033 125.584 207.354 125.703 207.689 125.784C208.024 125.862 208.337 125.901 208.627 125.901C209.167 125.901 209.544 125.809 209.759 125.623C209.977 125.434 210.086 125.171 210.086 124.832C210.086 124.633 210.036 124.466 209.935 124.329C209.834 124.192 209.658 124.088 209.408 124.017C209.16 123.945 208.814 123.909 208.368 123.909H207.826V122.752H208.378C208.817 122.752 209.151 122.711 209.378 122.63C209.61 122.545 209.766 122.431 209.847 122.288C209.932 122.142 209.974 121.976 209.974 121.79C209.974 121.536 209.896 121.338 209.74 121.194C209.584 121.051 209.323 120.979 208.959 120.979C208.731 120.979 208.522 121.009 208.334 121.067C208.148 121.123 207.98 121.191 207.831 121.272C207.681 121.351 207.549 121.427 207.435 121.502L206.737 120.462C207.017 120.26 207.344 120.092 207.718 119.959C208.096 119.826 208.545 119.759 209.066 119.759C209.802 119.759 210.384 119.907 210.814 120.203C211.244 120.499 211.459 120.918 211.459 121.458ZM218.89 123.362C218.89 124.166 218.736 124.839 218.426 125.379C218.12 125.916 217.676 126.321 217.093 126.595C216.511 126.865 215.809 127 214.989 127H212.967V119.861H215.209C215.957 119.861 216.607 119.995 217.157 120.262C217.707 120.525 218.133 120.918 218.436 121.438C218.739 121.956 218.89 122.597 218.89 123.362ZM217.318 123.401C217.318 122.874 217.24 122.441 217.084 122.103C216.931 121.761 216.703 121.508 216.4 121.346C216.1 121.183 215.729 121.102 215.287 121.102H214.481V125.75H215.13C215.869 125.75 216.418 125.553 216.776 125.159C217.137 124.765 217.318 124.179 217.318 123.401ZM225.023 125.521H224.164V127H222.689V125.521H219.642V124.471L222.772 119.861H224.164V124.349H225.023V125.521ZM222.689 124.349V123.138C222.689 123.024 222.691 122.889 222.694 122.732C222.7 122.576 222.707 122.42 222.713 122.264C222.72 122.107 222.726 121.969 222.733 121.849C222.743 121.725 222.749 121.639 222.753 121.59H222.713C222.652 121.723 222.586 121.854 222.518 121.98C222.45 122.104 222.37 122.234 222.279 122.371L220.97 124.349H222.689Z" fill="#2C3437"/>
<path d="M0 98H116.39V134H9.99999C4.47715 134 0 129.523 0 124V98Z" fill="#FBF1F0"/>
<path d="M71.6182 123.879L71.3887 125.012H72.6484V126.018H71.1982L70.8223 128H69.748L70.1289 126.018H69.1816L68.8105 128H67.7607L68.1221 126.018H66.96V125.012H68.3125L68.542 123.879H67.3115V122.858H68.7227L69.0986 120.871H70.168L69.792 122.858H70.7588L71.1396 120.871H72.1895L71.8086 122.858H72.9805V123.879H71.6182ZM69.3721 125.012H70.3291L70.5586 123.879H69.6016L69.3721 125.012ZM75.5928 128H74.1035V120.861H78.1953V122.102H75.5928V123.942H78.0146V125.178H75.5928V128ZM79.5918 120.861H81.8135C82.764 120.861 83.4834 120.995 83.9717 121.262C84.46 121.529 84.7041 121.997 84.7041 122.668C84.7041 122.938 84.6602 123.182 84.5723 123.4C84.4876 123.618 84.3639 123.798 84.2012 123.938C84.0384 124.077 83.8398 124.169 83.6055 124.211V124.26C83.8431 124.309 84.0579 124.393 84.25 124.514C84.4421 124.631 84.5951 124.803 84.709 125.031C84.8262 125.256 84.8848 125.555 84.8848 125.93C84.8848 126.363 84.779 126.734 84.5674 127.043C84.3558 127.352 84.0531 127.59 83.6592 127.756C83.2686 127.919 82.8031 128 82.2627 128H79.5918V120.861ZM81.1055 123.688H81.9844C82.4238 123.688 82.7282 123.62 82.8975 123.483C83.0667 123.343 83.1514 123.138 83.1514 122.868C83.1514 122.595 83.0505 122.399 82.8486 122.282C82.6501 122.162 82.3343 122.102 81.9014 122.102H81.1055V123.688ZM81.1055 124.89V126.75H82.0918C82.5475 126.75 82.8649 126.662 83.0439 126.486C83.223 126.311 83.3125 126.075 83.3125 125.778C83.3125 125.603 83.2734 125.448 83.1953 125.314C83.1172 125.181 82.9854 125.077 82.7998 125.002C82.6175 124.927 82.3652 124.89 82.043 124.89H81.1055ZM87.7998 128H86.3105V120.861H90.4023V122.102H87.7998V123.942H90.2217V125.178H87.7998V128ZM95.0312 128H93.5225V123.869C93.5225 123.755 93.5241 123.615 93.5273 123.449C93.5306 123.28 93.5355 123.107 93.542 122.932C93.5485 122.753 93.555 122.591 93.5615 122.448C93.5257 122.491 93.4525 122.564 93.3418 122.668C93.2344 122.769 93.1335 122.86 93.0391 122.941L92.2188 123.601L91.4912 122.692L93.791 120.861H95.0312V128ZM99.0107 128H97.5215V120.861H101.613V122.102H99.0107V123.942H101.433V125.178H99.0107V128ZM107.463 124.431C107.463 125.007 107.417 125.521 107.326 125.974C107.238 126.426 107.095 126.81 106.896 127.126C106.701 127.442 106.444 127.683 106.125 127.849C105.806 128.015 105.419 128.098 104.963 128.098C104.39 128.098 103.92 127.953 103.552 127.663C103.184 127.37 102.912 126.95 102.736 126.403C102.561 125.853 102.473 125.196 102.473 124.431C102.473 123.659 102.552 123 102.712 122.453C102.875 121.903 103.138 121.481 103.503 121.188C103.868 120.896 104.354 120.749 104.963 120.749C105.533 120.749 106.001 120.896 106.369 121.188C106.74 121.478 107.015 121.898 107.194 122.448C107.373 122.995 107.463 123.656 107.463 124.431ZM103.972 124.431C103.972 124.974 104.001 125.428 104.06 125.793C104.121 126.154 104.224 126.426 104.367 126.608C104.51 126.791 104.709 126.882 104.963 126.882C105.214 126.882 105.41 126.792 105.554 126.613C105.7 126.431 105.804 126.159 105.866 125.798C105.928 125.433 105.959 124.978 105.959 124.431C105.959 123.887 105.928 123.433 105.866 123.068C105.804 122.704 105.7 122.43 105.554 122.248C105.41 122.062 105.214 121.97 104.963 121.97C104.709 121.97 104.51 122.062 104.367 122.248C104.224 122.43 104.121 122.704 104.06 123.068C104.001 123.433 103.972 123.887 103.972 124.431Z" fill="#2C3437"/>
</svg>
