<svg width="95" height="38" viewBox="0 0 95 38" fill="none" xmlns="http://www.w3.org/2000/svg">
<path d="M0 0V2.59576H18.4625V0H0ZM21.0782 0V2.59576H47.3881C47.3881 2.59576 44.7007 0 41.1413 0H21.0782ZM52.5493 0V2.59576H68.4663L67.5215 0H52.5493V0ZM79.878 0L78.9332 2.59576H94.7058V0H79.878ZM0 5.04816V7.64392H18.4625V5.04816H0ZM21.0782 5.05212V7.64423H50.4411C50.4411 7.64423 50.0981 5.6464 49.5 5.05212H21.0782ZM52.5493 5.05212V7.64423H70.2114L69.337 5.05212H52.5493V5.05212ZM77.9884 5.05212L77.114 7.64423H94.7058V5.05212H77.9884V5.05212ZM5.30569 10.0966V12.696H13.3013V10.0966H5.30569ZM26.3839 10.0966V12.696H34.3795V10.0966H26.3839ZM42.1565 10.0966V12.696H50.1521C50.1521 12.696 50.6597 11.3233 50.6597 10.0966H42.1565V10.0966ZM57.8549 10.0966V12.696H72.0306L71.0858 10.0966H57.8549V10.0966ZM76.247 10.0966L75.2985 12.696H89.5446V10.0966H76.247ZM5.30569 15.1484V17.7442H13.3013V15.1484H5.30569ZM26.3839 15.1484V17.7442H46.8064C46.8064 17.7442 48.5148 16.4123 49.0591 15.1484H26.3839ZM57.8549 15.1484V17.7442H65.8506V16.2993L66.3582 17.7442H81.0044L81.549 16.2993V17.7442H89.5446V15.1484H74.5353L73.7387 17.3471L72.9384 15.1484H57.8549V15.1484ZM5.30569 20.1966V22.7924H13.3013V20.1966H5.30569ZM26.3839 20.1966V22.7924H49.0591C48.5147 21.5326 46.8064 20.1966 46.8064 20.1966H26.3839ZM57.8549 20.1966V22.7924H65.8506V20.1966H57.8549ZM67.3029 20.1966L68.27 22.7924H79.2519L80.1707 20.1966H67.3029V20.1966ZM81.549 20.1966V22.7924H89.5446V20.1966H81.549ZM5.30569 25.2448V27.8405H13.3013V25.2448H5.30569ZM26.3839 25.2448V27.8405H34.3795V25.2448H26.3839ZM42.1565 25.2448V27.8405H50.6597C50.6597 26.6154 50.1521 25.2448 50.1521 25.2448H42.1565V25.2448ZM57.8549 25.2448V27.8405H65.8506V25.2448H57.8549ZM69.1184 25.2448L70.0558 27.8405H77.4178L78.3626 25.2448H69.1184ZM81.549 25.2448V27.8405H89.5446V25.2448H81.549ZM0.144501 30.2928V32.8923H18.607V30.2928H0.144501ZM21.0782 30.2928V32.8923H49.5C50.0981 32.2971 50.4411 30.2928 50.4411 30.2928H21.0782ZM52.6938 30.2928V32.8923H65.8506V30.2928H52.6938ZM70.9376 30.2928L71.9009 32.8923H75.6468L76.5508 30.2928H70.9376ZM81.549 30.2928V32.8923H94.8503V30.2928H81.549ZM0.144501 35.3447V37.9404H18.607V35.3447H0.144501ZM21.0782 35.3447V37.9368H41.1413C44.7007 37.9368 47.3881 35.3447 47.3881 35.3447H21.0782ZM52.6938 35.3447V37.9404H65.8506V35.3447H52.6938ZM72.7643 35.3447L73.6905 37.9331L73.8498 37.9371L74.7909 35.345H72.7643V35.3447ZM81.549 35.3447V37.9404H94.8503V35.3447H81.549Z" fill="#545557"/>
</svg>
