<svg width="151" height="38" viewBox="0 0 151 38" fill="none" xmlns="http://www.w3.org/2000/svg">
<g style="mix-blend-mode:luminosity" clip-path="url(#clip0)">
<path d="M148.877 35.547C148.97 35.548 149.062 35.5293 149.148 35.492C149.233 35.4548 149.31 35.3999 149.375 35.3307C149.439 35.2615 149.488 35.1794 149.52 35.0897C149.552 34.9999 149.566 34.9043 149.56 34.8088C149.56 34.2853 149.254 34.0352 148.625 34.0352H147.609V36.7761H147.991V35.5813H148.461L148.472 35.5959L149.2 36.7761H149.609L148.825 35.5546L148.877 35.547ZM148.436 35.2724H147.992V34.3458H148.554C148.844 34.3458 149.175 34.3947 149.175 34.7861C149.175 35.2364 148.84 35.2724 148.433 35.2724" fill="#0A66C2"/>
<path d="M0 5.57666H5.64082V26.7505H16.0837V32.1149H0V5.57666Z" fill="#0A66C2"/>
<path d="M18.5776 14.1214H23.9966V32.1051H18.5776V14.1214ZM21.2871 5.18066C21.9088 5.18078 22.5165 5.37087 23.0334 5.7269C23.5503 6.08293 23.9531 6.5889 24.191 7.18085C24.4288 7.7728 24.491 8.42413 24.3696 9.05249C24.2483 9.68085 23.9488 10.258 23.5092 10.711C23.0695 11.164 22.5094 11.4725 21.8996 11.5974C21.2898 11.7224 20.6578 11.6582 20.0834 11.413C19.509 11.1678 19.0181 10.7526 18.6727 10.2198C18.3273 9.68712 18.1429 9.06082 18.1429 8.42014C18.1429 7.99468 18.2243 7.57338 18.3823 7.18031C18.5403 6.78724 18.7719 6.4301 19.0639 6.12928C19.3558 5.82846 19.7025 5.58985 20.0839 5.42709C20.4654 5.26432 20.8742 5.18059 21.2871 5.18066Z" fill="#0A66C2"/>
<path d="M46.6648 5.57275H52.0838V21.4327L58.2253 14.1132H64.8692L57.7568 22.4391L64.7196 32.1127H57.9086L52.156 23.2232H52.0849V32.1116H46.6659L46.6648 5.57275Z" fill="#0A66C2"/>
<path d="M27.0012 14.1229H32.2051V16.5806H32.2791C32.7989 15.6629 33.5508 14.9079 34.4545 14.3963C35.3582 13.8846 36.3798 13.6355 37.4102 13.6756C42.9054 13.6756 43.9169 17.4013 43.9169 22.2416V32.1037H38.4979V23.3602C38.4979 21.2731 38.4607 18.5903 35.6755 18.5903C32.8588 18.5903 32.4242 20.863 32.4242 23.2084V32.1014H27.0052L27.0012 14.1229Z" fill="#0A66C2"/>
<path d="M76.2812 21.0212C76.2915 20.5681 76.2125 20.1176 76.049 19.697C75.8854 19.2763 75.6407 18.8942 75.3296 18.5739C75.0186 18.2535 74.6476 18.0016 74.2393 17.8334C73.831 17.6651 73.3938 17.584 72.9541 17.595C72.0073 17.5343 71.0753 17.8594 70.3589 18.5003C69.6426 19.1413 69.1993 20.0466 69.1247 21.0212H76.2812ZM80.8715 28.9905C79.971 30.1158 78.8389 31.0206 77.5573 31.6394C76.2756 32.2582 74.8764 32.5756 73.4611 32.5685C68.0421 32.5685 63.7035 28.841 63.7035 23.0688C63.7035 17.2966 68.0415 13.5708 73.4611 13.5708C78.5261 13.5708 81.7024 17.2937 81.7024 23.0688V24.8197H69.1247C69.2813 25.8127 69.7809 26.7139 70.5314 27.3573C71.2819 28.0007 72.2327 28.3429 73.2087 28.3209C73.98 28.316 74.7379 28.1123 75.4133 27.7285C76.0888 27.3447 76.6603 26.7929 77.076 26.1233L80.8715 28.9905Z" fill="#0A66C2"/>
<path d="M92.9978 18.4682C90.2883 18.4682 88.6626 20.3325 88.6626 23.0491C88.6626 25.7656 90.2877 27.6317 92.9978 27.6317C95.7079 27.6317 97.337 25.7703 97.337 23.0491C97.337 20.3279 95.7107 18.4682 92.9978 18.4682ZM102.326 32.1015H97.337V29.7165H97.263C96.6371 30.584 95.8253 31.2909 94.8909 31.782C93.9564 32.2732 92.9246 32.5354 91.8756 32.5482C86.6689 32.5482 83.2391 28.6758 83.2391 23.1997C83.2391 18.1704 86.2743 13.5523 91.2637 13.5523C93.5064 13.5523 95.6012 14.1846 96.83 15.9372H96.9012V5.5708H102.325L102.326 32.1015Z" fill="#0A66C2"/>
<path d="M138.909 32.1123H133.49V23.3671C133.49 21.2817 133.454 18.5971 130.672 18.5971C127.849 18.5971 127.417 20.8692 127.417 23.2152V32.1117H121.998V14.1279H127.201V16.5856H127.273C127.794 15.6683 128.546 14.9137 129.45 14.4021C130.354 13.8905 131.376 13.6412 132.406 13.6806C137.899 13.6806 138.911 17.4035 138.911 22.2467L138.909 32.1123ZM115.884 11.6697C115.262 11.6698 114.654 11.4799 114.137 11.1239C113.619 10.7679 113.216 10.2618 112.978 9.66972C112.74 9.07761 112.678 8.42604 112.799 7.7974C112.92 7.16875 113.22 6.59127 113.659 6.13798C114.099 5.68469 114.659 5.37594 115.269 5.25079C115.879 5.12563 116.512 5.18969 117.086 5.43486C117.661 5.68003 118.152 6.0953 118.498 6.62816C118.843 7.16101 119.028 7.78753 119.028 8.42846C119.028 8.85403 118.947 9.27544 118.789 9.66865C118.631 10.0618 118.399 10.4191 118.107 10.7201C117.815 11.0211 117.469 11.2599 117.087 11.4228C116.706 11.5857 116.297 11.6696 115.884 11.6697ZM118.593 32.1123H113.169V14.1279H118.593V32.1123ZM141.611 0.00256771H110.446C109.738 -0.00565829 109.057 0.275847 108.551 0.785223C108.045 1.2946 107.756 1.99017 107.747 2.7191V34.9679C107.755 35.6971 108.044 36.3932 108.55 36.9031C109.056 37.413 109.738 37.695 110.446 37.6873H141.611C142.32 37.6965 143.003 37.4152 143.511 36.9053C144.019 36.3954 144.31 35.6986 144.32 34.9679V2.71677C144.31 1.9864 144.019 1.29004 143.511 0.780672C143.003 0.271308 142.319 -0.00939272 141.611 0.000239978" fill="#0A66C2"/>
<path d="M148.482 32.814C147.823 32.8205 147.193 33.0958 146.73 33.5797C146.267 34.0636 146.009 34.7167 146.012 35.3962C146.015 36.0756 146.279 36.7261 146.747 37.2054C147.214 37.6846 147.847 37.9537 148.506 37.9537C149.165 37.9537 149.798 37.6846 150.265 37.2054C150.732 36.7261 150.997 36.0756 151 35.3962C151.003 34.7167 150.745 34.0636 150.282 33.5797C149.819 33.0958 149.189 32.8205 148.53 32.814H148.482ZM148.482 37.6595C148.049 37.6669 147.625 37.542 147.261 37.3006C146.897 37.0592 146.611 36.7121 146.439 36.3032C146.267 35.8944 146.217 35.4421 146.294 35.0035C146.371 34.565 146.573 34.16 146.874 33.8396C147.174 33.5192 147.56 33.298 147.983 33.2037C148.406 33.1095 148.846 33.1466 149.249 33.3103C149.651 33.474 149.997 33.7569 150.243 34.1233C150.489 34.4897 150.625 34.9231 150.632 35.3688C150.632 35.3816 150.632 35.3938 150.632 35.4066C150.644 35.9912 150.43 36.5568 150.038 36.9791C149.645 37.4013 149.106 37.6457 148.539 37.6583H148.482" fill="#0A66C2"/>
</g>
<defs>
<clipPath id="clip0">
<rect width="151" height="38" fill="white"/>
</clipPath>
</defs>
</svg>
