<svg width="166" height="36" viewBox="0 0 166 36" fill="none" xmlns="http://www.w3.org/2000/svg">
<g clip-path="url(#clip0)">
<g style="mix-blend-mode:luminosity">
<path d="M58.5946 20.735L57.6052 23.5815H57.5228C57.3579 22.9396 57.0556 21.9629 56.5609 20.7908L51.2566 7.25589H46.0622V28.828H49.4976V15.5164C49.4976 14.6791 49.4976 13.7303 49.4701 12.5582C49.4427 11.9722 49.3877 11.5257 49.3602 11.1908H49.4427C49.6076 12.028 49.7999 12.6419 49.9374 13.0326L56.3135 28.7722H58.7321L65.0533 12.8931C65.1907 12.5303 65.3281 11.8047 65.4655 11.1908H65.548C65.4655 12.7815 65.4105 14.2047 65.3831 15.0698V28.7443H69.0384V7.20007H64.0364L58.5946 20.735ZM72.5013 13.2838H76.0741V28.7443H72.5013V13.2838ZM74.3152 6.75356C73.7105 6.75356 73.2158 6.97682 72.8036 7.36751C72.3913 7.75821 72.1715 8.26054 72.1715 8.87449C72.1715 9.46054 72.3913 9.96286 72.8036 10.3536C73.2158 10.7443 73.7105 10.9396 74.3152 10.9396C74.9198 10.9396 75.442 10.7164 75.8268 10.3536C76.239 9.96286 76.4589 9.46054 76.4589 8.87449C76.4589 8.28844 76.239 7.78612 75.8268 7.36751C75.4695 6.97682 74.9473 6.75356 74.3152 6.75356ZM88.744 13.1443C88.0844 13.0047 87.3973 12.921 86.7377 12.921C85.1162 12.921 83.6321 13.2838 82.3953 14.0094C81.1585 14.735 80.1691 15.7396 79.537 16.9954C78.8774 18.2791 78.5476 19.7582 78.5476 21.4605C78.5476 22.9396 78.8774 24.2512 79.5095 25.4512C80.1417 26.6233 81.0211 27.5722 82.2029 28.214C83.3297 28.8559 84.6489 29.1908 86.133 29.1908C87.837 29.1908 89.2937 28.828 90.448 28.1582L90.4754 28.1303V24.7815L90.338 24.8931C89.8158 25.2838 89.2112 25.6187 88.6066 25.814C87.9744 26.0373 87.3973 26.1489 86.9026 26.1489C85.4735 26.1489 84.3466 25.7303 83.5496 24.8094C82.7251 23.9164 82.3129 22.6884 82.3129 21.1536C82.3129 19.5629 82.7251 18.3071 83.5771 17.3861C84.4291 16.4652 85.5559 15.9908 86.9301 15.9908C88.0844 15.9908 89.2662 16.3815 90.338 17.1629L90.4754 17.2745V13.7303L90.448 13.7024C89.9807 13.5071 89.4585 13.2838 88.744 13.1443ZM100.534 13.0326C99.6549 13.0326 98.8304 13.3117 98.1158 13.8977C97.5112 14.4001 97.0989 15.1257 96.7417 15.9908H96.7142V13.2838H93.1413V28.7443H96.7142V20.8466C96.7142 19.5071 96.989 18.3908 97.5937 17.5815C98.1983 16.7443 98.9678 16.3257 99.9023 16.3257C100.232 16.3257 100.562 16.4094 100.974 16.4652C101.359 16.5768 101.634 16.6884 101.826 16.828L101.964 16.9396V13.3117L101.881 13.2838C101.634 13.1164 101.139 13.0326 100.534 13.0326ZM110.264 12.9489C107.763 12.9489 105.756 13.7024 104.355 15.1815C102.925 16.6605 102.238 18.6977 102.238 21.2652C102.238 23.6652 102.953 25.6187 104.327 27.0419C105.701 28.4373 107.57 29.1629 109.906 29.1629C112.352 29.1629 114.304 28.4094 115.705 26.9024C117.134 25.3954 117.821 23.3861 117.821 20.9024C117.821 18.4466 117.162 16.4931 115.815 15.0698C114.523 13.6466 112.627 12.9489 110.264 12.9489ZM113.122 24.8373C112.462 25.7024 111.418 26.121 110.126 26.121C108.834 26.121 107.79 25.7024 107.048 24.7815C106.306 23.9164 105.949 22.6605 105.949 21.0698C105.949 19.4233 106.333 18.1675 107.048 17.2745C107.79 16.3815 108.807 15.935 110.099 15.935C111.363 15.935 112.352 16.3536 113.067 17.2187C113.781 18.0838 114.166 19.3396 114.166 20.9861C114.111 22.6605 113.809 23.9722 113.122 24.8373ZM125.792 19.7024C124.665 19.228 123.95 18.8652 123.62 18.5582C123.346 18.2791 123.208 17.8884 123.208 17.3861C123.208 16.9675 123.373 16.5489 123.785 16.2698C124.198 15.9908 124.665 15.8512 125.352 15.8512C125.957 15.8512 126.589 15.9629 127.193 16.1303C127.798 16.2977 128.348 16.5489 128.787 16.8838L128.925 16.9954V13.5908L128.842 13.5629C128.43 13.3954 127.88 13.228 127.221 13.0884C126.561 12.9768 125.957 12.921 125.462 12.921C123.758 12.921 122.356 13.3396 121.257 14.2605C120.158 15.1257 119.635 16.2977 119.635 17.6652C119.635 18.3908 119.745 19.0326 119.993 19.5629C120.24 20.0931 120.597 20.5954 121.092 21.014C121.587 21.4047 122.301 21.8512 123.291 22.2698C124.115 22.6326 124.747 22.9117 125.132 23.135C125.517 23.3582 125.764 23.6094 125.957 23.8047C126.094 24.028 126.176 24.3071 126.176 24.6698C126.176 25.7024 125.407 26.2047 123.84 26.2047C123.236 26.2047 122.604 26.0931 121.862 25.8419C121.119 25.5908 120.432 25.228 119.855 24.8094L119.718 24.6978V28.2419L119.8 28.2698C120.322 28.521 120.955 28.6884 121.724 28.8838C122.494 29.0233 123.181 29.135 123.785 29.135C125.627 29.135 127.138 28.7164 128.21 27.7954C129.31 26.9024 129.887 25.7582 129.887 24.2791C129.887 23.2466 129.612 22.3257 129.007 21.628C128.21 20.9582 127.221 20.2605 125.792 19.7024ZM139.314 12.9489C136.813 12.9489 134.806 13.7024 133.405 15.1815C132.003 16.6605 131.288 18.6977 131.288 21.2652C131.288 23.6652 132.003 25.6187 133.377 27.0419C134.751 28.4373 136.62 29.1629 138.956 29.1629C141.402 29.1629 143.354 28.4094 144.755 26.9024C146.184 25.3954 146.871 23.3861 146.871 20.9024C146.871 18.4466 146.212 16.4931 144.865 15.0698C143.573 13.6466 141.677 12.9489 139.314 12.9489ZM142.144 24.8373C141.485 25.7024 140.44 26.121 139.149 26.121C137.829 26.121 136.813 25.7024 136.07 24.7815C135.328 23.9164 134.971 22.6605 134.971 21.0698C134.971 19.4233 135.356 18.1675 136.07 17.2745C136.813 16.3815 137.829 15.935 139.121 15.935C140.358 15.935 141.375 16.3536 142.089 17.2187C142.804 18.0838 143.189 19.3396 143.189 20.9861C143.189 22.6605 142.831 23.9722 142.144 24.8373ZM165.972 16.2698V13.2838H162.372V8.70705L162.262 8.73496L158.854 9.76752L158.772 9.79542V13.2838H153.385V11.3303C153.385 10.4373 153.605 9.73961 153.99 9.2931C154.374 8.84658 154.952 8.62333 155.666 8.62333C156.161 8.62333 156.683 8.73496 157.26 8.98612L157.398 9.06984V5.91635L157.315 5.88844C156.82 5.721 156.161 5.60938 155.309 5.60938C154.237 5.60938 153.303 5.86054 152.451 6.27914C151.599 6.75356 150.966 7.39542 150.499 8.26054C150.032 9.09775 149.785 10.0466 149.785 11.135V13.2838H147.284V16.2419H149.785V28.7443H153.385V16.2698H158.772V24.2233C158.772 27.4884 160.283 29.135 163.307 29.135C163.801 29.135 164.323 29.0512 164.818 28.9675C165.34 28.8559 165.725 28.7164 165.945 28.6047L165.972 28.5768V25.5908L165.835 25.7024C165.615 25.8419 165.423 25.9536 165.093 26.0373C164.818 26.121 164.571 26.1489 164.378 26.1489C163.664 26.1489 163.169 25.9815 162.812 25.5629C162.482 25.1722 162.317 24.5303 162.317 23.5815V16.2698H165.972Z" fill="#737373"/>
</g>
<g style="mix-blend-mode:luminosity">
<path d="M0 0H16.8474V17.107H0V0Z" fill="#F25022"/>
</g>
<g style="mix-blend-mode:luminosity">
<path d="M18.6063 0H35.4536V17.107H18.6063V0Z" fill="#7FBA00"/>
</g>
<g style="mix-blend-mode:luminosity">
<path d="M0 18.8931H16.8474V36H0V18.8931Z" fill="#00A4EF"/>
</g>
<g style="mix-blend-mode:luminosity">
<path d="M18.6063 18.8931H35.4536V36H18.6063V18.8931Z" fill="#FFB900"/>
</g>
</g>
<defs>
<clipPath id="clip0">
<rect width="166" height="36" fill="white"/>
</clipPath>
</defs>
</svg>
