<svg width="138" height="37" viewBox="0 0 138 37" fill="none" xmlns="http://www.w3.org/2000/svg">
<g clip-path="url(#clip0)">
<g style="mix-blend-mode:luminosity">
<path d="M18.9754 34.6151C16.8995 34.9767 14.787 35.0852 12.6018 35.374L5.93656 16.0069V36.2052C3.86063 36.4219 1.96677 36.7109 0 37V0H5.53617L13.1116 20.9935V0H18.9754V34.6151ZM30.4481 13.5498C32.7064 13.5498 36.1664 13.4414 38.2423 13.4414V19.2225C35.6563 19.2225 32.6335 19.2225 30.4481 19.3309V27.9307C33.8719 27.714 37.2954 27.4246 40.7553 27.3162V32.8803L24.6206 34.1453V0H40.7553V5.78126H30.4481V13.5498ZM62.4259 5.78139H56.38V32.3751C54.4132 32.3751 52.4465 32.3751 50.5529 32.4472V5.78139H44.507V0H62.4261L62.4259 5.78139ZM71.8953 13.1525H79.8717V18.9336H71.8953V32.0499H66.1768V0H82.4576V5.78126H71.8953V13.1525ZM91.927 26.9912C95.2414 27.0633 98.592 27.3166 101.834 27.497V33.206C96.6255 32.8806 91.4172 32.5559 86.0997 32.4472V0H91.927V26.9912ZM106.75 33.6035C108.608 33.7121 110.575 33.8205 112.469 34.037V0H106.75V33.6035ZM138 0L130.606 17.5967L138 37C135.814 36.7109 133.629 36.3135 131.444 35.9521L127.256 25.257L122.995 35.0852C120.882 34.7235 118.842 34.6151 116.73 34.326L124.233 17.3797L117.458 0H123.723L127.547 9.71975L131.626 0H138V0Z" fill="#D81F26"/>
</g>
</g>
<defs>
<clipPath id="clip0">
<rect width="138" height="37" fill="white"/>
</clipPath>
</defs>
</svg>
