<svg width="111" height="33" viewBox="0 0 111 33" fill="none" xmlns="http://www.w3.org/2000/svg">
<g clip-path="url(#clip0)">
<path d="M97.6896 32.7407C97.4026 32.7407 97.1348 32.6637 96.8861 32.5289L94.3415 31.0081C93.9588 30.7963 94.1501 30.7193 94.2649 30.6808C94.7815 30.5075 94.8772 30.469 95.4129 30.161C95.4703 30.1225 95.5468 30.1418 95.6042 30.1803L97.5557 31.3546C97.6322 31.3931 97.7279 31.3931 97.7853 31.3546L105.419 26.9075C105.496 26.869 105.534 26.792 105.534 26.6958V17.8209C105.534 17.7247 105.496 17.6477 105.419 17.6092L97.7853 13.1814C97.7088 13.1429 97.6131 13.1429 97.5557 13.1814L89.9219 17.6092C89.8454 17.6477 89.8071 17.7439 89.8071 17.8209V26.6958C89.8071 26.7728 89.8454 26.869 89.9219 26.9075L92.0073 28.1204C93.1361 28.6979 93.844 28.0241 93.844 27.3503V18.591C93.844 18.4755 93.9397 18.36 94.0736 18.36H95.0494C95.1642 18.36 95.279 18.4562 95.279 18.591V27.3503C95.279 28.8712 94.4563 29.7567 93.0213 29.7567C92.5813 29.7567 92.2369 29.7567 91.2612 29.2755L89.2523 28.1204C88.7548 27.8316 88.4487 27.2926 88.4487 26.715V17.8402C88.4487 17.2626 88.7548 16.7236 89.2523 16.4348L96.8861 11.9878C97.3644 11.7183 98.0149 11.7183 98.4932 11.9878L106.127 16.4348C106.624 16.7236 106.931 17.2626 106.931 17.8402V26.715C106.931 27.2926 106.624 27.8316 106.127 28.1204L98.4932 32.5674C98.2636 32.6637 97.9766 32.7407 97.6896 32.7407Z" fill="#5FA04E"/>
<path d="M100.062 26.6379C96.7137 26.6379 96.0249 25.0978 96.0249 23.7887C96.0249 23.6732 96.1206 23.5577 96.2545 23.5577H97.2494C97.3642 23.5577 97.4598 23.6347 97.4598 23.7502C97.6129 24.7705 98.0529 25.2711 100.081 25.2711C101.688 25.2711 102.377 24.9053 102.377 24.039C102.377 23.5385 102.185 23.1727 99.6792 22.9224C97.5937 22.7106 96.2928 22.2486 96.2928 20.5737C96.2928 19.0144 97.5937 18.0903 99.7748 18.0903C102.224 18.0903 103.429 18.9374 103.582 20.7855C103.582 20.8433 103.563 20.901 103.525 20.9588C103.486 20.9973 103.429 21.0358 103.372 21.0358H102.358C102.262 21.0358 102.166 20.9588 102.147 20.8625C101.918 19.8037 101.325 19.4572 99.7557 19.4572C97.9955 19.4572 97.7851 20.0732 97.7851 20.5352C97.7851 21.0935 98.0338 21.2668 100.406 21.5748C102.759 21.8828 103.869 22.3256 103.869 23.9812C103.869 25.6753 102.472 26.6379 100.062 26.6379Z" fill="#5FA04E"/>
<path d="M111.083 17.3202C111.083 18.1288 110.413 18.8026 109.609 18.8026C108.806 18.8026 108.136 18.148 108.136 17.3202C108.136 16.4732 108.825 15.8379 109.609 15.8379C110.394 15.8379 111.083 16.4924 111.083 17.3202ZM108.366 17.3202C108.366 18.0133 108.921 18.5716 109.59 18.5716C110.279 18.5716 110.834 17.994 110.834 17.3202C110.834 16.6272 110.279 16.0882 109.59 16.0882C108.94 16.0882 108.366 16.6272 108.366 17.3202ZM109.055 16.4924H109.629C109.82 16.4924 110.203 16.4924 110.203 16.9352C110.203 17.2432 110.011 17.301 109.896 17.3395C110.126 17.3587 110.145 17.5128 110.164 17.7245C110.183 17.8593 110.203 18.0903 110.241 18.1673H109.896C109.896 18.0903 109.839 17.6668 109.839 17.6475C109.82 17.5513 109.782 17.5128 109.667 17.5128H109.38V18.1865H109.055V16.4924ZM109.361 17.224H109.609C109.82 17.224 109.858 17.07 109.858 16.993C109.858 16.762 109.705 16.762 109.609 16.762H109.342V17.224H109.361Z" fill="#5FA04E"/>
<path fill-rule="evenodd" clip-rule="evenodd" d="M18.1565 17.4415C18.1565 17.095 17.9652 16.7678 17.6591 16.5945L9.56614 11.8779C9.43221 11.8009 9.27915 11.7624 9.12609 11.7432C9.10696 11.7432 9.04956 11.7432 9.04956 11.7432C8.89651 11.7432 8.74345 11.8009 8.60952 11.8779L0.497439 16.5752C0.191323 16.7485 0 17.0758 0 17.4415L0.0191323 30.0704C0.0191323 30.2437 0.114794 30.4169 0.267852 30.4939C0.42091 30.5902 0.612233 30.5902 0.746159 30.4939L5.56749 27.7217C5.87361 27.5485 6.06493 27.2212 6.06493 26.8747V20.9645C6.06493 20.618 6.25625 20.2907 6.56237 20.1175L8.60952 18.9239C8.76258 18.8276 8.93477 18.7891 9.10696 18.7891C9.27915 18.7891 9.45134 18.8276 9.58527 18.9239L11.6324 20.1175C11.9385 20.2907 12.1299 20.618 12.1299 20.9645V26.8747C12.1299 27.2212 12.3212 27.5485 12.6273 27.7217L17.4104 30.4939C17.5634 30.5902 17.7547 30.5902 17.9078 30.4939C18.0609 30.4169 18.1565 30.2437 18.1565 30.0704V17.4415Z" fill="#333333"/>
<path fill-rule="evenodd" clip-rule="evenodd" d="M57.1479 0.0577539C56.9949 -0.0192513 56.8035 -0.0192513 56.6696 0.0577539C56.5165 0.15401 56.4209 0.308021 56.4209 0.481283V12.9946C56.4209 13.1101 56.3635 13.2256 56.2487 13.3027C56.1339 13.3604 56.0191 13.3604 55.9043 13.3027L53.8763 12.1283C53.5702 11.9551 53.2067 11.9551 52.9005 12.1283L44.7885 16.8449C44.4823 17.0182 44.291 17.3454 44.291 17.6919V27.1058C44.291 27.4524 44.4823 27.7796 44.7885 27.9529L52.9005 32.6695C53.2067 32.8427 53.5702 32.8427 53.8763 32.6695L61.9884 27.9529C62.2945 27.7796 62.4858 27.4524 62.4858 27.1058V3.6385C62.4858 3.27272 62.2945 2.94545 61.9884 2.77219L57.1479 0.0577539ZM56.4017 24.0064C56.4017 24.1026 56.3635 24.1796 56.287 24.2181L53.5128 25.8353C53.4362 25.8738 53.3406 25.8738 53.2641 25.8353L50.4899 24.2181C50.4133 24.1796 50.3751 24.0834 50.3751 24.0064V20.7722C50.3751 20.6759 50.4133 20.5989 50.4899 20.5604L53.2641 18.9433C53.3406 18.9048 53.4362 18.9048 53.5128 18.9433L56.287 20.5604C56.3635 20.5989 56.4017 20.6952 56.4017 20.7722V24.0064Z" fill="#333333"/>
<path fill-rule="evenodd" clip-rule="evenodd" d="M84.1429 20.6951C84.449 20.5218 84.6212 20.1946 84.6212 19.848V17.5571C84.6212 17.2106 84.4299 16.8833 84.1429 16.7101L76.0882 12.0128C75.7821 11.8395 75.4186 11.8395 75.1125 12.0128L67.0004 16.7293C66.6943 16.9026 66.5029 17.2299 66.5029 17.5764V26.9903C66.5029 27.3368 66.6943 27.6641 67.0004 27.8373L75.0551 32.4576C75.3612 32.6309 75.7247 32.6309 76.0117 32.4576L80.8904 29.724C81.0435 29.647 81.1391 29.4737 81.1391 29.3004C81.1391 29.1272 81.0435 28.9539 80.8904 28.8769L72.7401 24.1603C72.587 24.0641 72.4913 23.9101 72.4913 23.7368V20.7914C72.4913 20.6181 72.587 20.4448 72.7401 20.3678L75.2846 18.9047C75.4377 18.8085 75.629 18.8085 75.7821 18.9047L78.3267 20.3678C78.4797 20.4641 78.5754 20.6181 78.5754 20.7914V23.1015C78.5754 23.2748 78.6711 23.448 78.8241 23.525C78.9772 23.6213 79.1685 23.6213 79.3216 23.525L84.1429 20.6951Z" fill="#333333"/>
<path fill-rule="evenodd" clip-rule="evenodd" d="M75.4759 20.2525C75.5333 20.214 75.6099 20.214 75.6673 20.2525L77.217 21.1573C77.2744 21.1958 77.3126 21.2536 77.3126 21.3306V23.1402C77.3126 23.2172 77.2744 23.275 77.217 23.3135L75.6673 24.2183C75.6099 24.2568 75.5333 24.2568 75.4759 24.2183L73.9262 23.3135C73.8688 23.275 73.8306 23.2172 73.8306 23.1402V21.3306C73.8306 21.2536 73.8688 21.1958 73.9262 21.1573L75.4759 20.2525Z" fill="#5FA04E"/>
<path d="M31.7207 12.0513C31.4145 11.8781 31.051 11.8781 30.7449 12.0513L22.6902 16.7294C22.3841 16.9027 22.2119 17.2299 22.2119 17.5765V26.9518C22.2119 27.2984 22.4032 27.6256 22.6902 27.7989L30.7449 32.477C31.051 32.6502 31.4145 32.6502 31.7207 32.477L39.7753 27.7989C40.0815 27.6256 40.2536 27.2984 40.2536 26.9518V17.5765C40.2536 17.2299 40.0623 16.9027 39.7753 16.7294L31.7207 12.0513Z" fill="url(#paint0_linear)"/>
<path d="M39.7946 16.7294L31.7017 12.0513C31.6252 12.0128 31.5295 11.9743 31.453 11.9551L22.3843 27.5679C22.4608 27.6641 22.5565 27.7411 22.6521 27.7989L30.7451 32.477C30.9747 32.6117 31.2425 32.6502 31.4912 32.5732L40.0051 16.9027C39.9477 16.8257 39.8712 16.7679 39.7946 16.7294Z" fill="url(#paint1_linear)"/>
<path d="M30.4776 10.3379L30.3628 10.3956H30.5158L30.4776 10.3379Z" fill="url(#paint2_linear)"/>
<path d="M39.7947 27.7991C40.0243 27.6643 40.1965 27.4333 40.273 27.183L31.4147 11.936C31.1852 11.8975 30.9364 11.9167 30.726 12.0515L22.6904 16.7103L31.3573 32.6119C31.4721 32.5926 31.6061 32.5541 31.7209 32.4964L39.7947 27.7991Z" fill="url(#paint3_linear)"/>
<path d="M40.5598 27.6446L40.5024 27.5483V27.6831L40.5598 27.6446Z" fill="url(#paint4_linear)"/>
<path d="M39.7952 27.7989L31.7214 32.4769C31.6066 32.5347 31.4918 32.5732 31.3579 32.5924L31.511 32.8812L40.4649 27.6641V27.5486L40.2353 27.1636C40.2162 27.4331 40.044 27.6641 39.7952 27.7989Z" fill="url(#paint5_linear)"/>
<path d="M39.7952 27.7989L31.7214 32.4769C31.6066 32.5347 31.4918 32.5732 31.3579 32.5924L31.511 32.8812L40.4649 27.6641V27.5486L40.2353 27.1636C40.2162 27.4331 40.044 27.6641 39.7952 27.7989Z" fill="url(#paint6_linear)"/>
</g>
<defs>
<linearGradient id="paint0_linear" x1="34.5132" y1="15.5354" x2="27.1574" y2="30.4484" gradientUnits="userSpaceOnUse">
<stop stop-color="#3F873F"/>
<stop offset="0.3296" stop-color="#3F8B3D"/>
<stop offset="0.6367" stop-color="#3E9638"/>
<stop offset="0.9341" stop-color="#3DA92E"/>
<stop offset="1" stop-color="#3DAE2B"/>
</linearGradient>
<linearGradient id="paint1_linear" x1="30.0088" y1="23.3589" x2="50.5328" y2="8.28841" gradientUnits="userSpaceOnUse">
<stop offset="0.1376" stop-color="#3F873F"/>
<stop offset="0.4016" stop-color="#52A044"/>
<stop offset="0.7129" stop-color="#64B749"/>
<stop offset="0.9081" stop-color="#6ABF4B"/>
</linearGradient>
<linearGradient id="paint2_linear" x1="21.9174" y1="10.3605" x2="40.5549" y2="10.3605" gradientUnits="userSpaceOnUse">
<stop offset="0.0919165" stop-color="#6ABF4B"/>
<stop offset="0.2871" stop-color="#64B749"/>
<stop offset="0.5984" stop-color="#52A044"/>
<stop offset="0.8624" stop-color="#3F873F"/>
</linearGradient>
<linearGradient id="paint3_linear" x1="21.9168" y1="22.2613" x2="40.5549" y2="22.2613" gradientUnits="userSpaceOnUse">
<stop offset="0.0919165" stop-color="#6ABF4B"/>
<stop offset="0.2871" stop-color="#64B749"/>
<stop offset="0.5984" stop-color="#52A044"/>
<stop offset="0.8624" stop-color="#3F873F"/>
</linearGradient>
<linearGradient id="paint4_linear" x1="21.9157" y1="27.6148" x2="40.5548" y2="27.6148" gradientUnits="userSpaceOnUse">
<stop offset="0.0919165" stop-color="#6ABF4B"/>
<stop offset="0.2871" stop-color="#64B749"/>
<stop offset="0.5984" stop-color="#52A044"/>
<stop offset="0.8624" stop-color="#3F873F"/>
</linearGradient>
<linearGradient id="paint5_linear" x1="21.9174" y1="30.0349" x2="40.5555" y2="30.0349" gradientUnits="userSpaceOnUse">
<stop offset="0.0919165" stop-color="#6ABF4B"/>
<stop offset="0.2871" stop-color="#64B749"/>
<stop offset="0.5984" stop-color="#52A044"/>
<stop offset="0.8624" stop-color="#3F873F"/>
</linearGradient>
<linearGradient id="paint6_linear" x1="43.2708" y1="15.0921" x2="31.6606" y2="38.6305" gradientUnits="userSpaceOnUse">
<stop stop-color="#3F873F"/>
<stop offset="0.3296" stop-color="#3F8B3D"/>
<stop offset="0.6367" stop-color="#3E9638"/>
<stop offset="0.9341" stop-color="#3DA92E"/>
<stop offset="1" stop-color="#3DAE2B"/>
</linearGradient>
<clipPath id="clip0">
<rect width="111" height="33" fill="white"/>
</clipPath>
</defs>
</svg>
