<svg width="134" height="36" viewBox="0 0 134 36" fill="none" xmlns="http://www.w3.org/2000/svg">
<g style="mix-blend-mode:luminosity">
<path d="M49.9377 7.3623H42.5472C42.3025 7.36215 42.0658 7.45021 41.8798 7.61062C41.6938 7.77103 41.5706 7.99324 41.5325 8.23721L38.5434 27.3685C38.5297 27.4573 38.5351 27.548 38.5595 27.6344C38.5838 27.7209 38.6264 27.8009 38.6843 27.8692C38.7422 27.9374 38.8141 27.9921 38.895 28.0296C38.9759 28.0671 39.0639 28.0864 39.1529 28.0863H42.6812C42.926 28.0864 43.1628 27.9982 43.3489 27.8376C43.5349 27.677 43.658 27.4545 43.6959 27.2103L44.5021 22.0503C44.5399 21.8063 44.6628 21.584 44.8487 21.4234C45.0345 21.2628 45.2711 21.1745 45.5157 21.1743H47.8553C52.7236 21.1743 55.5333 18.7961 56.2671 14.0834C56.5977 12.0216 56.2811 10.4016 55.3247 9.26703C54.2743 8.02121 52.4113 7.3623 49.9377 7.3623ZM50.7903 14.3496C50.3862 17.0267 48.36 17.0267 46.4008 17.0267H45.2855L46.0679 12.027C46.0908 11.8808 46.1647 11.7475 46.2762 11.6514C46.3878 11.5552 46.5296 11.5023 46.6763 11.5023H47.1875C48.5221 11.5023 49.781 11.5023 50.4316 12.2703C50.8195 12.7285 50.9384 13.4092 50.7903 14.3496ZM72.0293 14.2634H68.4902C68.3435 14.2634 68.2017 14.3163 68.0901 14.4124C67.9786 14.5086 67.9047 14.6419 67.8818 14.7881L67.7251 15.7874L67.4777 15.4252C66.7115 14.3027 65.003 13.9274 63.2977 13.9274C59.3869 13.9274 56.0466 16.9176 55.3961 21.1121C55.0578 23.2045 55.5387 25.2052 56.7144 26.6005C57.7929 27.8834 59.3361 28.4179 61.1721 28.4179C64.3233 28.4179 66.0707 26.3725 66.0707 26.3725L65.9129 27.3652C65.8988 27.454 65.904 27.5448 65.9281 27.6313C65.9521 27.7178 65.9944 27.7981 66.0522 27.8665C66.1099 27.935 66.1816 27.99 66.2624 28.0277C66.3432 28.0655 66.4312 28.0851 66.5202 28.0852H69.7081C69.9529 28.0853 70.1898 27.9971 70.3758 27.8365C70.5619 27.6759 70.685 27.4534 70.7228 27.2092L72.6356 14.9812C72.6497 14.8927 72.6445 14.8021 72.6205 14.7157C72.5965 14.6293 72.5543 14.5493 72.4966 14.481C72.439 14.4128 72.3673 14.358 72.2867 14.3204C72.206 14.2828 72.1182 14.2634 72.0293 14.2634ZM67.0962 21.2169C66.7547 23.2579 65.15 24.6281 63.1032 24.6281C62.0755 24.6281 61.2542 24.2954 60.7269 23.6649C60.2038 23.0387 60.005 22.1474 60.1714 21.1547C60.4902 19.131 62.122 17.7161 64.1374 17.7161C65.1424 17.7161 65.9594 18.0532 66.4975 18.6892C67.0368 19.3318 67.2507 20.2285 67.0962 21.2169ZM90.878 14.2634H87.3216C87.1538 14.2637 86.9887 14.3052 86.8405 14.3845C86.6923 14.4638 86.5655 14.5784 86.4711 14.7183L81.566 22.0121L79.4869 15.003C79.4231 14.7893 79.2928 14.6019 79.1153 14.4687C78.9378 14.3355 78.7225 14.2635 78.5013 14.2634H75.0065C74.9084 14.2631 74.8117 14.2865 74.7243 14.3316C74.637 14.3767 74.5616 14.4422 74.5044 14.5227C74.4472 14.6032 74.4099 14.6963 74.3955 14.7942C74.3812 14.8922 74.3902 14.9922 74.4219 15.0859L78.3392 26.691L74.6564 31.9394C74.5909 32.0325 74.5521 32.1419 74.5442 32.2557C74.5362 32.3696 74.5595 32.4834 74.6114 32.5848C74.6633 32.6862 74.7418 32.7712 74.8384 32.8306C74.935 32.8899 75.0458 32.9213 75.1589 32.9212H78.711C78.8768 32.9214 79.0402 32.8811 79.1872 32.8036C79.3342 32.726 79.4604 32.6137 79.555 32.4761L91.3837 15.2398C91.4478 15.1465 91.4854 15.0373 91.4924 14.924C91.4995 14.8107 91.4756 14.6977 91.4235 14.5971C91.3714 14.4965 91.293 14.4122 91.1969 14.3534C91.1007 14.2946 90.9904 14.2634 90.878 14.2634Z" fill="#253B80"/>
</g>
<g style="mix-blend-mode:luminosity">
<path d="M102.653 7.36242H95.261C95.0165 7.36252 94.7801 7.4507 94.5943 7.61109C94.4085 7.77147 94.2854 7.99354 94.2474 8.23733L91.2583 27.3686C91.2444 27.4572 91.2497 27.5478 91.2738 27.6342C91.298 27.7206 91.3403 27.8006 91.3981 27.8688C91.4558 27.9371 91.5275 27.9918 91.6082 28.0294C91.6889 28.067 91.7767 28.0864 91.8656 28.0864H95.6587C95.8298 28.0862 95.9952 28.0243 96.1252 27.9119C96.2551 27.7995 96.3411 27.644 96.3676 27.4733L97.2159 22.0504C97.2538 21.8064 97.3767 21.5841 97.5625 21.4235C97.7484 21.2629 97.9849 21.1746 98.2295 21.1744H100.568C105.437 21.1744 108.246 18.7962 108.981 14.0835C109.313 12.0217 108.994 10.4017 108.037 9.26715C106.988 8.02133 105.126 7.36242 102.653 7.36242ZM103.505 14.3497C103.102 17.0268 101.076 17.0268 99.1157 17.0268H98.0015L98.785 12.0271C98.8075 11.8809 98.881 11.7475 98.9924 11.6513C99.1038 11.555 99.2457 11.5022 99.3923 11.5024H99.9035C101.237 11.5024 102.497 11.5024 103.148 12.2704C103.536 12.7286 103.653 13.4093 103.505 14.3497ZM124.743 14.2635H121.206C121.06 14.2631 120.918 14.3158 120.806 14.4121C120.695 14.5084 120.621 14.6419 120.599 14.7882L120.442 15.7875L120.194 15.4253C119.427 14.3028 117.72 13.9275 116.015 13.9275C112.104 13.9275 108.765 16.9177 108.114 21.1122C107.777 23.2046 108.256 25.2053 109.432 26.6006C110.512 27.8835 112.053 28.4181 113.889 28.4181C117.04 28.4181 118.788 26.3726 118.788 26.3726L118.63 27.3653C118.616 27.4543 118.621 27.5452 118.645 27.6319C118.669 27.7186 118.712 27.799 118.77 27.8675C118.828 27.936 118.9 27.9909 118.981 28.0285C119.062 28.0661 119.15 28.0855 119.239 28.0853H122.426C122.671 28.0852 122.907 27.9969 123.093 27.8362C123.279 27.6756 123.402 27.4533 123.44 27.2093L125.354 14.9813C125.367 14.8925 125.362 14.8017 125.337 14.7153C125.313 14.6289 125.27 14.5488 125.212 14.4806C125.154 14.4124 125.082 14.3577 125.001 14.3202C124.92 14.2828 124.832 14.2634 124.743 14.2635ZM119.81 21.217C119.471 23.2581 117.864 24.6282 115.817 24.6282C114.792 24.6282 113.968 24.2955 113.441 23.665C112.918 23.0388 112.721 22.1475 112.885 21.1548C113.206 19.1311 114.836 17.7162 116.851 17.7162C117.856 17.7162 118.673 18.0533 119.211 18.6893C119.753 19.3319 119.967 20.2286 119.81 21.217ZM128.916 7.88715L125.882 27.3686C125.868 27.4572 125.874 27.5478 125.898 27.6342C125.922 27.7206 125.964 27.8006 126.022 27.8688C126.08 27.9371 126.151 27.9918 126.232 28.0294C126.313 28.067 126.401 28.0864 126.489 28.0864H129.539C130.046 28.0864 130.476 27.7155 130.554 27.2104L133.545 8.08024C133.559 7.99156 133.554 7.9009 133.529 7.81449C133.505 7.72808 133.463 7.64796 133.405 7.57965C133.348 7.51135 133.276 7.45646 133.195 7.41877C133.114 7.38108 133.027 7.36149 132.938 7.36133H129.523C129.376 7.36185 129.235 7.41505 129.123 7.5114C129.012 7.60775 128.938 7.74096 128.916 7.88715Z" fill="#179BD7"/>
</g>
<g style="mix-blend-mode:luminosity">
<path d="M7.85195 31.8045L8.41713 28.1805L7.15817 28.151H1.14655L5.32432 1.40956C5.33676 1.32785 5.37787 1.25337 5.44015 1.19971C5.50244 1.14604 5.58175 1.11676 5.66364 1.11719H15.8001C19.1652 1.11719 21.4875 1.8241 22.7 3.21937C23.2684 3.87392 23.6304 4.55792 23.8055 5.31065C23.9892 6.10046 23.9925 7.0441 23.8131 8.19501L23.8001 8.27901V9.01646L24.3685 9.34155C24.8025 9.56349 25.1925 9.86371 25.5194 10.2274C26.0057 10.787 26.3202 11.4983 26.4531 12.3416C26.5903 13.2088 26.5449 14.2408 26.3202 15.4092C26.0608 16.7532 25.6415 17.9237 25.0753 18.8816C24.5757 19.7396 23.9039 20.4828 23.1031 21.0634C22.351 21.6023 21.4573 22.0114 20.4469 22.2732C19.4678 22.5306 18.3515 22.6605 17.1271 22.6605H16.3383C15.7742 22.6605 15.2263 22.8656 14.7962 23.2332C14.3667 23.6047 14.0818 24.1181 13.9922 24.6819L13.9327 25.0081L12.9342 31.3954L12.8888 31.6299C12.8769 31.7041 12.8564 31.7412 12.8262 31.7663C12.7968 31.7905 12.7603 31.8039 12.7224 31.8045H7.85195Z" fill="#253B80"/>
</g>
<g style="mix-blend-mode:luminosity">
<path d="M24.9067 8.36377C24.8765 8.55904 24.8419 8.75868 24.803 8.96377C23.4662 15.8921 18.8929 18.2856 13.0521 18.2856H10.0781C9.36382 18.2856 8.7619 18.8092 8.65059 19.5205L7.12796 29.2689L6.69678 32.0321C6.67961 32.1417 6.68616 32.2538 6.71601 32.3606C6.74585 32.4674 6.79826 32.5664 6.86964 32.6508C6.94102 32.7352 7.02967 32.803 7.12948 32.8495C7.22929 32.896 7.3379 32.9201 7.44783 32.9201H12.7225C13.3471 32.9201 13.8777 32.462 13.976 31.8401L14.0279 31.5696L15.021 25.2074L15.0848 24.8583C15.182 24.2343 15.7137 23.7761 16.3383 23.7761H17.1272C22.2375 23.7761 26.2381 21.6816 27.4073 15.6205C27.8958 13.0885 27.6429 10.9743 26.3505 9.48741C25.9408 9.02744 25.4516 8.64667 24.9067 8.36377Z" fill="#179BD7"/>
</g>
<g style="mix-blend-mode:luminosity">
<path d="M23.5084 7.80116C23.0815 7.67651 22.6473 7.57923 22.2084 7.50989C21.3409 7.37531 20.4643 7.31075 19.5867 7.31679H11.6418C11.3394 7.31656 11.047 7.42553 10.8173 7.624C10.5876 7.82248 10.4358 8.09737 10.3893 8.39898L8.6992 19.2055L8.65057 19.5208C8.70323 19.1768 8.87611 18.8631 9.13795 18.6366C9.39978 18.4101 9.73328 18.2857 10.0781 18.2859H13.052C18.8929 18.2859 23.4662 15.8913 24.803 8.96407C24.843 8.75898 24.8765 8.55934 24.9067 8.36407C24.554 8.17734 24.1864 8.02079 23.8077 7.89607C23.7084 7.86282 23.6086 7.83118 23.5084 7.80116Z" fill="#222D65"/>
</g>
<g style="mix-blend-mode:luminosity">
<path d="M10.3893 8.39891C10.4353 8.09721 10.587 7.8222 10.8169 7.62382C11.0467 7.42545 11.3394 7.31687 11.6418 7.31782H19.5867C20.5279 7.31782 21.4065 7.38 22.2083 7.51091C22.7509 7.597 23.286 7.72575 23.8087 7.896C24.2032 8.028 24.5695 8.184 24.9078 8.364C25.3054 5.80364 24.9045 4.06036 23.5332 2.48182C22.0214 0.744 19.2927 0 15.8012 0H5.66471C4.95148 0 4.34308 0.523636 4.23285 1.236L0.0107699 28.2524C-0.00889583 28.3778 -0.00141368 28.506 0.0327017 28.6283C0.066817 28.7505 0.126756 28.8638 0.208395 28.9604C0.290035 29.0571 0.391437 29.1347 0.505627 29.188C0.619817 29.2412 0.744085 29.2689 0.869883 29.2691H7.1279L8.69916 19.2055L10.3893 8.39891Z" fill="#253B80"/>
</g>
</svg>
