<?xml version="1.0" encoding="utf-8"?>
<svg xmlns="http://www.w3.org/2000/svg" viewBox="0 0 50 50" fill="#326e28"><path d="M 10 3 C 7.242188 3 5 5.242188 5 8 C 5 10.414063 6.722656 12.4375 9 12.90625 L 9 35.09375 C 9.328125 35.046875 9.660156 35 10 35 C 10.339844 35 10.671875 35.046875 11 35.09375 L 11 12.90625 C 13.277344 12.4375 15 10.414063 15 8 C 15 5.242188 12.757813 3 10 3 Z M 23.375 3 L 17.125 8 L 23.375 13 L 25 13 L 25 9 L 32 9 C 35.859375 9 39 12.140625 39 16 L 39 35.09375 C 39.328125 35.046875 39.660156 35 40 35 C 40.339844 35 40.671875 35.046875 41 35.09375 L 41 16 C 41 11.039063 36.964844 7 32 7 L 25 7 L 25 3 Z M 10 37 C 7.242188 37 5 39.242188 5 42 C 5 44.757813 7.242188 47 10 47 C 12.757813 47 15 44.757813 15 42 C 15 39.242188 12.757813 37 10 37 Z M 40 37 C 37.242188 37 35 39.242188 35 42 C 35 44.757813 37.242188 47 40 47 C 42.757813 47 45 44.757813 45 42 C 45 39.242188 42.757813 37 40 37 Z" fill="#326e28"/></svg>
