<?xml version="1.0" encoding="utf-8"?>
<svg xmlns="http://www.w3.org/2000/svg" viewBox="0 0 50 50" fill="#326e28"><path d="M 16.46875 6 C 16.25 6 16.019531 6.085938 15.84375 6.21875 L 5.65625 14 L 20.625 14 L 29.71875 6 Z M 32.75 6 L 23.65625 14 L 35.59375 14 L 43.625 6 Z M 45 7.46875 L 37 15.40625 L 37 43.34375 L 44.78125 33.625 C 44.921875 33.445313 45 33.226563 45 33 Z M 5 16 L 5 43 C 5 43.554688 5.449219 44 6 44 L 35 44 L 35 16 Z M 16 20 L 26 20 C 26.554688 20 27 20.449219 27 21 C 27 21.550781 26.554688 22 26 22 L 16 22 C 15.449219 22 15 21.550781 15 21 C 15 20.449219 15.449219 20 16 20 Z" fill="#326e28"/></svg>
