<svg xmlns="http://www.w3.org/2000/svg" width="111" height="33" fill="none">
  <g clip-path="url(#clip0)">
    <path fill="#5FA04E" d="M97.69 32.74c-.287 0-.555-.076-.804-.211l-2.544-1.52c-.383-.213-.192-.29-.077-.328.516-.174.612-.212 1.148-.52.057-.039.134-.02.191.02l1.952 1.174c.076.038.172.038.23 0l7.633-4.448c.077-.038.115-.115.115-.211V17.82c0-.096-.038-.173-.115-.212l-7.634-4.428c-.076-.038-.172-.038-.23 0l-7.633 4.428c-.077.039-.115.135-.115.212v8.875c0 .077.038.173.115.211l2.085 1.213c1.13.578 1.837-.096 1.837-.77v-8.759c0-.116.096-.231.23-.231h.975c.115 0 .23.096.23.231v8.76c0 1.52-.823 2.406-2.258 2.406-.44 0-.784 0-1.76-.482l-2.009-1.155a1.627 1.627 0 01-.803-1.405V17.84c0-.577.306-1.116.803-1.405l7.634-4.447a1.698 1.698 0 011.607 0l7.634 4.447c.497.289.804.828.804 1.405v8.875c0 .578-.307 1.117-.804 1.405l-7.634 4.447c-.23.097-.516.174-.803.174z"/>
    <path fill="#5FA04E" d="M100.062 26.638c-3.348 0-4.037-1.54-4.037-2.85 0-.115.096-.23.23-.23h.994c.115 0 .21.077.21.192.154 1.02.594 1.521 2.622 1.521 1.607 0 2.296-.366 2.296-1.232 0-.5-.192-.866-2.698-1.117-2.085-.211-3.386-.673-3.386-2.348 0-1.56 1.3-2.484 3.482-2.484 2.449 0 3.654.847 3.807 2.695a.313.313 0 01-.057.174c-.039.038-.096.077-.153.077h-1.014a.225.225 0 01-.211-.174c-.229-1.058-.822-1.405-2.391-1.405-1.76 0-1.97.616-1.97 1.078 0 .558.248.732 2.62 1.04 2.353.308 3.463.75 3.463 2.406 0 1.694-1.397 2.657-3.807 2.657zM111.083 17.32c0 .809-.67 1.483-1.474 1.483a1.479 1.479 0 01-1.473-1.483c0-.847.689-1.482 1.473-1.482.785 0 1.474.654 1.474 1.482zm-2.717 0c0 .693.555 1.252 1.224 1.252.689 0 1.244-.578 1.244-1.252 0-.693-.555-1.232-1.244-1.232-.65 0-1.224.54-1.224 1.232zm.689-.828h.574c.191 0 .574 0 .574.443 0 .308-.192.366-.307.405.23.019.249.173.268.384.019.135.039.366.077.443h-.345c0-.077-.057-.5-.057-.52-.019-.096-.057-.134-.172-.134h-.287v.673h-.325v-1.694zm.306.732h.248c.211 0 .249-.154.249-.231 0-.231-.153-.231-.249-.231h-.267v.462h.019z"/>
    <path fill="#333" fill-rule="evenodd" d="M18.157 17.442a.98.98 0 00-.498-.848l-8.093-4.716a1.171 1.171 0 00-.44-.135H9.05a.906.906 0 00-.44.135L.497 16.575a.988.988 0 00-.497.867L.02 30.07c0 .174.095.347.248.424a.432.432 0 00.478 0l4.821-2.772a.98.98 0 00.498-.847v-5.91a.98.98 0 01.497-.848l2.048-1.193a.922.922 0 01.497-.135c.172 0 .344.039.478.135l2.047 1.194a.98.98 0 01.498.847v5.91a.98.98 0 00.497.847l4.783 2.772a.464.464 0 00.498 0 .479.479 0 00.248-.424V17.442zM57.148.058a.524.524 0 00-.478 0 .502.502 0 00-.25.423v12.514a.37.37 0 01-.171.308.364.364 0 01-.345 0l-2.028-1.175a.981.981 0 00-.975 0l-8.113 4.717a.98.98 0 00-.497.847v9.414a.98.98 0 00.498.847l8.111 4.716c.307.174.67.174.976 0l8.112-4.716a.98.98 0 00.498-.847V3.638a.988.988 0 00-.498-.866L57.148.058zm-.746 23.948c0 .097-.038.174-.115.212l-2.774 1.617a.282.282 0 01-.249 0l-2.774-1.617c-.077-.038-.115-.135-.115-.212v-3.234c0-.096.038-.173.115-.212l2.774-1.617a.282.282 0 01.249 0l2.774 1.617c.077.039.115.135.115.212v3.234zM84.143 20.695a.963.963 0 00.478-.847v-2.29c0-.347-.191-.675-.478-.848l-8.055-4.697a.98.98 0 00-.975 0L67 16.729a.98.98 0 00-.497.847v9.414a.98.98 0 00.497.847l8.055 4.62c.306.174.67.174.957 0l4.878-2.733a.479.479 0 00.25-.424.479.479 0 00-.25-.423l-8.15-4.717a.502.502 0 01-.249-.423V20.79c0-.173.096-.346.25-.423l2.544-1.463a.465.465 0 01.497 0l2.545 1.463c.153.096.248.25.248.423v2.31c0 .174.096.347.25.424a.464.464 0 00.497 0l4.82-2.83z" clip-rule="evenodd"/>
    <path fill="#5FA04E" fill-rule="evenodd" d="M75.476 20.253a.173.173 0 01.191 0l1.55.904a.202.202 0 01.096.174v1.81a.202.202 0 01-.096.173l-1.55.904a.173.173 0 01-.191 0l-1.55-.904a.202.202 0 01-.095-.174v-1.81c0-.076.038-.134.095-.173l1.55-.904z" clip-rule="evenodd"/>
    <path fill="url(#paint0_linear)" d="M31.72 12.051a.981.981 0 00-.975 0L22.69 16.73a.963.963 0 00-.478.848v9.375c0 .346.191.674.478.847l8.055 4.678c.306.173.67.173.976 0l8.054-4.678a.963.963 0 00.479-.847v-9.376c0-.346-.192-.673-.479-.847l-8.054-4.678z"/>
    <path fill="url(#paint1_linear)" d="M39.795 16.73l-8.093-4.679a1.32 1.32 0 00-.249-.096l-9.069 15.613c.077.096.172.173.268.23l8.093 4.679c.23.135.497.173.746.096l8.514-15.67a.599.599 0 00-.21-.174z"/>
    <path fill="url(#paint2_linear)" d="M30.478 10.338l-.115.058h.153l-.038-.058z"/>
    <path fill="url(#paint3_linear)" d="M39.795 27.8c.23-.136.401-.367.478-.617l-8.858-15.247c-.23-.038-.479-.02-.689.116L22.69 16.71l8.667 15.902c.115-.02.25-.058.364-.116l8.074-4.697z"/>
    <path fill="url(#paint4_linear)" d="M40.56 27.645l-.058-.097v.135l.058-.038z"/>
    <path fill="url(#paint5_linear)" d="M39.795 27.799l-8.074 4.678c-.114.058-.23.096-.363.115l.153.29 8.954-5.218v-.115l-.23-.385c-.019.27-.191.5-.44.635z"/>
    <path fill="url(#paint6_linear)" d="M39.795 27.799l-8.074 4.678c-.114.058-.23.096-.363.115l.153.29 8.954-5.218v-.115l-.23-.385c-.019.27-.191.5-.44.635z"/>
  </g>
  <defs>
    <linearGradient id="paint0_linear" x1="34.513" x2="27.157" y1="15.535" y2="30.448" gradientUnits="userSpaceOnUse">
      <stop stop-color="#3F873F"/>
      <stop offset=".33" stop-color="#3F8B3D"/>
      <stop offset=".637" stop-color="#3E9638"/>
      <stop offset=".934" stop-color="#3DA92E"/>
      <stop offset="1" stop-color="#3DAE2B"/>
    </linearGradient>
    <linearGradient id="paint1_linear" x1="30.009" x2="50.533" y1="23.359" y2="8.288" gradientUnits="userSpaceOnUse">
      <stop offset=".138" stop-color="#3F873F"/>
      <stop offset=".402" stop-color="#52A044"/>
      <stop offset=".713" stop-color="#64B749"/>
      <stop offset=".908" stop-color="#6ABF4B"/>
    </linearGradient>
    <linearGradient id="paint2_linear" x1="21.917" x2="40.555" y1="10.361" y2="10.361" gradientUnits="userSpaceOnUse">
      <stop offset=".092" stop-color="#6ABF4B"/>
      <stop offset=".287" stop-color="#64B749"/>
      <stop offset=".598" stop-color="#52A044"/>
      <stop offset=".862" stop-color="#3F873F"/>
    </linearGradient>
    <linearGradient id="paint3_linear" x1="21.917" x2="40.555" y1="22.261" y2="22.261" gradientUnits="userSpaceOnUse">
      <stop offset=".092" stop-color="#6ABF4B"/>
      <stop offset=".287" stop-color="#64B749"/>
      <stop offset=".598" stop-color="#52A044"/>
      <stop offset=".862" stop-color="#3F873F"/>
    </linearGradient>
    <linearGradient id="paint4_linear" x1="21.916" x2="40.555" y1="27.615" y2="27.615" gradientUnits="userSpaceOnUse">
      <stop offset=".092" stop-color="#6ABF4B"/>
      <stop offset=".287" stop-color="#64B749"/>
      <stop offset=".598" stop-color="#52A044"/>
      <stop offset=".862" stop-color="#3F873F"/>
    </linearGradient>
    <linearGradient id="paint5_linear" x1="21.917" x2="40.556" y1="30.035" y2="30.035" gradientUnits="userSpaceOnUse">
      <stop offset=".092" stop-color="#6ABF4B"/>
      <stop offset=".287" stop-color="#64B749"/>
      <stop offset=".598" stop-color="#52A044"/>
      <stop offset=".862" stop-color="#3F873F"/>
    </linearGradient>
    <linearGradient id="paint6_linear" x1="43.271" x2="31.661" y1="15.092" y2="38.63" gradientUnits="userSpaceOnUse">
      <stop stop-color="#3F873F"/>
      <stop offset=".33" stop-color="#3F8B3D"/>
      <stop offset=".637" stop-color="#3E9638"/>
      <stop offset=".934" stop-color="#3DA92E"/>
      <stop offset="1" stop-color="#3DAE2B"/>
    </linearGradient>
    <clipPath id="clip0">
      <path fill="#fff" d="M0 0h111v33H0z"/>
    </clipPath>
  </defs>
</svg>