<svg width="57" height="66" viewBox="0 0 57 66" fill="none" xmlns="http://www.w3.org/2000/svg">
<path fill-rule="evenodd" clip-rule="evenodd" d="M26.9868 0.883402C27.9524 0.338752 29.0991 0.338752 30.0648 0.883402L55.4129 15.5889C56.3785 16.1336 56.9217 17.1624 56.9217 18.2517V47.6022C56.9217 48.6915 56.3182 49.7203 55.4129 50.265L30.0648 64.9705C29.0991 65.5151 27.9524 65.5151 26.9868 64.9705L1.6387 50.265C0.673056 49.7203 0.129883 48.6915 0.129883 47.6022V18.1912C0.129883 17.1019 0.733409 16.0731 1.6387 15.5284L26.9868 0.883402Z" fill="url(#paint0_linear_52_4747)"/>
<path opacity="0.66" d="M55.2922 15.5284L30.0648 0.822908C29.8234 0.701875 29.5216 0.580841 29.2802 0.520325L0.733398 49.5388C0.974809 49.8414 1.27657 50.0834 1.57834 50.265L26.9868 64.9705C27.7714 65.3941 28.6163 65.5152 29.4009 65.2126L56.0768 16.2546C55.8957 15.9521 55.5939 15.71 55.2922 15.5284Z" fill="#B4B4B4"/>
<path d="M30.0045 64.9705L55.2923 50.265C56.2579 49.7203 56.6804 48.6915 56.6804 47.6022V47.4812L29.2803 0.580832C28.4957 0.338766 27.6508 0.459799 26.9265 0.883415L1.81982 15.4074L29.0992 65.2731C29.4613 65.2126 29.7631 65.0915 30.0045 64.9705Z" fill="url(#paint1_linear_52_4747)"/>
<defs>
<linearGradient id="paint0_linear_52_4747" x1="0.116786" y1="32.9141" x2="56.9713" y2="32.9141" gradientUnits="userSpaceOnUse">
<stop offset="0.00530134"/>
<stop offset="0.1938" stop-color="#171717"/>
<stop offset="0.5423" stop-color="#3D3D3D"/>
<stop offset="0.8235" stop-color="#545454"/>
<stop offset="1" stop-color="#5C5C5C"/>
</linearGradient>
<linearGradient id="paint1_linear_52_4747" x1="-0.276222" y1="32.8724" x2="58.3731" y2="32.8724" gradientUnits="userSpaceOnUse">
<stop stop-color="#5C5C5C"/>
<stop offset="0.1765" stop-color="#545454"/>
<stop offset="0.4577" stop-color="#3D3D3D"/>
<stop offset="0.8062" stop-color="#171717"/>
<stop offset="0.9947"/>
</linearGradient>
</defs>
</svg>
