<svg width="63" height="76" viewBox="0 0 63 76" fill="none" xmlns="http://www.w3.org/2000/svg">
<path d="M33.3095 5.90142C32.2643 5.31338 31.0232 5.31338 29.9779 5.90142L2.47591 21.7785C1.4307 22.3665 0.842773 23.4773 0.842773 24.6534V56.4729C0.842773 57.6489 1.49603 58.7597 2.47591 59.3477L29.9779 75.2248C31.0232 75.8128 32.2643 75.8128 33.3095 75.2248L60.8116 59.3477C61.8568 58.7597 62.4447 57.6489 62.4447 56.4729V24.6534C62.4447 23.4773 61.7915 22.3665 60.8116 21.7785L33.3095 5.90142Z" fill="url(#paint0_linear_52_4769)"/>
<path d="M60.8769 21.7785L33.2442 5.90143C32.9829 5.77075 32.6563 5.64008 32.3949 5.57474L1.5 58.5C1.7613 58.8267 2.17337 59.304 2.5 59.5L29.9779 75.2248C30.7618 75.6822 31.6764 75.8128 32.5256 75.5515L61.5955 22.3665C61.3995 22.1052 61.1382 21.9092 60.8769 21.7785Z" fill="url(#paint1_linear_52_4769)"/>
<path d="M29.0633 0.0863647L28.6714 0.282375H29.194L29.0633 0.0863647Z" fill="url(#paint2_linear_52_4769)"/>
<path d="M60.8087 59.3477C61.5926 58.8904 62.3 58.033 62.3 57L32.1961 5.50941C31.4122 5.37873 30.563 5.44407 29.8444 5.90143L2.40771 21.7132L32.0002 75.6822C32.3921 75.6168 32.8494 75.4862 33.2414 75.2901L60.8087 59.3477Z" fill="url(#paint3_linear_52_4769)"/>
<defs>
<linearGradient id="paint0_linear_52_4769" x1="42.8444" y1="17.726" x2="17.9708" y2="68.4586" gradientUnits="userSpaceOnUse">
<stop stop-color="#3F873F"/>
<stop offset="0.3296" stop-color="#3F8B3D"/>
<stop offset="0.6367" stop-color="#3E9638"/>
<stop offset="0.9341" stop-color="#3DA92E"/>
<stop offset="1" stop-color="#3DAE2B"/>
</linearGradient>
<linearGradient id="paint1_linear_52_4769" x1="27.4641" y1="44.2785" x2="97.2457" y2="-7.27018" gradientUnits="userSpaceOnUse">
<stop offset="0.1376" stop-color="#3F873F"/>
<stop offset="0.4016" stop-color="#52A044"/>
<stop offset="0.7129" stop-color="#64B749"/>
<stop offset="0.9081" stop-color="#6ABF4B"/>
</linearGradient>
<linearGradient id="paint2_linear_52_4769" x1="-0.165679" y1="0.163069" x2="63.4727" y2="0.163069" gradientUnits="userSpaceOnUse">
<stop offset="0.0919165" stop-color="#6ABF4B"/>
<stop offset="0.2871" stop-color="#64B749"/>
<stop offset="0.5984" stop-color="#52A044"/>
<stop offset="0.8624" stop-color="#3F873F"/>
</linearGradient>
<linearGradient id="paint3_linear_52_4769" x1="-0.165362" y1="40.5531" x2="63.4728" y2="40.5531" gradientUnits="userSpaceOnUse">
<stop offset="0.0919165" stop-color="#6ABF4B"/>
<stop offset="0.2871" stop-color="#64B749"/>
<stop offset="0.5984" stop-color="#52A044"/>
<stop offset="0.8624" stop-color="#3F873F"/>
</linearGradient>
</defs>
</svg>
