<svg width="71" height="79" viewBox="0 0 71 79" fill="none" xmlns="http://www.w3.org/2000/svg">
<path d="M35.6254 79C34.5438 79 33.5343 78.7121 32.5969 78.2082L23.0067 72.5216C21.5646 71.7298 22.2856 71.4419 22.7183 71.2979C24.6652 70.6501 25.0257 70.5061 27.0447 69.3544C27.261 69.2104 27.5494 69.2824 27.7657 69.4264L35.1206 73.8173C35.4091 73.9613 35.7696 73.9613 35.9859 73.8173L64.7565 57.1894C65.0449 57.0454 65.1891 56.7575 65.1891 56.3976V23.2137C65.1891 22.8538 65.0449 22.5659 64.7565 22.4219L35.9859 5.86602C35.6975 5.72206 35.3369 5.72206 35.1206 5.86602L6.35006 22.4219C6.06164 22.5659 5.91742 22.9258 5.91742 23.2137V56.3976C5.91742 56.6855 6.06164 57.0454 6.35006 57.1894L14.2097 61.7243C18.464 63.8837 21.1319 61.3644 21.1319 58.845V26.093C21.1319 25.6611 21.4925 25.2293 21.9972 25.2293H25.6747C26.1073 25.2293 26.5399 25.5892 26.5399 26.093V58.845C26.5399 64.5316 23.4393 67.8428 18.0313 67.8428C16.3729 67.8428 15.075 67.8428 11.3975 66.0432L3.82633 61.7243C1.95156 60.6445 0.797852 58.629 0.797852 56.4696V23.2857C0.797852 21.1263 1.95156 19.1108 3.82633 18.031L32.5969 1.40312C34.3996 0.39537 36.8512 0.39537 38.6539 1.40312L67.4244 18.031C69.2992 19.1108 70.4529 21.1263 70.4529 23.2857V56.4696C70.4529 58.629 69.2992 60.6445 67.4244 61.7243L38.6539 78.3522C37.7886 78.7121 36.707 79 35.6254 79Z" fill="#5FA04E"/>
<path d="M44.5666 56.1816C31.9479 56.1816 29.3521 50.423 29.3521 45.5282C29.3521 45.0964 29.7126 44.6645 30.2173 44.6645H33.9669C34.3995 44.6645 34.7601 44.9524 34.7601 45.3843C35.3369 49.1993 36.9954 51.0709 44.6387 51.0709C50.6956 51.0709 53.2915 49.7032 53.2915 46.464C53.2915 44.5925 52.5704 43.2248 43.1244 42.289C35.2648 41.4972 30.3616 39.7697 30.3616 33.5072C30.3616 27.6766 35.2648 24.2215 43.485 24.2215C52.7146 24.2215 57.2573 27.3887 57.8342 34.299C57.8342 34.515 57.7621 34.7309 57.6179 34.9469C57.4737 35.0908 57.2573 35.2348 57.041 35.2348H53.2194C52.8588 35.2348 52.4983 34.9469 52.4262 34.5869C51.5609 30.6279 49.3256 29.3322 43.4129 29.3322C36.779 29.3322 35.9859 31.6357 35.9859 33.3632C35.9859 35.4507 36.9233 36.0986 45.8645 37.2503C54.7336 38.402 58.9158 40.0576 58.9158 46.2481C58.9158 52.5825 53.652 56.1816 44.5666 56.1816Z" fill="#5FA04E"/>
</svg>
