<svg width="71" height="79" viewBox="0 0 71 79" fill="none" xmlns="http://www.w3.org/2000/svg">
<path d="M35.1193 79C34.0343 79 33.0217 78.7106 32.0813 78.2041L22.4611 72.4884C21.0144 71.6925 21.7378 71.4031 22.1718 71.2584C24.1247 70.6072 24.4864 70.4625 26.5117 69.3049C26.7287 69.1602 27.0181 69.2326 27.2351 69.3773L34.613 73.7907C34.9023 73.9354 35.264 73.9354 35.481 73.7907L64.3417 57.0775C64.6311 56.9328 64.7757 56.6434 64.7757 56.2817V22.9276C64.7757 22.5659 64.6311 22.2765 64.3417 22.1318L35.481 5.49096C35.1917 5.34626 34.83 5.34626 34.613 5.49096L5.75223 22.1318C5.4629 22.2765 5.31823 22.6382 5.31823 22.9276V56.2817C5.31823 56.5711 5.4629 56.9328 5.75223 57.0775L13.6365 61.6357C17.9041 63.8062 20.5804 61.2739 20.5804 58.7416V25.8217C20.5804 25.3876 20.9421 24.9535 21.4484 24.9535H25.1374C25.5714 24.9535 26.0054 25.3152 26.0054 25.8217V58.7416C26.0054 64.4574 22.8951 67.7855 17.4701 67.7855C15.8065 67.7855 14.5045 67.7855 10.8155 65.9767L3.22059 61.6357C1.33994 60.5504 0.182617 58.5246 0.182617 56.354V23C0.182617 20.8295 1.33994 18.8036 3.22059 17.7183L32.0813 1.00517C33.8897 -0.00774659 36.349 -0.00774659 38.1573 1.00517L67.0181 17.7183C68.8987 18.8036 70.056 20.8295 70.056 23V56.354C70.056 58.5246 68.8987 60.5504 67.0181 61.6357L38.1573 78.3488C37.2893 78.7106 36.2043 79 35.1193 79Z" fill="white"/>
<path d="M44.0884 56.0646C31.4302 56.0646 28.8262 50.2765 28.8262 45.3566C28.8262 44.9225 29.1878 44.4883 29.6942 44.4883H33.4555C33.8895 44.4883 34.2511 44.7778 34.2511 45.2119C34.8298 49.0465 36.4934 50.9276 44.1607 50.9276C50.2367 50.9276 52.8406 49.5529 52.8406 46.2971C52.8406 44.416 52.1173 43.0413 42.6417 42.1008C34.7575 41.3049 29.8388 39.5685 29.8388 33.2739C29.8388 27.4134 34.7575 23.9406 43.0034 23.9406C52.262 23.9406 56.8189 27.124 57.3976 34.0697C57.3976 34.2868 57.3253 34.5039 57.1806 34.7209C57.0359 34.8656 56.8189 35.0103 56.6019 35.0103H52.7683C52.4066 35.0103 52.045 34.7209 51.9726 34.3592C51.1047 30.3798 48.8623 29.0775 42.9311 29.0775C36.2764 29.0775 35.4808 31.3927 35.4808 33.1292C35.4808 35.2274 36.4211 35.8785 45.3904 37.0362C54.2873 38.1938 58.4826 39.8579 58.4826 46.0801C58.4826 52.447 53.2023 56.0646 44.0884 56.0646Z" fill="white"/>
</svg>
