<svg width="64" height="82" viewBox="0 0 64 82" fill="none" xmlns="http://www.w3.org/2000/svg">
<path d="M14 23.2785C14 11.4983 25.1284 2.89337 36.5294 5.85765L50.5294 9.49765C58.4623 11.5602 64 18.7218 64 26.9185V45C64 54.9411 55.9411 63 46 63H32C22.0589 63 14 54.9411 14 45V23.2785Z" fill="#D9E1E4"/>
<path d="M26.1189 40.8479C23.4523 39.3317 20.1417 41.2576 20.1417 44.3251V63.0835C20.1417 66.1511 23.4523 68.077 26.1189 66.5607L42.6138 57.1815C45.3109 55.6479 45.3109 51.7608 42.6138 50.2271L26.1189 40.8479Z" fill="#ED5393"/>
<circle cx="29.5" cy="52.5" r="26.5" stroke="#642B9E" stroke-width="6"/>
</svg>
