<svg width="78" height="25" viewBox="0 0 780 420" fill="none" xmlns="http://www.w3.org/2000/svg">
<path opacity="0.1" d="M79.2793 460.181L295.619 183.104C301.28 175.853 310.588 172.476 319.582 174.41L632.158 241.638C640.004 243.325 646.486 248.822 649.434 256.285L767.494 555.202C770.442 562.666 769.465 571.109 764.89 577.701L582.612 840.377C577.367 847.935 568.264 851.83 559.176 850.404L211.889 795.937C203.487 794.619 196.41 788.953 193.286 781.043L75.8741 483.767C72.7499 475.857 74.0453 466.884 79.2793 460.181Z" stroke="#C5E5B4" stroke-width="20"/>
<path opacity="0.1" d="M695.786 -175.48L847.656 -164.394C856.831 -163.724 864.816 -157.869 868.212 -149.319L919.019 -21.4492C921.982 -13.9918 921.022 -5.54694 916.46 1.05506L837.143 115.857C832.582 122.459 825.023 126.344 817 126.211L679.425 123.928C670.227 123.776 661.925 118.379 658.053 110.034L593.955 -28.0916C590.375 -35.8062 591.145 -44.8392 595.98 -51.8364L674.294 -165.186C679.128 -172.183 687.304 -176.099 695.786 -175.48Z" stroke="#C5E5B4" stroke-width="20"/>
<path opacity="0.1" d="M48.5036 -14.4841L73.646 -12.6487C82.8209 -11.9789 90.8057 -6.12357 94.2026 2.42569L102.124 22.3615C105.087 29.8189 104.127 38.2637 99.5652 44.8657L86.1653 64.2605C81.604 70.8625 74.0449 74.748 66.0215 74.6149L44.5727 74.259C35.3746 74.1064 27.0731 68.7094 23.2008 60.3648L12.5893 37.4977C9.00931 29.7832 9.7795 20.7501 14.6138 13.753L27.0107 -4.19003C31.845 -11.1872 40.0215 -15.1032 48.5036 -14.4841Z" stroke="#C5E5B4" stroke-width="20"/>
</svg>
