<svg width="792" height="420" viewBox="0 0 792 420" fill="none" xmlns="http://www.w3.org/2000/svg">
<path opacity="0.1" d="M91.2793 460.181L307.619 183.104C313.28 175.853 322.588 172.476 331.582 174.41L644.158 241.638C652.004 243.325 658.486 248.822 661.434 256.285L779.494 555.202C782.442 562.666 781.465 571.109 776.89 577.701L594.612 840.377C589.367 847.935 580.264 851.83 571.176 850.404L223.889 795.937C215.487 794.619 208.41 788.953 205.286 781.043L87.8741 483.767C84.7499 475.857 86.0453 466.884 91.2793 460.181Z" stroke="#C5E5B4" stroke-width="20"/>
<path opacity="0.1" d="M707.786 -175.48L859.656 -164.394C868.831 -163.724 876.816 -157.869 880.212 -149.319L931.019 -21.4492C933.982 -13.9918 933.022 -5.54694 928.46 1.05506L849.143 115.857C844.582 122.459 837.023 126.344 829 126.211L691.425 123.928C682.227 123.776 673.925 118.379 670.053 110.034L605.955 -28.0916C602.375 -35.8062 603.145 -44.8392 607.98 -51.8364L686.294 -165.186C691.128 -172.183 699.304 -176.099 707.786 -175.48Z" stroke="#C5E5B4" stroke-width="20"/>
<path opacity="0.1" d="M413.504 -14.4841L438.646 -12.6487C447.821 -11.9789 455.806 -6.12357 459.203 2.42569L467.124 22.3615C470.087 29.8189 469.127 38.2637 464.565 44.8657L451.165 64.2605C446.604 70.8625 439.045 74.748 431.022 74.6149L409.573 74.259C400.375 74.1064 392.073 68.7094 388.201 60.3648L377.589 37.4977C374.009 29.7832 374.78 20.7501 379.614 13.753L392.011 -4.19003C396.845 -11.1872 405.021 -15.1032 413.504 -14.4841Z" stroke="#C5E5B4" stroke-width="20"/>
</svg>
