<svg width="92" height="92" viewBox="0 0 92 92" fill="none" xmlns="http://www.w3.org/2000/svg">
<path d="M24 25.2785C24 13.4983 35.1284 4.89337 46.5294 7.85765L60.5294 11.4976C68.4623 13.5602 74 20.7218 74 28.9185V47C74 56.9411 65.9411 65 56 65H42C32.0589 65 24 56.9411 24 47V25.2785Z" fill="#D9E1E4"/>
<path d="M36.1189 42.8479C33.4523 41.3317 30.1417 43.2576 30.1417 46.3251V65.0835C30.1417 68.1511 33.4523 70.077 36.1189 68.5607L52.6138 59.1815C55.3109 57.6479 55.3109 53.7608 52.6138 52.2271L36.1189 42.8479Z" fill="#ED5393"/>
<circle cx="39.5" cy="54.5" r="26.5" stroke="#642B9E" stroke-width="6"/>
</svg>
