<svg width="92" height="92" viewBox="0 0 92 92" fill="none" xmlns="http://www.w3.org/2000/svg">
<g clip-path="url(#clip0)">
<path d="M24.5735 35.0216C24.5735 27.0114 29.8668 19.9649 37.56 17.7339L51.56 13.6739C63.0741 10.3348 74.5735 18.9731 74.5735 30.9616V53.5C74.5735 63.4411 66.5146 71.5 56.5735 71.5H42.5735C32.6324 71.5 24.5735 63.4411 24.5735 53.5V35.0216Z" fill="#D9E1E4"/>
<path d="M28.9389 29.5571C36.722 24.5837 44.147 24.0013 44.4592 23.9795C45.0845 23.9344 45.6424 24.2054 45.9339 24.6935L52.4783 35.7194C52.7689 36.2089 52.7514 36.8467 52.4308 37.4068C52.3067 37.6243 49.935 41.6901 45.2176 45.827L51.7723 56.8702L63.0831 75.9264C63.213 76.1452 63.3143 76.3741 63.4023 76.6074C63.4192 76.65 63.4364 76.6916 63.451 76.735C63.5286 76.9617 63.5874 77.1931 63.6271 77.4284C63.6352 77.4767 63.6402 77.5245 63.6473 77.5726C63.6806 77.8112 63.7002 78.052 63.6968 78.2951C63.6959 78.317 63.6939 78.3389 63.6936 78.3604C63.687 78.5917 63.6608 78.823 63.6227 79.0546C63.6132 79.1142 63.605 79.1728 63.5931 79.2315C63.5464 79.4644 63.4839 79.696 63.4063 79.9257C63.3862 79.9845 63.364 80.0431 63.3418 80.1017L63.3418 80.1018C63.2523 80.3415 63.1509 80.5782 63.0287 80.8084C63.0188 80.8279 63.0065 80.8465 62.9955 80.8658C62.8624 81.1104 62.7112 81.3468 62.5428 81.5762C62.5331 81.5898 62.5238 81.6039 62.5141 81.6175C62.3345 81.8581 62.1339 82.0866 61.9176 82.3046C61.9092 82.3124 61.9035 82.3218 61.8958 82.3292C61.8904 82.3343 61.8846 82.3372 61.8793 82.3423C61.5539 82.6645 61.1935 82.9622 60.7904 83.2198C60.0014 83.724 59.1564 84.027 58.3238 84.1479C58.3136 84.1495 58.3051 84.1541 58.2955 84.1553C58.2866 84.156 58.2781 84.1557 58.2695 84.1571C58.0449 84.1879 57.8215 84.2049 57.6005 84.2088C57.5412 84.2096 57.4836 84.207 57.4243 84.2062C57.268 84.2041 57.1125 84.1957 56.9594 84.1801C56.8839 84.1724 56.809 84.166 56.7344 84.1552C56.5451 84.1274 56.3573 84.0927 56.1748 84.0449C56.1031 84.0265 56.0355 84.0007 55.9655 83.9788C55.8414 83.9413 55.7193 83.8992 55.6002 83.8512C55.5221 83.8205 55.4454 83.7872 55.3701 83.7515C55.2466 83.6947 55.1272 83.6304 55.0101 83.5621C54.9574 83.5316 54.9031 83.5047 54.8521 83.4723C54.6915 83.3701 54.5392 83.2552 54.3933 83.1322C54.3484 83.0943 54.3072 83.0532 54.264 83.0134C54.1548 82.9129 54.0507 82.8067 53.9516 82.6949C53.9124 82.6508 53.8732 82.6068 53.8353 82.5603C53.7093 82.4031 53.589 82.2398 53.4836 82.0621L42.1724 63.0053L35.6177 51.9621C29.9342 54.4713 25.3675 54.8391 25.1245 54.8563C24.4988 54.9008 23.9413 54.6304 23.6507 54.1409L17.1063 43.115C16.8158 42.6254 16.8339 41.9872 17.1538 41.4275C17.3131 41.1481 21.1559 34.5304 28.9389 29.5571Z" fill="#ED5393"/>
<path d="M49.6476 53.4901C46.0175 51.8062 44.8072 49.8605 39.9671 49.2553C44.1787 47.45 44.2022 47.4399 45.3922 45.6559C45.3732 45.604 45.3789 45.5923 45.4123 45.6257L45.4123 45.6257L46.8928 48.3747L49.6476 53.4901Z" fill="#B01356"/>
</g>
<defs>
<clipPath id="clip0">
<rect width="92" height="92" fill="white"/>
</clipPath>
</defs>
</svg>
