<svg width="364" height="256" viewBox="0 0 364 256" fill="none" xmlns="http://www.w3.org/2000/svg">
<g opacity="0.5">
<circle cx="2" cy="218" r="2" fill="#B1BCC2"/>
<circle cx="2" cy="182" r="2" fill="#B1BCC2"/>
<circle cx="2" cy="146" r="2" fill="#B1BCC2"/>
<circle cx="2" cy="110" r="2" fill="#B1BCC2"/>
<circle cx="2" cy="74" r="2"  fill="#B1BCC2"/>
<circle cx="2" cy="38" r="2"  fill="#B1BCC2"/>
<circle cx="2" cy="2" r="2" fill="#B1BCC2"/>
<circle cx="2" cy="254" r="2"  fill="#B1BCC2"/>
<circle cx="38" cy="218" r="2" fill="#B1BCC2"/>
<circle cx="38" cy="182" r="2"  fill="#B1BCC2"/>
<circle cx="38" cy="146" r="2" fill="#B1BCC2"/>
<circle cx="38" cy="110" r="2" fill="#B1BCC2"/>
<circle cx="38" cy="74" r="2" fill="#B1BCC2"/>
<circle cx="38" cy="38" r="2" fill="#B1BCC2"/>
<circle cx="38" cy="2" r="2"  fill="#B1BCC2"/>
<circle cx="38" cy="254" r="2" fill="#B1BCC2"/>
<circle cx="74" cy="218" r="2" fill="#B1BCC2"/>
<circle cx="74" cy="182" r="2" fill="#B1BCC2"/>
<circle cx="74" cy="146" r="2"  fill="#B1BCC2"/>
<circle cx="74" cy="110" r="2" fill="#B1BCC2"/>
<circle cx="74" cy="74" r="2"  fill="#B1BCC2"/>
<circle cx="74" cy="38" r="2" fill="#B1BCC2"/>
<circle cx="74" cy="2" r="2" fill="#B1BCC2"/>
<circle cx="74" cy="254" r="2" fill="#B1BCC2"/>
<circle cx="110" cy="218" r="2" fill="#B1BCC2"/>
<circle cx="110" cy="182" r="2" fill="#B1BCC2"/>
<circle cx="110" cy="146" r="2" fill="#B1BCC2"/>
<circle cx="110" cy="110" r="2" fill="#B1BCC2"/>
<circle cx="110" cy="74" r="2" fill="#B1BCC2"/>
<circle cx="110" cy="38" r="2" fill="#B1BCC2"/>
<circle cx="110" cy="2" r="2" fill="#B1BCC2"/>
<circle cx="110" cy="254" r="2" fill="#B1BCC2"/>
<circle cx="146" cy="218" r="2" fill="#B1BCC2"/>
<circle cx="146" cy="182" r="2" fill="#B1BCC2"/>
<circle cx="146" cy="146" r="2" fill="#B1BCC2"/>
<circle cx="146" cy="110" r="2" fill="#B1BCC2"/>
<circle cx="146" cy="74" r="2"  fill="#B1BCC2"/>
<circle cx="146" cy="38" r="2"  fill="#B1BCC2"/>
<circle cx="146" cy="2" r="2" fill="#B1BCC2"/>
<circle cx="146" cy="254" r="2"  fill="#B1BCC2"/>
<circle cx="182" cy="218" r="2"  fill="#B1BCC2"/>
<circle cx="182" cy="182" r="2"  fill="#B1BCC2"/>
<circle cx="182" cy="146" r="2"  fill="#B1BCC2"/>
<circle cx="182" cy="110" r="2"  fill="#B1BCC2"/>
<circle cx="182" cy="74" r="2" fill="#B1BCC2"/>
<circle cx="182" cy="38" r="2" fill="#B1BCC2"/>
<circle cx="182" cy="2" r="2" fill="#B1BCC2"/>
<circle cx="182" cy="254" r="2" fill="#B1BCC2"/>
<circle cx="218" cy="218" r="2" fill="#B1BCC2"/>
<circle cx="218" cy="182" r="2" fill="#B1BCC2"/>
<circle cx="218" cy="146" r="2" fill="#B1BCC2"/>
<circle cx="218" cy="110" r="2" fill="#B1BCC2"/>
<circle cx="218" cy="74" r="2" fill="#B1BCC2"/>
<circle cx="218" cy="38" r="2" fill="#B1BCC2"/>
<circle cx="218" cy="2" r="2" fill="#B1BCC2"/>
<circle cx="218" cy="254" r="2" fill="#B1BCC2"/>
<circle cx="254" cy="218" r="2" fill="#B1BCC2"/>
<circle cx="254" cy="182" r="2" fill="#B1BCC2"/>
<circle cx="254" cy="146" r="2" fill="#B1BCC2"/>
<circle cx="254" cy="110" r="2"  fill="#B1BCC2"/>
<circle cx="254" cy="74" r="2" fill="#B1BCC2"/>
<circle cx="254" cy="38" r="2" fill="#B1BCC2"/>
<circle cx="254" cy="2" r="2"  fill="#B1BCC2"/>
<circle cx="254" cy="254" r="2" fill="#B1BCC2"/>
<circle cx="290" cy="218" r="2" fill="#B1BCC2"/>
<circle cx="290" cy="182" r="2" fill="#B1BCC2"/>
<circle cx="290" cy="146" r="2" fill="#B1BCC2"/>
<circle cx="290" cy="110" r="2" fill="#B1BCC2"/>
<circle cx="290" cy="74" r="2" fill="#B1BCC2"/>
<circle cx="290" cy="38" r="2" fill="#B1BCC2"/>
<circle cx="290" cy="2" r="2" fill="#B1BCC2"/>
<circle cx="290" cy="254" r="2"  fill="#B1BCC2"/>
<circle cx="326" cy="218" r="2" fill="#B1BCC2"/>
<circle cx="326" cy="182" r="2" fill="#B1BCC2"/>
<circle cx="326" cy="146" r="2" fill="#B1BCC2"/>
<circle cx="326" cy="110" r="2" fill="#B1BCC2"/>
<circle cx="326" cy="74" r="2" fill="#B1BCC2"/>
<circle cx="326" cy="38" r="2" fill="#B1BCC2"/>
<circle cx="326" cy="2" r="2" fill="#B1BCC2"/>
<circle cx="326" cy="254" r="2" fill="#B1BCC2"/>
<circle cx="362" cy="218" r="2" fill="#B1BCC2"/>
<circle cx="362" cy="182" r="2" fill="#B1BCC2"/>
<circle cx="362" cy="146" r="2" fill="#B1BCC2"/>
<circle cx="362" cy="110" r="2" fill="#B1BCC2"/>
<circle cx="362" cy="74" r="2" fill="#B1BCC2"/>
<circle cx="362" cy="38" r="2" fill="#B1BCC2"/>
<circle cx="362" cy="2" r="2"  fill="#B1BCC2"/>
<circle cx="362" cy="254" r="2" fill="#B1BCC2"/>
</g>
</svg>
