<svg width="364" height="256" viewBox="0 0 364 256" fill="none" xmlns="http://www.w3.org/2000/svg">
<g opacity="0.5">
<circle cx="2" cy="218" r="2" transform="rotate(-90 2 218)" fill="#B1BCC2"/>
<circle cx="2" cy="182" r="2" transform="rotate(-90 2 182)" fill="#B1BCC2"/>
<circle cx="2" cy="146" r="2" transform="rotate(-90 2 146)" fill="#B1BCC2"/>
<circle cx="2" cy="110" r="2" transform="rotate(-90 2 110)" fill="#B1BCC2"/>
<circle cx="2" cy="74" r="2" transform="rotate(-90 2 74)" fill="#B1BCC2"/>
<circle cx="2" cy="38" r="2" transform="rotate(-90 2 38)" fill="#B1BCC2"/>
<circle cx="2" cy="2" r="2" transform="rotate(-90 2 2)" fill="#B1BCC2"/>
<circle cx="2" cy="254" r="2" transform="rotate(-90 2 254)" fill="#B1BCC2"/>
<circle cx="38" cy="218" r="2" transform="rotate(-90 38 218)" fill="#B1BCC2"/>
<circle cx="38" cy="182" r="2" transform="rotate(-90 38 182)" fill="#B1BCC2"/>
<circle cx="38" cy="146" r="2" transform="rotate(-90 38 146)" fill="#B1BCC2"/>
<circle cx="38" cy="110" r="2" transform="rotate(-90 38 110)" fill="#B1BCC2"/>
<circle cx="38" cy="74" r="2" transform="rotate(-90 38 74)" fill="#B1BCC2"/>
<circle cx="38" cy="38" r="2" transform="rotate(-90 38 38)" fill="#B1BCC2"/>
<circle cx="38" cy="2" r="2" transform="rotate(-90 38 2)" fill="#B1BCC2"/>
<circle cx="38" cy="254" r="2" transform="rotate(-90 38 254)" fill="#B1BCC2"/>
<circle cx="74" cy="218" r="2" transform="rotate(-90 74 218)" fill="#B1BCC2"/>
<circle cx="74" cy="182" r="2" transform="rotate(-90 74 182)" fill="#B1BCC2"/>
<circle cx="74" cy="146" r="2" transform="rotate(-90 74 146)" fill="#B1BCC2"/>
<circle cx="74" cy="110" r="2" transform="rotate(-90 74 110)" fill="#B1BCC2"/>
<circle cx="74" cy="74" r="2" transform="rotate(-90 74 74)" fill="#B1BCC2"/>
<circle cx="74" cy="38" r="2" transform="rotate(-90 74 38)" fill="#B1BCC2"/>
<circle cx="74" cy="2" r="2" transform="rotate(-90 74 2)" fill="#B1BCC2"/>
<circle cx="74" cy="254" r="2" transform="rotate(-90 74 254)" fill="#B1BCC2"/>
<circle cx="110" cy="218" r="2" transform="rotate(-90 110 218)" fill="#B1BCC2"/>
<circle cx="110" cy="182" r="2" transform="rotate(-90 110 182)" fill="#B1BCC2"/>
<circle cx="110" cy="146" r="2" transform="rotate(-90 110 146)" fill="#B1BCC2"/>
<circle cx="110" cy="110" r="2" transform="rotate(-90 110 110)" fill="#B1BCC2"/>
<circle cx="110" cy="74" r="2" transform="rotate(-90 110 74)" fill="#B1BCC2"/>
<circle cx="110" cy="38" r="2" transform="rotate(-90 110 38)" fill="#B1BCC2"/>
<circle cx="110" cy="2" r="2" transform="rotate(-90 110 2)" fill="#B1BCC2"/>
<circle cx="110" cy="254" r="2" transform="rotate(-90 110 254)" fill="#B1BCC2"/>
<circle cx="146" cy="218" r="2" transform="rotate(-90 146 218)" fill="#B1BCC2"/>
<circle cx="146" cy="182" r="2" transform="rotate(-90 146 182)" fill="#B1BCC2"/>
<circle cx="146" cy="146" r="2" transform="rotate(-90 146 146)" fill="#B1BCC2"/>
<circle cx="146" cy="110" r="2" transform="rotate(-90 146 110)" fill="#B1BCC2"/>
<circle cx="146" cy="74" r="2" transform="rotate(-90 146 74)" fill="#B1BCC2"/>
<circle cx="146" cy="38" r="2" transform="rotate(-90 146 38)" fill="#B1BCC2"/>
<circle cx="146" cy="2" r="2" transform="rotate(-90 146 2)" fill="#B1BCC2"/>
<circle cx="146" cy="254" r="2" transform="rotate(-90 146 254)" fill="#B1BCC2"/>
<circle cx="182" cy="218" r="2" transform="rotate(-90 182 218)" fill="#B1BCC2"/>
<circle cx="182" cy="182" r="2" transform="rotate(-90 182 182)" fill="#B1BCC2"/>
<circle cx="182" cy="146" r="2" transform="rotate(-90 182 146)" fill="#B1BCC2"/>
<circle cx="182" cy="110" r="2" transform="rotate(-90 182 110)" fill="#B1BCC2"/>
<circle cx="182" cy="74" r="2" transform="rotate(-90 182 74)" fill="#B1BCC2"/>
<circle cx="182" cy="38" r="2" transform="rotate(-90 182 38)" fill="#B1BCC2"/>
<circle cx="182" cy="2" r="2" transform="rotate(-90 182 2)" fill="#B1BCC2"/>
<circle cx="182" cy="254" r="2" transform="rotate(-90 182 254)" fill="#B1BCC2"/>
<circle cx="218" cy="218" r="2" transform="rotate(-90 218 218)" fill="#B1BCC2"/>
<circle cx="218" cy="182" r="2" transform="rotate(-90 218 182)" fill="#B1BCC2"/>
<circle cx="218" cy="146" r="2" transform="rotate(-90 218 146)" fill="#B1BCC2"/>
<circle cx="218" cy="110" r="2" transform="rotate(-90 218 110)" fill="#B1BCC2"/>
<circle cx="218" cy="74" r="2" transform="rotate(-90 218 74)" fill="#B1BCC2"/>
<circle cx="218" cy="38" r="2" transform="rotate(-90 218 38)" fill="#B1BCC2"/>
<circle cx="218" cy="2" r="2" transform="rotate(-90 218 2)" fill="#B1BCC2"/>
<circle cx="218" cy="254" r="2" transform="rotate(-90 218 254)" fill="#B1BCC2"/>
<circle cx="254" cy="218" r="2" transform="rotate(-90 254 218)" fill="#B1BCC2"/>
<circle cx="254" cy="182" r="2" transform="rotate(-90 254 182)" fill="#B1BCC2"/>
<circle cx="254" cy="146" r="2" transform="rotate(-90 254 146)" fill="#B1BCC2"/>
<circle cx="254" cy="110" r="2" transform="rotate(-90 254 110)" fill="#B1BCC2"/>
<circle cx="254" cy="74" r="2" transform="rotate(-90 254 74)" fill="#B1BCC2"/>
<circle cx="254" cy="38" r="2" transform="rotate(-90 254 38)" fill="#B1BCC2"/>
<circle cx="254" cy="2" r="2" transform="rotate(-90 254 2)" fill="#B1BCC2"/>
<circle cx="254" cy="254" r="2" transform="rotate(-90 254 254)" fill="#B1BCC2"/>
<circle cx="290" cy="218" r="2" transform="rotate(-90 290 218)" fill="#B1BCC2"/>
<circle cx="290" cy="182" r="2" transform="rotate(-90 290 182)" fill="#B1BCC2"/>
<circle cx="290" cy="146" r="2" transform="rotate(-90 290 146)" fill="#B1BCC2"/>
<circle cx="290" cy="110" r="2" transform="rotate(-90 290 110)" fill="#B1BCC2"/>
<circle cx="290" cy="74" r="2" transform="rotate(-90 290 74)" fill="#B1BCC2"/>
<circle cx="290" cy="38" r="2" transform="rotate(-90 290 38)" fill="#B1BCC2"/>
<circle cx="290" cy="2" r="2" transform="rotate(-90 290 2)" fill="#B1BCC2"/>
<circle cx="290" cy="254" r="2" transform="rotate(-90 290 254)" fill="#B1BCC2"/>
<circle cx="326" cy="218" r="2" transform="rotate(-90 326 218)" fill="#B1BCC2"/>
<circle cx="326" cy="182" r="2" transform="rotate(-90 326 182)" fill="#B1BCC2"/>
<circle cx="326" cy="146" r="2" transform="rotate(-90 326 146)" fill="#B1BCC2"/>
<circle cx="326" cy="110" r="2" transform="rotate(-90 326 110)" fill="#B1BCC2"/>
<circle cx="326" cy="74" r="2" transform="rotate(-90 326 74)" fill="#B1BCC2"/>
<circle cx="326" cy="38" r="2" transform="rotate(-90 326 38)" fill="#B1BCC2"/>
<circle cx="326" cy="2" r="2" transform="rotate(-90 326 2)" fill="#B1BCC2"/>
<circle cx="326" cy="254" r="2" transform="rotate(-90 326 254)" fill="#B1BCC2"/>
<circle cx="362" cy="218" r="2" transform="rotate(-90 362 218)" fill="#B1BCC2"/>
<circle cx="362" cy="182" r="2" transform="rotate(-90 362 182)" fill="#B1BCC2"/>
<circle cx="362" cy="146" r="2" transform="rotate(-90 362 146)" fill="#B1BCC2"/>
<circle cx="362" cy="110" r="2" transform="rotate(-90 362 110)" fill="#B1BCC2"/>
<circle cx="362" cy="74" r="2" transform="rotate(-90 362 74)" fill="#B1BCC2"/>
<circle cx="362" cy="38" r="2" transform="rotate(-90 362 38)" fill="#B1BCC2"/>
<circle cx="362" cy="2" r="2" transform="rotate(-90 362 2)" fill="#B1BCC2"/>
<circle cx="362" cy="254" r="2" transform="rotate(-90 362 254)" fill="#B1BCC2"/>
</g>
</svg>
