<svg id="leafs-front-illustration" width="993" height="192" viewBox="0 0 993 192" fill="none" xmlns="http://www.w3.org/2000/svg">
<path d="M31.6317 147.115C-0.877172 131.344 -2.47713 97.5277 3.66057 89.6393C12.7505 82.8244 67.2802 90.7238 76.226 113.705C76.2707 113.136 76.3273 112.807 76.3076 113.918C76.2808 113.847 76.2536 113.776 76.226 113.705C76.1903 114.159 76.1621 114.767 76.1865 114.916C79.7943 136.972 46.4984 154.327 31.6317 147.115Z" fill="#FBB4D2"/>
<path d="M983.887 37.771C968.671 54.8493 947.798 49.9871 944.053 44.8872C941.471 38.1745 955.694 6.32533 971.235 4.84317C970.896 4.71776 970.706 4.62654 971.379 4.8303C971.331 4.8343 971.283 4.83859 971.235 4.84317C971.506 4.94337 971.871 5.06539 971.966 5.07628C986.023 6.68585 990.846 29.9609 983.887 37.771Z" fill="#FBB4D2"/>
<path d="M938.293 189.467C916.41 178.85 915.333 156.087 919.464 150.777C925.583 146.189 962.29 151.507 968.312 166.976C968.342 166.593 968.38 166.372 968.367 167.12C968.349 167.072 968.331 167.024 968.312 166.976C968.288 167.282 968.269 167.691 968.285 167.792C970.714 182.639 948.301 194.321 938.293 189.467Z" fill="#99CC7D"/>
</svg>
