<svg width="1087" height="380" viewBox="0 0 1087 380" fill="none" xmlns="http://www.w3.org/2000/svg">
<g filter="url(#filter0_d)">
<path d="M125.632 329.115C93.1228 313.344 91.5229 279.528 97.6606 271.639C106.75 264.824 161.28 272.724 170.226 295.705C170.271 295.136 170.327 294.807 170.308 295.918C170.281 295.847 170.254 295.776 170.226 295.705C170.19 296.159 170.162 296.767 170.187 296.916C173.794 318.972 140.498 336.327 125.632 329.115Z" fill="#FBB4D2"/>
<path d="M1057.89 323.771C1042.67 340.849 1021.8 335.987 1018.05 330.887C1015.47 324.175 1029.69 292.325 1045.24 290.843C1044.9 290.718 1044.71 290.627 1045.38 290.83C1045.33 290.834 1045.28 290.839 1045.24 290.843C1045.51 290.943 1045.87 291.065 1045.97 291.076C1060.02 292.686 1064.85 315.961 1057.89 323.771Z" fill="#FBB4D2"/>
<path d="M20.7588 47.813C28.3588 31.413 45.2588 30.313 49.2588 33.313C52.748 37.7991 49.2803 65.1436 37.865 69.8218C38.1499 69.8392 38.3149 69.8646 37.759 69.8646C37.7944 69.8505 37.8297 69.8363 37.865 69.8218C37.6374 69.808 37.3332 69.7993 37.2588 69.8129C26.2587 71.8129 17.2833 55.3129 20.7588 47.813Z" fill="#FBB4D2"/>
<path d="M974.824 34.0728C958.561 26.1834 957.761 9.26655 960.831 5.32036C965.378 1.91116 992.657 5.86289 997.132 17.3592C997.155 17.0747 997.183 16.9102 997.173 17.466C997.16 17.4303 997.146 17.3948 997.132 17.3592C997.115 17.5866 997.101 17.8905 997.113 17.9652C998.918 28.999 982.261 37.6806 974.824 34.0728Z" fill="#C5E5B4"/>
</g>
<defs>
<filter id="filter0_d" x="0" y="0" width="1086.93" height="379.202" filterUnits="userSpaceOnUse" color-interpolation-filters="sRGB">
<feFlood flood-opacity="0" result="BackgroundImageFix"/>
<feColorMatrix in="SourceAlpha" type="matrix" values="0 0 0 0 0 0 0 0 0 0 0 0 0 0 0 0 0 0 127 0"/>
<feOffset dy="16"/>
<feGaussianBlur stdDeviation="10"/>
<feColorMatrix type="matrix" values="0 0 0 0 0 0 0 0 0 0 0 0 0 0 0 0 0 0 0.08 0"/>
<feBlend mode="normal" in2="BackgroundImageFix" result="effect1_dropShadow"/>
<feBlend mode="normal" in="SourceGraphic" in2="effect1_dropShadow" result="shape"/>
</filter>
</defs>
</svg>
