<svg width="267" height="164" viewBox="0 0 111 33" fill="none" xmlns="http://www.w3.org/2000/svg">
<g clip-path="url(#clip0_8903_7386)">
<path d="M97.6894 32.7408C97.4025 32.7408 97.1346 32.6638 96.8859 32.529L94.3413 31.0081C93.9586 30.7964 94.15 30.7194 94.2648 30.6809C94.7813 30.5076 94.877 30.4691 95.4127 30.1611C95.4701 30.1226 95.5466 30.1418 95.604 30.1803L97.5555 31.3547C97.632 31.3932 97.7277 31.3932 97.7851 31.3547L105.419 26.9076C105.495 26.8691 105.534 26.7921 105.534 26.6959V17.821C105.534 17.7247 105.495 17.6477 105.419 17.6092L97.7851 13.1814C97.7086 13.1429 97.6129 13.1429 97.5555 13.1814L89.9217 17.6092C89.8452 17.6477 89.8069 17.744 89.8069 17.821V26.6959C89.8069 26.7729 89.8452 26.8691 89.9217 26.9076L92.0071 28.1204C93.136 28.698 93.8438 28.0242 93.8438 27.3504V18.591C93.8438 18.4755 93.9395 18.36 94.0734 18.36H95.0492C95.164 18.36 95.2788 18.4563 95.2788 18.591V27.3504C95.2788 28.8712 94.4561 29.7568 93.0212 29.7568C92.5811 29.7568 92.2367 29.7568 91.261 29.2755L89.2521 28.1204C88.7547 27.8317 88.4485 27.2926 88.4485 26.7151V17.8402C88.4485 17.2627 88.7547 16.7237 89.2521 16.4349L96.8859 11.9879C97.3642 11.7183 98.0147 11.7183 98.493 11.9879L106.127 16.4349C106.624 16.7237 106.93 17.2627 106.93 17.8402V26.7151C106.93 27.2926 106.624 27.8317 106.127 28.1204L98.493 32.5675C98.2634 32.6638 97.9764 32.7408 97.6894 32.7408Z" fill="#5FA04E"/>
<path d="M100.062 26.6381C96.7135 26.6381 96.0247 25.098 96.0247 23.7889C96.0247 23.6734 96.1204 23.5579 96.2543 23.5579H97.2492C97.364 23.5579 97.4596 23.6349 97.4596 23.7504C97.6127 24.7707 98.0527 25.2712 100.081 25.2712C101.688 25.2712 102.377 24.9055 102.377 24.0392C102.377 23.5386 102.185 23.1728 99.679 22.9226C97.5936 22.7108 96.2926 22.2488 96.2926 20.5739C96.2926 19.0146 97.5936 18.0905 99.7746 18.0905C102.224 18.0905 103.429 18.9376 103.582 20.7857C103.582 20.8434 103.563 20.9012 103.525 20.9589C103.486 20.9974 103.429 21.036 103.372 21.036H102.358C102.262 21.036 102.166 20.9589 102.147 20.8627C101.917 19.8039 101.324 19.4573 99.7555 19.4573C97.9953 19.4573 97.7849 20.0734 97.7849 20.5354C97.7849 21.0937 98.0336 21.267 100.406 21.575C102.759 21.883 103.869 22.3258 103.869 23.9814C103.869 25.6755 102.472 26.6381 100.062 26.6381Z" fill="#5FA04E"/>
<path d="M111.083 17.3205C111.083 18.129 110.413 18.8028 109.609 18.8028C108.806 18.8028 108.136 18.1483 108.136 17.3205C108.136 16.4734 108.825 15.8381 109.609 15.8381C110.394 15.8381 111.083 16.4927 111.083 17.3205ZM108.366 17.3205C108.366 18.0135 108.921 18.5718 109.59 18.5718C110.279 18.5718 110.834 17.9943 110.834 17.3205C110.834 16.6274 110.279 16.0884 109.59 16.0884C108.94 16.0884 108.366 16.6274 108.366 17.3205ZM109.055 16.4927H109.629C109.82 16.4927 110.203 16.4927 110.203 16.9354C110.203 17.2435 110.011 17.3012 109.896 17.3397C110.126 17.359 110.145 17.513 110.164 17.7247C110.183 17.8595 110.203 18.0905 110.241 18.1675H109.896C109.896 18.0905 109.839 17.667 109.839 17.6477C109.82 17.5515 109.782 17.513 109.667 17.513H109.38V18.1868H109.055V16.4927ZM109.361 17.2242H109.609C109.82 17.2242 109.858 17.0702 109.858 16.9932C109.858 16.7622 109.705 16.7622 109.609 16.7622H109.342V17.2242H109.361Z" fill="#5FA04E"/>
<path fill-rule="evenodd" clip-rule="evenodd" d="M18.1565 17.4417C18.1565 17.0952 17.9652 16.7679 17.6591 16.5946L9.56614 11.8781C9.43221 11.8011 9.27915 11.7626 9.12609 11.7433C9.10696 11.7433 9.04956 11.7433 9.04956 11.7433C8.89651 11.7433 8.74345 11.8011 8.60952 11.8781L0.497439 16.5754C0.191323 16.7486 0 17.0759 0 17.4417L0.0191323 30.0705C0.0191323 30.2438 0.114794 30.4171 0.267852 30.4941C0.42091 30.5903 0.612233 30.5903 0.746159 30.4941L5.56749 27.7219C5.87361 27.5486 6.06493 27.2214 6.06493 26.8748V20.9647C6.06493 20.6182 6.25625 20.2909 6.56237 20.1176L8.60952 18.924C8.76258 18.8278 8.93477 18.7893 9.10696 18.7893C9.27915 18.7893 9.45134 18.8278 9.58527 18.924L11.6324 20.1176C11.9385 20.2909 12.1299 20.6182 12.1299 20.9647V26.8748C12.1299 27.2214 12.3212 27.5486 12.6273 27.7219L17.4104 30.4941C17.5634 30.5903 17.7547 30.5903 17.9078 30.4941C18.0609 30.4171 18.1565 30.2438 18.1565 30.0705V17.4417Z" fill="white"/>
<path fill-rule="evenodd" clip-rule="evenodd" d="M57.1481 0.0577539C56.9951 -0.0192513 56.8037 -0.0192513 56.6698 0.0577539C56.5168 0.15401 56.4211 0.308021 56.4211 0.481283V12.9946C56.4211 13.1101 56.3637 13.2256 56.2489 13.3027C56.1341 13.3604 56.0193 13.3604 55.9045 13.3027L53.8765 12.1283C53.5704 11.9551 53.2069 11.9551 52.9008 12.1283L44.7887 16.8449C44.4826 17.0182 44.2912 17.3454 44.2912 17.6919V27.1058C44.2912 27.4524 44.4826 27.7796 44.7887 27.9529L52.9008 32.6695C53.2069 32.8427 53.5704 32.8427 53.8765 32.6695L61.9886 27.9529C62.2947 27.7796 62.486 27.4524 62.486 27.1058V3.6385C62.486 3.27272 62.2947 2.94545 61.9886 2.77219L57.1481 0.0577539ZM56.402 24.0064C56.402 24.1026 56.3637 24.1796 56.2872 24.2181L53.513 25.8353C53.4365 25.8738 53.3408 25.8738 53.2643 25.8353L50.4901 24.2181C50.4136 24.1796 50.3753 24.0834 50.3753 24.0064V20.7722C50.3753 20.6759 50.4136 20.5989 50.4901 20.5604L53.2643 18.9433C53.3408 18.9048 53.4365 18.9048 53.513 18.9433L56.2872 20.5604C56.3637 20.5989 56.402 20.6952 56.402 20.7722V24.0064Z" fill="white"/>
<path fill-rule="evenodd" clip-rule="evenodd" d="M84.1431 20.6952C84.4492 20.5219 84.6214 20.1946 84.6214 19.8481V17.5572C84.6214 17.2107 84.4301 16.8834 84.1431 16.7101L76.0884 12.0128C75.7823 11.8396 75.4188 11.8396 75.1127 12.0128L67.0006 16.7294C66.6945 16.9027 66.5031 17.2299 66.5031 17.5765V26.9903C66.5031 27.3369 66.6945 27.6641 67.0006 27.8374L75.0553 32.4577C75.3614 32.631 75.7249 32.631 76.0119 32.4577L80.8906 29.724C81.0437 29.647 81.1393 29.4738 81.1393 29.3005C81.1393 29.1272 81.0437 28.954 80.8906 28.877L72.7403 24.1604C72.5872 24.0641 72.4915 23.9101 72.4915 23.7369V20.7914C72.4915 20.6182 72.5872 20.4449 72.7403 20.3679L75.2849 18.9048C75.4379 18.8085 75.6292 18.8085 75.7823 18.9048L78.3269 20.3679C78.48 20.4641 78.5756 20.6182 78.5756 20.7914V23.1016C78.5756 23.2748 78.6713 23.4481 78.8243 23.5251C78.9774 23.6214 79.1687 23.6214 79.3218 23.5251L84.1431 20.6952Z" fill="white"/>
<path fill-rule="evenodd" clip-rule="evenodd" d="M75.4763 20.2524C75.5337 20.2139 75.6103 20.2139 75.6677 20.2524L77.2174 21.1572C77.2748 21.1957 77.313 21.2534 77.313 21.3304V23.1401C77.313 23.2171 77.2748 23.2748 77.2174 23.3133L75.6677 24.2181C75.6103 24.2566 75.5337 24.2566 75.4763 24.2181L73.9266 23.3133C73.8692 23.2748 73.831 23.2171 73.831 23.1401V21.3304C73.831 21.2534 73.8692 21.1957 73.9266 21.1572L75.4763 20.2524Z" fill="#5FA04E"/>
<path d="M31.7207 12.0513C31.4146 11.8781 31.0511 11.8781 30.7449 12.0513L22.6903 16.7294C22.3841 16.9027 22.2119 17.2299 22.2119 17.5765V26.9518C22.2119 27.2984 22.4033 27.6256 22.6903 27.7989L30.7449 32.477C31.0511 32.6502 31.4146 32.6502 31.7207 32.477L39.7754 27.7989C40.0815 27.6256 40.2537 27.2984 40.2537 26.9518V17.5765C40.2537 17.2299 40.0624 16.9027 39.7754 16.7294L31.7207 12.0513Z" fill="url(#paint0_linear_8903_7386)"/>
<path d="M39.7945 16.7294L31.7016 12.0513C31.6251 12.0128 31.5294 11.9743 31.4529 11.955L22.3842 27.5678C22.4607 27.6641 22.5564 27.7411 22.652 27.7989L30.745 32.4769C30.9746 32.6117 31.2424 32.6502 31.4911 32.5732L40.005 16.9026C39.9476 16.8256 39.8711 16.7679 39.7945 16.7294Z" fill="url(#paint1_linear_8903_7386)"/>
<path d="M30.4774 10.338L30.3626 10.3957H30.5157L30.4774 10.338Z" fill="url(#paint2_linear_8903_7386)"/>
<path d="M39.7947 27.7989C40.0243 27.6641 40.1965 27.4331 40.2731 27.1828L31.4148 11.9358C31.1852 11.8973 30.9365 11.9166 30.726 12.0513L22.6905 16.7101L31.3574 32.6117C31.4722 32.5925 31.6061 32.554 31.7209 32.4962L39.7947 27.7989Z" fill="url(#paint3_linear_8903_7386)"/>
<path d="M40.5597 27.6449L40.5023 27.5486V27.6834L40.5597 27.6449Z" fill="url(#paint4_linear_8903_7386)"/>
<path d="M39.7951 27.7989L31.7213 32.4769C31.6065 32.5347 31.4917 32.5732 31.3578 32.5925L31.5108 32.8812L40.4647 27.6641V27.5486L40.2351 27.1636C40.216 27.4331 40.0438 27.6641 39.7951 27.7989Z" fill="url(#paint5_linear_8903_7386)"/>
<path d="M39.7951 27.7989L31.7213 32.4769C31.6065 32.5347 31.4917 32.5732 31.3578 32.5925L31.5108 32.8812L40.4647 27.6641V27.5486L40.2351 27.1636C40.216 27.4331 40.0438 27.6641 39.7951 27.7989Z" fill="url(#paint6_linear_8903_7386)"/>
</g>
<defs>
<linearGradient id="paint0_linear_8903_7386" x1="34.5132" y1="15.5353" x2="27.1574" y2="30.4484" gradientUnits="userSpaceOnUse">
<stop stop-color="#3F873F"/>
<stop offset="0.3296" stop-color="#3F8B3D"/>
<stop offset="0.6367" stop-color="#3E9638"/>
<stop offset="0.9341" stop-color="#3DA92E"/>
<stop offset="1" stop-color="#3DAE2B"/>
</linearGradient>
<linearGradient id="paint1_linear_8903_7386" x1="30.0087" y1="23.3588" x2="50.5328" y2="8.28837" gradientUnits="userSpaceOnUse">
<stop offset="0.1376" stop-color="#3F873F"/>
<stop offset="0.4016" stop-color="#52A044"/>
<stop offset="0.7129" stop-color="#64B749"/>
<stop offset="0.9081" stop-color="#6ABF4B"/>
</linearGradient>
<linearGradient id="paint2_linear_8903_7386" x1="21.9173" y1="10.3606" x2="40.5547" y2="10.3606" gradientUnits="userSpaceOnUse">
<stop offset="0.0919165" stop-color="#6ABF4B"/>
<stop offset="0.2871" stop-color="#64B749"/>
<stop offset="0.5984" stop-color="#52A044"/>
<stop offset="0.8624" stop-color="#3F873F"/>
</linearGradient>
<linearGradient id="paint3_linear_8903_7386" x1="21.9169" y1="22.2612" x2="40.555" y2="22.2612" gradientUnits="userSpaceOnUse">
<stop offset="0.0919165" stop-color="#6ABF4B"/>
<stop offset="0.2871" stop-color="#64B749"/>
<stop offset="0.5984" stop-color="#52A044"/>
<stop offset="0.8624" stop-color="#3F873F"/>
</linearGradient>
<linearGradient id="paint4_linear_8903_7386" x1="21.9156" y1="27.6151" x2="40.5547" y2="27.6151" gradientUnits="userSpaceOnUse">
<stop offset="0.0919165" stop-color="#6ABF4B"/>
<stop offset="0.2871" stop-color="#64B749"/>
<stop offset="0.5984" stop-color="#52A044"/>
<stop offset="0.8624" stop-color="#3F873F"/>
</linearGradient>
<linearGradient id="paint5_linear_8903_7386" x1="21.9172" y1="30.0349" x2="40.5553" y2="30.0349" gradientUnits="userSpaceOnUse">
<stop offset="0.0919165" stop-color="#6ABF4B"/>
<stop offset="0.2871" stop-color="#64B749"/>
<stop offset="0.5984" stop-color="#52A044"/>
<stop offset="0.8624" stop-color="#3F873F"/>
</linearGradient>
<linearGradient id="paint6_linear_8903_7386" x1="43.2707" y1="15.0922" x2="31.6605" y2="38.6305" gradientUnits="userSpaceOnUse">
<stop stop-color="#3F873F"/>
<stop offset="0.3296" stop-color="#3F8B3D"/>
<stop offset="0.6367" stop-color="#3E9638"/>
<stop offset="0.9341" stop-color="#3DA92E"/>
<stop offset="1" stop-color="#3DAE2B"/>
</linearGradient>
<clipPath id="clip0_8903_7386">
<rect width="111" height="33" fill="white"/>
</clipPath>
</defs>
</svg>
